<svg version="1.1" id="Layer_1" xmlns="http://www.w3.org/2000/svg" xmlns:xlink="http://www.w3.org/1999/xlink" x="0px" y="0px"
	 width="100%" viewBox="0 0 450 450" enable-background="new 0 0 450 450" xml:space="preserve">
<path fill="#CF6227" opacity="1.000000" stroke="none" 
	d="
M1.000000,448.000000 
	C1.000000,299.071259 1.000000,150.142548 1.000000,1.000000 
	C150.024017,1.000000 299.048126,1.000000 448.536072,1.468657 
	C449.000275,56.242905 449.000732,110.548492 449.001007,164.854080 
	C449.001526,256.307404 449.002258,347.760742 449.001709,439.214050 
	C449.001678,447.203369 448.224152,447.972351 440.095184,447.997375 
	C435.264343,448.012238 430.425415,447.847076 425.607178,448.094849 
	C424.031097,448.175903 422.508820,449.303223 420.497192,449.961182 
	C284.701355,449.961700 149.370285,449.953064 13.873134,449.594299 
	C9.471376,448.829468 5.235688,448.414734 1.000000,448.000000 
M214.822586,63.628536 
	C213.016693,59.575287 207.630951,56.336166 203.274124,56.925991 
	C199.451645,55.131371 195.629150,53.336754 191.291550,51.251945 
	C190.930496,51.095287 190.569443,50.938629 189.883575,50.195282 
	C176.646088,42.505451 162.067062,39.543545 147.068069,38.167294 
	C130.191849,36.618797 113.934128,40.634682 97.810555,44.574047 
	C92.615929,45.843220 86.456551,48.096283 85.048378,55.472080 
	C85.048378,55.472080 84.842567,55.824047 84.213257,56.041161 
	C79.428223,62.780918 74.190994,69.259377 70.073486,76.384872 
	C68.348068,79.370758 67.977463,83.967514 68.786209,87.410156 
	C70.276115,93.752434 69.635971,99.120079 65.483795,104.115906 
	C64.319458,105.516815 62.901878,106.970665 62.432789,108.634842 
	C61.200169,113.007759 58.804325,117.893074 59.750061,121.893913 
	C63.794609,139.003998 68.974205,155.842987 73.490463,172.847092 
	C74.250252,175.707748 73.781715,178.894653 73.341972,182.321503 
	C70.160065,187.357559 66.348076,192.107101 63.905193,197.479218 
	C53.274059,220.857971 55.705460,245.518478 59.244415,269.648773 
	C61.287434,283.579041 66.960358,297.086487 71.877129,310.461639 
	C80.577057,334.128143 95.405403,353.146729 117.390617,366.805725 
	C125.927742,371.199371 134.464874,375.593018 143.030563,380.615753 
	C143.785004,380.938812 144.539444,381.261871 146.085938,381.600739 
	C147.398026,381.753479 148.710098,381.906219 150.242508,382.740662 
	C151.802429,383.493347 153.290710,384.610809 154.935028,384.933746 
	C161.088409,386.142334 167.282761,387.155792 173.480865,388.119385 
	C180.142700,389.155029 186.813019,390.162720 193.506744,390.952881 
	C195.995743,391.246643 198.561554,390.889648 201.912262,390.806824 
	C203.277542,390.869812 204.642822,390.932831 206.253174,391.664856 
	C208.198669,391.722504 210.144180,391.780121 212.956573,391.806946 
	C214.980194,391.908417 217.003799,392.009888 219.235901,392.714142 
	C220.514542,392.760925 221.793167,392.807678 223.719528,392.836060 
	C224.149338,392.876434 224.579147,392.916809 225.129715,393.475281 
	C225.749664,393.310425 226.369629,393.145569 227.911102,392.921051 
	C231.610535,392.950531 235.309967,392.980042 239.417953,393.610840 
	C242.859741,394.385803 246.298691,395.797638 249.743881,395.813049 
	C259.070496,395.854767 268.421387,395.580536 277.717651,394.855042 
	C281.612061,394.551117 286.499268,395.953156 289.727631,390.928284 
	C290.465240,390.917908 291.202881,390.907562 292.547241,391.387817 
	C292.848663,391.518341 293.186066,391.812744 293.446320,391.755646 
	C301.252075,390.042389 309.061218,388.339600 316.826324,386.455750 
	C317.376007,386.322388 317.592712,384.816284 318.372131,383.540009 
	C318.916504,383.362549 319.460846,383.185089 320.461823,383.481781 
	C321.967590,383.559174 323.584656,384.035187 324.961426,383.650757 
	C335.740601,380.640747 342.745209,371.840881 351.097778,365.375031 
	C355.085754,362.287842 359.785950,356.854431 359.665558,349.799072 
	C360.778351,348.024414 362.466217,346.380463 362.904327,344.452484 
	C364.802460,336.099976 366.771515,327.722504 367.898682,319.245575 
	C369.567749,306.693359 372.548340,303.947296 384.987854,305.232117 
	C385.479309,305.282867 386.126221,305.668152 386.419830,305.473602 
	C387.641357,304.664215 388.755249,303.692261 390.141449,302.323181 
	C390.411285,301.883270 390.681122,301.443329 391.701691,300.826569 
	C395.460693,297.429626 394.825745,293.784943 392.152618,289.260559 
	C392.007935,287.981140 391.863220,286.701752 391.736176,284.656128 
	C390.414764,282.718750 389.465912,280.290436 387.694427,278.946198 
	C384.005554,276.147003 379.727539,274.128906 376.005219,271.367096 
	C374.310913,270.109985 372.693024,268.006958 372.219757,266.008362 
	C371.350220,262.336639 371.658966,258.398438 370.930786,254.678162 
	C369.362366,246.665604 367.450714,238.720139 365.663757,230.750763 
	C365.593750,230.438583 365.340881,230.171753 365.206543,229.868988 
	C362.329803,223.386322 359.581146,216.842407 356.516693,210.449860 
	C355.473206,208.273056 353.834320,206.279480 352.113922,204.554840 
	C349.899536,202.335007 347.432251,200.328598 344.891571,198.480911 
	C339.305725,194.418610 334.014496,189.645905 327.858063,186.743225 
	C318.044678,182.116348 307.714752,178.513855 297.431458,174.977890 
	C289.469086,172.239990 281.272247,170.160614 273.127502,167.983398 
	C265.296295,165.889969 263.875488,164.339218 262.957794,156.120071 
	C262.794708,154.659424 262.296417,153.231369 261.902405,151.802200 
	C260.214355,145.679245 258.667389,139.508987 256.689087,133.480652 
	C256.224762,132.065750 254.279297,131.136887 252.896225,129.372696 
	C252.838455,128.961914 252.780685,128.551117 253.257950,127.554092 
	C253.405380,126.282799 253.984314,124.875183 253.632507,123.761604 
	C250.578278,114.094086 247.526886,104.416809 244.026688,94.907295 
	C243.405731,93.220238 240.710266,92.296738 238.807953,91.136749 
	C238.807953,91.136749 238.608994,91.168968 238.739609,90.562500 
	C238.763199,90.153847 238.786804,89.745186 238.887955,88.536125 
	C238.255585,83.719719 236.161377,80.099228 230.917816,78.399239 
	C230.612885,77.932266 230.307953,77.465294 229.962936,76.271912 
	C227.661148,70.277802 222.802307,67.520576 216.539856,65.678879 
	C215.980453,65.246338 215.421066,64.813789 214.822586,63.628536 
z"/>
<path fill="#C46536" opacity="1.000000" stroke="none" 
	d="
M420.961914,449.952026 
	C422.508820,449.303223 424.031097,448.175903 425.607178,448.094849 
	C430.425415,447.847076 435.264343,448.012238 440.095184,447.997375 
	C448.224152,447.972351 449.001678,447.203369 449.001709,439.214050 
	C449.002258,347.760742 449.001526,256.307404 449.001007,164.854080 
	C449.000732,110.548492 449.000275,56.242905 448.999939,1.468658 
	C449.666656,1.332364 450.783783,1.545964 450.909058,2.021068 
	C451.196381,3.110844 451.000000,4.328156 451.000000,5.493690 
	C451.000000,153.350021 451.000000,301.206360 450.531372,449.524963 
	C440.362457,449.975494 430.662170,449.963776 420.961914,449.952026 
z"/>
<path fill="#CF794A" opacity="1.000000" stroke="none" 
	d="
M420.497192,449.961182 
	C430.662170,449.963776 440.362457,449.975494 450.531372,449.993591 
	C449.668488,450.333282 448.337372,450.956146 447.005463,450.957886 
	C407.549255,451.009766 368.093018,451.000000 328.636749,451.000000 
	C219.424500,451.000000 110.212250,451.000000 1.463335,450.498810 
	C5.964181,449.979889 10.001692,449.962158 14.039203,449.944427 
	C149.370285,449.953064 284.701355,449.961700 420.497192,449.961182 
z"/>
<path fill="#C46536" opacity="1.000000" stroke="none" 
	d="
M13.873134,449.594299 
	C10.001692,449.962158 5.964181,449.979889 1.463335,449.998810 
	C1.000000,449.555542 1.000000,449.111115 1.000000,448.333313 
	C5.235688,448.414734 9.471376,448.829468 13.873134,449.594299 
z"/>
<path fill="#EABF5C" opacity="1.000000" stroke="none" 
	d="
M116.995468,366.589935 
	C95.405403,353.146729 80.577057,334.128143 71.877129,310.461639 
	C66.960358,297.086487 61.287434,283.579041 59.244415,269.648773 
	C55.705460,245.518478 53.274059,220.857971 63.905193,197.479218 
	C66.348076,192.107101 70.160065,187.357559 74.007652,182.143127 
	C75.726257,181.965958 76.779190,181.967194 78.083717,182.231216 
	C79.895187,186.145569 81.489159,189.782990 83.008446,193.451355 
	C87.356644,203.950165 93.421936,213.015259 103.231476,219.330841 
	C106.482193,221.423721 109.102463,224.495819 112.067261,227.524780 
	C110.975441,236.514679 109.678513,245.083237 108.706947,253.688507 
	C105.710190,280.230927 103.724350,306.863159 108.200249,333.374695 
	C110.098915,344.620850 114.002884,355.528473 116.995468,366.589935 
z"/>
<path fill="#EACC9B" opacity="1.000000" stroke="none" 
	d="
M190.208389,50.781967 
	C190.569443,50.938629 190.930496,51.095287 191.704239,51.664024 
	C196.015167,54.093193 199.913391,56.110279 203.835083,58.131737 
	C203.858536,58.136108 203.886963,58.174412 203.982483,58.498409 
	C206.010193,59.918213 207.942383,61.014019 209.911285,62.096855 
	C209.947998,62.083885 209.900909,62.145908 209.981964,62.471855 
	C212.650543,64.577477 215.238037,66.357155 218.006317,68.297592 
	C218.435089,68.664795 218.688309,68.864578 219.015564,69.389709 
	C220.765274,71.101196 222.446198,72.480690 224.070862,73.920364 
	C224.014572,73.980553 224.139801,73.873657 224.157028,74.222351 
	C227.048141,77.419617 229.922012,80.268196 233.047760,83.328171 
	C234.551163,85.338623 235.802704,87.137688 237.081329,89.230209 
	C237.608612,90.072098 238.108795,90.620537 238.608994,91.168976 
	C238.608994,91.168968 238.807953,91.136749 238.926819,91.404564 
	C239.494720,92.667717 239.943756,93.663055 240.347351,94.977142 
	C240.804001,95.895157 241.306046,96.494423 241.916336,97.352364 
	C242.138397,97.966881 242.252243,98.322739 242.328888,99.064095 
	C243.822769,102.654785 245.353836,105.859978 246.971558,109.335777 
	C247.148575,109.974091 247.238922,110.341805 247.258331,111.120514 
	C248.634537,116.417397 250.081680,121.303284 251.587677,126.494568 
	C251.688889,127.212303 251.731262,127.624626 251.594055,128.169998 
	C251.208496,128.520828 251.028412,128.758255 250.545303,128.934189 
	C243.967194,121.491096 237.940369,113.923027 231.381851,106.847816 
	C227.699341,102.875191 223.453598,99.225761 218.901901,96.302109 
	C211.147064,91.321037 203.125534,86.677658 194.883072,82.558746 
	C188.729538,79.483727 182.153641,77.132484 175.574539,75.068733 
	C170.255768,73.400314 164.575607,72.915596 159.190109,71.421494 
	C148.435043,68.437691 137.542175,68.275238 126.639091,69.678795 
	C117.772690,70.820175 108.962006,72.493591 100.191422,74.253983 
	C90.094810,76.280510 80.751511,79.562302 76.281487,90.271233 
	C75.740463,91.567390 73.418869,92.120308 71.706215,92.701584 
	C68.773781,84.875366 70.059784,78.225914 74.917328,71.786194 
	C78.675117,66.804443 81.566193,61.168926 84.842567,55.824047 
	C84.842567,55.824047 85.048378,55.472080 85.475845,55.207375 
	C90.310410,49.655499 95.843887,46.309902 102.659317,45.095856 
	C108.701401,44.019569 114.755310,42.985668 120.757301,41.712860 
	C137.395035,38.184593 153.785873,39.644524 169.977463,44.176861 
	C176.802612,46.087357 183.469543,48.563145 190.208389,50.781967 
z"/>
<path fill="#633E1F" opacity="1.000000" stroke="none" 
	d="
M291.940491,390.897156 
	C291.202881,390.907562 290.465240,390.917908 289.065002,390.920471 
	C287.798615,390.929504 287.194824,390.946320 286.563965,390.545624 
	C280.960571,371.706024 277.643494,352.829407 278.186371,333.628082 
	C279.040527,303.419708 280.858429,273.238586 282.584534,242.873734 
	C283.096771,240.702423 283.292725,238.703308 283.505798,236.398911 
	C283.566071,235.688309 283.609222,235.282974 283.926422,235.051437 
	C284.716034,236.142075 285.231628,237.058945 285.774231,238.417419 
	C285.775085,240.923508 285.748932,242.987991 285.515259,245.349686 
	C285.594116,252.405197 287.259888,258.573242 292.877319,263.073120 
	C292.980896,263.051544 293.173126,262.963104 293.191467,263.285278 
	C294.431915,264.764771 295.653992,265.922119 296.896851,267.080841 
	C296.917633,267.082184 296.920166,267.123749 296.993103,267.445007 
	C301.067261,270.011475 305.068481,272.256653 309.283508,274.660431 
	C309.661194,274.887146 309.825073,274.955261 310.003815,275.302368 
	C310.331573,275.744476 310.644501,275.907593 311.012878,276.289978 
	C311.068390,276.509308 311.240814,276.927643 311.115326,277.323181 
	C311.018372,278.816650 311.046906,279.914551 310.998505,281.336456 
	C310.937164,282.102600 310.952728,282.544739 310.780884,283.349487 
	C309.474945,303.411438 313.167938,322.675934 315.823853,342.402802 
	C315.903107,343.510681 316.023376,344.246246 316.056702,345.388428 
	C316.153412,346.873779 316.337067,347.952545 316.442047,349.401611 
	C316.569733,351.514618 316.776062,353.257324 316.882141,355.460083 
	C316.406250,365.251831 316.030670,374.583527 315.368134,384.110474 
	C313.744568,384.865967 312.451202,385.587921 311.063965,385.958679 
	C304.703857,387.658569 298.317444,389.260254 291.940491,390.897156 
z"/>
<path fill="#734B1B" opacity="1.000000" stroke="none" 
	d="
M117.193039,366.697815 
	C114.002884,355.528473 110.098915,344.620850 108.200249,333.374695 
	C103.724350,306.863159 105.710190,280.230927 108.706947,253.688507 
	C109.678513,245.083237 110.975441,236.514679 112.448730,227.447998 
	C115.930984,228.602844 119.088051,230.239044 121.881927,231.870270 
	C117.414482,230.624496 115.012581,232.467957 114.164795,236.324448 
	C113.241501,240.524368 112.496033,244.783768 112.014404,249.055710 
	C111.272011,255.640564 110.734108,262.252045 110.264458,268.863281 
	C109.453529,280.278595 108.383682,291.695099 108.162895,303.125397 
	C108.032509,309.875336 108.921967,316.722076 110.070442,323.401917 
	C111.889412,333.981598 114.124977,344.500763 116.547318,354.961426 
	C117.945717,361.000275 120.283356,366.510651 126.736275,369.355957 
	C133.765442,372.455383 140.208298,377.041321 148.818680,377.382874 
	C148.624741,375.767761 148.506195,374.519073 148.321152,373.280334 
	C146.564926,361.522766 144.504883,349.801422 143.113525,338.001099 
	C141.656296,325.641907 140.579254,313.223267 139.814545,300.801178 
	C139.074646,288.782257 138.702057,276.727112 138.640152,264.685425 
	C138.605530,257.948822 139.783371,251.209671 139.846802,244.466339 
	C139.863022,242.742966 138.058945,240.550003 136.491776,239.366562 
	C133.921036,237.425323 130.859894,236.133514 128.351532,234.585205 
	C133.938751,237.036484 139.179993,239.470367 144.240524,242.330612 
	C143.622620,247.720383 143.111969,252.678589 142.760284,257.648041 
	C140.625595,287.810883 142.936142,317.766235 147.295380,347.592255 
	C148.971985,359.063690 151.253067,370.446777 152.853668,381.891571 
	C151.639816,381.961670 150.830994,382.010315 150.022186,382.058960 
	C148.710098,381.906219 147.398026,381.753479 145.552490,381.333374 
	C144.346695,380.706207 143.674347,380.346436 143.001999,379.986664 
	C134.464874,375.593018 125.927742,371.199371 117.193039,366.697815 
z"/>
<path fill="#7B511D" opacity="1.000000" stroke="none" 
	d="
M225.008957,392.957184 
	C224.579147,392.916809 224.149338,392.876434 223.102509,392.652313 
	C221.332809,392.349518 220.180115,392.230438 219.027420,392.111359 
	C217.003799,392.009888 214.980194,391.908417 212.194031,391.623932 
	C209.623688,391.292542 207.815887,391.144196 206.008102,390.995850 
	C204.642822,390.932831 203.277542,390.869812 201.189484,390.614929 
	C197.361923,389.588684 194.257172,388.754333 191.098129,387.545532 
	C190.588242,385.582733 190.097366,384.003601 189.682297,382.404785 
	C183.586319,358.923004 183.302383,334.988190 184.912781,311.047058 
	C186.227615,291.499939 188.624512,272.025574 190.949860,252.360733 
	C193.507339,252.246506 195.660614,252.397095 197.805191,252.316238 
	C207.543030,251.949081 217.278412,251.516693 227.107849,251.488693 
	C227.275726,253.688431 227.582489,255.532227 227.389862,257.322296 
	C225.004059,279.494049 228.651352,301.099396 233.052124,322.704315 
	C237.702026,345.532074 242.385544,368.405426 240.206390,391.968475 
	C239.646545,392.322327 239.327972,392.665924 239.009399,393.009521 
	C235.309967,392.980042 231.610535,392.950531 227.120987,392.921234 
	C225.890228,392.933319 225.449600,392.945251 225.008957,392.957184 
M234.745605,348.716095 
	C230.104401,317.265961 220.846436,286.342133 225.320770,253.994614 
	C215.976471,253.994614 208.002991,253.974716 200.029648,254.001221 
	C194.167648,254.020706 191.626740,256.309326 191.082336,262.276520 
	C190.795700,265.418488 190.963486,268.600159 190.723877,271.748505 
	C189.503662,287.781525 187.502243,303.794373 187.163040,319.843658 
	C186.848068,334.745636 187.844620,349.722931 189.146255,364.589752 
	C189.725128,371.201569 192.287643,377.684174 194.390289,384.080627 
	C194.811523,385.362061 197.157318,386.635956 198.737732,386.810852 
	C209.921112,388.048401 221.141388,388.947754 232.338806,390.065887 
	C236.638184,390.495209 238.300613,388.948273 238.129395,384.471649 
	C237.681778,372.767853 239.395203,360.888641 234.745605,348.716095 
z"/>
<path fill="#C56C2A" opacity="1.000000" stroke="none" 
	d="
M253.015244,129.984421 
	C254.279297,131.136887 256.224762,132.065750 256.689087,133.480652 
	C258.667389,139.508987 260.214355,145.679245 261.902405,151.802200 
	C262.296417,153.231369 262.794708,154.659424 262.957794,156.120071 
	C263.875488,164.339218 265.296295,165.889969 273.127502,167.983398 
	C281.272247,170.160614 289.469086,172.239990 297.431458,174.977890 
	C307.714752,178.513855 318.044678,182.116348 327.858063,186.743225 
	C334.014496,189.645905 339.305725,194.418610 344.891571,198.480911 
	C347.432251,200.328598 349.899536,202.335007 352.113922,204.554840 
	C353.834320,206.279480 355.473206,208.273056 356.516693,210.449860 
	C359.581146,216.842407 362.329803,223.386322 365.206543,229.868988 
	C365.340881,230.171753 365.593750,230.438583 365.663757,230.750763 
	C367.450714,238.720139 369.362366,246.665604 370.930786,254.678162 
	C371.658966,258.398438 371.350220,262.336639 372.219757,266.008362 
	C372.693024,268.006958 374.310913,270.109985 376.005219,271.367096 
	C379.727539,274.128906 384.005554,276.147003 387.694427,278.946198 
	C389.465912,280.290436 390.414764,282.718750 391.451599,284.848450 
	C383.949097,280.715149 376.731171,276.389496 369.425476,271.604279 
	C368.958252,265.839783 368.867828,260.495270 368.147644,255.237015 
	C365.475983,235.730850 359.332550,217.614548 345.174072,203.250885 
	C338.892487,196.878235 332.011475,191.029007 322.786499,188.555542 
	C322.257782,187.755600 321.920502,187.024063 321.385742,186.826172 
	C311.015808,182.988480 300.630859,179.190384 290.214783,175.480240 
	C289.573730,175.251907 288.649414,175.818909 287.571808,175.811646 
	C279.847107,173.334961 272.407501,171.062515 264.727966,168.546799 
	C263.276459,165.205383 262.064819,162.107254 260.811951,158.714859 
	C260.684296,158.034058 260.597931,157.647491 260.577850,156.870300 
	C258.839569,151.589371 257.034973,146.699081 255.145203,141.535461 
	C254.940964,140.899445 254.821915,140.536774 254.734055,139.782623 
	C254.181931,136.255554 253.598587,133.119995 253.015244,129.984421 
z"/>
<path fill="#E4A66B" opacity="1.000000" stroke="none" 
	d="
M84.527908,55.932602 
	C81.566193,61.168926 78.675117,66.804443 74.917328,71.786194 
	C70.059784,78.225914 68.773781,84.875366 71.716187,93.109711 
	C70.678764,96.969963 69.455154,100.122871 68.142456,103.238235 
	C65.867393,108.637543 62.799126,113.843559 61.504368,119.462631 
	C60.716213,122.883110 62.333427,127.009216 63.377300,130.673920 
	C67.612801,145.543335 72.065956,160.350616 76.380867,175.197662 
	C77.023369,177.408432 77.356079,179.709259 77.832115,181.968414 
	C76.779190,181.967194 75.726257,181.965958 74.277023,181.947784 
	C73.781715,178.894653 74.250252,175.707748 73.490463,172.847092 
	C68.974205,155.842987 63.794609,139.003998 59.750061,121.893913 
	C58.804325,117.893074 61.200169,113.007759 62.432789,108.634842 
	C62.901878,106.970665 64.319458,105.516815 65.483795,104.115906 
	C69.635971,99.120079 70.276115,93.752434 68.786209,87.410156 
	C67.977463,83.967514 68.348068,79.370758 70.073486,76.384872 
	C74.190994,69.259377 79.428223,62.780918 84.527908,55.932602 
z"/>
<path fill="#E4A66B" opacity="1.000000" stroke="none" 
	d="
M190.045990,50.488625 
	C183.469543,48.563145 176.802612,46.087357 169.977463,44.176861 
	C153.785873,39.644524 137.395035,38.184593 120.757301,41.712860 
	C114.755310,42.985668 108.701401,44.019569 102.659317,45.095856 
	C95.843887,46.309902 90.310410,49.655499 85.593613,55.040977 
	C86.456551,48.096283 92.615929,45.843220 97.810555,44.574047 
	C113.934128,40.634682 130.191849,36.618797 147.068069,38.167294 
	C162.067062,39.543545 176.646088,42.505451 190.045990,50.488625 
z"/>
<path fill="#C56C2A" opacity="1.000000" stroke="none" 
	d="
M389.908630,302.779968 
	C388.755249,303.692261 387.641357,304.664215 386.419830,305.473602 
	C386.126221,305.668152 385.479309,305.282867 384.987854,305.232117 
	C372.548340,303.947296 369.567749,306.693359 367.898682,319.245575 
	C366.771515,327.722504 364.802460,336.099976 362.904327,344.452484 
	C362.466217,346.380463 360.778351,348.024414 359.058472,349.900299 
	C358.084808,350.003754 357.718262,350.005981 357.357605,349.658783 
	C362.930237,338.336792 364.505951,326.377075 366.104156,314.402954 
	C366.666107,310.192566 367.650269,306.038544 368.867004,301.850098 
	C376.164459,302.154266 383.036530,302.467133 389.908630,302.779968 
z"/>
<path fill="#794016" opacity="1.000000" stroke="none" 
	d="
M390.025024,302.551575 
	C383.036530,302.467133 376.164459,302.154266 368.792847,301.468811 
	C368.504822,299.077454 368.716309,297.058746 369.267853,295.131500 
	C373.656860,300.380280 379.539032,299.838165 385.028778,299.701324 
	C386.372864,299.667847 388.505646,297.118042 388.812988,295.454834 
	C390.281036,287.509705 389.227997,285.853271 381.808777,281.682770 
	C380.080780,280.711426 378.291840,279.690857 376.896698,278.320557 
	C374.544434,276.010162 372.329956,276.406097 369.785583,277.677246 
	C369.594116,275.583038 369.553680,273.823456 369.513245,272.063843 
	C376.731171,276.389496 383.949097,280.715149 391.442749,285.231567 
	C391.863220,286.701752 392.007935,287.981140 392.153687,290.072968 
	C391.753479,294.258057 391.352203,297.630737 390.950928,301.003418 
	C390.681122,301.443329 390.411285,301.883270 390.025024,302.551575 
z"/>
<path fill="#C86D27" opacity="1.000000" stroke="none" 
	d="
M357.351715,350.008179 
	C357.718262,350.005981 358.084808,350.003754 358.726288,350.000763 
	C359.785950,356.854431 355.085754,362.287842 351.097778,365.375031 
	C342.745209,371.840881 335.740601,380.640747 324.961426,383.650757 
	C323.584656,384.035187 321.967590,383.559174 320.248108,383.016235 
	C320.034393,382.550720 320.045929,382.093018 320.392670,381.998474 
	C336.642334,375.517822 349.028961,365.095398 357.351715,350.008179 
z"/>
<path fill="#C86D27" opacity="1.000000" stroke="none" 
	d="
M239.213684,393.310181 
	C239.327972,392.665924 239.646545,392.322327 240.598694,392.194153 
	C243.025742,392.597168 244.829636,393.015869 246.611008,392.935455 
	C259.940216,392.333466 273.264923,391.632843 286.591064,390.963104 
	C287.194824,390.946320 287.798615,390.929504 288.700012,390.977966 
	C286.499268,395.953156 281.612061,394.551117 277.717651,394.855042 
	C268.421387,395.580536 259.070496,395.854767 249.743881,395.813049 
	C246.298691,395.797638 242.859741,394.385803 239.213684,393.310181 
z"/>
<path fill="#C86D27" opacity="1.000000" stroke="none" 
	d="
M191.152405,387.920013 
	C194.257172,388.754333 197.361923,389.588684 200.779510,390.626190 
	C198.561554,390.889648 195.995743,391.246643 193.506744,390.952881 
	C186.813019,390.162720 180.142700,389.155029 173.480865,388.119385 
	C167.282761,387.155792 161.088409,386.142334 154.935028,384.933746 
	C153.290710,384.610809 151.802429,383.493347 150.132355,382.399780 
	C150.830994,382.010315 151.639816,381.961670 153.208771,382.018829 
	C166.363419,384.056427 178.757904,385.988220 191.152405,387.920013 
z"/>
<path fill="#C56C2A" opacity="1.000000" stroke="none" 
	d="
M242.366089,98.678596 
	C242.252243,98.322739 242.138397,97.966881 241.917358,97.051529 
	C241.337677,95.880814 240.865234,95.269600 240.392792,94.658386 
	C239.943756,93.663055 239.494720,92.667717 239.009216,91.346512 
	C240.710266,92.296738 243.405731,93.220238 244.026688,94.907295 
	C247.526886,104.416809 250.578278,114.094086 253.632507,123.761604 
	C253.984314,124.875183 253.405380,126.282799 252.755020,127.811501 
	C252.252090,128.068909 251.773636,128.036957 251.773636,128.036957 
	C251.731262,127.624626 251.688889,127.212303 251.648315,126.091797 
	C250.209839,120.492256 248.769562,115.600883 247.329285,110.709511 
	C247.238922,110.341805 247.148575,109.974091 247.002274,108.950424 
	C245.419571,105.089165 243.892822,101.883881 242.366089,98.678596 
z"/>
<path fill="#D8B05D" opacity="1.000000" stroke="none" 
	d="
M320.045929,382.093018 
	C320.045929,382.093018 320.034393,382.550720 320.019806,382.779175 
	C319.460846,383.185089 318.916504,383.362549 317.784180,383.745117 
	C316.682526,383.938538 316.168793,383.926880 315.655090,383.915222 
	C316.030670,374.583527 316.406250,365.251831 317.244202,355.610016 
	C318.130127,357.322876 318.793945,359.329468 318.933441,361.371857 
	C319.404572,368.272064 319.689697,375.184967 320.045929,382.093018 
z"/>
<path fill="#C86D27" opacity="1.000000" stroke="none" 
	d="
M315.368134,384.110474 
	C316.168793,383.926880 316.682526,383.938538 317.580261,383.949341 
	C317.592712,384.816284 317.376007,386.322388 316.826324,386.455750 
	C309.061218,388.339600 301.252075,390.042389 293.446320,391.755646 
	C293.186066,391.812744 292.848663,391.518341 292.243866,391.142487 
	C298.317444,389.260254 304.703857,387.658569 311.063965,385.958679 
	C312.451202,385.587921 313.744568,384.865967 315.368134,384.110474 
z"/>
<path fill="#C56C2A" opacity="1.000000" stroke="none" 
	d="
M218.946762,69.057716 
	C218.688309,68.864578 218.435089,68.664795 217.948730,68.013397 
	C217.461594,67.046669 217.212830,66.524902 216.964066,66.003128 
	C222.802307,67.520576 227.661148,70.277802 229.873688,76.742020 
	C229.784454,77.212128 229.566055,77.426140 229.287292,77.264282 
	C227.385620,76.026169 225.762711,74.949913 224.139801,73.873657 
	C224.139801,73.873657 224.014572,73.980553 223.993958,73.595573 
	C222.297806,71.826302 220.622284,70.442009 218.946762,69.057716 
z"/>
<path fill="#C56C2A" opacity="1.000000" stroke="none" 
	d="
M237.054245,88.936752 
	C235.802704,87.137688 234.551163,85.338623 233.033417,83.004662 
	C232.136581,81.351250 231.505981,80.232735 230.918274,79.073532 
	C230.961197,79.032845 231.045959,78.950348 231.045959,78.950348 
	C236.161377,80.099228 238.255585,83.719719 238.563446,88.843391 
	C237.844025,89.079361 237.449142,89.008057 237.054245,88.936752 
z"/>
<path fill="#C56C2A" opacity="1.000000" stroke="none" 
	d="
M203.947601,57.088051 
	C207.630951,56.336166 213.016693,59.575287 214.524750,63.865967 
	C212.784912,63.450897 211.342911,62.798401 209.900909,62.145908 
	C209.900909,62.145908 209.947998,62.083885 209.792053,61.784081 
	C207.719727,60.380985 205.803345,59.277699 203.886963,58.174412 
	C203.886963,58.174412 203.858536,58.136108 203.883469,57.873459 
	C203.921478,57.436558 203.934540,57.262302 203.947601,57.088051 
z"/>
<path fill="#E4A66B" opacity="1.000000" stroke="none" 
	d="
M203.610870,57.007019 
	C203.934540,57.262302 203.921478,57.436558 203.860016,57.869087 
	C199.913391,56.110279 196.015167,54.093193 191.961792,51.809120 
	C195.629150,53.336754 199.451645,55.131371 203.610870,57.007019 
z"/>
<path fill="#C56C2A" opacity="1.000000" stroke="none" 
	d="
M391.326294,300.914978 
	C391.352203,297.630737 391.753479,294.258057 392.232483,290.459778 
	C394.825745,293.784943 395.460693,297.429626 391.326294,300.914978 
z"/>
<path fill="#E4A66B" opacity="1.000000" stroke="none" 
	d="
M251.594055,128.169998 
	C251.773636,128.036957 252.252090,128.068909 252.487503,128.104614 
	C252.780685,128.551117 252.838455,128.961914 252.955734,129.678558 
	C253.598587,133.119995 254.181931,136.255554 254.434845,139.623871 
	C253.027679,136.242859 251.950943,132.629105 250.874222,129.015335 
	C251.028412,128.758255 251.208496,128.520828 251.594055,128.169998 
z"/>
<path fill="#E4A66B" opacity="1.000000" stroke="none" 
	d="
M209.981964,62.471855 
	C211.342911,62.798401 212.784912,63.450897 214.544296,64.242325 
	C215.421066,64.813789 215.980453,65.246338 216.751953,65.841003 
	C217.212830,66.524902 217.461594,67.046669 217.767944,67.852631 
	C215.238037,66.357155 212.650543,64.577477 209.981964,62.471855 
z"/>
<path fill="#C86D27" opacity="1.000000" stroke="none" 
	d="
M206.130646,391.330353 
	C207.815887,391.144196 209.623688,391.292542 211.760574,391.639343 
	C210.144180,391.780121 208.198669,391.722504 206.130646,391.330353 
z"/>
<path fill="#C86D27" opacity="1.000000" stroke="none" 
	d="
M219.131653,392.412750 
	C220.180115,392.230438 221.332809,392.349518 222.778656,392.661499 
	C221.793167,392.807678 220.514542,392.760925 219.131653,392.412750 
z"/>
<path fill="#C86D27" opacity="1.000000" stroke="none" 
	d="
M143.016281,380.301208 
	C143.674347,380.346436 144.346695,380.706207 145.156464,381.325470 
	C144.539444,381.261871 143.785004,380.938812 143.016281,380.301208 
z"/>
<path fill="#E4A66B" opacity="1.000000" stroke="none" 
	d="
M237.081329,89.230209 
	C237.449142,89.008057 237.844025,89.079361 238.524658,89.243591 
	C238.786804,89.745186 238.763199,90.153847 238.674301,90.865738 
	C238.108795,90.620537 237.608612,90.072098 237.081329,89.230209 
z"/>
<path fill="#C86D27" opacity="1.000000" stroke="none" 
	d="
M225.069336,393.216248 
	C225.449600,392.945251 225.890228,392.933319 226.660233,392.951050 
	C226.369629,393.145569 225.749664,393.310425 225.069336,393.216248 
z"/>
<path fill="#C56C2A" opacity="1.000000" stroke="none" 
	d="
M229.893738,77.105225 
	C230.307953,77.465294 230.612885,77.932266 230.981888,78.674789 
	C231.045959,78.950348 230.961197,79.032845 230.709396,78.901024 
	C230.160416,78.321518 229.863235,77.873825 229.566055,77.426140 
	C229.566055,77.426140 229.784454,77.212128 229.893738,77.105225 
z"/>
<path fill="#F7DEA4" opacity="1.000000" stroke="none" 
	d="
M250.545303,128.934189 
	C251.950943,132.629105 253.027679,136.242859 254.403625,140.015366 
	C254.821915,140.536774 254.940964,140.899445 255.108368,141.939102 
	C256.941650,147.497711 258.726593,152.379333 260.511536,157.260941 
	C260.597931,157.647491 260.684296,158.034058 260.628418,159.008667 
	C261.966980,165.077484 263.447815,170.558243 264.917542,176.422516 
	C264.957825,177.571167 265.009186,178.336288 264.857727,179.329041 
	C264.840912,180.635727 265.026947,181.714783 265.176147,183.241089 
	C265.256592,185.172226 265.373871,186.656113 265.389221,188.487305 
	C265.611053,190.139587 265.934753,191.444580 266.210419,193.231537 
	C266.208710,200.563782 266.255005,207.414062 266.072754,214.381302 
	C265.723267,214.959961 265.602356,215.421661 265.390869,216.298782 
	C264.523956,226.573517 258.180878,233.181717 250.897690,238.268906 
	C243.538040,243.409500 235.023376,246.896454 227.014679,251.107788 
	C217.278412,251.516693 207.543030,251.949081 197.805191,252.316238 
	C195.660614,252.397095 193.507339,252.246506 190.537323,252.183441 
	C181.071686,250.096786 172.442276,247.961258 163.776733,245.984085 
	C157.349228,244.517548 150.874771,243.256714 144.421234,241.904236 
	C139.179993,239.470367 133.938751,237.036484 128.129181,234.376038 
	C127.175034,234.037918 126.789207,233.926376 126.242050,233.580460 
	C125.381813,233.129837 124.682899,232.913589 123.746323,232.465210 
	C123.087463,232.113800 122.666290,231.994522 122.245117,231.875244 
	C119.088051,230.239044 115.930984,228.602844 112.392441,227.043427 
	C109.102463,224.495819 106.482193,221.423721 103.231476,219.330841 
	C93.421936,213.015259 87.356644,203.950165 83.008446,193.451355 
	C81.489159,189.782990 79.895187,186.145569 78.083717,182.231216 
	C77.356079,179.709259 77.023369,177.408432 76.380867,175.197662 
	C72.065956,160.350616 67.612801,145.543335 63.377300,130.673920 
	C62.333427,127.009216 60.716213,122.883110 61.504368,119.462631 
	C62.799126,113.843559 65.867393,108.637543 68.142456,103.238235 
	C69.455154,100.122871 70.678764,96.969963 71.932495,93.425827 
	C73.418869,92.120308 75.740463,91.567390 76.281487,90.271233 
	C80.751511,79.562302 90.094810,76.280510 100.191422,74.253983 
	C108.962006,72.493591 117.772690,70.820175 126.639091,69.678795 
	C137.542175,68.275238 148.435043,68.437691 159.190109,71.421494 
	C164.575607,72.915596 170.255768,73.400314 175.574539,75.068733 
	C182.153641,77.132484 188.729538,79.483727 194.883072,82.558746 
	C203.125534,86.677658 211.147064,91.321037 218.901901,96.302109 
	C223.453598,99.225761 227.699341,102.875191 231.381851,106.847816 
	C237.940369,113.923027 243.967194,121.491096 250.545303,128.934189 
z"/>
<path fill="#E4A66B" opacity="1.000000" stroke="none" 
	d="
M247.258331,111.120514 
	C248.769562,115.600883 250.209839,120.492256 251.589478,125.786400 
	C250.081680,121.303284 248.634537,116.417397 247.258331,111.120514 
z"/>
<path fill="#E4A66B" opacity="1.000000" stroke="none" 
	d="
M229.287292,77.264282 
	C229.863235,77.873825 230.160416,78.321518 230.666473,78.941711 
	C231.505981,80.232735 232.136581,81.351250 232.781525,82.793274 
	C229.922012,80.268196 227.048141,77.419617 224.157028,74.222351 
	C225.762711,74.949913 227.385620,76.026169 229.287292,77.264282 
z"/>
<path fill="#E4A66B" opacity="1.000000" stroke="none" 
	d="
M242.328888,99.064095 
	C243.892822,101.883881 245.419571,105.089165 246.915604,108.679810 
	C245.353836,105.859978 243.822769,102.654785 242.328888,99.064095 
z"/>
<path fill="#E4A66B" opacity="1.000000" stroke="none" 
	d="
M219.015564,69.389709 
	C220.622284,70.442009 222.297806,71.826302 224.050232,73.535385 
	C222.446198,72.480690 220.765274,71.101196 219.015564,69.389709 
z"/>
<path fill="#E4A66B" opacity="1.000000" stroke="none" 
	d="
M203.982483,58.498409 
	C205.803345,59.277699 207.719727,60.380985 209.755341,61.797050 
	C207.942383,61.014019 206.010193,59.918213 203.982483,58.498409 
z"/>
<path fill="#E4A66B" opacity="1.000000" stroke="none" 
	d="
M240.347366,94.977142 
	C240.865234,95.269600 241.337677,95.880814 241.809113,96.792862 
	C241.306046,96.494423 240.804001,95.895157 240.347366,94.977142 
z"/>
<path fill="#E9BF5C" opacity="1.000000" stroke="none" 
	d="
M227.107849,251.488708 
	C235.023376,246.896454 243.538040,243.409500 250.897690,238.268906 
	C258.180878,233.181717 264.523956,226.573517 265.569824,216.249664 
	C265.993347,215.278198 266.147339,214.771255 266.301331,214.264328 
	C266.255005,207.414062 266.208710,200.563782 266.367981,192.979156 
	C266.212799,190.876526 265.851990,189.508270 265.491150,188.139999 
	C265.373871,186.656113 265.256592,185.172226 265.339844,183.010254 
	C265.380432,181.255264 265.220490,180.178329 265.060547,179.101410 
	C265.009186,178.336288 264.957825,177.571167 264.930359,175.974152 
	C264.958832,173.024857 264.963348,170.907455 264.967834,168.790070 
	C272.407501,171.062515 279.847107,173.334961 287.600464,176.258423 
	C287.988770,183.306030 288.063385,189.702652 287.934601,196.347107 
	C287.763367,198.035431 287.795563,199.475922 287.761292,201.285156 
	C287.533661,203.144547 287.372498,204.635162 286.987488,206.352753 
	C286.745178,208.016556 286.726715,209.453400 286.648621,211.242706 
	C286.484680,212.302139 286.380371,213.009109 286.087738,213.885010 
	C285.881317,214.994034 285.863251,215.934143 285.793365,217.262085 
	C285.528229,219.471634 285.314911,221.293320 284.932404,223.242096 
	C284.786072,223.881195 284.808929,224.393219 284.778625,225.314850 
	C284.639954,227.104813 284.554413,228.485153 284.203033,230.024979 
	C283.842255,231.748856 283.747314,233.313263 283.652374,234.877655 
	C283.609222,235.282974 283.566071,235.688309 283.257019,236.644897 
	C282.750122,239.146072 282.509186,241.096008 282.268250,243.045929 
	C280.858429,273.238586 279.040527,303.419708 278.186371,333.628082 
	C277.643494,352.829407 280.960571,371.706024 286.563965,390.545624 
	C273.264923,391.632843 259.940216,392.333466 246.611008,392.935455 
	C244.829636,393.015869 243.025742,392.597168 240.839966,392.183899 
	C242.385544,368.405426 237.702026,345.532074 233.052124,322.704315 
	C228.651352,301.099396 225.004059,279.494049 227.389862,257.322296 
	C227.582489,255.532227 227.275726,253.688431 227.107849,251.488708 
z"/>
<path fill="#EAC05D" opacity="1.000000" stroke="none" 
	d="
M320.392670,381.998474 
	C319.689697,375.184967 319.404572,368.272064 318.933441,361.371857 
	C318.793945,359.329468 318.130127,357.322876 317.344482,355.149963 
	C316.776062,353.257324 316.569733,351.514618 316.697845,349.252991 
	C316.736053,347.483307 316.439850,346.232574 316.143646,344.981812 
	C316.023376,344.246246 315.903107,343.510681 316.164551,342.289856 
	C316.905365,341.127808 317.626038,340.417419 317.566772,339.779480 
	C317.060760,334.332611 316.399963,328.900330 315.812775,323.460724 
	C315.427765,319.894104 315.070709,316.324249 314.731384,312.752930 
	C313.954437,304.575684 313.251587,296.390778 312.386383,288.223022 
	C312.198303,286.447479 311.455597,284.730713 310.968323,282.986908 
	C310.952728,282.544739 310.937164,282.102600 311.326660,281.264282 
	C312.529114,279.853363 313.326477,278.838593 314.479553,277.797913 
	C315.544189,277.837677 316.253113,277.903381 317.039215,278.222626 
	C317.751709,278.310150 318.387054,278.144135 319.454407,277.920532 
	C322.201141,277.843597 324.515869,277.824219 327.029236,277.985413 
	C327.817230,277.808197 328.406555,277.450409 329.376221,277.011505 
	C332.909851,275.539642 336.173218,274.353180 339.197205,272.722687 
	C351.846008,265.902527 358.566376,251.885605 356.765076,236.426193 
	C355.158173,222.635147 344.578522,210.575989 330.990601,207.123550 
	C326.665741,206.024673 322.306610,205.060684 317.864471,203.641922 
	C319.472504,198.456726 321.179260,193.664566 322.885986,188.872421 
	C332.011475,191.029007 338.892487,196.878235 345.174072,203.250885 
	C359.332550,217.614548 365.475983,235.730850 368.147644,255.237015 
	C368.867828,260.495270 368.958252,265.839783 369.425507,271.604279 
	C369.553680,273.823456 369.594116,275.583038 369.693756,278.082581 
	C369.759491,280.202026 369.766022,281.581543 369.596497,283.311157 
	C369.378937,286.096222 369.337433,288.531128 369.169128,291.358673 
	C369.004150,292.847534 368.965973,293.943787 368.927826,295.040009 
	C368.716309,297.058746 368.504822,299.077454 368.367493,301.477478 
	C367.650269,306.038544 366.666107,310.192566 366.104156,314.402954 
	C364.505951,326.377075 362.930237,338.336792 357.357605,349.658783 
	C349.028961,365.095398 336.642334,375.517822 320.392670,381.998474 
z"/>
<path fill="#FBFBF7" opacity="1.000000" stroke="none" 
	d="
M309.988953,275.023346 
	C309.825073,274.955261 309.661194,274.887146 309.168030,274.365936 
	C304.865906,271.649780 300.893036,269.386780 296.920166,267.123749 
	C296.920166,267.123749 296.917633,267.082184 296.901093,266.746521 
	C295.647400,265.261597 294.410248,264.112366 293.173126,262.963104 
	C293.173126,262.963104 292.980896,263.051544 292.833740,262.726074 
	C290.365326,256.617859 288.044067,250.835159 285.722809,245.052460 
	C285.748932,242.987991 285.775085,240.923508 285.977905,238.105896 
	C287.725647,232.554672 289.296722,227.756592 291.114868,222.727402 
	C294.157532,219.589188 296.953186,216.682053 300.048218,213.808838 
	C300.888031,213.339432 301.428406,212.836121 302.177399,212.075439 
	C303.175476,211.464478 303.964905,211.110901 305.125305,210.794464 
	C308.009857,209.756668 310.523438,208.681732 313.341370,207.429810 
	C314.110138,207.215256 314.574493,207.177673 315.370361,207.355621 
	C316.517303,207.695450 317.334167,207.936859 318.147919,207.926788 
	C334.349274,207.726135 351.186951,217.577713 353.867920,237.204987 
	C354.057831,238.649429 354.471527,239.845825 354.899017,241.405762 
	C354.897247,242.496445 354.881714,243.223602 354.622589,244.026917 
	C354.285919,244.749466 354.192841,245.395859 354.094727,246.433640 
	C354.032593,247.867157 353.975494,248.909271 353.585968,249.946045 
	C352.452820,249.594040 351.652069,249.247375 350.849182,248.472351 
	C349.600128,243.691650 348.353271,239.339340 346.892700,234.769714 
	C346.451599,233.990540 346.224182,233.428680 345.956665,232.541840 
	C341.635132,229.986740 341.630615,233.370331 340.933594,236.109528 
	C340.852509,236.267670 340.519409,236.391647 340.071136,236.306259 
	C337.198578,236.665161 334.774323,237.109451 332.206055,237.550537 
	C332.062073,237.547333 331.897125,237.311157 331.873047,237.135681 
	C331.564362,236.966690 331.279755,236.973145 330.680206,236.954529 
	C329.591980,236.245621 328.818665,235.561752 328.043823,234.481720 
	C328.074738,230.694916 327.962219,227.294571 328.188599,223.916962 
	C328.350616,221.499146 328.553162,221.512726 325.644348,220.931107 
	C324.137268,220.927856 323.040009,220.870682 321.657959,220.590088 
	C314.154846,220.041977 305.968597,224.853134 304.190125,230.198090 
	C303.993011,230.046661 304.392883,230.338806 304.044373,230.394882 
	C298.091187,235.820389 295.485474,250.165131 299.483826,256.819305 
	C302.561279,261.940918 305.291840,267.877808 312.725098,268.772369 
	C313.306274,268.986847 313.616638,269.169983 313.993347,269.643982 
	C315.073608,270.138580 316.087494,270.342316 317.510956,270.571472 
	C319.256348,270.873444 320.592194,271.150024 322.080414,271.719971 
	C323.938416,273.006805 325.644012,274.000244 326.861084,275.004852 
	C321.261261,274.978790 316.149994,274.941559 310.773224,274.906891 
	C310.334778,274.947418 310.161865,274.985382 309.988953,275.023346 
z"/>
<path fill="#F1E3BD" opacity="1.000000" stroke="none" 
	d="
M354.091675,236.956955 
	C351.186951,217.577713 334.349274,207.726135 318.147919,207.926788 
	C317.334167,207.936859 316.517303,207.695450 315.604248,207.143768 
	C316.325500,205.822586 317.144318,204.928787 317.963165,204.034973 
	C322.306610,205.060684 326.665741,206.024673 330.990601,207.123550 
	C344.578522,210.575989 355.158173,222.635147 356.765076,236.426193 
	C358.566376,251.885605 351.846008,265.902527 339.197205,272.722687 
	C336.173218,274.353180 332.909851,275.539642 329.081787,277.004608 
	C327.881561,277.320862 327.356079,277.562866 326.830597,277.804871 
	C324.515869,277.824219 322.201141,277.843597 319.111603,277.887634 
	C317.878540,277.931244 317.420288,277.950165 316.962036,277.969086 
	C316.253113,277.903381 315.544189,277.837677 314.233276,277.611938 
	C312.834442,277.277130 312.037628,277.102386 311.240814,276.927612 
	C311.240814,276.927643 311.068390,276.509308 311.036011,275.998657 
	C311.015350,275.293457 311.027069,275.098907 311.038757,274.904358 
	C316.149994,274.941559 321.261261,274.978790 327.214508,274.987183 
	C333.356812,272.068268 338.657104,269.178192 344.194275,266.083740 
	C344.373566,264.967529 344.315948,264.055664 344.104034,263.007507 
	C343.949738,262.871277 343.626862,262.615875 343.704285,262.357208 
	C344.150848,261.719299 344.520020,261.340057 345.179382,260.942108 
	C346.172821,260.614929 346.876099,260.306458 347.973480,259.960266 
	C350.217865,256.598816 352.068146,253.275116 353.918396,249.951401 
	C353.975494,248.909271 354.032593,247.867157 354.279053,246.213013 
	C354.601013,245.050903 354.733612,244.500839 354.866180,243.950760 
	C354.881714,243.223602 354.897247,242.496445 354.934265,241.045410 
	C354.667725,239.199997 354.379700,238.078476 354.091675,236.956955 
z"/>
<path fill="#D8B05D" opacity="1.000000" stroke="none" 
	d="
M310.780914,283.349487 
	C311.455597,284.730713 312.198303,286.447479 312.386383,288.223022 
	C313.251587,296.390778 313.954437,304.575684 314.731384,312.752930 
	C315.070709,316.324249 315.427765,319.894104 315.812775,323.460724 
	C316.399963,328.900330 317.060760,334.332611 317.566772,339.779480 
	C317.626038,340.417419 316.905365,341.127808 316.205536,341.917542 
	C313.167938,322.675934 309.474945,303.411438 310.780914,283.349487 
z"/>
<path fill="#8C7455" opacity="1.000000" stroke="none" 
	d="
M290.867798,222.958496 
	C289.296722,227.756592 287.725647,232.554672 285.950867,237.664276 
	C285.231628,237.058945 284.716034,236.142075 283.926422,235.051437 
	C283.747314,233.313263 283.842255,231.748856 284.296722,230.313278 
	C285.235931,230.516876 286.204987,230.836990 286.335968,230.629089 
	C287.918335,228.117432 289.376953,225.527802 290.867798,222.958496 
z"/>
<path fill="#8C7455" opacity="1.000000" stroke="none" 
	d="
M285.515259,245.349686 
	C288.044067,250.835159 290.365326,256.617859 292.730164,262.747620 
	C287.259888,258.573242 285.594116,252.405197 285.515259,245.349686 
z"/>
<path fill="#E9D5C0" opacity="1.000000" stroke="none" 
	d="
M296.993103,267.445007 
	C300.893036,269.386780 304.865906,271.649780 308.954254,274.207306 
	C305.068481,272.256653 301.067261,270.011475 296.993103,267.445007 
z"/>
<path fill="#8C7455" opacity="1.000000" stroke="none" 
	d="
M282.584534,242.873734 
	C282.509186,241.096008 282.750122,239.146072 283.239868,236.950165 
	C283.292725,238.703308 283.096771,240.702423 282.584534,242.873734 
z"/>
<path fill="#D8B05D" opacity="1.000000" stroke="none" 
	d="
M311.115326,277.323181 
	C312.037628,277.102386 312.834442,277.277130 313.877563,277.637817 
	C313.326477,278.838593 312.529114,279.853363 311.403595,280.940308 
	C311.046906,279.914551 311.018372,278.816650 311.115326,277.323181 
z"/>
<path fill="#E9D5C0" opacity="1.000000" stroke="none" 
	d="
M293.191467,263.285278 
	C294.410248,264.112366 295.647400,265.261597 296.880310,266.745178 
	C295.653992,265.922119 294.431915,264.764771 293.191467,263.285278 
z"/>
<path fill="#D8B05D" opacity="1.000000" stroke="none" 
	d="
M316.056702,345.388428 
	C316.439850,346.232574 316.736053,347.483307 316.776489,348.882690 
	C316.337067,347.952545 316.153412,346.873779 316.056702,345.388428 
z"/>
<path fill="#E9D5C0" opacity="1.000000" stroke="none" 
	d="
M310.773224,274.906860 
	C311.027069,275.098907 311.015350,275.293457 310.980530,275.779327 
	C310.644501,275.907593 310.331573,275.744476 310.003815,275.302368 
	C310.161865,274.985382 310.334778,274.947418 310.773224,274.906860 
z"/>
<path fill="#E8BF5C" opacity="1.000000" stroke="none" 
	d="
M144.240524,242.330627 
	C150.874771,243.256714 157.349228,244.517548 163.776733,245.984085 
	C172.442276,247.961258 181.071686,250.096786 190.129120,252.341675 
	C188.624512,272.025574 186.227615,291.499939 184.912781,311.047058 
	C183.302383,334.988190 183.586319,358.923004 189.682297,382.404785 
	C190.097366,384.003601 190.588242,385.582733 191.098129,387.545532 
	C178.757904,385.988220 166.363419,384.056427 153.613831,381.997375 
	C151.253067,370.446777 148.971985,359.063690 147.295380,347.592255 
	C142.936142,317.766235 140.625595,287.810883 142.760284,257.648041 
	C143.111969,252.678589 143.622620,247.720383 144.240524,242.330627 
z"/>
<path fill="#603B20" opacity="1.000000" stroke="none" 
	d="
M126.403381,233.814835 
	C126.789207,233.926376 127.175034,234.037918 127.783203,234.358643 
	C130.859894,236.133514 133.921036,237.425323 136.491776,239.366562 
	C138.058945,240.550003 139.863022,242.742966 139.846802,244.466339 
	C139.783371,251.209671 138.605530,257.948822 138.640152,264.685425 
	C138.702057,276.727112 139.074646,288.782257 139.814545,300.801178 
	C140.579254,313.223267 141.656296,325.641907 143.113525,338.001099 
	C144.504883,349.801422 146.564926,361.522766 148.321152,373.280334 
	C148.506195,374.519073 148.624741,375.767761 148.818680,377.382874 
	C140.208298,377.041321 133.765442,372.455383 126.736275,369.355957 
	C120.283356,366.510651 117.945717,361.000275 116.547318,354.961426 
	C114.124977,344.500763 111.889412,333.981598 110.070442,323.401917 
	C108.921967,316.722076 108.032509,309.875336 108.162895,303.125397 
	C108.383682,291.695099 109.453529,280.278595 110.264458,268.863281 
	C110.734108,262.252045 111.272011,255.640564 112.014404,249.055710 
	C112.496033,244.783768 113.241501,240.524368 114.164795,236.324448 
	C115.012581,232.467957 117.414482,230.624496 121.881927,231.870270 
	C122.666290,231.994522 123.087463,232.113800 123.897957,232.708557 
	C124.992638,233.394318 125.698006,233.604584 126.403381,233.814835 
z"/>
<path fill="#603B20" opacity="1.000000" stroke="none" 
	d="
M234.827759,349.138062 
	C239.395203,360.888641 237.681778,372.767853 238.129395,384.471649 
	C238.300613,388.948273 236.638184,390.495209 232.338806,390.065887 
	C221.141388,388.947754 209.921112,388.048401 198.737732,386.810852 
	C197.157318,386.635956 194.811523,385.362061 194.390289,384.080627 
	C192.287643,377.684174 189.725128,371.201569 189.146255,364.589752 
	C187.844620,349.722931 186.848068,334.745636 187.163040,319.843658 
	C187.502243,303.794373 189.503662,287.781525 190.723877,271.748505 
	C190.963486,268.600159 190.795700,265.418488 191.082336,262.276520 
	C191.626740,256.309326 194.167648,254.020706 200.029648,254.001221 
	C208.002991,253.974716 215.976471,253.994614 225.320770,253.994614 
	C220.846436,286.342133 230.104401,317.265961 234.827759,349.138062 
z"/>
<path fill="#664020" opacity="1.000000" stroke="none" 
	d="
M291.114838,222.727386 
	C289.376953,225.527802 287.918335,228.117432 286.335968,230.629089 
	C286.204987,230.836990 285.235931,230.516876 284.562561,230.153793 
	C284.554413,228.485153 284.639954,227.104813 284.951691,225.188782 
	C285.152466,224.140411 285.127045,223.627716 285.101624,223.115021 
	C285.314911,221.293320 285.528229,219.471634 286.014343,217.003723 
	C286.283478,215.477051 286.279785,214.596558 286.276093,213.716080 
	C286.380371,213.009109 286.484680,212.302139 286.886963,211.024963 
	C287.193756,209.011749 287.202545,207.568771 287.211304,206.125778 
	C287.372498,204.635162 287.533661,203.144547 287.986023,201.049408 
	C288.230774,198.996353 288.184387,197.547806 288.138031,196.099258 
	C288.063385,189.702652 287.988770,183.306030 287.885498,176.462646 
	C288.649414,175.818909 289.573730,175.251907 290.214783,175.480240 
	C300.630859,179.190384 311.015808,182.988480 321.385742,186.826172 
	C321.920502,187.024063 322.257782,187.755600 322.786499,188.555542 
	C321.179260,193.664566 319.472504,198.456726 317.864471,203.641922 
	C317.144318,204.928787 316.325500,205.822586 315.272766,206.928253 
	C314.574493,207.177673 314.110138,207.215256 312.989777,207.361221 
	C309.807312,208.565506 307.280853,209.661423 304.754364,210.757339 
	C303.964905,211.110901 303.175476,211.464478 301.886841,212.040344 
	C300.841400,212.766724 300.295105,213.270828 299.748810,213.774933 
	C296.953186,216.682053 294.157532,219.589188 291.114838,222.727386 
z"/>
<path fill="#E4A66B" opacity="1.000000" stroke="none" 
	d="
M264.727966,168.546799 
	C264.963348,170.907455 264.958832,173.024857 264.941467,175.590622 
	C263.447815,170.558243 261.966980,165.077484 260.669678,159.302917 
	C262.064819,162.107254 263.276459,165.205383 264.727966,168.546799 
z"/>
<path fill="#E4A66B" opacity="1.000000" stroke="none" 
	d="
M260.577850,156.870300 
	C258.726593,152.379333 256.941650,147.497711 255.193558,142.212433 
	C257.034973,146.699081 258.839569,151.589371 260.577850,156.870300 
z"/>
<path fill="#603B1E" opacity="1.000000" stroke="none" 
	d="
M369.267853,295.131500 
	C368.965973,293.943787 369.004150,292.847534 369.477234,291.228027 
	C371.293610,288.097748 374.092682,285.465210 369.772552,282.961029 
	C369.766022,281.581543 369.759491,280.202026 369.844788,278.417206 
	C372.329956,276.406097 374.544434,276.010162 376.896698,278.320557 
	C378.291840,279.690857 380.080780,280.711426 381.808777,281.682770 
	C389.227997,285.853271 390.281036,287.509705 388.812988,295.454834 
	C388.505646,297.118042 386.372864,299.667847 385.028778,299.701324 
	C379.539032,299.838165 373.656860,300.380280 369.267853,295.131500 
z"/>
<path fill="#E4A66B" opacity="1.000000" stroke="none" 
	d="
M265.389252,188.487305 
	C265.851990,189.508270 266.212799,190.876526 266.416016,192.497177 
	C265.934753,191.444580 265.611053,190.139587 265.389252,188.487305 
z"/>
<path fill="#E4A66B" opacity="1.000000" stroke="none" 
	d="
M264.857727,179.329041 
	C265.220490,180.178329 265.380432,181.255264 265.376678,182.563019 
	C265.026947,181.714783 264.840912,180.635727 264.857727,179.329041 
z"/>
<path fill="#E4A66B" opacity="1.000000" stroke="none" 
	d="
M266.072754,214.381302 
	C266.147339,214.771255 265.993347,215.278198 265.660370,215.834229 
	C265.602356,215.421661 265.723267,214.959961 266.072754,214.381302 
z"/>
<path fill="#734B1B" opacity="1.000000" stroke="none" 
	d="
M126.242050,233.580460 
	C125.698006,233.604584 124.992638,233.394318 124.135635,232.940689 
	C124.682899,232.913589 125.381813,233.129837 126.242050,233.580460 
z"/>
<path fill="#8C7455" opacity="1.000000" stroke="none" 
	d="
M287.934601,196.347107 
	C288.184387,197.547806 288.230774,198.996353 288.052460,200.680649 
	C287.795563,199.475922 287.763367,198.035431 287.934601,196.347107 
z"/>
<path fill="#8C7455" opacity="1.000000" stroke="none" 
	d="
M286.987457,206.352753 
	C287.202545,207.568771 287.193756,209.011749 286.946625,210.672485 
	C286.726715,209.453400 286.745178,208.016556 286.987457,206.352753 
z"/>
<path fill="#8C7455" opacity="1.000000" stroke="none" 
	d="
M286.087738,213.885010 
	C286.279785,214.596558 286.283478,215.477051 286.066193,216.615891 
	C285.863251,215.934143 285.881317,214.994034 286.087738,213.885010 
z"/>
<path fill="#8C7455" opacity="1.000000" stroke="none" 
	d="
M284.932404,223.242096 
	C285.127045,223.627716 285.152466,224.140411 285.004822,224.779175 
	C284.808929,224.393219 284.786072,223.881195 284.932404,223.242096 
z"/>
<path fill="#794016" opacity="1.000000" stroke="none" 
	d="
M369.596497,283.311157 
	C374.092682,285.465210 371.293610,288.097748 369.604065,290.835388 
	C369.337433,288.531128 369.378937,286.096222 369.596497,283.311157 
z"/>
<path fill="#D8B05D" opacity="1.000000" stroke="none" 
	d="
M317.039215,278.222626 
	C317.420288,277.950165 317.878540,277.931244 318.679596,277.945190 
	C318.387054,278.144135 317.751709,278.310150 317.039215,278.222626 
z"/>
<path fill="#D8B05D" opacity="1.000000" stroke="none" 
	d="
M327.029236,277.985413 
	C327.356079,277.562866 327.881561,277.320862 328.701477,277.085754 
	C328.406555,277.450409 327.817230,277.808197 327.029236,277.985413 
z"/>
<path fill="#822C26" opacity="1.000000" stroke="none" 
	d="
M344.889191,260.960815 
	C344.520020,261.340057 344.150848,261.719299 343.406067,262.518585 
	C337.331085,269.086456 329.972076,271.108063 321.928040,271.426575 
	C320.592194,271.150024 319.256348,270.873444 317.332458,270.331665 
	C315.805298,269.828705 314.866180,269.590912 313.927032,269.353119 
	C313.616638,269.169983 313.306274,268.986847 312.578400,268.463226 
	C301.631927,260.661774 297.290436,250.972931 300.149536,240.376785 
	C301.087067,236.902115 302.952026,233.677673 304.392883,230.338806 
	C304.392883,230.338806 303.993011,230.046661 304.504425,230.084564 
	C309.503906,224.920670 315.492126,222.446701 321.942749,220.813492 
	C323.040009,220.870682 324.137268,220.927856 325.746277,221.350845 
	C325.489990,226.288956 323.053375,231.087860 328.045380,234.877899 
	C328.818665,235.561752 329.591980,236.245621 330.867126,237.142426 
	C331.545044,237.340637 331.721100,237.325897 331.897125,237.311157 
	C331.897125,237.311157 332.062073,237.547333 332.433350,237.808685 
	C335.376251,237.510574 337.947815,236.951111 340.519409,236.391647 
	C340.519409,236.391647 340.852509,236.267670 341.267944,236.072632 
	C343.121185,234.873993 344.558990,233.870407 345.996765,232.866806 
	C346.224182,233.428680 346.451599,233.990540 346.890381,235.163666 
	C350.773285,244.557571 349.429657,252.899612 344.889191,260.960815 
z"/>
<path fill="#ECD4D0" opacity="1.000000" stroke="none" 
	d="
M304.044342,230.394867 
	C302.952026,233.677673 301.087067,236.902115 300.149536,240.376785 
	C297.290436,250.972931 301.631927,260.661774 312.307617,268.431885 
	C305.291840,267.877808 302.561279,261.940918 299.483826,256.819305 
	C295.485474,250.165131 298.091187,235.820389 304.044342,230.394867 
z"/>
<path fill="#E9D5C0" opacity="1.000000" stroke="none" 
	d="
M322.080414,271.719971 
	C329.972076,271.108063 337.331085,269.086456 343.328644,262.777252 
	C343.626862,262.615875 343.949738,262.871277 344.007965,263.388489 
	C344.029907,264.699829 343.993652,265.493958 343.957397,266.288086 
	C338.657104,269.178192 333.356812,272.068268 327.703064,274.976013 
	C325.644012,274.000244 323.938416,273.006805 322.080414,271.719971 
z"/>
<path fill="#E9D5C0" opacity="1.000000" stroke="none" 
	d="
M345.179382,260.942108 
	C349.429657,252.899612 350.773285,244.557571 347.104095,235.380981 
	C348.353271,239.339340 349.600128,243.691650 350.666504,248.796051 
	C349.517151,253.031433 348.548248,256.514709 347.579376,259.998016 
	C346.876099,260.306458 346.172821,260.614929 345.179382,260.942108 
z"/>
<path fill="#ECD4D0" opacity="1.000000" stroke="none" 
	d="
M321.657959,220.590088 
	C315.492126,222.446701 309.503906,224.920670 304.701538,230.235977 
	C305.968597,224.853134 314.154846,220.041977 321.657959,220.590088 
z"/>
<path fill="#ECD4D0" opacity="1.000000" stroke="none" 
	d="
M328.043823,234.481720 
	C323.053375,231.087860 325.489990,226.288956 326.156067,221.296921 
	C328.553162,221.512726 328.350616,221.499146 328.188599,223.916962 
	C327.962219,227.294571 328.074738,230.694916 328.043823,234.481720 
z"/>
<path fill="#FEF9E6" opacity="1.000000" stroke="none" 
	d="
M347.973480,259.960266 
	C348.548248,256.514709 349.517151,253.031433 350.668701,249.224426 
	C351.652069,249.247375 352.452820,249.594040 353.585968,249.946045 
	C352.068146,253.275116 350.217865,256.598816 347.973480,259.960266 
z"/>
<path fill="#E9D5C0" opacity="1.000000" stroke="none" 
	d="
M340.071136,236.306259 
	C337.947815,236.951111 335.376251,237.510574 332.577332,237.811890 
	C334.774323,237.109451 337.198578,236.665161 340.071136,236.306259 
z"/>
<path fill="#E9D5C0" opacity="1.000000" stroke="none" 
	d="
M345.956665,232.541840 
	C344.558990,233.870407 343.121185,234.873993 341.349060,235.914490 
	C341.630615,233.370331 341.635132,229.986740 345.956665,232.541840 
z"/>
<path fill="#F1E3BD" opacity="1.000000" stroke="none" 
	d="
M305.125305,210.794464 
	C307.280853,209.661423 309.807312,208.565506 312.685425,207.538208 
	C310.523438,208.681732 308.009857,209.756668 305.125305,210.794464 
z"/>
<path fill="#FEF9E6" opacity="1.000000" stroke="none" 
	d="
M353.867920,237.204987 
	C354.379700,238.078476 354.667725,239.199997 354.920502,240.681870 
	C354.471527,239.845825 354.057831,238.649429 353.867920,237.204987 
z"/>
<path fill="#ECD4D0" opacity="1.000000" stroke="none" 
	d="
M313.993347,269.643982 
	C314.866180,269.590912 315.805298,269.828705 316.922913,270.306274 
	C316.087494,270.342316 315.073608,270.138580 313.993347,269.643982 
z"/>
<path fill="#FEF9E6" opacity="1.000000" stroke="none" 
	d="
M354.622589,244.026917 
	C354.733612,244.500839 354.601013,245.050903 354.284119,245.821625 
	C354.192841,245.395859 354.285919,244.749466 354.622589,244.026917 
z"/>
<path fill="#F1E3BD" opacity="1.000000" stroke="none" 
	d="
M300.048218,213.808823 
	C300.295105,213.270828 300.841400,212.766724 301.678223,212.297729 
	C301.428406,212.836121 300.888031,213.339432 300.048218,213.808823 
z"/>
<path fill="#ECD4D0" opacity="1.000000" stroke="none" 
	d="
M331.873047,237.135681 
	C331.721100,237.325897 331.545044,237.340637 331.182068,237.167480 
	C331.279755,236.973145 331.564362,236.966690 331.873047,237.135681 
z"/>
<path fill="#FEF9E6" opacity="1.000000" stroke="none" 
	d="
M344.194275,266.083740 
	C343.993652,265.493958 344.029907,264.699829 344.162262,263.524719 
	C344.315948,264.055664 344.373566,264.967529 344.194275,266.083740 
z"/>
</svg>