<svg version="1.1" id="Layer_1" xmlns="http://www.w3.org/2000/svg" xmlns:xlink="http://www.w3.org/1999/xlink" x="0px" y="0px"
	 width="100%" viewBox="0 0 450 450" enable-background="new 0 0 450 450" xml:space="preserve">
<path fill="#C0D9D5" opacity="1.000000" stroke="none" 
	d="
M251.000000,451.000000 
	C167.356415,451.000000 84.212837,451.000000 1.034628,451.000000 
	C1.034628,301.064728 1.034628,151.129440 1.034628,1.097083 
	C150.893585,1.097083 300.787231,1.097083 450.840454,1.097083 
	C450.840454,150.999863 450.840454,300.999908 450.840454,451.000000 
	C384.462738,451.000000 317.981384,451.000000 251.000000,451.000000 
M37.307629,246.439896 
	C37.610504,246.617996 37.913380,246.796112 38.370411,247.247864 
	C38.370411,247.247864 38.377163,247.561874 37.999527,248.170853 
	C38.669533,249.728333 39.339539,251.285812 40.285156,253.479950 
	C41.229286,254.828568 41.957329,256.418365 43.151299,257.488098 
	C53.924129,267.139832 66.307251,274.548920 79.260574,280.568573 
	C93.857658,287.352142 109.179573,292.583466 124.237396,298.356415 
	C125.728371,298.928009 127.575531,298.570587 129.702118,298.842041 
	C130.192215,299.051483 130.682327,299.260895 131.596283,300.168976 
	C147.851410,330.028320 172.797729,347.837036 206.001190,354.761841 
	C203.113251,361.479736 200.320251,368.240814 197.294434,374.896057 
	C195.929184,377.898926 195.399826,380.166290 199.436066,381.300781 
	C202.481339,382.156738 205.599487,385.654572 207.814743,380.001953 
	C211.081741,371.665680 214.690903,363.463501 219.070526,355.235809 
	C225.549957,354.688568 232.029404,354.141327 239.051498,353.976288 
	C240.112869,355.386871 241.407654,356.678741 242.195755,358.228302 
	C245.881470,365.475189 249.645355,372.696198 252.949112,380.118805 
	C255.262054,385.315308 258.030853,382.255249 260.884796,381.185272 
	C264.241058,379.926941 264.959900,378.133392 263.228210,374.748138 
	C259.226654,366.925598 255.601486,358.910492 252.666779,350.814697 
	C253.760727,350.410797 254.848465,349.989105 255.949524,349.605652 
	C284.785004,339.562500 305.196655,320.375336 317.267670,292.454285 
	C327.338348,269.160187 327.670532,245.243912 321.069031,221.098099 
	C321.069031,221.098099 321.424438,221.049103 322.033356,220.882736 
	C323.343170,219.558487 324.652985,218.234238 326.301910,216.780624 
	C326.301910,216.780624 326.655273,216.697601 327.411102,216.823303 
	C328.352142,216.578217 329.459595,216.572754 330.209259,216.052094 
	C341.236694,208.393127 348.996185,197.699081 353.207977,185.457336 
	C356.928986,174.642014 357.468170,162.793091 355.636292,151.115692 
	C355.340393,149.229431 356.255615,146.494507 357.605377,145.150726 
	C360.138184,142.629120 363.505859,140.973007 366.334473,138.716461 
	C374.183228,132.455063 382.019043,126.170181 389.645111,119.643555 
	C391.049591,118.441544 391.446838,116.062599 392.308990,114.226891 
	C390.197205,113.499451 388.117554,112.642509 385.958160,112.107063 
	C385.070862,111.887047 384.005676,112.329369 383.031708,112.522255 
	C374.791748,114.154015 366.537872,115.721199 358.322662,117.469810 
	C354.144287,118.359184 352.693909,116.471359 353.014557,112.694641 
	C353.406586,108.077225 354.020142,103.479027 354.496887,98.868279 
	C355.331116,90.800049 356.236694,82.736382 356.851135,74.650948 
	C356.956055,73.270386 356.120392,71.274246 355.047302,70.525513 
	C354.232056,69.956696 351.801361,70.428162 351.040894,71.283096 
	C348.199005,74.477936 345.575745,77.904732 343.186554,81.457115 
	C337.686432,89.634933 332.371582,97.937347 326.284302,105.979164 
	C319.401459,103.012840 312.758148,98.952316 305.570404,97.378700 
	C297.923706,95.704628 289.755280,96.002731 281.825409,96.126556 
	C269.099152,96.325279 258.017883,101.651329 248.381165,109.426537 
	C242.550629,114.130798 237.659210,120.092003 232.776505,125.853455 
	C227.192230,132.442703 224.167328,140.215042 223.967545,149.372269 
	C223.967545,149.372269 223.953979,149.776749 223.029892,149.797333 
	C217.313156,150.157837 211.596436,150.518326 205.619736,150.553406 
	C205.079132,150.759644 204.538528,150.965897 203.225861,151.561783 
	C185.101349,155.258865 169.041733,163.024887 154.976593,175.169907 
	C145.529602,183.327194 138.485107,193.284149 130.971786,203.250397 
	C122.507141,197.205795 114.369331,190.614029 105.469551,185.297897 
	C98.907104,181.377914 91.537842,178.478378 84.175880,176.332367 
	C78.364113,174.638245 73.385376,177.640701 73.255920,181.813950 
	C73.130341,185.862000 73.588211,190.062759 74.621780,193.976791 
	C75.814751,198.494400 77.918106,202.771622 79.820419,207.651596 
	C78.398010,207.496796 77.328804,207.402237 76.265778,207.261093 
	C70.721970,206.525101 65.196144,205.352814 59.632935,205.137787 
	C52.185329,204.849960 47.879292,211.368912 50.628235,218.221054 
	C52.570751,223.063080 54.728474,227.818771 57.093029,233.317413 
	C54.631195,233.621490 52.869911,233.691284 51.180759,234.076996 
	C47.050793,235.020035 42.631271,235.482483 38.964081,237.372192 
	C36.730553,238.523117 33.121254,241.360580 36.983292,245.528397 
	C36.983292,245.528397 37.007885,246.000107 37.307629,246.439896 
z"/>
<path fill="#366768" opacity="1.000000" stroke="none" 
	d="
M320.713348,221.051117 
	C327.670532,245.243912 327.338348,269.160187 317.267670,292.454285 
	C305.196655,320.375336 284.785004,339.562500 255.949524,349.605652 
	C254.848465,349.989105 253.760727,350.410797 251.907288,350.950470 
	C249.348648,351.185364 247.502121,351.063477 245.761765,351.436676 
	C243.302994,351.963989 240.922684,352.857239 238.508835,353.594086 
	C232.029404,354.141327 225.549957,354.688568 218.229126,355.043335 
	C213.650024,354.552765 209.912308,354.254608 206.174591,353.956451 
	C172.797729,347.837036 147.851410,330.028320 131.366852,299.533325 
	C128.058762,286.758331 123.891106,274.769135 122.191483,262.439697 
	C120.291107,248.653992 121.586823,234.687759 126.386139,221.291931 
	C128.147430,216.375824 129.367416,211.265778 130.983704,205.915665 
	C131.341125,204.917542 131.549149,204.247955 131.757172,203.578354 
	C138.485107,193.284149 145.529602,183.327194 154.976593,175.169907 
	C169.041733,163.024887 185.101349,155.258865 203.850494,151.488770 
	C204.943329,151.236786 205.411514,151.057816 205.879700,150.878830 
	C211.596436,150.518326 217.313156,150.157837 223.570374,150.268448 
	C224.097168,152.395996 224.155701,154.056686 224.058899,155.708237 
	C222.727356,178.421875 229.181320,197.890900 247.316071,212.722000 
	C264.935425,227.131592 284.704803,231.125092 306.555725,225.446640 
	C311.333038,224.205139 315.997131,222.527756 320.713348,221.051117 
z"/>
<path fill="#C9CBAE" opacity="1.000000" stroke="none" 
	d="
M326.981537,106.189178 
	C332.371582,97.937347 337.686432,89.634933 343.186554,81.457115 
	C345.575745,77.904732 348.199005,74.477936 351.040894,71.283096 
	C351.801361,70.428162 354.232056,69.956696 355.047302,70.525513 
	C356.120392,71.274246 356.956055,73.270386 356.851135,74.650948 
	C356.236694,82.736382 355.331116,90.800049 354.496887,98.868279 
	C354.020142,103.479027 353.406586,108.077225 353.014557,112.694641 
	C352.693909,116.471359 354.144287,118.359184 358.322662,117.469810 
	C366.537872,115.721199 374.791748,114.154015 383.031708,112.522255 
	C384.005676,112.329369 385.070862,111.887047 385.958160,112.107063 
	C388.117554,112.642509 390.197205,113.499451 392.308990,114.226898 
	C391.446838,116.062599 391.049591,118.441544 389.645111,119.643555 
	C382.019043,126.170181 374.183228,132.455063 366.334473,138.716461 
	C363.505859,140.973007 360.138184,142.629120 357.605377,145.150726 
	C356.255615,146.494507 355.340393,149.229431 355.636292,151.115692 
	C357.468170,162.793091 356.928986,174.642014 353.207977,185.457336 
	C348.996185,197.699081 341.236694,208.393127 330.209259,216.052094 
	C329.459595,216.572754 328.352142,216.578217 327.177734,216.461899 
	C327.638519,215.403488 328.256866,214.604172 329.038208,214.024658 
	C342.531433,204.017014 350.491699,190.358246 352.894897,174.090347 
	C354.252838,164.898209 352.887695,155.303787 352.986755,145.644257 
	C365.318756,135.667206 377.413177,125.936455 389.507568,116.205704 
	C389.285156,115.696365 389.062744,115.187027 388.840302,114.677681 
	C376.171478,117.126595 363.502655,119.575500 350.079285,122.170265 
	C351.410767,105.101006 352.659485,89.093063 353.908173,73.085129 
	C353.397064,72.943176 352.885956,72.801224 352.374817,72.659271 
	C344.539673,85.353874 336.704498,98.048477 328.625214,110.768372 
	C328.381073,110.793655 327.900360,110.893173 327.817963,110.758606 
	C327.573822,110.471275 327.381683,110.392960 327.094177,110.093552 
	C326.978333,109.602791 326.927490,109.407570 326.904846,108.832764 
	C326.949188,107.698509 326.965363,106.943848 326.981537,106.189178 
z"/>
<path fill="#A96E47" opacity="1.000000" stroke="none" 
	d="
M130.834320,206.244186 
	C129.367416,211.265778 128.147430,216.375824 126.386139,221.291931 
	C121.586823,234.687759 120.291107,248.653992 122.191483,262.439697 
	C123.891106,274.769135 128.058762,286.758331 131.154938,299.183990 
	C130.682327,299.260895 130.192215,299.051483 129.395508,298.429291 
	C127.372826,297.079590 125.656738,296.142670 124.070007,294.894348 
	C124.461533,293.730804 124.723709,292.878571 124.970184,291.640076 
	C123.645340,287.517212 122.021729,283.858124 121.078896,280.031281 
	C115.589790,257.751465 116.299736,235.643890 124.434357,214.142258 
	C126.586670,208.453217 125.445213,206.319702 120.724586,202.597839 
	C110.880264,194.836411 100.898293,187.583221 89.121796,183.256409 
	C86.138130,182.160187 82.496727,182.854172 79.157555,182.725555 
	C79.116913,185.875961 78.673042,189.088226 79.144386,192.160065 
	C79.657936,195.507004 81.020424,198.723663 81.700363,202.015091 
	C81.180138,202.052277 80.972374,202.071503 80.533676,201.834229 
	C78.953468,198.356155 77.237114,195.234985 76.323082,191.894318 
	C73.469322,181.464279 77.881134,177.144928 88.233910,179.999969 
	C89.669174,180.395798 91.162239,180.837296 92.412476,181.608109 
	C101.874710,187.441895 111.309120,193.321991 120.694481,199.278595 
	C124.154366,201.474503 127.458908,203.915161 130.834320,206.244186 
z"/>
<path fill="#D1C5B0" opacity="1.000000" stroke="none" 
	d="
M130.983704,205.915665 
	C127.458908,203.915161 124.154366,201.474503 120.694481,199.278595 
	C111.309120,193.321991 101.874710,187.441895 92.412476,181.608109 
	C91.162239,180.837296 89.669174,180.395798 88.233910,179.999969 
	C77.881134,177.144928 73.469322,181.464279 76.323082,191.894318 
	C77.237114,195.234985 78.953468,198.356155 80.626266,202.145950 
	C81.638290,203.512268 82.326790,204.310394 83.122932,205.343231 
	C83.425842,206.056030 83.621109,206.534119 83.839546,207.379883 
	C84.156479,208.928436 84.450241,210.109299 84.974678,212.217438 
	C81.960136,211.424683 79.808182,210.662857 77.591232,210.313782 
	C71.743538,209.392960 65.884598,208.183258 59.998192,207.969986 
	C54.119446,207.756989 51.179981,211.635727 53.312370,217.087173 
	C55.196072,221.902863 58.568588,226.133911 61.261406,230.636444 
	C62.489712,232.690231 63.664234,234.776184 64.854118,236.854828 
	C64.845085,236.862091 64.816925,236.866806 64.424606,236.774567 
	C59.590416,236.522644 55.121948,235.990036 50.713882,236.304382 
	C45.959103,236.643463 41.080906,237.386932 37.882698,242.242554 
	C37.405121,243.324860 37.189213,244.191132 36.973305,245.057404 
	C33.121254,241.360580 36.730553,238.523117 38.964081,237.372192 
	C42.631271,235.482483 47.050793,235.020035 51.180759,234.076996 
	C52.869911,233.691284 54.631195,233.621490 57.093029,233.317413 
	C54.728474,227.818771 52.570751,223.063080 50.628235,218.221054 
	C47.879292,211.368912 52.185329,204.849960 59.632935,205.137787 
	C65.196144,205.352814 70.721970,206.525101 76.265778,207.261093 
	C77.328804,207.402237 78.398010,207.496796 79.820419,207.651596 
	C77.918106,202.771622 75.814751,198.494400 74.621780,193.976791 
	C73.588211,190.062759 73.130341,185.862000 73.255920,181.813950 
	C73.385376,177.640701 78.364113,174.638245 84.175880,176.332367 
	C91.537842,178.478378 98.907104,181.377914 105.469551,185.297897 
	C114.369331,190.614029 122.507141,197.205795 131.364471,203.414368 
	C131.549149,204.247955 131.341125,204.917542 130.983704,205.915665 
z"/>
<path fill="#94B559" opacity="1.000000" stroke="none" 
	d="
M320.891174,221.074615 
	C315.997131,222.527756 311.333038,224.205139 306.555725,225.446640 
	C284.704803,231.125092 264.935425,227.131592 247.316071,212.722000 
	C229.181320,197.890900 222.727356,178.421875 224.058899,155.708237 
	C224.155701,154.056686 224.097168,152.395996 224.032425,150.258148 
	C223.953979,149.776749 223.967545,149.372269 224.357635,149.097473 
	C225.476776,147.035477 226.050659,145.164520 226.962280,143.475906 
	C230.524918,136.876556 234.194397,130.334885 237.833740,124.156860 
	C237.002838,126.513390 236.444504,128.672516 235.277603,130.426865 
	C225.058792,145.789993 223.807983,162.903168 228.509613,179.736282 
	C232.957581,195.661179 242.690750,208.352875 257.931641,216.992447 
	C276.381226,227.450943 294.547791,227.714539 313.604980,220.034027 
	C316.011749,219.064026 318.695007,218.779968 321.227234,218.542419 
	C321.277679,219.620834 321.351074,220.334961 321.424438,221.049103 
	C321.424438,221.049103 321.069031,221.098099 320.891174,221.074615 
z"/>
<path fill="#5F4730" opacity="1.000000" stroke="none" 
	d="
M238.780167,353.785187 
	C240.922684,352.857239 243.302994,351.963989 245.761765,351.436676 
	C247.502121,351.063477 249.348648,351.185364 251.485718,351.029846 
	C255.601486,358.910492 259.226654,366.925598 263.228210,374.748138 
	C264.959900,378.133392 264.241058,379.926941 260.884796,381.185272 
	C258.030853,382.255249 255.262054,385.315308 252.949112,380.118805 
	C249.645355,372.696198 245.881470,365.475189 242.195755,358.228302 
	C241.407654,356.678741 240.112869,355.386871 238.780167,353.785187 
z"/>
<path fill="#5F472F" opacity="1.000000" stroke="none" 
	d="
M206.087891,354.359131 
	C209.912308,354.254608 213.650024,354.552765 217.771027,355.027557 
	C214.690903,363.463501 211.081741,371.665680 207.814743,380.001953 
	C205.599487,385.654572 202.481339,382.156738 199.436066,381.300781 
	C195.399826,380.166290 195.929184,377.898926 197.294434,374.896057 
	C200.320251,368.240814 203.113251,361.479736 206.087891,354.359131 
z"/>
<path fill="#BC7247" opacity="1.000000" stroke="none" 
	d="
M38.144363,242.026535 
	C41.080906,237.386932 45.959103,236.643463 50.713882,236.304382 
	C55.121948,235.990036 59.590416,236.522644 64.364792,237.155426 
	C63.545582,238.079681 62.277550,239.096390 61.261623,238.887421 
	C55.894299,237.783432 51.005966,238.527649 45.944099,240.773331 
	C41.977005,242.533340 40.458256,245.080490 43.154640,248.556473 
	C51.724739,259.604401 64.072990,265.679382 75.689560,272.583710 
	C81.979881,276.322388 88.792915,279.321350 95.640808,281.948517 
	C105.290932,285.650726 115.192070,288.698669 124.985886,292.026367 
	C124.723709,292.878571 124.461533,293.730804 123.684006,294.858093 
	C93.044304,284.874908 63.776367,273.023315 40.183807,250.243805 
	C39.557877,249.147751 38.967514,248.354813 38.377159,247.561874 
	C38.377163,247.561874 38.370411,247.247864 38.317848,246.866196 
	C38.265289,246.484528 38.181259,245.999710 38.196526,245.602356 
	C38.189312,244.145508 38.166840,243.086029 38.144363,242.026535 
z"/>
<path fill="#B9D5A9" opacity="1.000000" stroke="none" 
	d="
M237.824158,123.771774 
	C234.194397,130.334885 230.524918,136.876556 226.962280,143.475906 
	C226.050659,145.164520 225.476776,147.035477 224.398544,148.899292 
	C224.167328,140.215042 227.192230,132.442703 232.776505,125.853455 
	C237.659210,120.092003 242.550629,114.130798 248.381165,109.426537 
	C258.017883,101.651329 269.099152,96.325279 281.825409,96.126556 
	C289.755280,96.002731 297.923706,95.704628 305.570404,97.378700 
	C312.758148,98.952316 319.401459,103.012840 326.632935,106.084167 
	C326.965363,106.943848 326.949188,107.698509 326.554565,108.766037 
	C313.062469,100.516052 298.616882,96.400429 283.112396,98.293625 
	C275.799927,99.186508 268.783173,102.501198 261.334076,104.758766 
	C260.352051,105.182175 259.668396,105.565361 258.648163,105.987198 
	C256.854248,106.971870 255.396942,107.917885 253.637238,108.940811 
	C252.544434,109.654114 251.754044,110.290512 250.619568,110.983597 
	C247.511139,113.690659 244.746811,116.341019 241.991547,118.996147 
	C242.000610,119.000916 241.991592,118.982567 241.681702,119.039551 
	C240.915970,119.735764 240.460129,120.374992 239.745880,121.173462 
	C238.933029,122.145729 238.378601,122.958755 237.824158,123.771774 
z"/>
<path fill="#D2C4AF" opacity="1.000000" stroke="none" 
	d="
M40.219383,250.546936 
	C63.776367,273.023315 93.044304,284.874908 123.554649,295.169464 
	C125.656738,296.142670 127.372826,297.079590 129.173141,298.330444 
	C127.575531,298.570587 125.728371,298.928009 124.237396,298.356415 
	C109.179573,292.583466 93.857658,287.352142 79.260574,280.568573 
	C66.307251,274.548920 53.924129,267.139832 43.151299,257.488098 
	C41.957329,256.418365 41.229286,254.828568 40.162540,252.780701 
	C40.099743,251.569931 40.159561,251.058441 40.219383,250.546936 
z"/>
<path fill="#94B559" opacity="1.000000" stroke="none" 
	d="
M352.749146,145.890564 
	C352.887695,155.303787 354.252838,164.898209 352.894897,174.090347 
	C350.491699,190.358246 342.531433,204.017014 329.038208,214.024658 
	C328.256866,214.604172 327.638519,215.403488 326.799805,216.399048 
	C326.655273,216.697601 326.301910,216.780624 325.787018,216.889587 
	C324.163818,217.303452 323.055542,217.608337 322.013092,217.582108 
	C326.210480,213.753098 330.792114,210.662155 334.390625,206.682327 
	C345.989716,193.854156 352.412506,178.821457 351.988708,161.272644 
	C351.865265,156.161163 351.376068,151.058502 351.337524,145.942078 
	C351.996735,145.918427 352.372925,145.904495 352.749146,145.890564 
z"/>
<path fill="#C9CBAE" opacity="1.000000" stroke="none" 
	d="
M321.947235,217.913239 
	C323.055542,217.608337 324.163818,217.303452 325.617432,216.954285 
	C324.652985,218.234238 323.343170,219.558487 321.728882,220.965912 
	C321.351074,220.334961 321.277679,219.620834 321.405762,218.489105 
	C321.607239,218.071533 321.947235,217.913239 321.947235,217.913239 
z"/>
<path fill="#D1C5B0" opacity="1.000000" stroke="none" 
	d="
M40.183807,250.243805 
	C40.159561,251.058441 40.099743,251.569931 40.024734,252.462372 
	C39.339539,251.285812 38.669533,249.728333 38.188339,247.866364 
	C38.967514,248.354813 39.557877,249.147751 40.183807,250.243805 
z"/>
<path fill="#D2C4AF" opacity="1.000000" stroke="none" 
	d="
M37.882698,242.242554 
	C38.166840,243.086029 38.189312,244.145508 37.902641,245.602417 
	C37.398293,245.999924 37.203087,246.000015 37.007885,246.000107 
	C37.007885,246.000107 36.983292,245.528397 36.978294,245.292908 
	C37.189213,244.191132 37.405121,243.324860 37.882698,242.242554 
z"/>
<path fill="#B9D5A9" opacity="1.000000" stroke="none" 
	d="
M205.749725,150.716125 
	C205.411514,151.057816 204.943329,151.236786 204.236542,151.293945 
	C204.538528,150.965897 205.079132,150.759644 205.749725,150.716125 
z"/>
<path fill="#D1C5B0" opacity="1.000000" stroke="none" 
	d="
M37.157757,246.220001 
	C37.203087,246.000015 37.398293,245.999924 37.887375,245.999771 
	C38.181259,245.999710 38.265289,246.484528 38.240772,246.729370 
	C37.913380,246.796112 37.610504,246.617996 37.157757,246.220001 
z"/>
<path fill="#93B52E" opacity="1.000000" stroke="none" 
	d="
M322.013092,217.582108 
	C321.947235,217.913239 321.607239,218.071533 321.428711,218.124832 
	C318.695007,218.779968 316.011749,219.064026 313.604980,220.034027 
	C294.547791,227.714539 276.381226,227.450943 257.931641,216.992447 
	C242.690750,208.352875 232.957581,195.661179 228.509613,179.736282 
	C223.807983,162.903168 225.058792,145.789993 235.277603,130.426865 
	C236.444504,128.672516 237.002838,126.513390 237.833755,124.156860 
	C238.378601,122.958755 238.933029,122.145729 240.058319,121.117798 
	C241.083328,120.262794 241.537460,119.622681 241.991592,118.982567 
	C241.991592,118.982567 242.000610,119.000916 242.337921,118.957031 
	C245.438019,116.251060 248.200836,113.588989 250.963654,110.926910 
	C251.754044,110.290512 252.544434,109.654114 253.853683,109.170197 
	C255.909943,108.197968 257.447357,107.073257 258.984741,105.948547 
	C259.668396,105.565361 260.352051,105.182175 261.744629,104.793579 
	C265.419922,103.840073 268.340210,102.699409 271.360352,101.975571 
	C289.075470,97.729797 305.961182,99.449364 321.760681,109.079872 
	C323.373016,110.062668 325.415161,110.340347 327.418854,110.936829 
	C327.579865,110.928436 327.900360,110.893173 327.900360,110.893173 
	C327.900360,110.893173 328.381073,110.793655 328.705536,111.128525 
	C338.270905,121.746574 347.137177,132.268982 351.054565,145.951797 
	C351.376068,151.058502 351.865265,156.161163 351.988708,161.272644 
	C352.412506,178.821457 345.989716,193.854156 334.390625,206.682327 
	C330.792114,210.662155 326.210480,213.753098 322.013092,217.582108 
M307.153656,157.619232 
	C310.782349,152.532379 312.180389,146.876648 311.849823,140.646881 
	C311.306671,130.410675 303.487366,120.434464 293.782776,117.886719 
	C281.791656,114.738686 270.502350,119.351532 264.175415,129.984390 
	C258.981293,138.713409 260.566071,151.771194 267.292328,159.400269 
	C277.211334,170.650604 296.213379,171.419113 307.153656,157.619232 
z"/>
<path fill="#B9794A" opacity="1.000000" stroke="none" 
	d="
M351.337524,145.942078 
	C347.137177,132.268982 338.270905,121.746574 328.949677,111.103241 
	C336.704498,98.048477 344.539673,85.353874 352.374817,72.659271 
	C352.885956,72.801224 353.397064,72.943176 353.908173,73.085129 
	C352.659485,89.093063 351.410767,105.101006 350.079285,122.170265 
	C363.502655,119.575500 376.171478,117.126595 388.840302,114.677681 
	C389.062744,115.187027 389.285156,115.696365 389.507568,116.205704 
	C377.413177,125.936455 365.318756,135.667206 352.986755,145.644257 
	C352.372925,145.904495 351.996735,145.918427 351.337524,145.942078 
M349.686005,83.606377 
	C346.835571,87.379242 343.769958,91.012085 341.197113,94.965591 
	C338.772491,98.691383 337.429321,103.241592 334.578461,106.536156 
	C331.595123,109.983871 332.445618,111.680634 334.982513,114.789062 
	C340.464844,121.506538 345.661804,128.531784 350.223602,135.896851 
	C352.848175,140.134232 354.443359,141.155121 358.469604,137.998245 
	C363.023071,134.427979 367.613586,130.903519 372.113098,127.266449 
	C374.437653,125.387405 376.599976,123.307610 378.835571,121.318512 
	C378.581635,120.723022 378.327667,120.127533 378.073730,119.532043 
	C371.877686,120.752960 365.549194,121.524330 359.517181,123.301872 
	C350.821228,125.864449 347.388794,123.699089 348.060913,115.380501 
	C348.912079,104.846497 349.576050,94.297363 349.686005,83.606377 
z"/>
<path fill="#94B559" opacity="1.000000" stroke="none" 
	d="
M327.257843,110.945229 
	C325.415161,110.340347 323.373016,110.062668 321.760681,109.079872 
	C305.961182,99.449364 289.075470,97.729797 271.360352,101.975571 
	C268.340210,102.699409 265.419922,103.840073 262.042969,104.753357 
	C268.783173,102.501198 275.799927,99.186508 283.112396,98.293625 
	C298.616882,96.400429 313.062469,100.516052 326.526367,109.145622 
	C326.927490,109.407570 326.978333,109.602791 327.112671,110.231995 
	C327.196136,110.665993 327.257843,110.945229 327.257843,110.945229 
z"/>
<path fill="#B9794A" opacity="1.000000" stroke="none" 
	d="
M327.418854,110.936829 
	C327.257843,110.945229 327.196136,110.665993 327.177643,110.527542 
	C327.381683,110.392960 327.573822,110.471275 327.817963,110.758606 
	C327.900360,110.893173 327.579865,110.928436 327.418854,110.936829 
z"/>
<path fill="#CF6227" opacity="1.000000" stroke="none" 
	d="
M124.970184,291.640076 
	C115.192070,288.698669 105.290932,285.650726 95.640808,281.948517 
	C88.792915,279.321350 81.979881,276.322388 75.689560,272.583710 
	C64.072990,265.679382 51.724739,259.604401 43.154640,248.556473 
	C40.458256,245.080490 41.977005,242.533340 45.944099,240.773331 
	C51.005966,238.527649 55.894299,237.783432 61.261623,238.887421 
	C62.277550,239.096390 63.545582,238.079681 64.757111,237.247650 
	C64.816925,236.866806 64.845085,236.862091 65.216621,236.821991 
	C65.504471,234.822876 66.098648,232.448730 65.203346,230.986740 
	C62.983032,227.361038 59.657837,224.386536 57.614140,220.687637 
	C56.388767,218.469818 55.745796,214.930695 56.700214,212.830154 
	C57.439102,211.203979 61.135094,209.990448 63.388752,210.172775 
	C68.448402,210.582108 73.395599,212.232147 78.452324,212.877899 
	C82.012459,213.332535 85.677483,212.965775 89.295677,212.965775 
	C89.548523,212.316864 89.801369,211.667938 90.054214,211.019028 
	C87.974945,209.683411 85.895668,208.347809 83.816383,207.012207 
	C83.621109,206.534119 83.425842,206.056030 83.131760,204.997803 
	C82.692909,203.610809 82.352867,202.803970 82.012825,201.997116 
	C81.020424,198.723663 79.657936,195.507004 79.144386,192.160065 
	C78.673042,189.088226 79.116913,185.875961 79.157555,182.725555 
	C82.496727,182.854172 86.138130,182.160187 89.121796,183.256409 
	C100.898293,187.583221 110.880264,194.836411 120.724586,202.597839 
	C125.445213,206.319702 126.586670,208.453217 124.434357,214.142258 
	C116.299736,235.643890 115.589790,257.751465 121.078896,280.031281 
	C122.021729,283.858124 123.645340,287.517212 124.970184,291.640076 
z"/>
<path fill="#BC7247" opacity="1.000000" stroke="none" 
	d="
M81.700363,202.015091 
	C82.352867,202.803970 82.692909,203.610809 83.024124,204.763092 
	C82.326790,204.310394 81.638290,203.512268 80.857201,202.402435 
	C80.972374,202.071503 81.180138,202.052277 81.700363,202.015091 
z"/>
<path fill="#BC7247" opacity="1.000000" stroke="none" 
	d="
M83.839554,207.379883 
	C85.895668,208.347809 87.974945,209.683411 90.054214,211.019028 
	C89.801369,211.667938 89.548523,212.316864 89.295677,212.965775 
	C85.677483,212.965775 82.012459,213.332535 78.452324,212.877899 
	C73.395599,212.232147 68.448402,210.582108 63.388752,210.172775 
	C61.135094,209.990448 57.439102,211.203979 56.700214,212.830154 
	C55.745796,214.930695 56.388767,218.469818 57.614140,220.687637 
	C59.657837,224.386536 62.983032,227.361038 65.203346,230.986740 
	C66.098648,232.448730 65.504471,234.822876 65.225655,236.814728 
	C63.664234,234.776184 62.489712,232.690231 61.261406,230.636444 
	C58.568588,226.133911 55.196072,221.902863 53.312370,217.087173 
	C51.179981,211.635727 54.119446,207.756989 59.998192,207.969986 
	C65.884598,208.183258 71.743538,209.392960 77.591232,210.313782 
	C79.808182,210.662857 81.960136,211.424683 84.974678,212.217438 
	C84.450241,210.109299 84.156479,208.928436 83.839554,207.379883 
z"/>
<path fill="#94B559" opacity="1.000000" stroke="none" 
	d="
M250.619568,110.983597 
	C248.200836,113.588989 245.438019,116.251060 242.328857,118.952255 
	C244.746811,116.341019 247.511139,113.690659 250.619568,110.983597 
z"/>
<path fill="#94B559" opacity="1.000000" stroke="none" 
	d="
M258.648163,105.987198 
	C257.447357,107.073257 255.909943,108.197968 254.156067,109.093292 
	C255.396942,107.917885 256.854248,106.971870 258.648163,105.987198 
z"/>
<path fill="#94B559" opacity="1.000000" stroke="none" 
	d="
M241.681702,119.039551 
	C241.537460,119.622681 241.083328,120.262794 240.316742,120.958572 
	C240.460129,120.374992 240.915970,119.735764 241.681702,119.039551 
z"/>
<path fill="#EAEECC" opacity="1.000000" stroke="none" 
	d="
M306.934296,157.902252 
	C296.213379,171.419113 277.211334,170.650604 267.292328,159.400269 
	C260.566071,151.771194 258.981293,138.713409 264.175415,129.984390 
	C270.502350,119.351532 281.791656,114.738686 293.782776,117.886719 
	C303.487366,120.434464 311.306671,130.410675 311.849823,140.646881 
	C312.180389,146.876648 310.782349,152.532379 306.934296,157.902252 
M303.056427,150.224762 
	C306.218109,145.161514 307.344452,139.651474 303.497406,134.819855 
	C301.172058,131.899368 297.226562,130.268906 294.482544,127.564423 
	C295.443451,127.514259 296.404022,127.432617 297.365387,127.421410 
	C298.756775,127.405167 300.148773,127.439896 301.540497,127.452881 
	C300.565918,126.292961 299.821533,124.687378 298.579254,124.045815 
	C290.798279,120.027336 283.333557,119.422531 275.046143,123.978874 
	C260.358307,132.054123 260.741272,149.728745 272.732300,160.077927 
	C277.908508,164.545410 283.513367,165.060394 289.752167,164.880997 
	C293.267395,164.779907 304.188416,157.520157 304.664673,154.108017 
	C304.797943,153.152954 303.566406,152.007385 303.056427,150.224762 
z"/>
<path fill="#CB6328" opacity="1.000000" stroke="none" 
	d="
M350.003357,83.680565 
	C349.576050,94.297363 348.912079,104.846497 348.060913,115.380501 
	C347.388794,123.699089 350.821228,125.864449 359.517181,123.301872 
	C365.549194,121.524330 371.877686,120.752960 378.073730,119.532043 
	C378.327667,120.127533 378.581635,120.723022 378.835571,121.318512 
	C376.599976,123.307610 374.437653,125.387405 372.113098,127.266449 
	C367.613586,130.903519 363.023071,134.427979 358.469604,137.998245 
	C354.443359,141.155121 352.848175,140.134232 350.223602,135.896851 
	C345.661804,128.531784 340.464844,121.506538 334.982513,114.789062 
	C332.445618,111.680634 331.595123,109.983871 334.578461,106.536156 
	C337.429321,103.241592 338.772491,98.691383 341.197113,94.965591 
	C343.769958,91.012085 346.835571,87.379242 350.003357,83.680565 
z"/>
<path fill="#FDFDF9" opacity="1.000000" stroke="none" 
	d="
M302.960938,150.949188 
	C303.566406,152.007385 304.797943,153.152954 304.664673,154.108017 
	C304.188416,157.520157 293.267395,164.779907 289.752167,164.880997 
	C283.513367,165.060394 277.908508,164.545410 272.732300,160.077927 
	C260.741272,149.728745 260.358307,132.054123 275.046143,123.978874 
	C283.333557,119.422531 290.798279,120.027336 298.579254,124.045815 
	C299.821533,124.687378 300.565918,126.292961 301.540497,127.452881 
	C300.148773,127.439896 298.756775,127.405167 297.365387,127.421410 
	C296.404022,127.432617 295.443451,127.514259 293.851868,127.886589 
	C292.156128,128.184860 291.091034,128.160950 289.879944,127.927292 
	C289.143250,128.032745 288.552612,128.347961 287.755859,128.855133 
	C287.188599,129.125595 286.827393,129.204086 286.080658,129.209457 
	C284.898315,129.864014 284.101562,130.591705 283.153015,131.160004 
	C283.001221,131.000610 283.303802,131.318985 282.917908,131.277832 
	C281.833099,132.381927 281.134186,133.527176 280.340851,135.017700 
	C279.682587,137.230103 279.118683,139.097260 278.252502,141.087982 
	C278.562256,143.477036 279.174255,145.742538 280.020508,148.255402 
	C282.838135,150.684631 285.421570,152.866470 288.107574,155.405182 
	C290.941010,157.418716 293.610626,158.186310 296.268372,155.045380 
	C297.097473,154.722961 297.681396,154.578857 298.632233,154.543106 
	C299.629028,154.042191 300.258942,153.432907 301.008423,152.561920 
	C301.738953,151.849869 302.349915,151.399521 302.960938,150.949188 
z"/>
<path fill="#63432B" opacity="1.000000" stroke="none" 
	d="
M298.265350,154.434738 
	C297.681396,154.578857 297.097473,154.722961 295.825256,154.984558 
	C292.759674,155.084137 290.382355,155.066223 288.005005,155.048294 
	C285.421570,152.866470 282.838135,150.684631 280.051941,147.862946 
	C279.417725,145.136871 278.986267,143.050644 278.554810,140.964401 
	C279.118683,139.097260 279.682587,137.230103 280.629639,134.873016 
	C281.776520,133.361694 282.540161,132.340347 283.303802,131.319000 
	C283.303802,131.318985 283.001221,131.000610 283.469391,131.103912 
	C284.780426,130.565659 285.623322,129.924118 286.466217,129.282562 
	C286.827393,129.204086 287.188599,129.125595 288.031952,128.930557 
	C289.018066,128.588364 289.522034,128.362701 290.025970,128.137054 
	C291.091034,128.160950 292.156128,128.184860 293.615112,128.133789 
	C297.226562,130.268906 301.172058,131.899368 303.497406,134.819855 
	C307.344452,139.651474 306.218109,145.161514 303.008667,150.586975 
	C302.349915,151.399521 301.738953,151.849869 300.692932,152.601746 
	C299.593719,153.413788 298.929535,153.924255 298.265350,154.434738 
z"/>
<path fill="#EAEECC" opacity="1.000000" stroke="none" 
	d="
M288.107574,155.405182 
	C290.382355,155.066223 292.759674,155.084137 295.580109,155.162872 
	C293.610626,158.186310 290.941010,157.418716 288.107574,155.405182 
z"/>
<path fill="#EAEECC" opacity="1.000000" stroke="none" 
	d="
M278.252502,141.087982 
	C278.986267,143.050644 279.417725,145.136871 279.817749,147.615570 
	C279.174255,145.742538 278.562256,143.477036 278.252502,141.087982 
z"/>
<path fill="#EAEECC" opacity="1.000000" stroke="none" 
	d="
M282.917908,131.277832 
	C282.540161,132.340347 281.776520,133.361694 280.724060,134.527740 
	C281.134186,133.527176 281.833099,132.381927 282.917908,131.277832 
z"/>
<path fill="#EAEECC" opacity="1.000000" stroke="none" 
	d="
M286.080658,129.209442 
	C285.623322,129.924118 284.780426,130.565659 283.621155,131.263290 
	C284.101562,130.591705 284.898315,129.864014 286.080658,129.209442 
z"/>
<path fill="#EAEECC" opacity="1.000000" stroke="none" 
	d="
M289.879944,127.927292 
	C289.522034,128.362701 289.018066,128.588364 288.238037,128.738602 
	C288.552612,128.347961 289.143250,128.032745 289.879944,127.927292 
z"/>
<path fill="#EAEECC" opacity="1.000000" stroke="none" 
	d="
M298.632233,154.543106 
	C298.929535,153.924255 299.593719,153.413788 300.573395,152.863464 
	C300.258942,153.432907 299.629028,154.042191 298.632233,154.543106 
z"/>
</svg>