<svg version="1.1" id="Layer_1" xmlns="http://www.w3.org/2000/svg" xmlns:xlink="http://www.w3.org/1999/xlink" x="0px" y="0px"
	 width="100%" viewBox="0 0 450 450" enable-background="new 0 0 450 450" xml:space="preserve">
<path fill="#C0D9D5" opacity="1.000000" stroke="none" 
	d="
M1.000000,450.000000 
	C1.000000,300.404755 1.000000,150.809525 1.000000,1.000000 
	C150.024017,1.000000 299.048126,1.000000 448.520905,1.464814 
	C448.967987,146.125595 448.967896,290.321564 448.958771,434.517548 
	C448.958466,439.676331 448.869446,444.835144 448.554626,450.040466 
	C447.858307,450.391296 447.429138,450.695648 447.000000,451.000000 
	C298.975922,451.000000 150.951843,451.000000 2.335910,450.798096 
	C1.526530,450.359406 1.278513,450.160675 1.000000,450.000000 
M240.898773,69.098503 
	C240.898773,69.098503 240.892242,69.038818 240.851379,68.376282 
	C239.887894,67.627472 238.924393,66.878662 237.443054,65.703072 
	C229.737106,58.104954 220.834167,52.286144 210.589996,48.869289 
	C185.116394,40.372780 162.042160,45.437904 142.242264,63.102543 
	C120.456383,82.539001 108.650734,106.429901 114.136147,136.450211 
	C116.077583,147.075211 119.087090,157.506027 121.638458,168.018341 
	C124.610542,180.264145 121.124413,187.776321 109.435799,192.256943 
	C102.788376,194.805099 95.754387,196.401337 88.822113,198.137283 
	C77.059814,201.082733 67.362251,206.908188 60.503277,217.150467 
	C48.101295,235.669952 44.153046,255.991425 48.329010,277.683960 
	C51.913502,296.304016 62.606640,309.291077 81.668198,313.314575 
	C101.495483,317.499695 120.973457,314.395905 140.706406,308.118774 
	C141.150406,308.042053 141.594391,307.965332 142.225021,308.629272 
	C141.606857,310.166748 140.986313,311.703308 140.370926,313.241882 
	C137.477066,320.477112 134.323288,327.625427 131.853409,335.002686 
	C131.127197,337.171753 132.340393,339.990173 132.664780,342.511017 
	C135.148483,342.048126 138.200073,342.342377 140.011734,340.983521 
	C145.966080,336.517395 151.420792,331.391113 157.176880,326.651367 
	C159.034302,325.121918 161.229767,324.003021 162.924271,323.607727 
	C162.983658,339.930481 165.722992,355.771637 172.045258,370.848450 
	C178.422653,386.056824 188.295090,397.645538 205.587662,400.511871 
	C221.419479,403.136047 236.167847,399.194275 249.717667,391.359222 
	C272.867157,377.973145 288.016785,359.608002 283.203461,330.295044 
	C282.190979,324.129150 282.246277,317.654388 282.768463,311.402039 
	C283.515320,302.458588 288.829041,297.154755 297.690735,295.907776 
	C304.765900,294.912231 311.908325,294.244720 319.044037,293.855652 
	C348.721161,292.237549 372.127655,280.111603 387.296112,253.796158 
	C399.931366,231.875519 403.397064,209.271179 392.763184,185.503632 
	C374.713379,145.160980 316.553589,132.615250 286.795105,150.647079 
	C289.598175,145.273468 291.353516,138.872437 295.413910,134.731796 
	C305.018036,124.937859 316.562103,117.916229 330.363464,114.903236 
	C334.763275,113.942703 337.192139,115.137550 339.668579,118.300949 
	C347.857819,128.762009 361.657776,127.177605 369.333588,118.206367 
	C375.714661,110.748360 373.741364,98.609917 366.710785,91.924561 
	C362.692078,88.103188 358.033478,87.481339 353.451263,87.486359 
	C347.693756,87.492668 341.746033,88.614998 339.151184,95.233490 
	C337.248169,100.087387 333.375183,101.652588 328.419708,102.589912 
	C322.963318,103.621979 317.762604,106.009026 312.453644,107.815086 
	C310.411255,108.509903 308.419312,109.440796 306.323578,109.856888 
	C305.143585,110.091156 303.539093,109.867912 302.580536,109.199097 
	C300.337006,107.633667 298.192932,105.833450 296.360992,103.809341 
	C295.445526,102.797836 294.939026,101.104187 294.871338,99.689247 
	C294.499023,91.903778 294.103516,84.106674 294.190308,76.318855 
	C294.220978,73.569595 294.806183,70.156067 296.486908,68.211517 
	C303.824524,59.722195 302.871063,46.660248 293.782410,39.965912 
	C286.941376,34.927097 279.323853,36.079624 272.419830,39.098125 
	C265.811584,41.987316 263.260712,48.430382 263.081146,55.476036 
	C262.879944,63.370781 266.805847,69.045204 272.989716,70.870918 
	C274.542145,71.882065 276.200775,72.764984 277.618225,73.939102 
	C279.146271,75.204872 281.426697,76.585030 281.686188,78.189102 
	C283.081940,86.817108 283.393188,95.420883 280.364655,103.961876 
	C279.267883,107.054794 279.714569,110.695000 279.209259,114.777115 
	C279.129608,115.505798 279.049988,116.234482 278.850861,116.906631 
	C278.850861,116.906631 278.718658,116.906219 278.134399,117.222473 
	C276.387054,120.068298 274.639709,122.914124 272.579559,126.192253 
	C272.315430,126.429405 272.051300,126.666557 271.060516,126.914772 
	C269.314758,128.196732 267.602356,129.527954 265.810669,130.742142 
	C264.741364,131.466812 263.547699,132.007996 262.480957,132.071396 
	C262.570068,131.705856 262.659149,131.340302 263.179749,130.734116 
	C263.134186,130.180130 263.088593,129.626129 263.018250,128.132202 
	C263.071075,123.725571 263.123901,119.318939 263.546875,114.533798 
	C263.262299,113.641785 262.977722,112.749763 262.434448,111.149498 
	C262.307831,110.407799 262.181213,109.666100 262.396423,108.617958 
	C262.099518,108.044502 261.802612,107.471054 261.213501,106.177277 
	C260.893738,104.925133 260.574005,103.672989 260.526154,101.695633 
	C259.143677,98.779724 257.761230,95.863815 256.063354,92.310768 
	C255.275681,90.607750 254.488007,88.904739 253.766235,86.524818 
	C252.934235,85.337494 252.102234,84.150162 250.860214,82.449867 
	C250.168747,81.334038 249.477280,80.218208 248.821976,78.516556 
	C248.326508,77.983147 247.831039,77.449738 246.818298,76.494202 
	C245.470261,74.713097 244.122223,72.931992 242.800903,70.511971 
	C242.186554,70.044395 241.572189,69.576828 240.898773,69.098503 
z"/>
<path fill="#B96944" opacity="1.000000" stroke="none" 
	d="
M448.821777,449.993927 
	C448.869446,444.835144 448.958466,439.676331 448.958771,434.517548 
	C448.967896,290.321564 448.967987,146.125595 448.984802,1.464812 
	C449.666656,1.333329 450.783630,1.548033 450.909027,2.023961 
	C451.196442,3.114917 451.000000,4.333333 451.000000,5.500000 
	C451.000000,152.500000 451.002960,299.500000 450.958588,446.500000 
	C450.958130,448.000092 450.333344,449.500000 449.497620,450.740997 
	C448.937408,450.319336 448.879608,450.156647 448.821777,449.993927 
z"/>
<path fill="#D1E4E2" opacity="1.000000" stroke="none" 
	d="
M448.554626,450.040466 
	C448.879608,450.156647 448.937408,450.319336 448.997620,450.740997 
	C448.555542,451.000000 448.111115,451.000000 447.333313,451.000000 
	C447.429138,450.695648 447.858307,450.391296 448.554626,450.040466 
z"/>
<path fill="#D1E4E2" opacity="1.000000" stroke="none" 
	d="
M1.000000,450.500000 
	C1.278513,450.160675 1.526530,450.359406 1.872026,450.798096 
	C1.666667,451.000000 1.333333,451.000000 1.000000,450.500000 
z"/>
<path fill="#376967" opacity="1.000000" stroke="none" 
	d="
M287.124298,151.109650 
	C316.553589,132.615250 374.713379,145.160980 392.763184,185.503632 
	C403.397064,209.271179 399.931366,231.875519 387.296112,253.796158 
	C372.127655,280.111603 348.721161,292.237549 319.044037,293.855652 
	C311.908325,294.244720 304.765900,294.912231 297.690735,295.907776 
	C288.829041,297.154755 283.515320,302.458588 282.768463,311.402039 
	C282.246277,317.654388 282.190979,324.129150 283.203461,330.295044 
	C288.016785,359.608002 272.867157,377.973145 249.717667,391.359222 
	C236.167847,399.194275 221.419479,403.136047 205.587662,400.511871 
	C188.295090,397.645538 178.422653,386.056824 172.045258,370.848450 
	C165.722992,355.771637 162.983658,339.930481 163.244720,323.053986 
	C164.731628,320.647980 165.898102,318.795715 167.399780,316.904938 
	C173.192215,311.179932 179.020584,305.800079 184.026566,299.740784 
	C193.377594,288.422211 202.284286,276.734833 211.282700,265.128693 
	C212.451843,263.620758 213.069382,261.685150 214.161133,259.762268 
	C214.586502,259.050842 214.793152,258.524811 215.341019,257.942749 
	C218.798203,253.599152 221.914185,249.311554 225.311890,244.847290 
	C226.714767,242.764664 227.835907,240.858673 229.010864,238.671799 
	C229.385376,237.934723 229.706039,237.478516 230.367752,236.966644 
	C232.648972,235.150726 235.024765,233.685379 236.451508,231.577606 
	C241.729691,223.779968 246.708954,215.779434 251.773422,207.837875 
	C257.972656,198.116882 264.178650,188.399765 270.296997,178.627930 
	C271.396423,176.871979 272.085876,174.859329 272.977600,172.727722 
	C272.990601,172.490234 273.017365,172.015305 273.354248,171.956253 
	C275.711731,170.864838 277.880341,169.904312 276.113892,166.662964 
	C278.802307,161.562714 281.439117,156.809189 284.417053,152.067932 
	C285.546875,151.756683 286.335571,151.433167 287.124298,151.109650 
M201.008255,369.519318 
	C201.603134,370.101746 202.176239,370.708496 202.796066,371.263031 
	C219.674057,386.362396 231.217499,382.676117 242.879440,370.220734 
	C249.869568,362.755066 255.410156,353.929413 261.575165,345.694763 
	C268.738129,336.127136 267.339539,326.174988 261.868958,316.727020 
	C258.332092,310.618652 253.756653,305.007416 249.029404,299.725861 
	C245.326385,295.588684 241.211945,291.148651 236.333282,288.876617 
	C226.634903,284.360016 216.753693,286.467194 208.743271,293.137817 
	C200.998535,299.587189 194.166351,307.154480 187.109909,314.402649 
	C178.497772,323.248749 177.177719,333.401276 181.796799,344.743866 
	C185.818161,354.618652 193.061829,361.858368 201.008255,369.519318 
M317.428345,158.934998 
	C311.235809,161.543900 304.203735,163.042511 299.008820,166.970718 
	C283.656769,178.579300 272.320465,194.053055 264.135468,211.169769 
	C255.661377,228.891037 258.613190,245.648956 280.316345,253.197372 
	C294.674377,258.191162 309.320007,259.926025 324.443848,258.111511 
	C337.787445,256.510559 350.666992,253.898468 361.264008,244.748367 
	C372.676910,234.893784 378.504791,222.795059 377.138092,207.457535 
	C375.748535,191.863815 367.979431,179.696045 356.250580,170.248520 
	C345.364838,161.480087 332.826874,156.350830 317.428345,158.934998 
z"/>
<path fill="#366868" opacity="1.000000" stroke="none" 
	d="
M260.254242,102.420845 
	C260.574005,103.672989 260.893738,104.925133 261.258667,106.811966 
	C261.554077,107.939232 261.804321,108.431816 262.054596,108.924400 
	C262.181213,109.666100 262.307831,110.407799 262.409912,111.811676 
	C262.649139,113.286667 262.912933,114.099487 263.176727,114.912308 
	C263.123901,119.318939 263.071075,123.725571 262.854919,128.738098 
	C262.710510,129.887589 262.729370,130.431168 262.748230,130.974762 
	C262.659149,131.340302 262.570068,131.705856 262.211060,132.557755 
	C261.349182,134.673630 260.757233,136.303146 259.810760,138.001633 
	C255.544800,142.628937 251.533356,147.105804 247.741348,151.761398 
	C237.702820,164.086075 227.702255,176.442688 217.801422,188.878006 
	C212.672409,195.319977 207.615768,201.834076 202.844254,208.541687 
	C198.846680,214.161316 195.450821,220.205734 191.538940,225.890320 
	C184.798431,235.685318 177.526016,245.129807 171.106400,255.125748 
	C164.764359,265.000854 159.125092,275.333069 153.327789,285.550018 
	C150.083466,291.267700 147.144180,297.158508 144.031036,303.237488 
	C143.971130,303.681274 143.947662,303.858826 143.574066,304.084595 
	C142.158798,305.469025 141.093658,306.805206 140.028534,308.141388 
	C120.973457,314.395905 101.495483,317.499695 81.668198,313.314575 
	C62.606640,309.291077 51.913502,296.304016 48.329010,277.683960 
	C44.153046,255.991425 48.101295,235.669952 60.503277,217.150467 
	C67.362251,206.908188 77.059814,201.082733 88.822113,198.137283 
	C95.754387,196.401337 102.788376,194.805099 109.435799,192.256943 
	C121.124413,187.776321 124.610542,180.264145 121.638458,168.018341 
	C119.087090,157.506027 116.077583,147.075211 114.136147,136.450211 
	C108.650734,106.429901 120.456383,82.539001 142.242264,63.102543 
	C162.042160,45.437904 185.116394,40.372780 210.589996,48.869289 
	C220.834167,52.286144 229.737106,58.104954 237.762177,66.222198 
	C239.018295,67.507149 239.955276,68.272980 240.892242,69.038818 
	C240.892242,69.038818 240.898773,69.098503 240.973663,69.396469 
	C241.623764,70.179916 242.198975,70.665398 242.774185,71.150879 
	C244.122223,72.931992 245.470261,74.713097 247.075623,76.996964 
	C247.817215,78.033943 248.301514,78.568161 248.785812,79.102371 
	C249.477280,80.218208 250.168747,81.334038 251.055206,83.031021 
	C252.066910,84.808701 252.883621,86.005211 253.700348,87.201721 
	C254.488007,88.904739 255.275681,90.607750 256.178894,92.982605 
	C257.614380,96.576576 258.934296,99.498711 260.254242,102.420845 
M149.374527,90.134171 
	C148.939301,90.763634 148.504074,91.393097 147.921799,92.766167 
	C147.608871,94.503067 147.295944,96.239975 146.334869,98.160110 
	C145.923340,99.113831 145.511826,100.067551 145.070007,101.769341 
	C145.069321,102.517914 145.068634,103.266479 145.024521,104.811371 
	C145.018585,107.211113 145.012650,109.610855 144.994217,112.841476 
	C145.004227,114.226318 145.014252,115.611160 145.003433,117.720428 
	C145.322159,118.831741 145.640884,119.943054 145.926025,121.806480 
	C146.287064,124.867050 146.648087,127.927620 146.603455,131.482239 
	C147.382507,133.350815 148.161545,135.219406 148.940887,137.717422 
	C148.949783,138.136948 148.958679,138.556488 148.533188,139.475067 
	C149.677551,141.669006 150.821915,143.862930 151.985413,146.747208 
	C152.333694,147.830002 152.681992,148.912781 153.086594,150.576630 
	C153.382797,151.061127 153.679001,151.545624 154.124069,152.654144 
	C155.279404,153.788864 156.434723,154.923569 157.805740,156.652191 
	C157.896957,157.062408 157.988174,157.472610 157.994934,158.583542 
	C157.992767,159.053085 157.990601,159.522644 158.002777,160.657349 
	C158.331116,161.440689 158.659439,162.224030 159.145828,163.655289 
	C160.414230,164.431808 161.682632,165.208328 163.151108,166.588913 
	C163.249756,167.001129 163.348404,167.413330 162.882629,168.210785 
	C164.261444,170.462433 165.640244,172.714066 167.586243,175.320053 
	C168.784500,175.841705 169.982758,176.363358 171.656525,177.168808 
	C172.143387,177.716187 172.630264,178.263565 173.173233,179.523895 
	C174.138794,180.000275 175.104370,180.476654 176.512268,181.051529 
	C176.512268,181.051529 176.936295,181.211472 176.938187,181.803284 
	C176.957184,182.200531 176.976181,182.597778 177.239853,183.405014 
	C177.437149,183.663269 177.683319,183.860565 177.990814,184.005798 
	C177.990814,184.005798 177.992050,184.025772 178.176804,184.705902 
	C181.461426,187.034225 184.759155,189.301346 189.816650,187.027298 
	C190.869400,187.021576 191.922134,187.015869 193.318100,187.381699 
	C193.885986,187.243103 194.453888,187.104507 195.813385,186.976730 
	C196.868530,186.953949 197.923691,186.931168 199.711899,186.933746 
	C202.787704,184.947372 205.863510,182.961014 208.982086,180.505020 
	C208.982086,180.505020 209.019943,180.034958 209.729599,179.993469 
	C212.537430,179.421249 214.604416,178.373596 213.295105,174.373672 
	C214.916046,172.594025 216.537003,170.814377 218.767929,169.053207 
	C219.177505,169.036926 219.587067,169.020645 220.739975,168.955460 
	C221.502502,167.634674 222.265045,166.313904 223.314728,164.502213 
	C223.875336,164.007492 224.435944,163.512787 225.670609,162.904312 
	C226.752274,161.595337 227.833923,160.286346 229.055817,158.296997 
	C234.978607,151.148071 238.838928,142.951843 242.796494,134.559418 
	C247.276474,125.059120 248.979141,115.832489 246.895706,105.845139 
	C245.517761,99.239685 244.043213,92.432396 237.173904,88.268585 
	C236.788742,87.172752 236.403580,86.076927 235.889175,84.308716 
	C232.235809,81.229530 228.582443,78.150345 224.317719,75.013733 
	C223.908783,74.985893 223.499847,74.958054 222.893646,74.278023 
	C219.607285,70.957779 216.295517,67.694687 210.267212,68.990501 
	C209.805161,69.046669 209.343124,69.102837 208.875595,69.092010 
	C208.875595,69.092010 208.942261,69.083336 208.934525,68.298477 
	C207.873947,67.512459 206.922501,66.326935 205.735764,66.002769 
	C194.925980,63.049980 184.012466,63.174862 173.417969,66.568604 
	C168.962830,67.995735 163.840088,69.578239 161.739136,75.405945 
	C161.536591,75.646492 161.296997,75.841545 160.288727,76.011879 
	C156.014282,77.473534 153.307495,80.047020 153.657303,85.479637 
	C153.105576,85.982750 152.553833,86.485863 151.350220,87.156929 
	C150.902252,88.097450 150.454285,89.037971 149.993484,89.993507 
	C149.993484,89.993507 149.980530,90.008392 149.374527,90.134171 
M76.167534,237.701248 
	C73.113815,244.120895 69.473595,250.337494 67.161896,257.014069 
	C64.551582,264.553040 64.611977,272.349976 71.583740,278.005920 
	C83.641930,287.788330 97.066811,295.060181 112.701462,296.832214 
	C122.738037,297.969727 132.092560,295.469238 138.351425,286.735657 
	C141.788742,281.939270 144.332214,276.506165 147.331268,271.390961 
	C152.033966,263.369934 154.642792,254.673798 155.832245,245.503067 
	C156.860306,237.576492 151.080658,225.135361 144.061310,222.386093 
	C134.210617,218.527878 124.189781,214.732971 113.897560,212.490753 
	C105.689499,210.702545 96.638817,210.505402 90.404671,218.253769 
	C85.522896,224.321289 81.119728,230.773880 76.167534,237.701248 
z"/>
<path fill="#5F3C22" opacity="1.000000" stroke="none" 
	d="
M271.787170,126.903717 
	C272.051300,126.666557 272.315430,126.429405 273.063782,125.935051 
	C275.271576,122.753975 276.995117,119.830093 278.718658,116.906219 
	C278.718658,116.906219 278.850861,116.906631 279.261597,116.935699 
	C280.744080,116.655975 281.815826,116.347183 283.263306,116.017624 
	C285.436676,114.328842 287.234375,112.660828 289.348938,110.992828 
	C290.465332,110.491867 291.264832,109.990875 292.424225,109.250351 
	C294.904175,108.602325 297.024231,108.193840 299.144287,107.785355 
	C299.534332,109.893333 299.975372,111.993927 300.282318,114.113930 
	C300.370392,114.722183 300.071014,115.386551 299.711731,116.269699 
	C297.500488,120.379204 295.533051,124.245247 297.279053,129.031067 
	C295.082794,132.073288 292.835846,134.709671 291.067963,137.635529 
	C288.446564,141.973969 286.164703,146.517548 283.429810,151.075684 
	C279.425385,156.923828 275.597717,162.590958 272.081207,168.444992 
	C269.837860,172.179489 268.055298,176.190750 266.054199,180.306732 
	C266.042267,180.535522 265.996918,180.991501 265.656128,181.048676 
	C264.219025,182.751312 263.122711,184.396790 261.804199,186.273788 
	C261.374023,187.326782 261.166016,188.148254 260.618591,189.034958 
	C257.302826,192.791794 253.997620,196.269775 251.428207,200.225693 
	C247.686752,205.986115 244.475037,212.090622 241.025711,218.282059 
	C241.013992,218.515701 240.978882,218.982254 240.637573,219.041077 
	C235.225906,226.098984 230.155548,233.098068 225.061646,240.408112 
	C225.009842,241.134766 224.981598,241.550476 224.620392,242.030640 
	C223.209122,243.418732 222.130829,244.742325 221.040100,246.296417 
	C221.027679,246.526917 220.984085,246.986511 220.641846,247.043030 
	C216.858810,252.059784 213.418030,257.020020 209.788574,262.223267 
	C209.064377,263.307098 208.528870,264.147858 207.652222,265.043152 
	C204.213776,269.075928 201.116470,273.054108 197.809814,277.224792 
	C197.395126,277.939484 197.189789,278.461670 196.646973,279.039124 
	C195.221878,280.418152 194.134277,281.741882 193.033997,283.294128 
	C193.021301,283.522614 192.980835,283.978516 192.630692,284.037598 
	C187.719177,285.353699 186.004456,288.904053 185.034988,293.296875 
	C185.017502,293.524872 184.974503,293.980225 184.632660,294.039948 
	C176.313675,299.430878 170.703903,306.835876 165.689087,315.182312 
	C162.634598,318.148102 159.950287,321.034851 157.074921,323.716736 
	C151.409515,329.000977 145.835648,334.414215 139.836258,339.297852 
	C136.260849,342.208313 133.702072,340.809875 134.053299,336.286804 
	C134.327972,332.749359 135.207169,329.075806 136.670273,325.849304 
	C140.471588,317.466339 144.742630,309.296326 148.879547,300.677673 
	C148.979385,299.828247 149.025925,299.342560 149.354675,298.821045 
	C150.012833,298.209503 150.388748,297.633728 150.815155,296.683411 
	C150.925262,295.808563 150.984894,295.308228 151.328812,294.784668 
	C152.003845,294.195923 152.394592,293.630432 152.850357,292.761475 
	C152.960159,292.256073 153.004944,292.054108 153.337601,291.817749 
	C154.024124,291.200928 154.422745,290.618561 154.929733,289.693939 
	C156.693344,286.512299 158.271683,283.624695 160.016800,280.841614 
	C168.980392,266.546661 177.688324,252.078781 187.068909,238.061676 
	C195.177582,225.945114 203.922501,214.243164 212.647141,202.552704 
	C224.822205,186.238892 237.229004,170.097870 249.560806,153.901321 
	C253.356155,148.916489 257.230530,143.991837 261.336975,138.841660 
	C264.999207,134.730377 268.393188,130.817047 271.787170,126.903717 
z"/>
<path fill="#C5BDB6" opacity="1.000000" stroke="none" 
	d="
M283.738312,150.973801 
	C286.164703,146.517548 288.446564,141.973969 291.067963,137.635529 
	C292.835846,134.709671 295.082794,132.073288 297.607483,128.916656 
	C309.401276,118.988213 322.516510,113.460297 337.241333,111.022682 
	C337.837341,111.167336 338.182526,111.226051 338.613586,111.630005 
	C343.494934,124.253479 358.031036,125.656158 365.448151,118.657524 
	C370.655548,113.743950 372.162170,107.675262 369.920227,100.861244 
	C367.915253,94.767296 362.015472,90.354294 355.727539,89.975525 
	C348.305054,89.528404 343.024261,92.706215 339.340912,99.149910 
	C338.256836,101.046486 336.287933,103.402390 334.413086,103.722229 
	C323.780609,105.536018 313.809509,108.903732 304.543488,114.440117 
	C303.182312,115.253403 301.488953,115.510666 299.949280,116.025192 
	C300.071014,115.386551 300.370392,114.722183 300.282318,114.113930 
	C299.975372,111.993927 299.534332,109.893333 299.144287,107.785355 
	C297.024231,108.193840 294.904175,108.602325 292.117310,108.939621 
	C291.515503,106.778152 291.599731,104.688248 291.642029,102.597504 
	C291.787842,95.393074 291.918945,88.188339 292.078979,80.614929 
	C291.981873,79.519363 291.861420,78.792595 291.837219,77.662979 
	C291.678070,74.515228 291.422668,71.770317 291.343689,68.924179 
	C291.520081,68.822937 291.690521,68.453590 291.818481,68.449142 
	C291.946442,68.444695 292.095764,68.233696 292.430359,68.134689 
	C300.494476,61.012653 301.018372,50.365864 293.974579,43.451939 
	C287.144348,36.747635 275.806091,37.318211 269.583008,44.679405 
	C263.383179,52.013092 264.819885,61.813004 273.143555,69.820229 
	C273.035980,69.940094 272.816040,70.175461 272.816040,70.175461 
	C266.805847,69.045204 262.879944,63.370781 263.081146,55.476036 
	C263.260712,48.430382 265.811584,41.987316 272.419830,39.098125 
	C279.323853,36.079624 286.941376,34.927097 293.782410,39.965912 
	C302.871063,46.660248 303.824524,59.722195 296.486908,68.211517 
	C294.806183,70.156067 294.220978,73.569595 294.190308,76.318855 
	C294.103516,84.106674 294.499023,91.903778 294.871338,99.689247 
	C294.939026,101.104187 295.445526,102.797836 296.360992,103.809341 
	C298.192932,105.833450 300.337006,107.633667 302.580536,109.199097 
	C303.539093,109.867912 305.143585,110.091156 306.323578,109.856888 
	C308.419312,109.440796 310.411255,108.509903 312.453644,107.815086 
	C317.762604,106.009026 322.963318,103.621979 328.419708,102.589912 
	C333.375183,101.652588 337.248169,100.087387 339.151184,95.233490 
	C341.746033,88.614998 347.693756,87.492668 353.451263,87.486359 
	C358.033478,87.481339 362.692078,88.103188 366.710785,91.924561 
	C373.741364,98.609917 375.714661,110.748360 369.333588,118.206367 
	C361.657776,127.177605 347.857819,128.762009 339.668579,118.300949 
	C337.192139,115.137550 334.763275,113.942703 330.363464,114.903236 
	C316.562103,117.916229 305.018036,124.937859 295.413910,134.731796 
	C291.353516,138.872437 289.598175,145.273468 286.959717,150.878357 
	C286.335571,151.433167 285.546875,151.756683 284.345947,151.792816 
	C283.868561,151.328232 283.803436,151.151016 283.738312,150.973801 
z"/>
<path fill="#675947" opacity="1.000000" stroke="none" 
	d="
M148.826248,301.041382 
	C144.742630,309.296326 140.471588,317.466339 136.670273,325.849304 
	C135.207169,329.075806 134.327972,332.749359 134.053299,336.286804 
	C133.702072,340.809875 136.260849,342.208313 139.836258,339.297852 
	C145.835648,334.414215 151.409515,329.000977 157.074921,323.716736 
	C159.950287,321.034851 162.634598,318.148102 165.943939,315.186462 
	C166.652283,315.022705 166.821930,315.026398 166.994965,315.349670 
	C167.020416,316.094025 167.042496,316.518738 167.064575,316.943451 
	C165.898102,318.795715 164.731628,320.647980 163.417877,322.598267 
	C161.229767,324.003021 159.034302,325.121918 157.176880,326.651367 
	C151.420792,331.391113 145.966080,336.517395 140.011734,340.983521 
	C138.200073,342.342377 135.148483,342.048126 132.664780,342.510986 
	C132.340393,339.990173 131.127197,337.171753 131.853409,335.002686 
	C134.323288,327.625427 137.477066,320.477112 140.370926,313.241882 
	C140.986313,311.703308 141.606857,310.166748 142.265778,307.981812 
	C142.845734,306.235046 143.384949,305.135742 143.924164,304.036407 
	C143.947662,303.858826 143.971130,303.681274 144.326202,303.104370 
	C146.047287,302.150452 147.436768,301.595917 148.826248,301.041382 
z"/>
<path fill="#C5BDB6" opacity="1.000000" stroke="none" 
	d="
M279.456970,114.085480 
	C279.714569,110.695000 279.267883,107.054794 280.364655,103.961876 
	C283.393188,95.420883 283.081940,86.817108 281.686188,78.189102 
	C281.426697,76.585030 279.146271,75.204872 277.618225,73.939102 
	C276.200775,72.764984 274.542145,71.882065 272.902893,70.523193 
	C272.816040,70.175461 273.035980,69.940094 273.503052,69.921318 
	C276.947113,70.646095 279.924103,71.389656 282.937225,72.079643 
	C282.973358,72.026070 282.872223,72.106529 282.927582,72.501755 
	C283.393890,82.621445 283.804840,92.345917 284.114075,102.378677 
	C284.008026,103.115982 284.003662,103.544991 283.823273,104.285179 
	C283.621552,105.066582 283.595917,105.536804 283.411041,106.253487 
	C283.223480,106.883492 283.195099,107.267044 282.966797,107.877991 
	C282.491608,109.062965 282.216370,110.020538 281.638428,111.055542 
	C280.709473,112.117134 280.083221,113.101303 279.456970,114.085480 
z"/>
<path fill="#A5AD9D" opacity="1.000000" stroke="none" 
	d="
M271.423828,126.909241 
	C268.393188,130.817047 264.999207,134.730377 261.188995,138.653870 
	C260.558167,138.430283 260.355682,138.186493 260.165314,137.932663 
	C260.757233,136.303146 261.349182,134.673630 262.175537,132.837891 
	C263.547699,132.007996 264.741364,131.466812 265.810669,130.742142 
	C267.602356,129.527954 269.314758,128.196732 271.423828,126.909241 
z"/>
<path fill="#A5AD9D" opacity="1.000000" stroke="none" 
	d="
M278.426514,117.064346 
	C276.995117,119.830093 275.271576,122.753975 273.220215,125.718903 
	C274.639709,122.914124 276.387054,120.068298 278.426514,117.064346 
z"/>
<path fill="#7D4742" opacity="1.000000" stroke="none" 
	d="
M279.333130,114.431290 
	C280.083221,113.101303 280.709473,112.117134 281.853271,111.269241 
	C282.543060,112.949806 282.715302,114.494095 282.887573,116.038391 
	C281.815826,116.347183 280.744080,116.655975 279.321350,116.963966 
	C279.049988,116.234482 279.129608,115.505798 279.333130,114.431290 
z"/>
<path fill="#A5AD9D" opacity="1.000000" stroke="none" 
	d="
M260.390198,102.058243 
	C258.934296,99.498711 257.614380,96.576576 256.336609,93.301178 
	C257.761230,95.863815 259.143677,98.779724 260.390198,102.058243 
z"/>
<path fill="#465B50" opacity="1.000000" stroke="none" 
	d="
M143.574051,304.084595 
	C143.384949,305.135742 142.845734,306.235046 142.172455,307.611511 
	C141.594391,307.965332 141.150406,308.042053 140.367462,308.130066 
	C141.093658,306.805206 142.158798,305.469025 143.574051,304.084595 
z"/>
<path fill="#A5AD9D" opacity="1.000000" stroke="none" 
	d="
M253.733292,86.863266 
	C252.883621,86.005211 252.066910,84.808701 251.260223,83.287506 
	C252.102234,84.150162 252.934235,85.337494 253.733292,86.863266 
z"/>
<path fill="#A5AD9D" opacity="1.000000" stroke="none" 
	d="
M240.871811,68.707550 
	C239.955276,68.272980 239.018295,67.507149 238.021118,66.435593 
	C238.924393,66.878662 239.887894,67.627472 240.871811,68.707550 
z"/>
<path fill="#A5AD9D" opacity="1.000000" stroke="none" 
	d="
M263.361816,114.723053 
	C262.912933,114.099487 262.649139,113.286667 262.539246,112.165794 
	C262.977722,112.749763 263.262299,113.641785 263.361816,114.723053 
z"/>
<path fill="#A5AD9D" opacity="1.000000" stroke="none" 
	d="
M262.963989,130.854431 
	C262.729370,130.431168 262.710510,129.887589 262.867310,129.208069 
	C263.088593,129.626129 263.134186,130.180130 262.963989,130.854431 
z"/>
<path fill="#A5AD9D" opacity="1.000000" stroke="none" 
	d="
M242.787537,70.831421 
	C242.198975,70.665398 241.623764,70.179916 241.003204,69.401848 
	C241.572189,69.576828 242.186554,70.044395 242.787537,70.831421 
z"/>
<path fill="#A5AD9D" opacity="1.000000" stroke="none" 
	d="
M248.803894,78.809464 
	C248.301514,78.568161 247.817215,78.033943 247.334259,77.208023 
	C247.831039,77.449738 248.326508,77.983147 248.803894,78.809464 
z"/>
<path fill="#A5AD9D" opacity="1.000000" stroke="none" 
	d="
M262.225525,108.771179 
	C261.804321,108.431816 261.554077,107.939232 261.404755,107.172119 
	C261.802612,107.471054 262.099518,108.044502 262.225525,108.771179 
z"/>
<path fill="#359B92" opacity="1.000000" stroke="none" 
	d="
M200.755920,369.268158 
	C193.061829,361.858368 185.818161,354.618652 181.796799,344.743866 
	C177.177719,333.401276 178.497772,323.248749 187.109909,314.402649 
	C194.166351,307.154480 200.998535,299.587189 208.743271,293.137817 
	C216.753693,286.467194 226.634903,284.360016 236.333282,288.876617 
	C241.211945,291.148651 245.326385,295.588684 249.029404,299.725861 
	C253.756653,305.007416 258.332092,310.618652 261.868958,316.727020 
	C267.339539,326.174988 268.738129,336.127136 261.575165,345.694763 
	C255.410156,353.929413 249.869568,362.755066 242.879440,370.220734 
	C231.217499,382.676117 219.674057,386.362396 202.796066,371.263031 
	C202.176239,370.708496 201.603134,370.101746 200.755920,369.268158 
M209.523880,353.747345 
	C213.594559,366.038208 221.164932,367.522552 228.215988,364.399780 
	C237.615723,360.236847 244.311890,352.829254 248.187576,343.254211 
	C252.192352,333.360260 248.961182,324.075104 240.513306,320.978333 
	C237.771484,319.973267 234.669861,319.886475 231.713943,319.540771 
	C223.490723,318.579041 212.298035,324.950134 210.117401,331.857117 
	C207.923935,338.804749 207.046600,345.835815 209.523880,353.747345 
z"/>
<path fill="#80A847" opacity="1.000000" stroke="none" 
	d="
M317.858429,158.861237 
	C332.826874,156.350830 345.364838,161.480087 356.250580,170.248520 
	C367.979431,179.696045 375.748535,191.863815 377.138092,207.457535 
	C378.504791,222.795059 372.676910,234.893784 361.264008,244.748367 
	C350.666992,253.898468 337.787445,256.510559 324.443848,258.111511 
	C309.320007,259.926025 294.674377,258.191162 280.316345,253.197372 
	C258.613190,245.648956 255.661377,228.891037 264.135468,211.169769 
	C272.320465,194.053055 283.656769,178.579300 299.008820,166.970718 
	C304.203735,163.042511 311.235809,161.543900 317.858429,158.861237 
M339.817993,252.557114 
	C345.299530,249.987228 350.945770,247.714508 356.229156,244.787003 
	C368.062866,238.229965 377.070129,217.071671 373.504242,203.496536 
	C368.305511,183.705139 351.043304,163.657974 327.370758,161.235764 
	C319.021881,160.381485 310.551270,162.081985 303.636932,167.096390 
	C291.160492,176.144577 281.780273,188.253510 273.653015,201.130859 
	C269.661316,207.455551 267.225464,214.825211 264.537811,221.893967 
	C261.171021,230.749008 265.918243,241.795151 274.126282,246.660873 
	C285.680908,253.510422 298.509064,255.422897 311.401733,255.749542 
	C320.580170,255.982117 329.818207,253.861450 339.817993,252.557114 
z"/>
<path fill="#465B50" opacity="1.000000" stroke="none" 
	d="
M260.958038,188.969727 
	C261.166016,188.148254 261.374023,187.326782 262.141357,186.208527 
	C263.799438,184.271652 264.898163,182.631577 265.996918,180.991501 
	C265.996918,180.991501 266.042267,180.535522 266.376556,180.208298 
	C268.795441,177.575775 270.880035,175.270477 272.964630,172.965195 
	C272.085876,174.859329 271.396423,176.871979 270.296997,178.627930 
	C264.178650,188.399765 257.972656,198.116882 251.773422,207.837875 
	C246.708954,215.779434 241.729691,223.779968 236.451508,231.577606 
	C235.024765,233.685379 232.648972,235.150726 230.409241,236.617310 
	C233.732758,230.543198 237.355820,224.762726 240.978882,218.982254 
	C240.978882,218.982254 241.013992,218.515701 241.352509,218.193787 
	C246.292267,211.310379 250.960892,204.794693 255.463989,198.166534 
	C257.467346,195.217773 259.136932,192.042297 260.958038,188.969727 
z"/>
<path fill="#465B50" opacity="1.000000" stroke="none" 
	d="
M167.399780,316.904938 
	C167.042496,316.518738 167.020416,316.094025 167.285522,315.176880 
	C171.524658,310.467041 175.601181,306.357452 179.379822,301.990112 
	C181.499313,299.540405 183.125870,296.664246 184.974503,293.980225 
	C184.974503,293.980225 185.017502,293.524872 185.370773,293.226990 
	C188.142975,289.945557 190.561905,286.962036 192.980835,283.978516 
	C192.980835,283.978516 193.021301,283.522614 193.365051,283.222595 
	C194.800690,281.609650 195.892578,280.296753 196.984467,278.983856 
	C197.189789,278.461670 197.395126,277.939484 198.148682,277.160522 
	C201.795731,272.932037 204.894547,268.960327 207.993362,264.988617 
	C208.528870,264.147858 209.064377,263.307098 210.079300,262.079742 
	C211.686600,261.111328 212.814499,260.529480 213.942413,259.947632 
	C213.069382,261.685150 212.451843,263.620758 211.282700,265.128693 
	C202.284286,276.734833 193.377594,288.422211 184.026566,299.740784 
	C179.020584,305.800079 173.192215,311.179932 167.399780,316.904938 
z"/>
<path fill="#4F4532" opacity="1.000000" stroke="none" 
	d="
M272.977600,172.727722 
	C270.880035,175.270477 268.795441,177.575775 266.388489,179.979492 
	C268.055298,176.190750 269.837860,172.179489 272.081207,168.444992 
	C275.597717,162.590958 279.425385,156.923828 283.429810,151.075684 
	C283.803436,151.151016 283.868561,151.328232 284.004822,151.780563 
	C281.439117,156.809189 278.802307,161.562714 275.803345,166.818863 
	C274.633240,168.886108 273.825317,170.450714 273.017365,172.015305 
	C273.017365,172.015305 272.990601,172.490234 272.977600,172.727722 
z"/>
<path fill="#4F4532" opacity="1.000000" stroke="none" 
	d="
M240.637573,219.041077 
	C237.355820,224.762726 233.732758,230.543198 230.068192,236.672989 
	C229.706039,237.478516 229.385376,237.934723 228.678284,238.730286 
	C227.222961,239.412140 226.154068,239.754639 225.085175,240.097153 
	C230.155548,233.098068 235.225906,226.098984 240.637573,219.041077 
z"/>
<path fill="#4F4532" opacity="1.000000" stroke="none" 
	d="
M214.161133,259.762268 
	C212.814499,260.529480 211.686600,261.111328 210.267975,261.836731 
	C213.418030,257.020020 216.858810,252.059784 220.594147,247.390350 
	C218.925751,251.120361 216.962784,254.559570 214.999817,257.998779 
	C214.793152,258.524811 214.586502,259.050842 214.161133,259.762268 
z"/>
<path fill="#465B50" opacity="1.000000" stroke="none" 
	d="
M215.341003,257.942749 
	C216.962784,254.559570 218.925751,251.120361 220.936401,247.333832 
	C220.984085,246.986511 221.027679,246.526917 221.371094,246.234940 
	C222.778061,245.598816 223.841614,245.254654 224.936218,244.939087 
	C224.967285,244.967651 225.030167,245.023941 225.030167,245.023941 
	C221.914185,249.311554 218.798203,253.599152 215.341003,257.942749 
z"/>
<path fill="#465B50" opacity="1.000000" stroke="none" 
	d="
M225.061630,240.408112 
	C226.154068,239.754639 227.222961,239.412140 228.624451,239.011169 
	C227.835907,240.858673 226.714767,242.764664 225.311890,244.847290 
	C225.030167,245.023941 224.967285,244.967651 224.958954,244.573700 
	C224.951523,243.441895 224.952423,242.704041 224.953339,241.966171 
	C224.981598,241.550476 225.009842,241.134766 225.061630,240.408112 
z"/>
<path fill="#465B50" opacity="1.000000" stroke="none" 
	d="
M273.354248,171.956253 
	C273.825317,170.450714 274.633240,168.886108 275.751709,167.165588 
	C277.880341,169.904312 275.711731,170.864838 273.354248,171.956253 
z"/>
<path fill="#92B42F" opacity="1.000000" stroke="none" 
	d="
M176.936295,181.211472 
	C176.936295,181.211472 176.512268,181.051529 176.195282,180.684799 
	C174.957901,179.815704 174.037521,179.313324 173.117126,178.810944 
	C172.630264,178.263565 172.143387,177.716187 171.367508,176.681168 
	C169.055466,173.779282 167.032440,171.365036 164.817413,168.802551 
	C164.232620,168.378052 163.839828,168.101807 163.447052,167.825546 
	C163.348404,167.413330 163.249756,167.001129 163.052887,165.924759 
	C161.329590,162.801346 159.704483,160.342087 158.079391,157.882828 
	C157.988174,157.472610 157.896957,157.062408 157.756470,155.996506 
	C155.453125,149.097916 152.954453,142.930618 150.995926,136.596329 
	C146.937836,123.471573 146.267960,110.135567 150.012024,96.832588 
	C151.161667,92.747810 153.312790,88.944908 155.230774,84.845367 
	C155.671051,84.169540 155.885864,83.661285 156.394012,83.051758 
	C157.122665,82.300217 157.557999,81.649948 158.164307,80.770691 
	C158.889236,80.023376 159.443176,79.505051 160.330795,78.938255 
	C161.810837,77.621605 162.957169,76.353424 164.350830,74.965118 
	C165.062332,74.550339 165.526520,74.255669 166.296265,73.915283 
	C167.138596,73.290886 167.675339,72.712204 168.529175,71.984314 
	C171.876419,70.762138 174.906586,69.689171 178.238281,68.667282 
	C179.140503,68.226952 179.741196,67.735535 180.612488,67.252609 
	C181.242081,67.225304 181.601059,67.189507 182.191147,67.331665 
	C183.272949,67.311134 184.123642,67.112648 185.436752,66.927750 
	C189.606522,66.935608 193.313873,66.929901 197.255432,67.159599 
	C198.344070,67.480400 199.198532,67.565788 200.446869,67.751534 
	C203.541245,68.262367 206.241745,68.672852 208.942261,69.083344 
	C208.942261,69.083336 208.875595,69.092010 208.989334,69.439445 
	C210.748505,70.469948 212.393936,71.153015 214.314423,71.914825 
	C214.964600,72.059631 215.339706,72.125687 215.851746,72.468658 
	C216.670670,73.106277 217.352631,73.466988 218.314148,74.005447 
	C219.627579,74.531082 220.661499,74.878960 221.820694,75.536865 
	C223.642090,77.188042 225.338196,78.529175 227.346802,79.993393 
	C229.655167,81.802818 231.651047,83.489166 233.790283,85.360764 
	C234.132965,85.785233 234.363800,85.988708 234.698700,86.478973 
	C235.228973,87.524887 235.686676,88.248283 236.183197,89.316467 
	C236.417221,90.117554 236.544250,90.620056 236.817505,91.023491 
	C246.521545,105.350204 246.830292,120.258789 239.072906,135.361603 
	C234.761047,143.756348 229.768799,151.801620 225.012115,160.193481 
	C224.941010,160.382553 224.897842,160.784256 224.571533,160.896896 
	C223.136383,162.648956 222.027542,164.288361 220.939880,165.932968 
	C220.961060,165.938156 220.937088,165.929596 220.620239,166.009399 
	C219.588242,167.071045 218.873093,168.052887 218.157944,169.034729 
	C216.537003,170.814377 214.916046,172.594025 212.823303,174.716248 
	C211.570908,175.743378 210.790314,176.427948 209.666077,177.151154 
	C204.554001,179.834045 199.785553,182.478302 194.681763,185.094284 
	C193.904587,185.132950 193.462738,185.199875 192.618927,185.199341 
	C191.135849,185.188599 190.054718,185.245331 188.633087,185.243378 
	C187.832672,185.181290 187.372757,185.177872 186.668182,184.921082 
	C183.261124,183.515625 180.098709,182.363541 176.936295,181.211472 
M198.302353,143.590637 
	C202.363098,142.324997 207.085922,141.980347 210.362946,139.624527 
	C221.059570,131.934784 224.700317,118.236160 218.034439,106.829651 
	C213.457779,98.998177 206.761398,92.217110 200.211777,85.781441 
	C194.016479,79.693932 186.376892,79.763329 178.442352,83.225601 
	C165.202301,89.002953 155.818192,113.864754 171.055466,130.464172 
	C178.161148,138.205063 186.731750,143.141113 198.302353,143.590637 
z"/>
<path fill="#349B93" opacity="1.000000" stroke="none" 
	d="
M76.335732,237.378326 
	C81.119728,230.773880 85.522896,224.321289 90.404671,218.253769 
	C96.638817,210.505402 105.689499,210.702545 113.897560,212.490753 
	C124.189781,214.732971 134.210617,218.527878 144.061310,222.386093 
	C151.080658,225.135361 156.860306,237.576492 155.832245,245.503067 
	C154.642792,254.673798 152.033966,263.369934 147.331268,271.390961 
	C144.332214,276.506165 141.788742,281.939270 138.351425,286.735657 
	C132.092560,295.469238 122.738037,297.969727 112.701462,296.832214 
	C97.066811,295.060181 83.641930,287.788330 71.583740,278.005920 
	C64.611977,272.349976 64.551582,264.553040 67.161896,257.014069 
	C69.473595,250.337494 73.113815,244.120895 76.335732,237.378326 
M119.433693,234.163010 
	C113.920044,228.638489 107.828041,226.844498 99.956612,229.261810 
	C94.315056,230.994308 90.882423,234.722610 87.773590,238.915482 
	C82.204758,246.426117 78.703232,254.768250 80.164024,264.460785 
	C80.920349,269.479095 84.419312,273.583923 89.492363,273.966461 
	C95.545227,274.422852 101.916580,274.918732 107.685219,273.503357 
	C112.127670,272.413300 116.924164,269.202667 119.688713,265.525604 
	C127.099350,255.668900 125.923233,245.072479 119.433693,234.163010 
z"/>
<path fill="#465B50" opacity="1.000000" stroke="none" 
	d="
M259.810760,138.001633 
	C260.355682,138.186493 260.558167,138.430283 260.920746,138.851837 
	C257.230530,143.991837 253.356155,148.916489 249.560806,153.901321 
	C237.229004,170.097870 224.822205,186.238892 212.647141,202.552704 
	C203.922501,214.243164 195.177582,225.945114 187.068909,238.061676 
	C177.688324,252.078781 168.980392,266.546661 160.016800,280.841614 
	C158.271683,283.624695 156.693344,286.512299 154.659149,289.753357 
	C153.870041,290.720734 153.459885,291.286438 153.049713,291.852142 
	C153.004944,292.054108 152.960159,292.256073 152.587616,292.814270 
	C151.854736,293.716309 151.449631,294.262085 151.044525,294.807892 
	C150.984894,295.308228 150.925262,295.808563 150.552795,296.741028 
	C149.850800,297.734375 149.461624,298.295624 149.072449,298.856842 
	C149.025925,299.342560 148.979385,299.828247 148.879547,300.677673 
	C147.436768,301.595917 146.047287,302.150452 144.362640,302.838135 
	C147.144180,297.158508 150.083466,291.267700 153.327789,285.550018 
	C159.125092,275.333069 164.764359,265.000854 171.106400,255.125748 
	C177.526016,245.129807 184.798431,235.685318 191.538940,225.890320 
	C195.450821,220.205734 198.846680,214.161316 202.844254,208.541687 
	C207.615768,201.834076 212.672409,195.319977 217.801422,188.878006 
	C227.702255,176.442688 237.702820,164.086075 247.741348,151.761398 
	C251.533356,147.105804 255.544800,142.628937 259.810760,138.001633 
z"/>
<path fill="#4B7848" opacity="1.000000" stroke="none" 
	d="
M225.083206,160.004395 
	C229.768799,151.801620 234.761047,143.756348 239.072906,135.361603 
	C246.830292,120.258789 246.521545,105.350204 236.817505,91.023491 
	C236.544250,90.620056 236.417221,90.117554 236.432327,89.302361 
	C236.808746,88.925377 236.974854,88.907280 237.140945,88.889183 
	C244.043213,92.432396 245.517761,99.239685 246.895706,105.845139 
	C248.979141,115.832489 247.276474,125.059120 242.796494,134.559418 
	C238.838928,142.951843 234.978607,151.148071 228.659729,158.692169 
	C227.203491,159.393005 226.143356,159.698700 225.083206,160.004395 
z"/>
<path fill="#4B7848" opacity="1.000000" stroke="none" 
	d="
M155.005310,85.012924 
	C153.312790,88.944908 151.161667,92.747810 150.012024,96.832588 
	C146.267960,110.135567 146.937836,123.471573 150.995926,136.596329 
	C152.954453,142.930618 155.453125,149.097916 157.648636,155.699554 
	C156.434723,154.923569 155.279404,153.788864 154.022461,152.050415 
	C153.623993,150.962982 153.327133,150.479279 153.030273,149.995575 
	C152.681992,148.912781 152.333694,147.830002 151.935364,146.039154 
	C150.912720,143.212753 149.940140,141.094376 148.967560,138.976013 
	C148.958679,138.556488 148.949783,138.136948 148.947586,137.026428 
	C148.305893,134.553024 147.657501,132.770599 147.009109,130.988190 
	C146.648087,127.927620 146.287064,124.867050 145.955688,121.064682 
	C145.664978,119.213921 145.344635,118.104958 145.024277,116.996002 
	C145.014252,115.611160 145.004227,114.226318 145.243195,112.127472 
	C145.350754,108.947334 145.209351,106.481194 145.067947,104.015053 
	C145.068634,103.266479 145.069321,102.517914 145.400894,101.301453 
	C146.148865,99.881340 146.565948,98.929108 146.983017,97.976875 
	C147.295944,96.239975 147.608871,94.503067 148.291107,92.321365 
	C149.100449,91.253845 149.540497,90.631119 149.980530,90.008392 
	C149.980530,90.008392 149.993484,89.993507 150.276932,89.833435 
	C151.040955,88.778557 151.521530,87.883759 152.002106,86.988968 
	C152.553833,86.485863 153.105576,85.982750 154.062439,85.237015 
	C154.646820,85.000565 154.826050,85.006744 155.005310,85.012924 
z"/>
<path fill="#44724B" opacity="1.000000" stroke="none" 
	d="
M208.938385,68.690910 
	C206.241745,68.672852 203.541245,68.262367 200.348450,67.492340 
	C198.911179,67.063263 197.966217,66.993721 197.021240,66.924179 
	C193.313873,66.929901 189.606522,66.935608 185.219330,66.725403 
	C183.679672,66.724228 182.819870,66.938965 181.960052,67.153709 
	C181.601059,67.189507 181.242081,67.225304 180.293457,67.225174 
	C179.114807,67.664902 178.525787,68.140556 177.936768,68.616211 
	C174.906586,69.689171 171.876419,70.762138 168.199249,71.995148 
	C167.031754,72.757126 166.511230,73.359070 165.990692,73.961014 
	C165.526520,74.255669 165.062332,74.550339 164.001068,74.936798 
	C162.937805,75.027176 162.471649,75.025742 162.005478,75.024307 
	C163.840088,69.578239 168.962830,67.995735 173.417969,66.568604 
	C184.012466,63.174862 194.925980,63.049980 205.735764,66.002769 
	C206.922501,66.326935 207.873947,67.512459 208.938385,68.690910 
z"/>
<path fill="#4B7848" opacity="1.000000" stroke="none" 
	d="
M195.017090,185.122559 
	C199.785553,182.478302 204.554001,179.834045 209.620850,177.454941 
	C209.619461,178.491714 209.319702,179.263336 209.019943,180.034958 
	C209.019943,180.034958 208.982086,180.505020 208.595337,180.758011 
	C205.132004,182.976791 202.055420,184.942581 198.978836,186.908356 
	C197.923691,186.931168 196.868530,186.953949 195.412079,186.664062 
	C195.012878,185.941788 195.014984,185.532181 195.017090,185.122559 
z"/>
<path fill="#44724B" opacity="1.000000" stroke="none" 
	d="
M233.646942,85.175507 
	C231.651047,83.489166 229.655167,81.802818 227.284393,79.671234 
	C226.249344,77.841049 225.589218,76.456108 224.929077,75.071167 
	C228.582443,78.150345 232.235809,81.229530 235.928741,84.663284 
	C235.968323,85.017860 235.917831,85.053200 235.540314,85.051636 
	C234.657516,85.091881 234.152222,85.133690 233.646942,85.175507 
z"/>
<path fill="#44724B" opacity="1.000000" stroke="none" 
	d="
M215.714813,72.191734 
	C215.339706,72.125687 214.964600,72.059631 214.227539,71.620430 
	C212.898422,70.489792 211.931259,69.732300 210.964096,68.974800 
	C216.295517,67.694687 219.607285,70.957779 222.641266,74.670898 
	C222.157730,75.118126 221.926559,75.172478 221.695404,75.226830 
	C220.661499,74.878960 219.627579,74.531082 218.220825,73.706085 
	C217.136917,72.883217 216.425873,72.537476 215.714813,72.191734 
z"/>
<path fill="#44724B" opacity="1.000000" stroke="none" 
	d="
M155.230774,84.845367 
	C154.826050,85.006744 154.646820,85.000565 154.197784,84.987358 
	C153.307495,80.047020 156.014282,77.473534 160.522614,76.293381 
	C160.503372,77.378822 160.250244,78.182770 159.997101,78.986725 
	C159.443176,79.505051 158.889236,80.023376 157.850266,80.838440 
	C156.943710,81.807785 156.522186,82.480400 156.100677,83.153023 
	C155.885864,83.661285 155.671051,84.169540 155.230774,84.845367 
z"/>
<path fill="#44724B" opacity="1.000000" stroke="none" 
	d="
M186.912842,185.174438 
	C187.372757,185.177872 187.832672,185.181290 188.640289,185.528137 
	C189.001495,186.257050 189.014984,186.642578 189.028488,187.028091 
	C184.759155,189.301346 181.461426,187.034225 178.454346,184.413940 
	C181.458862,184.472809 184.185852,184.823624 186.912842,185.174438 
z"/>
<path fill="#4B7848" opacity="1.000000" stroke="none" 
	d="
M186.668182,184.921082 
	C184.185852,184.823624 181.458862,184.472809 178.361969,184.073883 
	C177.992050,184.025772 177.990814,184.005798 177.861359,183.797852 
	C177.530579,183.336823 177.285004,183.138519 176.995178,182.995026 
	C176.976181,182.597778 176.957184,182.200531 176.937241,181.507385 
	C180.098709,182.363541 183.261124,183.515625 186.668182,184.921082 
z"/>
<path fill="#4B7848" opacity="1.000000" stroke="none" 
	d="
M158.037170,158.233185 
	C159.704483,160.342087 161.329590,162.801346 162.952850,165.622726 
	C161.682632,165.208328 160.414230,164.431808 159.065643,162.997955 
	C158.653122,161.557800 158.320786,160.774994 157.988449,159.992188 
	C157.990601,159.522644 157.992767,159.053085 158.037170,158.233185 
z"/>
<path fill="#44724B" opacity="1.000000" stroke="none" 
	d="
M199.345367,186.921051 
	C202.055420,184.942581 205.132004,182.976791 208.573944,180.992828 
	C205.863510,182.961014 202.787704,184.947372 199.345367,186.921051 
z"/>
<path fill="#4B7848" opacity="1.000000" stroke="none" 
	d="
M165.009430,168.950790 
	C167.032440,171.365036 169.055466,173.779282 171.129761,176.539276 
	C169.982758,176.363358 168.784500,175.841705 167.245819,174.796021 
	C166.273407,172.498260 165.641418,170.724533 165.009430,168.950790 
z"/>
<path fill="#44724B" opacity="1.000000" stroke="none" 
	d="
M164.817413,168.802551 
	C165.641418,170.724533 166.273407,172.498260 166.962219,174.618866 
	C165.640244,172.714066 164.261444,170.462433 163.164841,168.018158 
	C163.839828,168.101807 164.232620,168.378052 164.817413,168.802551 
z"/>
<path fill="#44724B" opacity="1.000000" stroke="none" 
	d="
M209.374771,180.014221 
	C209.319702,179.263336 209.619461,178.491714 209.964478,177.416306 
	C210.790314,176.427948 211.570908,175.743378 212.659241,175.003769 
	C214.604416,178.373596 212.537430,179.421249 209.374771,180.014221 
z"/>
<path fill="#44724B" opacity="1.000000" stroke="none" 
	d="
M148.750366,139.225540 
	C149.940140,141.094376 150.912720,143.212753 151.925781,145.694000 
	C150.821915,143.862930 149.677551,141.669006 148.750366,139.225540 
z"/>
<path fill="#578245" opacity="1.000000" stroke="none" 
	d="
M221.820694,75.536865 
	C221.926559,75.172478 222.157730,75.118126 222.739899,74.996994 
	C223.499847,74.958054 223.908783,74.985893 224.623398,75.042450 
	C225.589218,76.456108 226.249344,77.841049 226.971893,79.548149 
	C225.338196,78.529175 223.642090,77.188042 221.820694,75.536865 
z"/>
<path fill="#44724B" opacity="1.000000" stroke="none" 
	d="
M225.012115,160.193481 
	C226.143356,159.698700 227.203491,159.393005 228.589600,159.032349 
	C227.833923,160.286346 226.752274,161.595337 225.328247,162.589066 
	C224.956543,161.777298 224.927200,161.280777 224.897842,160.784256 
	C224.897842,160.784256 224.941010,160.382553 225.012115,160.193481 
z"/>
<path fill="#44724B" opacity="1.000000" stroke="none" 
	d="
M145.046234,104.413208 
	C145.209351,106.481194 145.350754,108.947334 145.249435,111.712036 
	C145.012650,109.610855 145.018585,107.211113 145.046234,104.413208 
z"/>
<path fill="#4B7848" opacity="1.000000" stroke="none" 
	d="
M224.571533,160.896896 
	C224.927200,161.280777 224.956543,161.777298 224.991226,162.645950 
	C224.435944,163.512787 223.875336,164.007492 222.907486,164.866379 
	C221.973053,165.462952 221.445877,165.695358 220.918701,165.927765 
	C222.027542,164.288361 223.136383,162.648956 224.571533,160.896896 
z"/>
<path fill="#44724B" opacity="1.000000" stroke="none" 
	d="
M146.806274,131.235214 
	C147.657501,132.770599 148.305893,134.553024 148.947449,136.711716 
	C148.161545,135.219406 147.382507,133.350815 146.806274,131.235214 
z"/>
<path fill="#578245" opacity="1.000000" stroke="none" 
	d="
M160.330795,78.938248 
	C160.250244,78.182770 160.503372,77.378822 160.888443,76.282990 
	C161.296997,75.841545 161.536591,75.646492 161.872314,75.215126 
	C162.471649,75.025742 162.937805,75.027176 163.753738,75.056923 
	C162.957169,76.353424 161.810837,77.621605 160.330795,78.938248 
z"/>
<path fill="#578245" opacity="1.000000" stroke="none" 
	d="
M210.615662,68.982651 
	C211.931259,69.732300 212.898422,70.489792 213.952484,71.541679 
	C212.393936,71.153015 210.748505,70.469948 208.992065,69.472939 
	C209.343124,69.102837 209.805161,69.046669 210.615662,68.982651 
z"/>
<path fill="#44724B" opacity="1.000000" stroke="none" 
	d="
M237.157425,88.578888 
	C236.974854,88.907280 236.808746,88.925377 236.393509,88.957581 
	C235.686676,88.248283 235.228973,87.524887 234.956299,86.341766 
	C235.400162,85.605759 235.658997,85.329475 235.917831,85.053192 
	C235.917831,85.053200 235.968323,85.017860 235.993378,84.999481 
	C236.403580,86.076927 236.788742,87.172752 237.157425,88.578888 
z"/>
<path fill="#4B7848" opacity="1.000000" stroke="none" 
	d="
M189.422577,187.027695 
	C189.014984,186.642578 189.001495,186.257050 188.980804,185.586792 
	C190.054718,185.245331 191.135849,185.188599 192.613434,185.487396 
	C192.998245,186.231995 192.986557,186.621078 192.974884,187.010162 
	C191.922134,187.015869 190.869400,187.021576 189.422577,187.027695 
z"/>
<path fill="#44724B" opacity="1.000000" stroke="none" 
	d="
M220.939880,165.932953 
	C221.445877,165.695358 221.973053,165.462952 222.763916,165.111847 
	C222.265045,166.313904 221.502502,167.634674 220.501801,168.683365 
	C220.488098,167.584045 220.712601,166.756821 220.937103,165.929596 
	C220.937088,165.929596 220.961060,165.938156 220.939880,165.932953 
z"/>
<path fill="#4B7848" opacity="1.000000" stroke="none" 
	d="
M220.620239,166.009399 
	C220.712601,166.756821 220.488098,167.584045 220.130127,168.707825 
	C219.587067,169.020645 219.177505,169.036926 218.462921,169.043976 
	C218.873093,168.052887 219.588242,167.071045 220.620239,166.009399 
z"/>
<path fill="#44724B" opacity="1.000000" stroke="none" 
	d="
M146.658936,98.068497 
	C146.565948,98.929108 146.148865,99.881340 145.416046,100.927422 
	C145.511826,100.067551 145.923340,99.113831 146.658936,98.068497 
z"/>
<path fill="#4B7848" opacity="1.000000" stroke="none" 
	d="
M173.145172,179.167419 
	C174.037521,179.313324 174.957901,179.815704 175.974121,180.635544 
	C175.104370,180.476654 174.138794,180.000275 173.145172,179.167419 
z"/>
<path fill="#44724B" opacity="1.000000" stroke="none" 
	d="
M193.146484,187.195923 
	C192.986557,186.621078 192.998245,186.231995 193.015411,185.554871 
	C193.462738,185.199875 193.904587,185.132950 194.681763,185.094299 
	C195.014984,185.532181 195.012878,185.941788 195.016266,186.658646 
	C194.453888,187.104507 193.885986,187.243103 193.146484,187.195923 
z"/>
<path fill="#44724B" opacity="1.000000" stroke="none" 
	d="
M151.676163,87.072945 
	C151.521530,87.883759 151.040955,88.778557 150.283340,89.825920 
	C150.454285,89.037971 150.902252,88.097450 151.676163,87.072945 
z"/>
<path fill="#44724B" opacity="1.000000" stroke="none" 
	d="
M145.013855,117.358215 
	C145.344635,118.104958 145.664978,119.213921 145.972473,120.688614 
	C145.640884,119.943054 145.322159,118.831741 145.013855,117.358215 
z"/>
<path fill="#44724B" opacity="1.000000" stroke="none" 
	d="
M149.677536,90.071289 
	C149.540497,90.631119 149.100449,91.253845 148.364624,91.949570 
	C148.504074,91.393097 148.939301,90.763634 149.677536,90.071289 
z"/>
<path fill="#44724B" opacity="1.000000" stroke="none" 
	d="
M157.995605,160.324768 
	C158.320786,160.774994 158.653122,161.557800 158.986633,162.673981 
	C158.659439,162.224030 158.331116,161.440689 157.995605,160.324768 
z"/>
<path fill="#44724B" opacity="1.000000" stroke="none" 
	d="
M153.058441,150.286102 
	C153.327133,150.479279 153.623993,150.962982 153.948029,151.738403 
	C153.679001,151.545624 153.382797,151.061127 153.058441,150.286102 
z"/>
<path fill="#44724B" opacity="1.000000" stroke="none" 
	d="
M177.117508,183.200012 
	C177.285004,183.138519 177.530579,183.336823 177.855133,183.793396 
	C177.683319,183.860565 177.437149,183.663269 177.117508,183.200012 
z"/>
<path fill="#7A3B33" opacity="1.000000" stroke="none" 
	d="
M336.990540,110.936737 
	C322.516510,113.460297 309.401276,118.988213 297.771118,128.640335 
	C295.533051,124.245247 297.500488,120.379204 299.711731,116.269699 
	C301.488953,115.510666 303.182312,115.253403 304.543488,114.440117 
	C313.809509,108.903732 323.780609,105.536018 334.413086,103.722229 
	C336.287933,103.402390 338.256836,101.046486 339.340912,99.149910 
	C343.024261,92.706215 348.305054,89.528404 355.727539,89.975525 
	C362.015472,90.354294 367.915253,94.767296 369.920227,100.861244 
	C372.162170,107.675262 370.655548,113.743950 365.448151,118.657524 
	C358.031036,125.656158 343.494934,124.253479 338.989502,111.590698 
	C340.877289,112.528381 342.729248,113.641258 344.023621,115.213249 
	C347.501434,119.436920 352.759430,121.100075 358.317291,119.391518 
	C362.887390,117.986603 367.719574,112.227562 368.012878,107.836197 
	C368.449677,101.296532 365.133881,96.077820 359.142609,93.875229 
	C354.215302,92.063797 345.503448,94.058670 343.106201,98.811775 
	C340.551819,103.876411 337.793549,107.630096 330.574768,107.257957 
	C333.607941,108.997169 335.299225,109.966957 336.990540,110.936737 
z"/>
<path fill="#4F4532" opacity="1.000000" stroke="none" 
	d="
M260.618591,189.034958 
	C259.136932,192.042297 257.467346,195.217773 255.463989,198.166534 
	C250.960892,204.794693 246.292267,211.310379 241.364227,217.960144 
	C244.475037,212.090622 247.686752,205.986115 251.428207,200.225693 
	C253.997620,196.269775 257.302826,192.791794 260.618591,189.034958 
z"/>
<path fill="#4F4532" opacity="1.000000" stroke="none" 
	d="
M184.632660,294.039948 
	C183.125870,296.664246 181.499313,299.540405 179.379822,301.990112 
	C175.601181,306.357452 171.524658,310.467041 167.282150,314.857239 
	C166.821930,315.026398 166.652283,315.022705 166.227753,315.014832 
	C170.703903,306.835876 176.313675,299.430878 184.632660,294.039948 
z"/>
<path fill="#7D4742" opacity="1.000000" stroke="none" 
	d="
M292.055664,80.983727 
	C291.918945,88.188339 291.787842,95.393074 291.642029,102.597504 
	C291.599731,104.688248 291.515503,106.778152 291.757416,109.179161 
	C291.264832,109.990875 290.465332,110.491867 289.307587,110.707001 
	C288.663086,109.938324 288.376801,109.455505 288.135773,108.595474 
	C288.796906,105.498871 289.412811,102.779480 290.261902,99.766098 
	C290.661163,97.974876 290.827271,96.477646 291.002167,94.516998 
	C290.995514,89.700241 290.980133,85.346901 291.237579,80.984917 
	C291.692200,80.978752 291.873962,80.981239 292.055664,80.983727 
z"/>
<path fill="#752B23" opacity="1.000000" stroke="none" 
	d="
M288.090546,108.972694 
	C288.376801,109.455505 288.663086,109.938324 288.990692,110.706978 
	C287.234375,112.660828 285.436676,114.328842 283.263275,116.017624 
	C282.715302,114.494095 282.543060,112.949806 282.155975,111.191818 
	C282.216370,110.020538 282.491608,109.062965 283.387848,107.987877 
	C285.369415,108.237808 286.729980,108.605247 288.090546,108.972694 
z"/>
<path fill="#4F4532" opacity="1.000000" stroke="none" 
	d="
M207.652222,265.043152 
	C204.894547,268.960327 201.795731,272.932037 198.358032,276.968018 
	C201.116470,273.054108 204.213776,269.075928 207.652222,265.043152 
z"/>
<path fill="#4F4532" opacity="1.000000" stroke="none" 
	d="
M192.630692,284.037598 
	C190.561905,286.962036 188.142975,289.945557 185.388260,292.998962 
	C186.004456,288.904053 187.719177,285.353699 192.630692,284.037598 
z"/>
<path fill="#4F4532" opacity="1.000000" stroke="none" 
	d="
M265.656128,181.048676 
	C264.898163,182.631577 263.799438,184.271652 262.363556,185.976990 
	C263.122711,184.396790 264.219025,182.751312 265.656128,181.048676 
z"/>
<path fill="#4F4532" opacity="1.000000" stroke="none" 
	d="
M224.620392,242.030640 
	C224.952423,242.704041 224.951523,243.441895 224.927887,244.545135 
	C223.841614,245.254654 222.778061,245.598816 221.383514,246.004456 
	C222.130829,244.742325 223.209122,243.418732 224.620392,242.030640 
z"/>
<path fill="#4F4532" opacity="1.000000" stroke="none" 
	d="
M196.646973,279.039124 
	C195.892578,280.296753 194.800690,281.609650 193.377747,282.994080 
	C194.134277,281.741882 195.221878,280.418152 196.646973,279.039124 
z"/>
<path fill="#675947" opacity="1.000000" stroke="none" 
	d="
M149.354691,298.821045 
	C149.461624,298.295624 149.850800,297.734375 150.502319,297.115540 
	C150.388748,297.633728 150.012833,298.209503 149.354691,298.821045 
z"/>
<path fill="#675947" opacity="1.000000" stroke="none" 
	d="
M151.328812,294.784668 
	C151.449631,294.262085 151.854736,293.716309 152.522614,293.117706 
	C152.394592,293.630432 152.003845,294.195923 151.328812,294.784668 
z"/>
<path fill="#675947" opacity="1.000000" stroke="none" 
	d="
M153.337616,291.817749 
	C153.459885,291.286438 153.870041,290.720734 154.550781,290.095581 
	C154.422745,290.618561 154.024124,291.200928 153.337616,291.817749 
z"/>
<path fill="#81261F" opacity="1.000000" stroke="none" 
	d="
M288.135773,108.595474 
	C286.729980,108.605247 285.369415,108.237808 283.587799,107.760483 
	C283.195099,107.267044 283.223480,106.883492 283.722778,106.220581 
	C284.589935,105.588326 284.986145,105.235435 285.382355,104.882545 
	C284.921326,104.579704 284.460327,104.276855 283.999329,103.974014 
	C284.003662,103.544991 284.008026,103.115982 284.451935,102.239655 
	C289.192444,92.489510 285.749146,82.959335 285.592957,73.534256 
	C285.584839,73.043449 283.819489,72.581772 282.872223,72.106529 
	C282.872223,72.106529 282.973358,72.026070 282.883118,71.718643 
	C281.186157,70.691742 279.633728,69.792519 277.962189,69.287613 
	C273.524414,67.947113 267.739563,60.957207 268.015808,56.316772 
	C268.487579,48.391888 272.718536,42.406116 280.468994,41.115433 
	C287.361755,39.967583 294.257141,45.369041 295.829041,53.212574 
	C295.745392,54.993744 295.908966,56.517132 296.063171,58.369736 
	C295.725281,59.476234 295.396698,60.253513 294.712280,61.078987 
	C293.589172,62.426392 292.821960,63.725605 292.035217,65.027176 
	C292.015686,65.029526 292.046875,65.054123 291.704590,65.127319 
	C291.471741,66.284866 291.581116,67.369232 291.690521,68.453590 
	C291.690521,68.453590 291.520081,68.822937 291.038208,69.033371 
	C290.047150,70.135338 289.537933,71.026855 289.139374,72.137581 
	C289.439026,72.631012 289.678925,72.849335 289.982605,73.420303 
	C290.009674,75.191093 290.023834,76.553314 290.031372,78.254585 
	C290.338043,79.393608 290.651398,80.193581 290.964722,80.993561 
	C290.980133,85.346901 290.995514,89.700241 290.760620,94.803391 
	C290.349792,97.055496 290.189240,98.557793 290.028687,100.060089 
	C289.412811,102.779480 288.796906,105.498871 288.135773,108.595474 
z"/>
<path fill="#83251F" opacity="1.000000" stroke="none" 
	d="
M337.241333,111.022690 
	C335.299225,109.966957 333.607941,108.997169 330.574768,107.257957 
	C337.793549,107.630096 340.551819,103.876411 343.106201,98.811775 
	C345.503448,94.058670 354.215302,92.063797 359.142609,93.875229 
	C365.133881,96.077820 368.449677,101.296532 368.012878,107.836197 
	C367.719574,112.227562 362.887390,117.986603 358.317291,119.391518 
	C352.759430,121.100075 347.501434,119.436920 344.023621,115.213249 
	C342.729248,113.641258 340.877289,112.528381 338.903625,111.245453 
	C338.182526,111.226051 337.837341,111.167336 337.241333,111.022690 
z"/>
<path fill="#7D4742" opacity="1.000000" stroke="none" 
	d="
M296.076294,52.954796 
	C294.257141,45.369041 287.361755,39.967583 280.468994,41.115433 
	C272.718536,42.406116 268.487579,48.391888 268.015808,56.316772 
	C267.739563,60.957207 273.524414,67.947113 277.962189,69.287613 
	C279.633728,69.792519 281.186157,70.691742 282.846985,71.772217 
	C279.924103,71.389656 276.947113,70.646095 273.610657,69.801453 
	C264.819885,61.813004 263.383179,52.013092 269.583008,44.679405 
	C275.806091,37.318211 287.144348,36.747635 293.974579,43.451939 
	C301.018372,50.365864 300.494476,61.012653 292.399078,67.736435 
	C292.037781,66.642830 292.042328,65.848473 292.046875,65.054123 
	C292.046875,65.054123 292.015686,65.029526 292.322449,64.873795 
	C293.442200,63.488983 294.255157,62.259892 295.068115,61.030796 
	C295.396698,60.253513 295.725281,59.476234 296.286316,58.102280 
	C296.371246,55.988667 296.223755,54.471729 296.076294,52.954796 
z"/>
<path fill="#7D4742" opacity="1.000000" stroke="none" 
	d="
M290.037994,77.915543 
	C290.023834,76.553314 290.009674,75.191093 289.873169,73.201187 
	C289.560669,72.299431 289.319977,72.081047 289.028748,71.918365 
	C289.537933,71.026855 290.047150,70.135338 290.861816,69.134613 
	C291.422668,71.770317 291.678070,74.515228 291.552185,77.654953 
	C290.793274,78.005028 290.415649,77.960281 290.037994,77.915543 
z"/>
<path fill="#7B2825" opacity="1.000000" stroke="none" 
	d="
M291.704590,65.127319 
	C292.042328,65.848473 292.037781,66.642830 292.064514,67.835434 
	C292.095764,68.233696 291.946442,68.444695 291.818481,68.449142 
	C291.581116,67.369232 291.471741,66.284866 291.704590,65.127319 
z"/>
<path fill="#782923" opacity="1.000000" stroke="none" 
	d="
M290.031372,78.254585 
	C290.415649,77.960281 290.793274,78.005028 291.455933,78.057800 
	C291.861420,78.792595 291.981873,79.519363 292.078979,80.614929 
	C291.873962,80.981239 291.692200,80.978752 291.237610,80.984909 
	C290.651398,80.193581 290.338043,79.393608 290.031372,78.254585 
z"/>
<path fill="#7D4742" opacity="1.000000" stroke="none" 
	d="
M282.927582,72.501755 
	C283.819489,72.581772 285.584839,73.043449 285.592957,73.534256 
	C285.749146,82.959335 289.192444,92.489510 284.553650,101.931366 
	C283.804840,92.345917 283.393890,82.621445 282.927582,72.501755 
z"/>
<path fill="#752B23" opacity="1.000000" stroke="none" 
	d="
M283.823242,104.285187 
	C284.460327,104.276855 284.921326,104.579704 285.382355,104.882545 
	C284.986145,105.235435 284.589935,105.588326 283.881989,105.974129 
	C283.595917,105.536804 283.621552,105.066582 283.823242,104.285187 
z"/>
<path fill="#6FB055" opacity="1.000000" stroke="none" 
	d="
M209.401260,353.360779 
	C207.046600,345.835815 207.923935,338.804749 210.117401,331.857117 
	C212.298035,324.950134 223.490723,318.579041 231.713943,319.540771 
	C234.669861,319.886475 237.771484,319.973267 240.513306,320.978333 
	C248.961182,324.075104 252.192352,333.360260 248.187576,343.254211 
	C244.311890,352.829254 237.615723,360.236847 228.215988,364.399780 
	C221.164932,367.522552 213.594559,366.038208 209.401260,353.360779 
M238.559967,351.972137 
	C240.623520,348.597687 242.787796,345.279938 244.727173,341.835602 
	C247.693619,336.567047 245.706482,328.799744 240.697754,325.542145 
	C231.474121,319.543365 217.073044,324.562408 212.742676,334.957733 
	C209.599762,342.502441 212.295532,349.273285 214.782898,356.071594 
	C216.594025,361.021606 220.643921,361.726929 225.415054,360.751251 
	C230.778488,359.654510 234.624084,356.438721 238.559967,351.972137 
z"/>
<path fill="#94B52C" opacity="1.000000" stroke="none" 
	d="
M339.423828,252.674042 
	C329.818207,253.861450 320.580170,255.982117 311.401733,255.749542 
	C298.509064,255.422897 285.680908,253.510422 274.126282,246.660873 
	C265.918243,241.795151 261.171021,230.749008 264.537811,221.893967 
	C267.225464,214.825211 269.661316,207.455551 273.653015,201.130859 
	C281.780273,188.253510 291.160492,176.144577 303.636932,167.096390 
	C310.551270,162.081985 319.021881,160.381485 327.370758,161.235764 
	C351.043304,163.657974 368.305511,183.705139 373.504242,203.496536 
	C377.070129,217.071671 368.062866,238.229965 356.229156,244.787003 
	C350.945770,247.714508 345.299530,249.987228 339.423828,252.674042 
M341.903381,236.076065 
	C342.597656,235.740860 343.291962,235.405655 344.720093,235.028091 
	C346.480286,233.685883 348.240448,232.343689 350.428040,230.792374 
	C350.696655,230.609985 350.905365,230.374527 351.726624,229.944717 
	C362.043793,222.402069 365.777466,203.909424 353.380829,195.401810 
	C346.957855,190.993866 339.355347,188.234375 332.111908,185.136536 
	C330.025482,184.244217 327.334442,184.765564 324.089264,184.700912 
	C322.426025,184.723373 320.762756,184.745850 318.458649,184.401550 
	C312.211517,183.979904 307.329407,186.701813 302.904633,191.538040 
	C302.575867,191.973984 302.247101,192.409927 301.319061,193.036560 
	C300.949127,193.721344 300.579163,194.406113 299.664917,195.486420 
	C299.068207,196.928741 298.471497,198.371063 297.241180,200.093781 
	C296.825745,202.396530 296.410339,204.699295 295.942871,207.750473 
	C295.960327,208.500031 295.977753,209.249603 295.543121,210.546204 
	C296.302704,212.778427 297.062286,215.010651 297.991943,217.635376 
	C298.138519,217.888184 298.337280,218.089432 298.678955,218.816208 
	C298.741821,219.201721 298.804688,219.587250 298.924957,220.710556 
	C301.952850,224.083725 304.980743,227.456894 308.563751,231.237030 
	C310.362732,232.186157 312.161743,233.135300 314.540619,234.436646 
	C315.611847,234.773056 316.683044,235.109482 317.777466,235.738174 
	C317.777466,235.738174 317.887848,236.009827 318.206299,236.565262 
	C319.134399,236.943237 320.062531,237.321228 321.650696,237.819534 
	C326.130493,238.089600 330.610291,238.359650 335.795349,238.782242 
	C337.639008,237.901947 339.482666,237.021667 341.903381,236.076065 
z"/>
<path fill="#E1D284" opacity="1.000000" stroke="none" 
	d="
M197.890259,143.621078 
	C186.731750,143.141113 178.161148,138.205063 171.055466,130.464172 
	C155.818192,113.864754 165.202301,89.002953 178.442352,83.225601 
	C186.376892,79.763329 194.016479,79.693932 200.211777,85.781441 
	C206.761398,92.217110 213.457779,98.998177 218.034439,106.829651 
	C224.700317,118.236160 221.059570,131.934784 210.362946,139.624527 
	C207.085922,141.980347 202.363098,142.324997 197.890259,143.621078 
z"/>
<path fill="#578245" opacity="1.000000" stroke="none" 
	d="
M197.255432,67.159592 
	C197.966217,66.993721 198.911179,67.063263 199.954575,67.391998 
	C199.198532,67.565788 198.344070,67.480400 197.255432,67.159592 
z"/>
<path fill="#578245" opacity="1.000000" stroke="none" 
	d="
M182.191147,67.331665 
	C182.819870,66.938965 183.679672,66.724228 184.756927,66.711830 
	C184.123642,67.112648 183.272949,67.311134 182.191147,67.331665 
z"/>
<path fill="#578245" opacity="1.000000" stroke="none" 
	d="
M215.851746,72.468658 
	C216.425873,72.537476 217.136917,72.883217 217.941284,73.528320 
	C217.352631,73.466988 216.670670,73.106277 215.851746,72.468658 
z"/>
<path fill="#578245" opacity="1.000000" stroke="none" 
	d="
M178.238281,68.667290 
	C178.525787,68.140556 179.114807,67.664902 180.022858,67.216682 
	C179.741196,67.735535 179.140503,68.226952 178.238281,68.667290 
z"/>
<path fill="#578245" opacity="1.000000" stroke="none" 
	d="
M166.296265,73.915291 
	C166.511230,73.359070 167.031754,72.757126 167.882187,72.144348 
	C167.675339,72.712204 167.138596,73.290886 166.296265,73.915291 
z"/>
<path fill="#578245" opacity="1.000000" stroke="none" 
	d="
M156.394012,83.051758 
	C156.522186,82.480400 156.943710,81.807785 157.679291,81.067429 
	C157.557999,81.649948 157.122665,82.300217 156.394012,83.051758 
z"/>
<path fill="#4B7848" opacity="1.000000" stroke="none" 
	d="
M235.540314,85.051636 
	C235.658997,85.329475 235.400162,85.605759 234.883728,86.019241 
	C234.363800,85.988708 234.132965,85.785233 233.790283,85.360764 
	C234.152222,85.133690 234.657516,85.091881 235.540314,85.051636 
z"/>
<path fill="#4BA06F" opacity="1.000000" stroke="none" 
	d="
M119.629410,234.475952 
	C125.923233,245.072479 127.099350,255.668900 119.688713,265.525604 
	C116.924164,269.202667 112.127670,272.413300 107.685219,273.503357 
	C101.916580,274.918732 95.545227,274.422852 89.492363,273.966461 
	C84.419312,273.583923 80.920349,269.479095 80.164024,264.460785 
	C78.703232,254.768250 82.204758,246.426117 87.773590,238.915482 
	C90.882423,234.722610 94.315056,230.994308 99.956612,229.261810 
	C107.828041,226.844498 113.920044,228.638489 119.629410,234.475952 
M118.217094,262.610565 
	C123.451492,255.282333 122.615868,247.734146 119.216240,239.980240 
	C115.249268,230.932343 105.478378,227.867371 97.392189,233.378204 
	C89.426430,238.806946 84.850708,246.585892 83.131798,255.872894 
	C81.389160,265.288177 83.938065,270.484772 90.722672,271.624176 
	C101.048615,273.358337 110.580421,271.782349 118.217094,262.610565 
z"/>
<path fill="#782923" opacity="1.000000" stroke="none" 
	d="
M290.261841,99.766098 
	C290.189240,98.557793 290.349792,97.055496 290.751892,95.266808 
	C290.827271,96.477646 290.661163,97.974876 290.261841,99.766098 
z"/>
<path fill="#7B2825" opacity="1.000000" stroke="none" 
	d="
M295.829041,53.212578 
	C296.223755,54.471729 296.371246,55.988667 296.295624,57.773060 
	C295.908966,56.517132 295.745392,54.993744 295.829041,53.212578 
z"/>
<path fill="#7B2825" opacity="1.000000" stroke="none" 
	d="
M294.712280,61.078987 
	C294.255157,62.259892 293.442200,63.488983 292.341980,64.871445 
	C292.821960,63.725605 293.589172,62.426392 294.712280,61.078987 
z"/>
<path fill="#782923" opacity="1.000000" stroke="none" 
	d="
M289.139343,72.137573 
	C289.319977,72.081047 289.560669,72.299431 289.860229,72.792633 
	C289.678925,72.849335 289.439026,72.631012 289.139343,72.137573 
z"/>
<path fill="#91B52B" opacity="1.000000" stroke="none" 
	d="
M238.304565,352.228027 
	C234.624084,356.438721 230.778488,359.654510 225.415054,360.751251 
	C220.643921,361.726929 216.594025,361.021606 214.782898,356.071594 
	C212.295532,349.273285 209.599762,342.502441 212.742676,334.957733 
	C217.073044,324.562408 231.474121,319.543365 240.697754,325.542145 
	C245.706482,328.799744 247.693619,336.567047 244.727173,341.835602 
	C242.787796,345.279938 240.623520,348.597687 238.304565,352.228027 
z"/>
<path fill="#E4D387" opacity="1.000000" stroke="none" 
	d="
M317.754272,235.445892 
	C316.683044,235.109482 315.611847,234.773056 314.252869,233.881653 
	C313.277161,229.414124 310.803528,227.836349 306.746704,227.855408 
	C305.987762,227.140686 305.481079,226.569305 304.965790,225.637558 
	C303.635681,223.857147 302.314178,222.437134 300.996338,221.009293 
	C301.000000,221.001465 300.983246,221.003113 300.967743,220.641251 
	C300.164246,219.599304 299.376251,218.919220 298.588257,218.239136 
	C298.337280,218.089432 298.138519,217.888184 297.968201,217.032166 
	C297.294739,214.285675 296.644958,212.142426 295.995209,209.999161 
	C295.977753,209.249603 295.960327,208.500031 296.217407,207.105957 
	C296.952850,204.245422 297.413788,202.029404 297.874756,199.813385 
	C298.471497,198.371063 299.068207,196.928741 300.200378,195.229553 
	C301.164703,194.652435 301.593567,194.332199 302.418976,194.008759 
	C308.368073,193.632690 311.674622,189.808167 315.355103,186.045959 
	C316.115540,186.031464 316.550262,186.028809 317.079041,186.350967 
	C319.788788,186.445786 322.404480,186.215790 325.374176,186.040680 
	C330.900574,187.809067 336.271057,189.093704 341.186554,191.363525 
	C345.606628,193.404541 349.948639,196.070023 353.505005,199.349426 
	C355.529114,201.215897 357.223663,205.089905 356.782257,207.668900 
	C355.485382,215.246094 353.046173,222.627777 351.054260,230.085999 
	C350.905365,230.374527 350.696655,230.609985 349.873962,230.933380 
	C347.880341,231.715881 346.440765,232.357391 344.591614,233.001266 
	C341.010223,232.939407 337.800507,232.806244 336.723877,236.986099 
	C336.482910,236.991196 336.001007,237.003326 335.621246,236.839569 
	C329.944397,235.943848 324.651001,235.181656 319.343964,234.530701 
	C318.858795,234.471176 318.286255,235.123917 317.754272,235.445892 
z"/>
<path fill="#CECF6C" opacity="1.000000" stroke="none" 
	d="
M351.390442,230.015350 
	C353.046173,222.627777 355.485382,215.246094 356.782257,207.668900 
	C357.223663,205.089905 355.529114,201.215897 353.505005,199.349426 
	C349.948639,196.070023 345.606628,193.404541 341.186554,191.363525 
	C336.271057,189.093704 330.900574,187.809067 325.350220,185.703918 
	C324.955048,185.087799 324.937836,184.863281 324.920624,184.638763 
	C327.334442,184.765564 330.025482,184.244217 332.111908,185.136536 
	C339.355347,188.234375 346.957855,190.993866 353.380829,195.401810 
	C365.777466,203.909424 362.043793,222.402069 351.390442,230.015350 
z"/>
<path fill="#D2D170" opacity="1.000000" stroke="none" 
	d="
M317.765869,235.592041 
	C318.286255,235.123917 318.858795,234.471176 319.343964,234.530701 
	C324.651001,235.181656 329.944397,235.943848 335.522156,237.054596 
	C335.565247,237.832153 335.327667,238.230927 335.090088,238.629700 
	C330.610291,238.359650 326.130493,238.089600 321.214050,237.465088 
	C319.814209,236.743698 318.851013,236.376770 317.887848,236.009827 
	C317.887848,236.009827 317.777466,235.738174 317.765869,235.592041 
z"/>
<path fill="#DDD67C" opacity="1.000000" stroke="none" 
	d="
M315.029449,186.057816 
	C311.674622,189.808167 308.368073,193.632690 302.397949,193.716705 
	C301.959717,193.233856 301.939026,193.039856 301.918335,192.845856 
	C302.247101,192.409927 302.575867,191.973984 303.396301,191.285706 
	C307.601807,189.374832 311.315613,187.716324 315.029449,186.057816 
z"/>
<path fill="#CECF6C" opacity="1.000000" stroke="none" 
	d="
M315.355103,186.045959 
	C311.315613,187.716324 307.601807,189.374832 303.520294,191.040649 
	C307.329407,186.701813 312.211517,183.979904 318.587036,184.845215 
	C318.138611,185.534622 317.561798,185.780380 316.985016,186.026138 
	C316.550262,186.028809 316.115540,186.031464 315.355103,186.045959 
z"/>
<path fill="#CECF6C" opacity="1.000000" stroke="none" 
	d="
M304.974365,225.997940 
	C305.481079,226.569305 305.987762,227.140686 306.872681,228.133392 
	C307.503479,229.313156 307.756073,230.071609 308.008636,230.830063 
	C304.980743,227.456894 301.952850,224.083725 299.169617,220.457520 
	C299.937256,220.470688 300.460266,220.736908 300.983246,221.003113 
	C300.983246,221.003113 301.000000,221.001465 301.049194,221.337006 
	C302.390381,223.114334 303.682373,224.556137 304.974365,225.997940 
z"/>
<path fill="#D2D170" opacity="1.000000" stroke="none" 
	d="
M308.286194,231.033539 
	C307.756073,230.071609 307.503479,229.313156 307.124939,228.276749 
	C310.803528,227.836349 313.277161,229.414124 313.962921,233.705536 
	C312.161743,233.135300 310.362732,232.186157 308.286194,231.033539 
z"/>
<path fill="#D2D170" opacity="1.000000" stroke="none" 
	d="
M336.964874,236.981018 
	C337.800507,232.806244 341.010223,232.939407 344.470703,233.262482 
	C344.501678,234.037704 344.243958,234.554077 343.986267,235.070435 
	C343.291962,235.405655 342.597656,235.740860 341.234283,236.106430 
	C339.365082,236.418198 338.164978,236.699600 336.964874,236.981018 
z"/>
<path fill="#CECF6C" opacity="1.000000" stroke="none" 
	d="
M295.769165,210.272675 
	C296.644958,212.142426 297.294739,214.285675 297.883179,216.835907 
	C297.062286,215.010651 296.302704,212.778427 295.769165,210.272675 
z"/>
<path fill="#DDD67C" opacity="1.000000" stroke="none" 
	d="
M317.079041,186.350952 
	C317.561798,185.780380 318.138611,185.534622 318.907471,185.028595 
	C320.762756,184.745850 322.426025,184.723373 324.504944,184.669846 
	C324.937836,184.863281 324.955048,185.087799 324.996216,185.649063 
	C322.404480,186.215790 319.788788,186.445786 317.079041,186.350952 
z"/>
<path fill="#CECF6C" opacity="1.000000" stroke="none" 
	d="
M297.557983,199.953583 
	C297.413788,202.029404 296.952850,204.245422 296.243408,206.731750 
	C296.410339,204.699295 296.825745,202.396530 297.557983,199.953583 
z"/>
<path fill="#CECF6C" opacity="1.000000" stroke="none" 
	d="
M344.353180,235.049271 
	C344.243958,234.554077 344.501678,234.037704 344.880310,233.260132 
	C346.440765,232.357391 347.880341,231.715881 349.660278,231.037933 
	C348.240448,232.343689 346.480286,233.685883 344.353180,235.049271 
z"/>
<path fill="#CECF6C" opacity="1.000000" stroke="none" 
	d="
M336.723877,236.986115 
	C338.164978,236.699600 339.365082,236.418198 340.945770,236.139099 
	C339.482666,237.021667 337.639008,237.901947 335.442719,238.705963 
	C335.327667,238.230927 335.565247,237.832153 335.901917,237.218353 
	C336.001007,237.003326 336.482910,236.991196 336.723877,236.986115 
z"/>
<path fill="#D2D170" opacity="1.000000" stroke="none" 
	d="
M300.967743,220.641251 
	C300.460266,220.736908 299.937256,220.470688 299.140930,220.088623 
	C298.804688,219.587250 298.741821,219.201721 298.633606,218.527664 
	C299.376251,218.919220 300.164246,219.599304 300.967743,220.641251 
z"/>
<path fill="#CECF6C" opacity="1.000000" stroke="none" 
	d="
M318.047058,236.287537 
	C318.851013,236.376770 319.814209,236.743698 320.884003,237.404938 
	C320.062531,237.321228 319.134399,236.943237 318.047058,236.287537 
z"/>
<path fill="#CECF6C" opacity="1.000000" stroke="none" 
	d="
M301.618713,192.941208 
	C301.939026,193.039856 301.959717,193.233856 302.001465,193.719910 
	C301.593567,194.332199 301.164703,194.652435 300.472504,195.031769 
	C300.579163,194.406113 300.949127,193.721344 301.618713,192.941208 
z"/>
<path fill="#7EB34C" opacity="1.000000" stroke="none" 
	d="
M118.029938,262.927979 
	C110.580421,271.782349 101.048615,273.358337 90.722672,271.624176 
	C83.938065,270.484772 81.389160,265.288177 83.131798,255.872894 
	C84.850708,246.585892 89.426430,238.806946 97.392189,233.378204 
	C105.478378,227.867371 115.249268,230.932343 119.216240,239.980240 
	C122.615868,247.734146 123.451492,255.282333 118.029938,262.927979 
M119.036896,252.241577 
	C119.017334,250.581848 119.235161,248.877884 118.935677,247.270294 
	C117.843315,241.406616 116.015038,235.967621 109.618065,233.709152 
	C104.416847,231.872849 99.794868,233.698257 96.493599,237.285019 
	C92.221451,241.926620 88.069870,246.592529 86.080360,253.206299 
	C83.004524,263.431335 84.974190,268.384949 95.451645,269.523010 
	C104.304184,270.484589 118.184998,265.132843 119.036896,252.241577 
z"/>
<path fill="#D2D170" opacity="1.000000" stroke="none" 
	d="
M304.965790,225.637558 
	C303.682373,224.556137 302.390381,223.114334 301.045532,221.344818 
	C302.314178,222.437134 303.635681,223.857147 304.965790,225.637558 
z"/>
<path fill="#92B52A" opacity="1.000000" stroke="none" 
	d="
M119.029327,252.676331 
	C118.184998,265.132843 104.304184,270.484589 95.451645,269.523010 
	C84.974190,268.384949 83.004524,263.431335 86.080360,253.206299 
	C88.069870,246.592529 92.221451,241.926620 96.493599,237.285019 
	C99.794868,233.698257 104.416847,231.872849 109.618065,233.709152 
	C116.015038,235.967621 117.843315,241.406616 118.935677,247.270294 
	C119.235161,248.877884 119.017334,250.581848 119.029327,252.676331 
z"/>
</svg>