<svg version="1.1" id="Layer_1" xmlns="http://www.w3.org/2000/svg" xmlns:xlink="http://www.w3.org/1999/xlink" x="0px" y="0px"
	 width="100%" viewBox="0 0 450 450" enable-background="new 0 0 450 450" xml:space="preserve">
<path fill="#366768" opacity="1.000000" stroke="none" 
	d="
M247.000000,451.000000 
	C164.689377,451.000000 82.878761,451.000000 1.034073,451.000000 
	C1.034073,301.064362 1.034073,151.128708 1.034073,1.096528 
	C150.893951,1.096528 300.787994,1.096528 450.841003,1.096528 
	C450.841003,150.999863 450.841003,300.999908 450.841003,451.000000 
	C383.128693,451.000000 315.314331,451.000000 247.000000,451.000000 
M228.053802,50.096100 
	C220.315170,43.829723 213.019440,45.074562 206.998871,53.994324 
	C206.998871,53.994324 206.740891,53.727562 206.119476,53.960896 
	C202.886124,59.749371 199.095596,65.301567 196.522217,71.369904 
	C188.265182,90.840988 184.608597,111.539879 181.169617,132.265366 
	C180.971603,133.458603 180.538055,134.612762 180.090256,136.233414 
	C178.436829,135.175156 177.351990,134.465942 176.252884,133.779587 
	C161.294525,124.438622 146.590408,114.651543 131.282944,105.922577 
	C121.329025,100.246437 110.565460,95.832146 98.680405,95.821922 
	C89.061295,95.813644 83.817818,100.761551 84.522552,110.387894 
	C84.976982,116.595245 86.382462,122.954315 88.603882,128.770996 
	C96.401840,149.189590 109.003883,166.853714 121.678268,184.433517 
	C122.879250,186.099319 123.933372,187.870972 125.482552,190.248657 
	C122.303436,190.841919 120.045166,191.243149 117.795212,191.686554 
	C105.706017,194.069031 93.528038,196.082687 81.554947,198.951019 
	C67.775177,202.252151 54.163853,206.377914 42.458565,214.820297 
	C30.829325,223.207840 30.751410,233.444626 42.630760,241.303314 
	C62.423077,254.396744 85.142197,258.896515 108.720535,262.702728 
	C109.166786,262.712860 109.613045,262.722992 110.691383,263.162964 
	C115.378029,264.023346 120.064674,264.883728 124.786430,265.750580 
	C124.699570,266.606476 124.815804,267.202698 124.575104,267.555054 
	C122.794586,270.161438 120.961319,272.732513 119.110771,275.290192 
	C107.292809,291.624054 95.824448,308.220917 88.666809,327.212982 
	C86.307648,333.472748 84.912819,340.370422 84.581734,347.050995 
	C84.161194,355.536316 89.552078,360.208435 98.028908,360.324554 
	C100.017387,360.351776 102.053383,360.322388 103.993439,359.941589 
	C122.284828,356.351288 138.262604,347.693268 153.746979,337.155151 
	C153.746979,337.155151 153.972519,336.878754 154.676682,336.836029 
	C163.054169,331.284271 171.431641,325.732513 179.763184,320.211182 
	C180.320969,320.889465 180.642960,321.109741 180.705841,321.388458 
	C180.924789,322.359009 181.049561,323.350555 181.218002,324.332764 
	C184.796814,345.202057 188.547638,366.038055 196.776611,385.716156 
	C200.129837,393.734741 203.878830,401.616058 211.105591,407.016052 
	C217.098389,411.494049 223.736908,410.590302 229.337784,404.610291 
	C229.859970,403.948303 230.382141,403.286316 231.524292,402.459137 
	C234.123734,398.236969 237.184601,394.227234 239.243195,389.756073 
	C248.436920,369.787689 252.714432,348.448395 256.178101,326.907959 
	C256.530670,324.715363 257.053314,322.550110 257.540314,320.159668 
	C268.818054,327.281738 279.443146,333.991638 290.357239,341.033325 
	C290.357239,341.033325 290.789581,341.115417 291.154724,341.675659 
	C304.420776,349.759491 318.056549,357.120239 333.548828,359.859711 
	C348.668213,362.533234 355.736542,355.162811 353.160828,339.994873 
	C353.049500,339.339203 352.919098,338.684113 352.749939,338.041321 
	C347.849304,319.419983 338.295593,303.164368 327.014740,287.307709 
	C327.014740,287.307709 326.650848,287.074249 326.568207,286.403503 
	C321.926208,279.746704 317.284241,273.089935 312.372528,266.046326 
	C318.074524,264.818573 322.992767,263.759583 328.597382,262.751129 
	C329.032806,262.619812 329.468262,262.488525 330.711548,262.572906 
	C342.847748,259.784302 355.264099,257.843201 367.035614,253.951492 
	C377.321594,250.550903 387.593903,246.027512 396.583618,240.059204 
	C407.996368,232.482224 406.271790,220.862534 393.690918,213.929108 
	C393.690918,213.929108 393.302643,213.835800 393.005676,213.225418 
	C389.506409,211.336487 386.123047,209.180557 382.488586,207.603165 
	C362.955139,199.125595 342.235992,195.166061 321.361755,191.833771 
	C318.537659,191.382950 315.735199,190.796722 312.491852,190.192978 
	C318.274261,181.554413 323.500580,173.746613 329.057922,165.685120 
	C329.057922,165.685120 329.154816,165.279465 329.747070,164.960373 
	C334.252655,157.432693 339.503479,150.239456 343.070740,142.290665 
	C347.304138,132.857498 351.366150,123.003647 353.179413,112.914597 
	C355.479919,100.114258 348.098816,94.165756 334.402679,96.224197 
	C333.968994,96.348724 333.535339,96.473244 332.316681,96.464111 
	C307.544708,102.389854 286.733337,115.884575 266.285675,130.910599 
	C266.285675,130.910599 266.049316,131.231796 265.346222,131.295609 
	C262.926910,132.824112 260.507629,134.352631 257.525604,136.236664 
	C257.001129,133.418442 256.617004,131.507431 256.292328,129.586365 
	C252.580002,107.619423 248.564163,85.689674 238.752716,65.452278 
	C236.160446,60.105370 231.798813,55.616276 228.022598,50.990002 
	C228.022598,50.990002 228.263306,50.745388 228.053802,50.096100 
z"/>
<path fill="#FDFEFD" opacity="1.000000" stroke="none" 
	d="
M266.049316,131.231812 
	C266.049316,131.231796 266.285675,130.910599 266.850861,130.870056 
	C275.302002,126.310532 283.633514,122.409813 290.967010,117.124329 
	C301.364929,109.630226 312.398468,103.918945 324.714722,100.472519 
	C327.642517,99.653236 330.312866,97.913910 333.101654,96.597778 
	C333.535339,96.473244 333.968994,96.348724 335.061310,96.457504 
	C337.356476,96.922165 339.013275,97.057976 340.626160,97.400681 
	C349.602325,99.307983 353.059204,103.888603 351.802734,113.009018 
	C351.174591,117.568443 350.404144,122.353889 348.447083,126.437569 
	C343.031555,137.737900 336.929871,148.708328 331.175415,159.848419 
	C330.295380,161.552094 329.818298,163.463913 329.154816,165.279465 
	C329.154816,165.279465 329.057922,165.685120 328.568054,165.876083 
	C322.905731,172.930023 317.645203,179.728958 312.593414,186.679611 
	C309.486847,190.953873 310.379761,192.400558 315.822632,192.927185 
	C335.588165,194.839569 354.820953,199.276215 373.572296,205.703857 
	C380.289032,208.006256 386.733765,211.102112 393.302643,213.835800 
	C393.302643,213.835800 393.690918,213.929108 393.890015,214.405121 
	C395.966217,216.975891 398.101166,218.900620 399.632690,221.223236 
	C400.712006,222.860062 401.414215,225.013733 401.518463,226.977356 
	C401.901001,234.178558 397.090210,238.762665 391.785370,241.791779 
	C384.499054,245.952332 376.644501,249.443130 368.632507,251.928665 
	C357.565216,255.362061 346.116241,257.559052 334.852020,260.370789 
	C333.143738,260.797180 331.550262,261.683594 329.903687,262.357239 
	C329.468262,262.488525 329.032806,262.619812 327.928711,262.539185 
	C322.709259,262.927521 318.121033,263.347534 313.638947,264.278656 
	C312.732208,264.467041 311.327576,267.250610 311.671967,267.717957 
	C316.510620,274.283783 321.612732,280.655426 326.650848,287.074249 
	C326.650848,287.074249 327.014740,287.307709 327.043274,287.891479 
	C327.723846,289.976105 328.253265,291.545441 329.047455,292.966827 
	C334.874268,303.395172 341.491791,313.463409 346.354553,324.319519 
	C349.529266,331.407104 350.777740,339.549133 351.766174,347.360931 
	C352.495667,353.126190 348.711670,357.182098 342.966614,358.217346 
	C336.673035,359.351379 330.958771,357.185303 324.839325,355.450500 
	C314.602264,352.548370 305.358704,348.230408 296.383606,342.845886 
	C294.757965,341.870575 292.666168,341.672363 290.789581,341.115417 
	C290.789581,341.115417 290.357239,341.033325 290.134705,340.549133 
	C279.867554,333.030884 269.871948,325.924957 259.744690,319.011871 
	C257.129944,317.226959 255.725281,319.021484 255.270813,321.557678 
	C253.833588,329.578247 252.572723,337.631531 251.055923,345.636566 
	C248.013458,361.693451 243.944931,377.431641 236.177094,391.985199 
	C234.314224,395.475403 232.656448,399.075012 230.904327,402.624329 
	C230.382141,403.286316 229.859970,403.948303 228.691666,404.773163 
	C223.106552,407.486206 217.974609,410.296417 212.794968,406.049927 
	C209.637283,403.461182 206.719238,400.309357 204.508972,396.884247 
	C196.379791,384.286957 192.411728,370.005554 189.101089,355.604553 
	C186.615692,344.793274 185.070572,333.769165 182.856552,322.890747 
	C181.810852,317.752808 180.314331,317.355621 176.158905,320.387665 
	C172.270401,323.224976 168.353912,326.024445 164.489639,328.894287 
	C160.956192,331.518433 157.476120,334.214447 153.972519,336.878754 
	C153.972519,336.878754 153.746979,337.155151 153.192688,337.167267 
	C144.405457,341.341644 135.968735,345.151276 127.993607,349.759644 
	C118.991234,354.961639 109.342552,357.774353 99.188286,358.808655 
	C91.634132,359.578094 85.587639,354.030060 86.156181,346.476685 
	C86.623230,340.271667 87.887733,333.893890 90.111572,328.096252 
	C97.670662,308.389404 109.846863,291.314484 122.036102,274.292084 
	C123.485191,272.268402 125.128151,270.286926 126.050201,268.028290 
	C126.438019,267.078278 125.353905,264.424591 124.650764,264.309784 
	C119.829712,263.522339 114.932190,263.203125 110.059296,262.733124 
	C109.613045,262.722992 109.166786,262.712860 108.210037,262.288269 
	C101.778130,260.316437 95.807678,258.922943 89.945457,257.167938 
	C77.410912,253.415405 64.624725,250.227753 52.561947,245.292511 
	C46.615662,242.859726 41.777908,237.335312 36.960732,232.670609 
	C34.147636,229.946548 34.762623,225.798889 36.979748,222.943756 
	C39.594162,219.576996 42.693855,216.189163 46.321407,214.080566 
	C57.872059,207.366531 70.420982,202.884323 83.455650,200.062210 
	C96.115341,197.321289 108.898582,195.149078 121.632942,192.755722 
	C127.181892,191.712845 127.714920,190.119629 124.671768,185.600311 
	C115.391182,171.817932 105.527344,158.342667 97.408104,143.895020 
	C92.285423,134.779541 88.938171,124.361633 86.500305,114.121841 
	C83.675522,102.256813 89.746147,96.285591 102.524139,97.461700 
	C109.023010,98.059875 115.563805,100.407349 121.637810,103.009438 
	C140.991974,111.300705 158.334518,123.090179 175.535660,135.073502 
	C177.075150,136.145996 178.925568,136.772125 180.631592,137.605560 
	C181.417221,135.721313 182.618698,133.901901 182.924179,131.942780 
	C186.004730,112.186836 189.816284,92.610817 197.430115,74.013390 
	C200.246597,67.133904 203.620956,60.482819 206.740875,53.727562 
	C206.740891,53.727562 206.998871,53.994324 207.249619,53.909737 
	C208.707352,53.176891 210.192963,52.786636 211.073349,51.835934 
	C214.988617,47.607830 218.950729,46.812351 224.168823,49.359394 
	C225.453140,49.986298 226.894272,50.292015 228.263306,50.745392 
	C228.263306,50.745388 228.022598,50.990002 228.133453,51.216179 
	C230.668808,54.978313 233.861053,58.215240 235.376175,62.105362 
	C240.238693,74.590202 245.161423,87.126762 248.755005,100.007698 
	C251.820175,110.994499 253.088226,122.483231 255.139023,133.752151 
	C255.890518,137.881485 257.469116,138.707733 260.826477,136.297394 
	C262.775238,134.898315 264.321777,132.939011 266.049316,131.231812 
M174.065079,272.709442 
	C176.057922,274.129974 178.050766,275.550476 180.735657,277.115662 
	C182.757843,278.248505 184.680084,279.640503 186.820755,280.466156 
	C193.573151,283.070587 200.289444,287.090363 207.234924,287.593811 
	C221.158051,288.603088 235.579453,289.753845 248.378952,281.839905 
	C254.555542,278.020905 261.213470,274.530182 266.322510,269.530762 
	C276.250488,259.815765 282.947266,247.803452 284.092529,233.730545 
	C284.795868,225.087830 284.150482,216.258698 283.323700,207.588333 
	C282.379089,197.682419 276.612244,189.565308 270.686646,182.207138 
	C265.820282,176.164291 259.628418,170.454590 252.828781,166.855438 
	C238.574554,159.310440 223.086655,155.471481 206.808060,159.189987 
	C200.114700,160.718918 193.175186,162.512848 187.282578,165.841385 
	C180.906998,169.442764 175.251556,174.592636 169.934677,179.741150 
	C156.268692,192.974365 151.944107,209.755737 152.981415,228.203659 
	C153.259613,233.151657 154.339859,238.054535 154.648666,243.525925 
	C154.915039,247.736801 154.982666,251.976562 155.587921,256.138153 
	C155.738708,257.174988 157.498062,258.263824 158.745270,258.784454 
	C160.386383,259.469482 162.252106,259.616455 164.083862,260.711060 
	C165.113220,262.342468 165.933426,264.166626 167.219284,265.561615 
	C169.325104,267.846130 171.733704,269.851593 174.065079,272.709442 
z"/>
<path fill="#D6E7E7" opacity="1.000000" stroke="none" 
	d="
M206.430176,53.844227 
	C203.620956,60.482819 200.246597,67.133904 197.430115,74.013390 
	C189.816284,92.610817 186.004730,112.186836 182.924179,131.942780 
	C182.618698,133.901901 181.417221,135.721313 180.631592,137.605560 
	C178.925568,136.772125 177.075150,136.145996 175.535660,135.073502 
	C158.334518,123.090179 140.991974,111.300705 121.637810,103.009438 
	C115.563805,100.407349 109.023010,98.059875 102.524139,97.461700 
	C89.746147,96.285591 83.675522,102.256813 86.500305,114.121841 
	C88.938171,124.361633 92.285423,134.779541 97.408104,143.895020 
	C105.527344,158.342667 115.391182,171.817932 124.671768,185.600311 
	C127.714920,190.119629 127.181892,191.712845 121.632942,192.755722 
	C108.898582,195.149078 96.115341,197.321289 83.455650,200.062210 
	C70.420982,202.884323 57.872059,207.366531 46.321407,214.080566 
	C42.693855,216.189163 39.594162,219.576996 36.979748,222.943756 
	C34.762623,225.798889 34.147636,229.946548 36.960732,232.670609 
	C41.777908,237.335312 46.615662,242.859726 52.561947,245.292511 
	C64.624725,250.227753 77.410912,253.415405 89.945457,257.167938 
	C95.807678,258.922943 101.778130,260.316437 107.899857,262.155334 
	C85.142197,258.896515 62.423077,254.396744 42.630760,241.303314 
	C30.751410,233.444626 30.829325,223.207840 42.458565,214.820297 
	C54.163853,206.377914 67.775177,202.252151 81.554947,198.951019 
	C93.528038,196.082687 105.706017,194.069031 117.795212,191.686554 
	C120.045166,191.243149 122.303436,190.841919 125.482552,190.248657 
	C123.933372,187.870972 122.879250,186.099319 121.678268,184.433517 
	C109.003883,166.853714 96.401840,149.189590 88.603882,128.770996 
	C86.382462,122.954315 84.976982,116.595245 84.522552,110.387894 
	C83.817818,100.761551 89.061295,95.813644 98.680405,95.821922 
	C110.565460,95.832146 121.329025,100.246437 131.282944,105.922577 
	C146.590408,114.651543 161.294525,124.438622 176.252884,133.779587 
	C177.351990,134.465942 178.436829,135.175156 180.090256,136.233414 
	C180.538055,134.612762 180.971603,133.458603 181.169617,132.265366 
	C184.608597,111.539879 188.265182,90.840988 196.522217,71.369904 
	C199.095596,65.301567 202.886124,59.749371 206.430176,53.844227 
z"/>
<path fill="#D6E7E7" opacity="1.000000" stroke="none" 
	d="
M110.375336,262.948059 
	C114.932190,263.203125 119.829712,263.522339 124.650764,264.309784 
	C125.353905,264.424591 126.438019,267.078278 126.050201,268.028290 
	C125.128151,270.286926 123.485191,272.268402 122.036102,274.292084 
	C109.846863,291.314484 97.670662,308.389404 90.111572,328.096252 
	C87.887733,333.893890 86.623230,340.271667 86.156181,346.476685 
	C85.587639,354.030060 91.634132,359.578094 99.188286,358.808655 
	C109.342552,357.774353 118.991234,354.961639 127.993607,349.759644 
	C135.968735,345.151276 144.405457,341.341644 153.016815,337.197021 
	C138.262604,347.693268 122.284828,356.351288 103.993439,359.941589 
	C102.053383,360.322388 100.017387,360.351776 98.028908,360.324554 
	C89.552078,360.208435 84.161194,355.536316 84.581734,347.050995 
	C84.912819,340.370422 86.307648,333.472748 88.666809,327.212982 
	C95.824448,308.220917 107.292809,291.624054 119.110771,275.290192 
	C120.961319,272.732513 122.794586,270.161438 124.575104,267.555054 
	C124.815804,267.202698 124.699570,266.606476 124.786430,265.750580 
	C120.064674,264.883728 115.378029,264.023346 110.375336,262.948059 
z"/>
<path fill="#D6E7E7" opacity="1.000000" stroke="none" 
	d="
M154.324600,336.857391 
	C157.476120,334.214447 160.956192,331.518433 164.489639,328.894287 
	C168.353912,326.024445 172.270401,323.224976 176.158905,320.387665 
	C180.314331,317.355621 181.810852,317.752808 182.856552,322.890747 
	C185.070572,333.769165 186.615692,344.793274 189.101089,355.604553 
	C192.411728,370.005554 196.379791,384.286957 204.508972,396.884247 
	C206.719238,400.309357 209.637283,403.461182 212.794968,406.049927 
	C217.974609,410.296417 223.106552,407.486206 228.409714,404.917938 
	C223.736908,410.590302 217.098389,411.494049 211.105591,407.016052 
	C203.878830,401.616058 200.129837,393.734741 196.776611,385.716156 
	C188.547638,366.038055 184.796814,345.202057 181.218002,324.332764 
	C181.049561,323.350555 180.924789,322.359009 180.705841,321.388458 
	C180.642960,321.109741 180.320969,320.889465 179.763184,320.211182 
	C171.431641,325.732513 163.054169,331.284271 154.324600,336.857391 
z"/>
<path fill="#D6E7E7" opacity="1.000000" stroke="none" 
	d="
M290.972168,341.395538 
	C292.666168,341.672363 294.757965,341.870575 296.383606,342.845886 
	C305.358704,348.230408 314.602264,352.548370 324.839325,355.450500 
	C330.958771,357.185303 336.673035,359.351379 342.966614,358.217346 
	C348.711670,357.182098 352.495667,353.126190 351.766174,347.360931 
	C350.777740,339.549133 349.529266,331.407104 346.354553,324.319519 
	C341.491791,313.463409 334.874268,303.395172 329.047455,292.966827 
	C328.253265,291.545441 327.723846,289.976105 327.112244,288.096375 
	C338.295593,303.164368 347.849304,319.419983 352.749939,338.041321 
	C352.919098,338.684113 353.049500,339.339203 353.160828,339.994873 
	C355.736542,355.162811 348.668213,362.533234 333.548828,359.859711 
	C318.056549,357.120239 304.420776,349.759491 290.972168,341.395538 
z"/>
<path fill="#D6E7E7" opacity="1.000000" stroke="none" 
	d="
M231.214325,402.541748 
	C232.656448,399.075012 234.314224,395.475403 236.177094,391.985199 
	C243.944931,377.431641 248.013458,361.693451 251.055923,345.636566 
	C252.572723,337.631531 253.833588,329.578247 255.270813,321.557678 
	C255.725281,319.021484 257.129944,317.226959 259.744690,319.011871 
	C269.871948,325.924957 279.867554,333.030884 289.990234,340.383240 
	C279.443146,333.991638 268.818054,327.281738 257.540314,320.159668 
	C257.053314,322.550110 256.530670,324.715363 256.178101,326.907959 
	C252.714432,348.448395 248.436920,369.787689 239.243195,389.756073 
	C237.184601,394.227234 234.123734,398.236969 231.214325,402.541748 
z"/>
<path fill="#D6E7E7" opacity="1.000000" stroke="none" 
	d="
M393.154175,213.530609 
	C386.733765,211.102112 380.289032,208.006256 373.572296,205.703857 
	C354.820953,199.276215 335.588165,194.839569 315.822632,192.927185 
	C310.379761,192.400558 309.486847,190.953873 312.593414,186.679611 
	C317.645203,179.728958 322.905731,172.930023 328.402527,166.002930 
	C323.500580,173.746613 318.274261,181.554413 312.491852,190.192978 
	C315.735199,190.796722 318.537659,191.382950 321.361755,191.833771 
	C342.235992,195.166061 362.955139,199.125595 382.488586,207.603165 
	C386.123047,209.180557 389.506409,211.336487 393.154175,213.530609 
z"/>
<path fill="#D6E7E7" opacity="1.000000" stroke="none" 
	d="
M330.307617,262.465088 
	C331.550262,261.683594 333.143738,260.797180 334.852020,260.370789 
	C346.116241,257.559052 357.565216,255.362061 368.632507,251.928665 
	C376.644501,249.443130 384.499054,245.952332 391.785370,241.791779 
	C397.090210,238.762665 401.901001,234.178558 401.518463,226.977356 
	C401.414215,225.013733 400.712006,222.860062 399.632690,221.223236 
	C398.101166,218.900620 395.966217,216.975891 394.016937,214.559235 
	C406.271790,220.862534 407.996368,232.482224 396.583618,240.059204 
	C387.593903,246.027512 377.321594,250.550903 367.035614,253.951492 
	C355.264099,257.843201 342.847748,259.784302 330.307617,262.465088 
z"/>
<path fill="#D6E7E7" opacity="1.000000" stroke="none" 
	d="
M265.697754,131.263702 
	C264.321777,132.939011 262.775238,134.898315 260.826477,136.297394 
	C257.469116,138.707733 255.890518,137.881485 255.139023,133.752151 
	C253.088226,122.483231 251.820175,110.994499 248.755005,100.007698 
	C245.161423,87.126762 240.238693,74.590202 235.376175,62.105362 
	C233.861053,58.215240 230.668808,54.978313 228.246979,51.087822 
	C231.798813,55.616276 236.160446,60.105370 238.752716,65.452278 
	C248.564163,85.689674 252.580002,107.619423 256.292328,129.586365 
	C256.617004,131.507431 257.001129,133.418442 257.525604,136.236664 
	C260.507629,134.352631 262.926910,132.824112 265.697754,131.263702 
z"/>
<path fill="#D6E7E7" opacity="1.000000" stroke="none" 
	d="
M329.450928,165.119919 
	C329.818298,163.463913 330.295380,161.552094 331.175415,159.848419 
	C336.929871,148.708328 343.031555,137.737900 348.447083,126.437569 
	C350.404144,122.353889 351.174591,117.568443 351.802734,113.009018 
	C353.059204,103.888603 349.602325,99.307983 340.626160,97.400681 
	C339.013275,97.057976 337.356476,96.922165 335.402466,96.499954 
	C348.098816,94.165756 355.479919,100.114258 353.179413,112.914597 
	C351.366150,123.003647 347.304138,132.857498 343.070740,142.290665 
	C339.503479,150.239456 334.252655,157.432693 329.450928,165.119919 
z"/>
<path fill="#D6E7E7" opacity="1.000000" stroke="none" 
	d="
M332.709167,96.530945 
	C330.312866,97.913910 327.642517,99.653236 324.714722,100.472519 
	C312.398468,103.918945 301.364929,109.630226 290.967010,117.124329 
	C283.633514,122.409813 275.302002,126.310532 267.044250,130.821503 
	C286.733337,115.884575 307.544708,102.389854 332.709167,96.530945 
z"/>
<path fill="#D6E7E7" opacity="1.000000" stroke="none" 
	d="
M326.609528,286.738892 
	C321.612732,280.655426 316.510620,274.283783 311.671967,267.717957 
	C311.327576,267.250610 312.732208,264.467041 313.638947,264.278656 
	C318.121033,263.347534 322.709259,262.927521 327.585541,262.513916 
	C322.992767,263.759583 318.074524,264.818573 312.372528,266.046326 
	C317.284241,273.089935 321.926208,279.746704 326.609528,286.738892 
z"/>
<path fill="#D6E7E7" opacity="1.000000" stroke="none" 
	d="
M228.158554,50.420746 
	C226.894272,50.292015 225.453140,49.986298 224.168823,49.359394 
	C218.950729,46.812351 214.988617,47.607830 211.073349,51.835934 
	C210.192963,52.786636 208.707352,53.176891 207.117920,53.779350 
	C213.019440,45.074562 220.315170,43.829723 228.158554,50.420746 
z"/>
<path fill="#FEF6D8" opacity="1.000000" stroke="none" 
	d="
M155.051910,242.978134 
	C154.339859,238.054535 153.259613,233.151657 152.981415,228.203659 
	C151.944107,209.755737 156.268692,192.974365 169.934677,179.741150 
	C175.251556,174.592636 180.906998,169.442764 187.282578,165.841385 
	C193.175186,162.512848 200.114700,160.718918 206.808060,159.189987 
	C223.086655,155.471481 238.574554,159.310440 252.828781,166.855438 
	C259.628418,170.454590 265.820282,176.164291 270.686646,182.207138 
	C276.612244,189.565308 282.379089,197.682419 283.323700,207.588333 
	C284.150482,216.258698 284.795868,225.087830 284.092529,233.730545 
	C282.947266,247.803452 276.250488,259.815765 266.322510,269.530762 
	C261.213470,274.530182 254.555542,278.020905 248.378952,281.839905 
	C235.579453,289.753845 221.158051,288.603088 207.234924,287.593811 
	C200.289444,287.090363 193.573151,283.070587 186.820755,280.466156 
	C184.680084,279.640503 182.757843,278.248505 180.210266,276.766052 
	C177.794785,274.935883 175.904694,273.455322 174.014603,271.974762 
	C171.733704,269.851593 169.325104,267.846130 167.219284,265.561615 
	C165.933426,264.166626 165.113220,262.342468 164.049438,259.971375 
	C164.029480,258.468811 164.043930,257.705994 164.352020,257.103577 
	C165.998199,258.946350 167.129883,260.887482 168.743271,262.264069 
	C174.337265,267.037201 180.098663,271.614105 185.864807,276.132111 
	C185.933273,275.998535 185.781677,276.260406 185.918900,276.569092 
	C189.334122,278.355225 192.612122,279.832703 196.033417,281.392609 
	C196.176727,281.475006 196.503265,281.526611 196.729706,281.799072 
	C200.342575,282.908386 203.729019,283.745239 207.468079,284.684326 
	C208.550888,284.835358 209.281082,284.884125 210.278320,285.140686 
	C211.415512,285.389038 212.285675,285.429626 213.589203,285.560120 
	C216.984039,285.622498 219.945496,285.595001 223.326675,285.679138 
	C244.233444,284.632538 260.546356,275.287140 271.859436,258.653442 
	C285.789856,238.171478 287.089996,216.108551 275.432648,193.982895 
	C267.792450,179.481796 256.403595,169.013321 239.964081,164.630783 
	C239.820251,164.545319 239.492447,164.478180 239.300629,164.242203 
	C238.350449,163.825607 237.592087,163.645004 236.531555,163.373062 
	C235.813675,163.217102 235.397995,163.152481 234.748825,162.844330 
	C233.645569,162.501648 232.775803,162.402496 231.590454,162.226196 
	C230.843094,162.121689 230.411316,162.094345 229.642609,161.826111 
	C208.473679,158.536545 189.940079,163.435135 174.517776,178.061462 
	C167.483795,184.732407 161.697098,192.430664 159.200119,202.451523 
	C158.916321,203.364288 158.746811,203.979050 158.304184,204.820740 
	C157.517166,207.419327 157.003265,209.790939 156.383270,212.555420 
	C156.189911,214.300537 156.102615,215.652802 155.793182,217.347763 
	C155.731918,222.121124 155.892807,226.551788 156.032593,231.350220 
	C156.145996,232.438400 156.280502,233.158813 156.334122,234.269623 
	C158.858780,242.087967 161.464325,249.515884 163.741531,256.856934 
	C160.626099,252.172729 157.839020,247.575424 155.051910,242.978134 
z"/>
<path fill="#FCFDF6" opacity="1.000000" stroke="none" 
	d="
M164.058380,256.943146 
	C164.043930,257.705994 164.029480,258.468811 164.018143,259.613220 
	C162.252106,259.616455 160.386383,259.469482 158.745270,258.784454 
	C157.498062,258.263824 155.738708,257.174988 155.587921,256.138153 
	C154.982666,251.976562 154.915039,247.736801 154.850296,243.252029 
	C157.839020,247.575424 160.626099,252.172729 163.712036,256.886108 
	C164.010895,257.002197 164.058380,256.943146 164.058380,256.943146 
z"/>
<path fill="#FBFDF6" opacity="1.000000" stroke="none" 
	d="
M174.039841,272.342102 
	C175.904694,273.455322 177.794785,274.935883 179.864243,276.693726 
	C178.050766,275.550476 176.057922,274.129974 174.039841,272.342102 
z"/>
<path fill="#F9B12F" opacity="1.000000" stroke="none" 
	d="
M158.577301,204.593796 
	C158.746811,203.979050 158.916321,203.364288 159.494934,202.311035 
	C161.218124,200.178894 162.828400,198.638321 163.795929,196.765671 
	C168.416763,187.821960 174.367752,179.974762 182.929993,174.565720 
	C188.480011,171.059586 194.182648,166.837906 200.367645,165.518463 
	C209.638321,163.540787 219.392609,163.830215 229.089722,163.468796 
	C231.503784,166.451218 234.142746,166.573395 237.456329,164.895569 
	C238.411819,164.736084 238.952133,164.607147 239.492447,164.478180 
	C239.492447,164.478180 239.820251,164.545319 240.060059,164.980774 
	C241.688965,166.500504 242.940994,167.861755 244.487793,168.627518 
	C267.377960,179.959183 279.492920,197.919632 280.111328,223.868454 
	C280.821320,253.660553 254.234085,283.376587 223.642090,283.126373 
	C219.771194,283.389069 216.360275,283.687195 212.642120,283.969238 
	C211.926514,283.909027 211.518112,283.864929 210.965118,283.540466 
	C209.531296,283.168304 208.242065,283.076447 206.591553,282.978455 
	C205.507935,282.948273 204.785629,282.924255 203.827469,282.728760 
	C203.038055,282.389740 202.484482,282.222229 201.546631,281.976166 
	C199.609329,281.773956 198.056290,281.650299 196.503265,281.526611 
	C196.503265,281.526611 196.176727,281.475006 195.894943,281.060486 
	C192.335999,279.184113 189.058838,277.722260 185.781677,276.260406 
	C185.781677,276.260406 185.933273,275.998535 185.770721,275.797241 
	C182.348755,272.847961 178.768082,270.397705 175.892136,267.294312 
	C168.285294,259.085876 161.337479,250.384705 159.174606,238.756622 
	C158.934067,237.651016 158.523941,236.775284 158.089813,235.593475 
	C158.035080,234.879257 158.004349,234.471100 158.162933,233.798416 
	C157.965622,232.323151 157.578979,231.112411 157.167389,229.449219 
	C157.143890,225.362106 157.145370,221.727463 157.440536,217.916718 
	C157.830124,215.806931 157.926010,213.873245 158.058167,211.539825 
	C158.255402,208.957993 158.416351,206.775894 158.577301,204.593796 
z"/>
<path fill="#EBC46F" opacity="1.000000" stroke="none" 
	d="
M224.102036,283.161835 
	C254.234085,283.376587 280.821320,253.660553 280.111328,223.868454 
	C279.492920,197.919632 267.377960,179.959183 244.487793,168.627518 
	C242.940994,167.861755 241.688965,166.500504 240.203888,165.066223 
	C256.403595,169.013321 267.792450,179.481796 275.432648,193.982895 
	C287.089996,216.108551 285.789856,238.171478 271.859436,258.653442 
	C260.546356,275.287140 244.233444,284.632538 223.407349,285.424255 
	C223.412872,284.425720 223.757462,283.793793 224.102036,283.161835 
z"/>
<path fill="#EBC46F" opacity="1.000000" stroke="none" 
	d="
M228.941238,163.155487 
	C219.392609,163.830215 209.638321,163.540787 200.367645,165.518463 
	C194.182648,166.837906 188.480011,171.059586 182.929993,174.565720 
	C174.367752,179.974762 168.416763,187.821960 163.795929,196.765671 
	C162.828400,198.638321 161.218124,200.178894 159.609222,202.013000 
	C161.697098,192.430664 167.483795,184.732407 174.517776,178.061462 
	C189.940079,163.435135 208.473679,158.536545 229.498077,162.031799 
	C229.440750,162.704086 229.190994,162.929794 228.941238,163.155487 
z"/>
<path fill="#EBC46F" opacity="1.000000" stroke="none" 
	d="
M157.973618,234.062943 
	C158.004349,234.471100 158.035080,234.879257 158.108261,235.919647 
	C158.435486,237.363419 158.720261,238.174942 159.005035,238.986481 
	C161.337479,250.384705 168.285294,259.085876 175.892136,267.294312 
	C178.768082,270.397705 182.348755,272.847961 185.702271,275.930847 
	C180.098663,271.614105 174.337265,267.037201 168.743271,262.264069 
	C167.129883,260.887482 165.998199,258.946350 164.352020,257.103577 
	C164.058380,256.943146 164.010895,257.002197 164.040390,256.973022 
	C161.464325,249.515884 158.858780,242.087967 156.594025,234.288101 
	C157.281082,233.965103 157.627350,234.014023 157.973618,234.062943 
z"/>
<path fill="#E6B649" opacity="1.000000" stroke="none" 
	d="
M223.642090,283.126373 
	C223.757462,283.793793 223.412872,284.425720 222.987610,285.312592 
	C219.945496,285.595001 216.984039,285.622498 213.562378,285.313110 
	C213.051224,284.645935 213.000290,284.315643 212.949341,283.985352 
	C216.360275,283.687195 219.771194,283.389069 223.642090,283.126373 
z"/>
<path fill="#EBC46F" opacity="1.000000" stroke="none" 
	d="
M157.146851,218.092819 
	C157.145370,221.727463 157.143890,225.362106 156.993515,229.648834 
	C156.580978,230.528076 156.317322,230.755264 156.053680,230.982452 
	C155.892807,226.551788 155.731918,222.121124 156.004425,217.502762 
	C156.674164,217.574310 156.910507,217.833572 157.146851,218.092819 
z"/>
<path fill="#EAB341" opacity="1.000000" stroke="none" 
	d="
M229.089722,163.468796 
	C229.190994,162.929794 229.440750,162.704086 229.835022,162.272690 
	C230.411316,162.094345 230.843094,162.121689 231.706604,162.476898 
	C233.086319,162.899124 234.034302,162.993484 234.982300,163.087860 
	C235.397995,163.152481 235.813675,163.217102 236.556625,163.617508 
	C236.951904,164.275024 237.004318,164.599289 237.041138,164.926086 
	C234.142746,166.573395 231.503784,166.451218 229.089722,163.468796 
z"/>
<path fill="#EBC46F" opacity="1.000000" stroke="none" 
	d="
M185.918900,276.569092 
	C189.058838,277.722260 192.335999,279.184113 195.751648,280.978088 
	C192.612122,279.832703 189.334122,278.355225 185.918900,276.569092 
z"/>
<path fill="#EBC46F" opacity="1.000000" stroke="none" 
	d="
M204.063324,282.900269 
	C204.785629,282.924255 205.507935,282.948273 206.620575,283.245239 
	C207.045776,283.872833 207.080612,284.227448 207.115463,284.582092 
	C203.729019,283.745239 200.342575,282.908386 196.729706,281.799072 
	C198.056290,281.650299 199.609329,281.773956 201.777771,282.157593 
	C202.949890,282.578461 203.506607,282.739349 204.063324,282.900269 
z"/>
<path fill="#E4B546" opacity="1.000000" stroke="none" 
	d="
M157.440552,217.916718 
	C156.910507,217.833572 156.674164,217.574310 156.226562,217.160065 
	C156.102615,215.652802 156.189911,214.300537 156.638397,212.525391 
	C157.340378,212.048187 157.681137,211.993866 158.021912,211.939560 
	C157.926010,213.873245 157.830124,215.806931 157.440552,217.916718 
z"/>
<path fill="#EBC46F" opacity="1.000000" stroke="none" 
	d="
M158.058182,211.539825 
	C157.681137,211.993866 157.340378,212.048187 156.744476,212.132538 
	C157.003265,209.790939 157.517166,207.419327 158.304169,204.820740 
	C158.416351,206.775894 158.255402,208.957993 158.058182,211.539825 
z"/>
<path fill="#E4B546" opacity="1.000000" stroke="none" 
	d="
M156.032593,231.350220 
	C156.317322,230.755264 156.580978,230.528076 157.018494,230.101288 
	C157.578979,231.112411 157.965622,232.323151 158.162933,233.798416 
	C157.627350,234.014023 157.281082,233.965103 156.674911,233.897705 
	C156.280502,233.158813 156.145996,232.438400 156.032593,231.350220 
z"/>
<path fill="#E6B649" opacity="1.000000" stroke="none" 
	d="
M207.468079,284.684326 
	C207.080612,284.227448 207.045776,283.872833 206.981888,283.251404 
	C208.242065,283.076447 209.531296,283.168304 210.764557,283.711548 
	C210.476135,284.419586 210.243698,284.676270 210.011261,284.932922 
	C209.281082,284.884125 208.550888,284.835358 207.468079,284.684326 
z"/>
<path fill="#EBC46F" opacity="1.000000" stroke="none" 
	d="
M210.278320,285.140686 
	C210.243698,284.676270 210.476135,284.419586 210.909149,283.991882 
	C211.518112,283.864929 211.926514,283.909027 212.642120,283.969238 
	C213.000290,284.315643 213.051224,284.645935 213.128998,285.223236 
	C212.285675,285.429626 211.415512,285.389038 210.278320,285.140686 
z"/>
<path fill="#EBC46F" opacity="1.000000" stroke="none" 
	d="
M234.748825,162.844330 
	C234.034302,162.993484 233.086319,162.899124 232.022171,162.554047 
	C232.775803,162.402496 233.645569,162.501648 234.748825,162.844330 
z"/>
<path fill="#EBC46F" opacity="1.000000" stroke="none" 
	d="
M237.456329,164.895569 
	C237.004318,164.599289 236.951904,164.275024 236.858810,163.708832 
	C237.592087,163.645004 238.350449,163.825607 239.300629,164.242218 
	C238.952133,164.607147 238.411819,164.736084 237.456329,164.895569 
z"/>
<path fill="#E4B546" opacity="1.000000" stroke="none" 
	d="
M159.174622,238.756622 
	C158.720261,238.174942 158.435486,237.363419 158.132263,236.225723 
	C158.523941,236.775284 158.934067,237.651016 159.174622,238.756622 
z"/>
<path fill="#E6B649" opacity="1.000000" stroke="none" 
	d="
M203.827469,282.728760 
	C203.506607,282.739349 202.949890,282.578461 202.162048,282.236145 
	C202.484482,282.222229 203.038055,282.389740 203.827469,282.728760 
z"/>
</svg>