<svg version="1.1" id="Layer_1" xmlns="http://www.w3.org/2000/svg" xmlns:xlink="http://www.w3.org/1999/xlink" x="0px" y="0px"
	 width="100%" viewBox="0 0 450 450" enable-background="new 0 0 450 450" xml:space="preserve">
<path fill="#C3D182" opacity="1.000000" stroke="none" 
	d="
M126.000000,1.000000 
	C234.305511,1.000000 342.611023,1.000000 450.958252,1.000000 
	C450.958252,150.933640 450.958252,300.867310 450.958252,450.900482 
	C301.104919,450.900482 151.209778,450.900482 1.000000,450.900482 
	C1.000000,302.643494 1.000000,154.286758 1.386829,5.389702 
	C6.360333,4.233941 10.944516,3.107566 15.534083,3.085185 
	C47.652508,2.928559 79.772179,3.036426 111.890892,2.912926 
	C113.929688,2.905086 115.963737,1.666191 118.000000,0.999999 
	C118.750000,1.000000 119.500000,1.000000 120.748840,1.320308 
	C123.130707,3.644535 124.728195,3.530265 126.000000,1.000000 
M201.167114,43.892418 
	C203.421082,48.498806 205.763870,53.065460 207.857071,57.743774 
	C208.296692,58.726326 208.307327,60.675697 207.679260,61.227409 
	C204.909271,63.660622 201.585251,65.484863 198.925186,68.016479 
	C194.692429,72.044899 190.248627,71.390167 185.232254,69.993950 
	C175.380936,67.252014 165.462784,64.678665 155.450928,62.628269 
	C152.419205,62.007381 148.988113,63.336681 145.135300,64.183014 
	C144.980423,66.230492 144.325027,68.393036 144.764328,70.303917 
	C146.090790,76.073868 147.948975,81.719025 149.406372,87.461945 
	C152.510437,99.693619 155.644028,111.886322 155.202682,124.730667 
	C154.964386,131.665421 155.135666,138.736115 156.240097,145.564651 
	C157.657990,154.331497 158.731705,163.657883 162.636063,171.388504 
	C167.295990,180.615173 172.248871,190.314102 181.235962,196.720947 
	C182.474579,197.603958 183.093369,199.356415 183.191360,200.872269 
	C179.908218,201.939499 176.390625,202.568848 173.394852,204.172836 
	C168.447357,206.821808 168.342789,211.264130 173.180969,214.186874 
	C175.930847,215.848053 179.245743,217.114502 182.418015,217.428314 
	C190.065048,218.184830 197.941299,219.538315 205.831543,214.705536 
	C207.307373,214.654007 208.783188,214.602463 210.517441,215.011719 
	C210.997162,215.117661 211.476868,215.223602 212.650620,215.599533 
	C213.141846,215.660645 213.633087,215.721741 214.493561,216.425659 
	C214.616730,217.054764 214.998672,217.768799 214.824219,218.300201 
	C212.276611,226.060638 213.546280,228.349686 222.083542,230.925613 
	C222.808990,232.605484 223.640488,234.249115 224.230240,235.975357 
	C224.827103,237.722412 225.184738,239.551178 225.503479,242.111755 
	C225.451294,256.112976 225.399109,270.114197 224.843201,284.674622 
	C225.009354,287.076385 225.175522,289.478149 225.246078,292.827118 
	C225.214630,296.989227 225.137268,301.151550 225.159958,305.313385 
	C225.242523,320.456207 225.353836,335.598938 225.463577,350.741638 
	C225.543152,361.718445 225.637344,372.695099 225.082443,383.840607 
	C224.420959,383.849640 223.759476,383.858704 222.931015,383.176819 
	C209.442245,351.641663 187.253235,328.138214 156.794876,312.639282 
	C143.904770,306.080078 130.607849,300.173523 115.359123,298.026947 
	C115.890907,300.944214 116.075592,302.937988 116.624748,304.825745 
	C128.642654,346.137970 151.069229,379.617950 190.035522,399.935028 
	C200.690201,405.490387 212.461624,408.903961 224.021790,413.944794 
	C224.485565,415.334045 224.949341,416.723267 225.316208,418.997681 
	C224.848175,431.539307 225.640457,429.143036 235.043427,429.315826 
	C236.684952,429.345978 238.327682,429.311096 240.342957,429.504791 
	C240.632294,428.991333 240.921631,428.477905 241.237106,427.032074 
	C241.165512,390.328033 241.093903,353.623962 241.161667,316.186432 
	C241.299622,315.200134 241.437561,314.213806 242.359909,313.318909 
	C248.131180,311.321930 254.220856,309.954254 259.620422,307.222595 
	C287.972961,292.878845 305.640381,269.739410 314.192139,239.388092 
	C314.682220,237.648682 314.566040,235.738464 314.730469,233.924850 
	C313.647736,233.809540 313.314209,233.713303 312.997223,233.752090 
	C312.172760,233.852982 311.332947,233.934052 310.538757,234.161148 
	C285.308716,241.375076 263.962128,254.290421 249.010132,276.424561 
	C247.280609,278.984863 246.275543,282.034515 244.367691,285.073669 
	C243.241379,285.077240 242.115082,285.080811 241.065948,284.168030 
	C241.032181,281.408661 240.998413,278.649292 241.339493,275.194580 
	C241.455215,262.816650 241.509552,250.437592 241.739670,238.061798 
	C241.784409,235.655548 242.513565,233.262024 243.676682,230.858765 
	C245.483307,230.158447 247.440338,229.704468 249.067917,228.710876 
	C253.656784,225.909439 253.840164,222.991058 250.152878,218.304565 
	C252.230652,216.928787 254.308441,215.553009 257.083679,214.268158 
	C258.707062,214.558640 260.330414,214.849106 262.434723,215.574051 
	C263.488068,215.773987 264.541382,215.973923 265.938568,216.641098 
	C266.606964,216.819061 267.275360,216.997040 268.842407,217.466354 
	C276.807526,218.466965 284.728088,218.563644 292.012543,214.622650 
	C297.259796,211.783813 297.376434,206.825775 292.275543,203.856567 
	C289.777283,202.402328 286.769562,201.823273 283.988770,200.104813 
	C285.108002,198.195877 285.979828,196.075241 287.395844,194.420212 
	C290.786682,190.456924 295.415680,187.227386 297.755157,182.763641 
	C301.608673,175.411270 305.479553,167.548889 306.781952,159.487701 
	C309.414612,143.193237 309.846008,126.554123 312.118195,110.186653 
	C313.704895,98.757011 316.899414,87.554543 319.253204,76.225136 
	C320.021545,72.526848 320.789734,68.755379 320.858734,65.004517 
	C320.934998,60.859608 317.451660,58.490387 313.308167,59.494106 
	C302.540741,62.102409 291.671997,64.403793 281.093719,67.644020 
	C273.469635,69.979370 266.822449,70.470329 261.858185,63.234177 
	C260.646118,61.467411 259.651825,58.599075 260.218506,56.744892 
	C261.840302,51.438221 264.315308,46.392307 266.902039,40.754150 
	C270.078339,37.941734 270.838745,34.464222 268.308350,31.145327 
	C266.280609,28.485712 263.028290,27.635157 259.899353,29.540974 
	C256.192383,31.798870 255.582382,35.076283 257.428680,39.645081 
	C255.770096,43.984142 254.403259,48.470619 252.319458,52.594841 
	C251.394424,54.425636 248.282944,57.086060 247.434174,56.684559 
	C243.851212,54.989716 237.640625,56.629635 237.569214,49.754646 
	C237.517502,44.776676 237.083847,39.802673 237.375183,34.446911 
	C240.965012,30.763281 241.338348,26.838699 238.362122,24.072144 
	C235.705688,21.602854 231.343933,21.725748 228.881393,24.339254 
	C226.210159,27.174265 226.877197,31.239916 230.509689,35.673225 
	C230.447845,40.305317 230.699265,44.973293 230.174637,49.552368 
	C229.955536,51.464806 228.492874,54.155384 226.896042,54.825764 
	C220.838242,57.368938 216.183762,55.162220 213.197830,49.224270 
	C211.566177,45.979481 209.758881,42.823017 208.345627,38.887726 
	C209.371841,35.287251 208.684677,31.844887 205.053131,30.729233 
	C202.822876,30.044071 199.315109,30.616680 197.509674,32.048092 
	C193.653046,35.105759 195.524353,40.471313 201.167114,43.892418 
z"/>
<path fill="#C4D18B" opacity="1.000000" stroke="none" 
	d="
M117.531342,0.999999 
	C115.963737,1.666191 113.929688,2.905086 111.890892,2.912926 
	C79.772179,3.036426 47.652508,2.928559 15.534083,3.085185 
	C10.944516,3.107566 6.360333,4.233941 1.386829,4.924689 
	C1.000000,3.671506 1.000000,2.343011 0.999999,1.007258 
	C39.687561,1.000000 78.375122,1.000000 117.531342,0.999999 
z"/>
<path fill="#C4D18B" opacity="1.000000" stroke="none" 
	d="
M125.583336,1.000000 
	C124.728195,3.530265 123.130707,3.644535 121.123840,1.320308 
	C122.388893,1.000000 123.777779,1.000000 125.583336,1.000000 
z"/>
<path fill="#839C33" opacity="1.000000" stroke="none" 
	d="
M223.720566,413.300446 
	C212.461624,408.903961 200.690201,405.490387 190.035522,399.935028 
	C151.069229,379.617950 128.642654,346.137970 116.624748,304.825745 
	C116.075592,302.937988 115.890907,300.944214 115.359123,298.026947 
	C130.607849,300.173523 143.904770,306.080078 156.794876,312.639282 
	C187.253235,328.138214 209.442245,351.641663 222.990158,383.940002 
	C223.383911,386.481689 223.529160,388.322327 224.088806,390.026947 
	C225.724014,395.007507 227.858368,399.846893 229.174576,404.903687 
	C230.765869,411.017334 230.064148,411.736053 223.720566,413.300446 
z"/>
<path fill="#839C33" opacity="1.000000" stroke="none" 
	d="
M244.934601,284.857269 
	C246.275543,282.034515 247.280609,278.984863 249.010132,276.424561 
	C263.962128,254.290421 285.308716,241.375076 310.538757,234.161148 
	C311.332947,233.934052 312.172760,233.852982 312.997223,233.752090 
	C313.314209,233.713303 313.647736,233.809540 314.730469,233.924850 
	C314.566040,235.738464 314.682220,237.648682 314.192139,239.388092 
	C305.640381,269.739410 287.972961,292.878845 259.620422,307.222595 
	C254.220856,309.954254 248.131180,311.321930 241.554611,313.209534 
	C237.024872,312.803467 235.925369,311.162506 237.271271,307.465240 
	C239.992508,299.989960 242.398560,292.399963 244.934601,284.857269 
z"/>
<path fill="#896A49" opacity="1.000000" stroke="none" 
	d="
M240.964630,275.889923 
	C240.998413,278.649292 241.032181,281.408661 240.808105,284.929962 
	C238.392227,292.934113 236.518646,300.277130 233.998703,307.391144 
	C231.304657,314.996735 231.581558,315.851685 239.529587,316.901642 
	C240.019424,316.966339 240.524384,316.916473 241.022308,316.919922 
	C241.093903,353.623962 241.165512,390.328033 240.970139,427.675659 
	C240.458725,428.648254 240.214279,428.977264 239.969849,429.306274 
	C238.327682,429.311096 236.684952,429.345978 235.043427,429.315826 
	C225.640457,429.143036 224.848175,431.539307 225.662170,418.383453 
	C226.679764,417.285370 227.284180,416.607178 228.033524,416.348053 
	C234.737503,414.029755 234.633636,414.085541 232.457199,406.975983 
	C230.090683,399.245422 227.959061,391.442963 225.725006,383.671844 
	C225.637344,372.695099 225.543152,361.718445 225.463577,350.741638 
	C225.353836,335.598938 225.242523,320.456207 225.159958,305.313385 
	C225.137268,301.151550 225.214630,296.989227 225.457626,292.035645 
	C225.561752,288.867920 225.454330,286.491669 225.346924,284.115417 
	C225.399109,270.114197 225.451294,256.112976 225.677002,241.262375 
	C225.906784,237.955978 225.963013,235.498962 226.444305,233.022049 
	C228.661209,232.732239 230.452652,232.459824 232.244904,232.192825 
	C238.271576,231.294998 240.003647,232.762589 240.020844,238.903702 
	C240.048615,248.820587 239.972092,258.738190 240.075424,268.654083 
	C240.100586,271.068878 240.654068,273.478119 240.964630,275.889923 
z"/>
<path fill="#C9B177" opacity="1.000000" stroke="none" 
	d="
M266.454834,41.243858 
	C264.315308,46.392307 261.840302,51.438221 260.218506,56.744892 
	C259.651825,58.599075 260.646118,61.467411 261.858185,63.234177 
	C266.822449,70.470329 273.469635,69.979370 281.093719,67.644020 
	C291.671997,64.403793 302.540741,62.102409 313.308167,59.494106 
	C317.451660,58.490387 320.934998,60.859608 320.858734,65.004517 
	C320.789734,68.755379 320.021545,72.526848 319.253204,76.225136 
	C316.899414,87.554543 313.704895,98.757011 312.118195,110.186653 
	C309.846008,126.554123 309.414612,143.193237 306.781952,159.487701 
	C305.479553,167.548889 301.608673,175.411270 297.755157,182.763641 
	C295.415680,187.227386 290.786682,190.456924 287.395844,194.420212 
	C285.979828,196.075241 285.108002,198.195877 283.616455,200.521072 
	C282.491119,200.988205 281.738098,201.039078 280.624634,201.030212 
	C279.383667,200.611526 278.503113,200.252548 277.810181,199.601593 
	C279.503479,197.757965 280.956024,196.150269 282.523193,194.663376 
	C296.611053,181.297119 305.076080,165.140182 306.585022,145.645554 
	C307.239777,137.186905 307.261566,128.679260 307.915222,120.220482 
	C309.306915,102.210396 313.048981,84.646896 318.416748,67.409561 
	C319.888062,62.684807 318.407562,61.053108 313.613586,62.019688 
	C309.698669,62.809029 305.834900,63.853802 301.952423,64.801765 
	C290.639618,67.563957 279.328796,70.334404 267.854431,72.810501 
	C266.511841,71.569283 265.332031,70.619171 264.019012,69.381760 
	C261.927826,67.417580 259.969879,65.740692 257.782898,63.967827 
	C257.553925,63.871861 257.066040,63.779255 256.876709,63.504318 
	C256.277740,62.202190 255.868118,61.174992 255.669830,59.838341 
	C256.247711,58.355396 256.614258,57.181911 257.148407,55.692314 
	C257.964691,53.363377 258.613373,51.350544 259.552551,49.153378 
	C260.604706,46.787239 261.366425,44.605431 262.478333,42.281094 
	C264.037262,41.840332 265.246063,41.542091 266.454834,41.243858 
z"/>
<path fill="#83873A" opacity="1.000000" stroke="none" 
	d="
M277.622559,199.893570 
	C278.503113,200.252548 279.383667,200.611526 280.509521,201.339294 
	C277.230927,204.046707 273.648132,206.302414 270.201538,208.749847 
	C267.368408,210.761642 264.696899,213.001053 261.953796,215.139587 
	C260.330414,214.849106 258.707062,214.558640 256.291809,214.180252 
	C252.537201,215.119797 248.136841,213.026047 246.971191,218.397827 
	C246.098953,224.842300 241.378052,223.064758 237.989029,222.681763 
	C236.441727,222.506897 235.164597,219.941406 233.764923,218.460190 
	C229.889236,217.014435 225.128220,216.516220 220.360519,216.093582 
	C218.288879,215.909943 216.203476,215.881683 214.124313,215.782837 
	C213.633087,215.721741 213.141846,215.660645 212.228241,215.304794 
	C211.290253,214.857010 210.774628,214.703964 210.259018,214.550919 
	C208.783188,214.602463 207.307373,214.654007 205.306778,214.357956 
	C202.777420,210.471237 199.207138,208.566284 196.090225,210.712845 
	C191.991959,213.535294 188.998306,213.278809 185.404251,210.521301 
	C183.945602,209.402176 180.171463,210.285416 181.672867,206.945511 
	C182.117706,205.955963 185.488327,206.246765 187.526779,206.031570 
	C188.076263,205.973572 188.657013,206.211411 189.686386,206.396851 
	C188.629196,204.327271 187.825638,202.754257 187.250305,200.984619 
	C187.739639,200.483475 188.000778,200.178970 188.597260,199.928497 
	C196.337097,203.624680 203.452591,208.123322 211.203568,210.738647 
	C229.909409,217.050400 248.258163,214.809998 265.871246,206.148148 
	C269.851135,204.190918 273.708679,201.985016 277.622559,199.893570 
z"/>
<path fill="#808D3C" opacity="1.000000" stroke="none" 
	d="
M214.308929,216.104248 
	C216.203476,215.881683 218.288879,215.909943 220.360519,216.093582 
	C225.128220,216.516220 229.889236,217.014435 233.764923,218.460190 
	C235.164597,219.941406 236.441727,222.506897 237.989029,222.681763 
	C241.378052,223.064758 246.098953,224.842300 247.253967,218.527313 
	C248.345306,218.510880 249.129028,218.753632 249.912750,218.996384 
	C253.840164,222.991058 253.656784,225.909439 249.067917,228.710876 
	C247.440338,229.704468 245.483307,230.158447 243.048004,230.708649 
	C240.703979,230.172806 238.987869,229.462921 237.273422,229.466904 
	C233.364746,229.475967 228.729401,226.675751 225.707642,231.815445 
	C224.149887,231.203537 222.881332,230.774170 221.612793,230.344803 
	C213.546280,228.349686 212.276611,226.060638 214.824219,218.300201 
	C214.998672,217.768799 214.616730,217.054764 214.308929,216.104248 
z"/>
<path fill="#BB7F3F" opacity="1.000000" stroke="none" 
	d="
M256.980804,56.008423 
	C256.614258,57.181911 256.247711,58.355396 255.266632,59.801819 
	C248.246063,58.710194 241.841446,57.338753 235.432053,55.990067 
	C234.659027,55.827408 233.821045,55.583672 233.079834,55.725628 
	C229.392731,56.431793 225.727951,57.254505 221.733582,58.075768 
	C220.606293,58.414463 219.800751,58.713573 218.662003,59.014259 
	C217.884613,59.006641 217.440445,58.997440 216.822113,58.701294 
	C213.360931,52.844742 210.073883,47.275135 206.843689,41.462254 
	C207.277298,40.688229 207.654053,40.157478 208.030792,39.626724 
	C209.758881,42.823017 211.566177,45.979481 213.197830,49.224270 
	C216.183762,55.162220 220.838242,57.368938 226.896042,54.825764 
	C228.492874,54.155384 229.955536,51.464806 230.174637,49.552368 
	C230.699265,44.973293 230.447845,40.305317 230.927429,35.240547 
	C233.170303,34.814209 234.995407,34.820553 236.820526,34.826897 
	C237.083847,39.802673 237.517502,44.776676 237.569214,49.754646 
	C237.640625,56.629635 243.851212,54.989716 247.434174,56.684559 
	C248.282944,57.086060 251.394424,54.425636 252.319458,52.594841 
	C254.403259,48.470619 255.770096,43.984142 257.754608,39.451286 
	C259.429749,40.312870 260.778931,41.368244 262.128143,42.423622 
	C261.366425,44.605431 260.604706,46.787239 259.473328,48.801727 
	C258.679504,47.997417 258.255432,47.360428 257.831360,46.723434 
	C256.694275,48.604641 255.144226,50.376930 254.606384,52.416191 
	C254.362579,53.340553 256.127258,54.794643 256.980804,56.008423 
z"/>
<path fill="#808F3A" opacity="1.000000" stroke="none" 
	d="
M262.194275,215.356812 
	C264.696899,213.001053 267.368408,210.761642 270.201538,208.749847 
	C273.648132,206.302414 277.230927,204.046707 280.869934,201.399002 
	C281.738098,201.039078 282.491119,200.988205 283.618286,200.892731 
	C286.769562,201.823273 289.777283,202.402328 292.275543,203.856567 
	C297.376434,206.825775 297.259796,211.783813 292.012543,214.622650 
	C284.728088,218.563644 276.807526,218.466965 268.232483,217.123245 
	C266.946625,216.578049 266.270660,216.375961 265.594727,216.173874 
	C264.541382,215.973923 263.488068,215.773987 262.194275,215.356812 
z"/>
<path fill="#CBAA6B" opacity="1.000000" stroke="none" 
	d="
M188.261932,199.874481 
	C188.000778,200.178970 187.739639,200.483475 186.871246,200.922791 
	C185.509048,200.940506 184.754089,200.823425 183.999130,200.706329 
	C183.093369,199.356415 182.474579,197.603958 181.235962,196.720947 
	C172.248871,190.314102 167.295990,180.615173 162.636063,171.388504 
	C158.731705,163.657883 157.657990,154.331497 156.240097,145.564651 
	C155.135666,138.736115 154.964386,131.665421 155.202682,124.730667 
	C155.644028,111.886322 152.510437,99.693619 149.406372,87.461945 
	C147.948975,81.719025 146.090790,76.073868 144.764328,70.303917 
	C144.325027,68.393036 144.980423,66.230492 145.501297,64.032890 
	C145.867294,63.882771 145.993271,63.994389 145.985413,64.392761 
	C146.738693,67.487358 147.456085,70.196831 148.268005,72.877678 
	C154.106354,92.154968 157.052063,111.921684 158.227051,132.376373 
	C158.390198,135.083725 158.638229,137.390656 158.818726,140.135895 
	C158.844391,141.730667 158.937622,142.887131 158.973038,144.371796 
	C158.993347,145.134247 159.071457,145.568481 159.100922,146.398712 
	C159.631454,149.363632 160.210663,151.932510 160.686188,154.716217 
	C160.535889,155.269547 160.627106,155.565567 160.861450,156.191284 
	C160.977768,157.044083 161.088776,157.524704 161.156433,158.278397 
	C161.323761,159.043381 161.534393,159.535294 161.787216,160.364670 
	C161.976105,161.130234 162.122833,161.558365 162.255630,162.341217 
	C167.007858,177.823380 176.586426,189.582733 188.261932,199.874481 
z"/>
<path fill="#808D3C" opacity="1.000000" stroke="none" 
	d="
M183.595245,200.789307 
	C184.754089,200.823425 185.509048,200.940506 186.643051,201.119415 
	C187.825638,202.754257 188.629196,204.327271 189.686386,206.396851 
	C188.657013,206.211411 188.076263,205.973572 187.526779,206.031570 
	C185.488327,206.246765 182.117706,205.955963 181.672867,206.945511 
	C180.171463,210.285416 183.945602,209.402176 185.404251,210.521301 
	C188.998306,213.278809 191.991959,213.535294 196.090225,210.712845 
	C199.207138,208.566284 202.777420,210.471237 204.864197,214.324097 
	C197.941299,219.538315 190.065048,218.184830 182.418015,217.428314 
	C179.245743,217.114502 175.930847,215.848053 173.180969,214.186874 
	C168.342789,211.264130 168.447357,206.821808 173.394852,204.172836 
	C176.390625,202.568848 179.908218,201.939499 183.595245,200.789307 
M179.513214,214.312958 
	C179.827835,214.509338 180.142456,214.705704 180.457062,214.902084 
	C180.517105,214.636200 180.577148,214.370331 180.637192,214.104446 
	C180.287460,214.041885 179.937729,213.979340 179.513214,214.312958 
z"/>
<path fill="#CBAA6B" opacity="1.000000" stroke="none" 
	d="
M145.803619,63.827744 
	C148.988113,63.336681 152.419205,62.007381 155.450928,62.628269 
	C165.462784,64.678665 175.380936,67.252014 185.232254,69.993950 
	C190.248627,71.390167 194.692429,72.044899 198.925186,68.016479 
	C201.585251,65.484863 204.909271,63.660622 207.679260,61.227409 
	C208.307327,60.675697 208.296692,58.726326 207.857071,57.743774 
	C205.763870,53.065460 203.421082,48.498806 201.427841,43.492126 
	C202.432816,43.119118 203.177063,43.146393 204.067535,43.482521 
	C206.890045,49.497688 209.566299,55.204006 212.045364,61.107079 
	C211.570847,61.550850 211.293549,61.797867 210.726929,62.161911 
	C209.513550,63.126007 208.589462,63.973076 207.498398,64.820419 
	C207.331421,64.820686 207.010605,64.913399 206.672089,64.990631 
	C203.144318,68.236877 199.955078,71.405884 196.382141,74.630257 
	C195.012039,74.579681 193.995697,74.591736 193.043808,74.349968 
	C180.458984,71.153618 167.906998,67.823273 155.287735,64.770676 
	C152.301712,64.048363 149.097244,64.229073 145.993271,63.994389 
	C145.993271,63.994389 145.867294,63.882771 145.803619,63.827744 
z"/>
<path fill="#654A20" opacity="1.000000" stroke="none" 
	d="
M262.478333,42.281097 
	C260.778931,41.368244 259.429749,40.312870 257.844147,39.065353 
	C255.582382,35.076283 256.192383,31.798870 259.899353,29.540974 
	C263.028290,27.635157 266.280609,28.485712 268.308350,31.145327 
	C270.838745,34.464222 270.078339,37.941734 266.678436,40.999001 
	C265.246063,41.542091 264.037262,41.840332 262.478333,42.281097 
z"/>
<path fill="#634B22" opacity="1.000000" stroke="none" 
	d="
M237.097855,34.636902 
	C234.995407,34.820553 233.170303,34.814209 230.963562,34.755981 
	C226.877197,31.239916 226.210159,27.174265 228.881393,24.339254 
	C231.343933,21.725748 235.705688,21.602854 238.362122,24.072144 
	C241.338348,26.838699 240.965012,30.763281 237.097855,34.636902 
z"/>
<path fill="#634A20" opacity="1.000000" stroke="none" 
	d="
M203.921310,43.173668 
	C203.177063,43.146393 202.432816,43.119118 201.321808,43.165840 
	C195.524353,40.471313 193.653046,35.105759 197.509674,32.048092 
	C199.315109,30.616680 202.822876,30.044071 205.053131,30.729233 
	C208.684677,31.844887 209.371841,35.287251 208.188202,39.257225 
	C207.654053,40.157478 207.277298,40.688229 206.532684,41.554550 
	C205.416992,42.317970 204.669144,42.745819 203.921310,43.173668 
z"/>
<path fill="#8B8E42" opacity="1.000000" stroke="none" 
	d="
M225.996841,231.997986 
	C228.729401,226.675751 233.364746,229.475967 237.273422,229.466904 
	C238.987869,229.462921 240.703979,230.172806 242.673172,230.710602 
	C242.513565,233.262024 241.784409,235.655548 241.739670,238.061798 
	C241.509552,250.437592 241.455215,262.816650 241.152069,275.542236 
	C240.654068,273.478119 240.100586,271.068878 240.075424,268.654083 
	C239.972092,258.738190 240.048615,248.820587 240.020844,238.903702 
	C240.003647,232.762589 238.271576,231.294998 232.244904,232.192825 
	C230.452652,232.459824 228.661209,232.732239 226.436661,232.760864 
	C226.001587,232.345718 225.999222,232.171860 225.996841,231.997986 
z"/>
<path fill="#8B8E42" opacity="1.000000" stroke="none" 
	d="
M241.091980,316.553162 
	C240.524384,316.916473 240.019424,316.966339 239.529587,316.901642 
	C231.581558,315.851685 231.304657,314.996735 233.998703,307.391144 
	C236.518646,300.277130 238.392227,292.934113 240.769516,285.388123 
	C242.115082,285.080811 243.241379,285.077240 244.651138,284.965454 
	C242.398560,292.399963 239.992508,299.989960 237.271271,307.465240 
	C235.925369,311.162506 237.024872,312.803467 241.162415,313.163818 
	C241.437561,314.213806 241.299622,315.200134 241.091980,316.553162 
z"/>
<path fill="#979353" opacity="1.000000" stroke="none" 
	d="
M225.403717,383.756226 
	C227.959061,391.442963 230.090683,399.245422 232.457199,406.975983 
	C234.633636,414.085541 234.737503,414.029755 228.033524,416.348053 
	C227.284180,416.607178 226.679764,417.285370 225.710632,417.940857 
	C224.949341,416.723267 224.485565,415.334045 223.871185,413.622620 
	C230.064148,411.736053 230.765869,411.017334 229.174576,404.903687 
	C227.858368,399.846893 225.724014,395.007507 224.088806,390.026947 
	C223.529160,388.322327 223.383911,386.481689 223.073639,384.285461 
	C223.759476,383.858704 224.420959,383.849640 225.403717,383.756226 
z"/>
<path fill="#979353" opacity="1.000000" stroke="none" 
	d="
M225.707642,231.815445 
	C225.999222,232.171860 226.001587,232.345718 226.011597,232.780762 
	C225.963013,235.498962 225.906784,237.955978 225.748840,240.878571 
	C225.184738,239.551178 224.827103,237.722412 224.230240,235.975357 
	C223.640488,234.249115 222.808990,232.605484 221.848175,230.635208 
	C222.881332,230.774170 224.149887,231.203537 225.707642,231.815445 
z"/>
<path fill="#8B8E42" opacity="1.000000" stroke="none" 
	d="
M250.032806,218.650482 
	C249.129028,218.753632 248.345306,218.510880 247.278809,218.138641 
	C248.136841,213.026047 252.537201,215.119797 255.943085,214.134796 
	C254.308441,215.553009 252.230652,216.928787 250.032806,218.650482 
z"/>
<path fill="#979353" opacity="1.000000" stroke="none" 
	d="
M225.095062,284.395020 
	C225.454330,286.491669 225.561752,288.867920 225.505432,291.562042 
	C225.175522,289.478149 225.009354,287.076385 225.095062,284.395020 
z"/>
<path fill="#808D3C" opacity="1.000000" stroke="none" 
	d="
M210.388229,214.781311 
	C210.774628,214.703964 211.290253,214.857010 211.881226,215.169800 
	C211.476868,215.223602 210.997162,215.117661 210.388229,214.781311 
z"/>
<path fill="#8B8E42" opacity="1.000000" stroke="none" 
	d="
M265.766663,216.407486 
	C266.270660,216.375961 266.946625,216.578049 267.783142,216.977570 
	C267.275360,216.997040 266.606964,216.819061 265.766663,216.407486 
z"/>
<path fill="#979353" opacity="1.000000" stroke="none" 
	d="
M240.156403,429.405518 
	C240.214279,428.977264 240.458725,428.648254 240.957062,428.141846 
	C240.921631,428.477905 240.632294,428.991333 240.156403,429.405518 
z"/>
<path fill="#9F3B38" opacity="1.000000" stroke="none" 
	d="
M158.886261,139.697571 
	C158.638229,137.390656 158.390198,135.083725 158.511551,132.232422 
	C162.524567,126.007988 165.206238,119.660408 171.412842,115.899681 
	C178.596695,111.546822 185.210999,106.138664 192.677521,102.395279 
	C203.331696,97.053741 214.552063,92.846107 225.483078,88.045959 
	C226.757935,87.486122 227.731735,86.240707 229.266174,85.242332 
	C241.146667,81.679420 252.606110,78.187294 264.377228,74.700974 
	C265.798340,74.171715 266.907776,73.636665 268.017212,73.101608 
	C279.328796,70.334404 290.639618,67.563957 301.952423,64.801765 
	C305.834900,63.853802 309.698669,62.809029 313.613586,62.019688 
	C318.407562,61.053108 319.888062,62.684807 318.416748,67.409561 
	C313.048981,84.646896 309.306915,102.210396 307.915222,120.220482 
	C307.261566,128.679260 307.239777,137.186905 306.585022,145.645554 
	C305.076080,165.140182 296.611053,181.297119 282.523193,194.663376 
	C280.956024,196.150269 279.503479,197.757965 277.810181,199.601593 
	C273.708679,201.985016 269.851135,204.190918 265.871246,206.148148 
	C248.258163,214.809998 229.909409,217.050400 211.203568,210.738647 
	C203.452591,208.123322 196.337097,203.624680 188.597260,199.928513 
	C176.586426,189.582733 167.007858,177.823380 162.472504,162.234436 
	C162.383881,161.191025 162.064453,160.609131 161.745026,160.027222 
	C161.534393,159.535294 161.323761,159.043381 161.379532,158.174927 
	C161.382675,157.138626 161.119415,156.478867 160.856140,155.819107 
	C160.627106,155.565567 160.535889,155.269547 160.882751,154.379852 
	C160.505203,151.220001 159.827393,148.611359 159.149582,146.002701 
	C159.071457,145.568481 158.993347,145.134247 159.156921,144.092789 
	C159.227829,142.222885 159.057037,140.960236 158.886261,139.697571 
z"/>
<path fill="#CC6129" opacity="1.000000" stroke="none" 
	d="
M264.065552,74.695168 
	C252.606110,78.187294 241.146667,81.679420 228.912018,85.131958 
	C218.407913,81.757095 208.679047,78.421806 199.053192,74.760071 
	C201.774353,71.260208 204.392471,68.086800 207.010590,64.913391 
	C207.010605,64.913399 207.331421,64.820686 207.879593,64.839645 
	C209.290588,63.920708 210.153412,62.982800 211.016235,62.044891 
	C211.293549,61.797867 211.570847,61.550850 212.344437,61.018734 
	C214.225891,60.151836 215.611084,59.570038 216.996262,58.988243 
	C217.440445,58.997440 217.884613,59.006641 218.748032,59.281715 
	C220.129944,59.043785 221.092636,58.539982 222.055313,58.036179 
	C225.727951,57.254505 229.392731,56.431793 233.079834,55.725628 
	C233.821045,55.583672 234.659027,55.827408 235.432053,55.990067 
	C241.841446,57.338753 248.246063,58.710194 255.055313,60.111275 
	C255.868118,61.174992 256.277740,62.202190 256.942444,63.651646 
	C257.197510,64.073906 257.599213,64.255493 257.599213,64.255493 
	C257.599213,64.255493 258.011902,64.063805 258.011902,64.063797 
	C259.969879,65.740692 261.927826,67.417580 263.977173,69.813087 
	C264.067566,71.919525 264.066559,73.307350 264.065552,74.695168 
z"/>
<path fill="#BD7137" opacity="1.000000" stroke="none" 
	d="
M257.148407,55.692318 
	C256.127258,54.794643 254.362579,53.340553 254.606384,52.416191 
	C255.144226,50.376930 256.694275,48.604641 257.831360,46.723434 
	C258.255432,47.360428 258.679504,47.997417 259.182861,48.986057 
	C258.613373,51.350544 257.964691,53.363377 257.148407,55.692318 
z"/>
<path fill="#BD7137" opacity="1.000000" stroke="none" 
	d="
M264.377228,74.700974 
	C264.066559,73.307350 264.067566,71.919525 264.110413,70.100388 
	C265.332031,70.619171 266.511841,71.569283 267.854431,72.810501 
	C266.907776,73.636665 265.798340,74.171715 264.377228,74.700974 
z"/>
<path fill="#BD7137" opacity="1.000000" stroke="none" 
	d="
M257.782898,63.967834 
	C258.011902,64.063805 257.599213,64.255493 257.599213,64.255493 
	C257.599213,64.255493 257.197510,64.073906 257.131775,63.926582 
	C257.066040,63.779255 257.553925,63.871861 257.782898,63.967834 
z"/>
<path fill="#B67233" opacity="1.000000" stroke="none" 
	d="
M216.822113,58.701294 
	C215.611084,59.570038 214.225891,60.151836 212.541641,60.821980 
	C209.566299,55.204006 206.890045,49.497688 204.067535,43.482521 
	C204.669144,42.745819 205.416992,42.317970 206.475830,41.797825 
	C210.073883,47.275135 213.360931,52.844742 216.822113,58.701294 
z"/>
<path fill="#B67233" opacity="1.000000" stroke="none" 
	d="
M221.733582,58.075768 
	C221.092636,58.539982 220.129944,59.043785 219.081238,59.280136 
	C219.800751,58.713573 220.606293,58.414463 221.733582,58.075768 
z"/>
<path fill="#83291F" opacity="1.000000" stroke="none" 
	d="
M198.950165,75.086517 
	C208.679047,78.421806 218.407913,81.757095 228.490952,85.202759 
	C227.731735,86.240707 226.757935,87.486122 225.483078,88.045959 
	C214.552063,92.846107 203.331696,97.053741 192.677521,102.395279 
	C185.210999,106.138664 178.596695,111.546822 171.412842,115.899681 
	C165.206238,119.660408 162.524567,126.007988 158.596436,131.831970 
	C157.052063,111.921684 154.106354,92.154968 148.268005,72.877678 
	C147.456085,70.196831 146.738693,67.487358 145.985413,64.392761 
	C149.097244,64.229073 152.301712,64.048363 155.287735,64.770676 
	C167.906998,67.823273 180.458984,71.153618 193.043808,74.349968 
	C193.995697,74.591736 195.012039,74.579681 196.732849,74.770821 
	C197.961563,74.932854 198.455872,75.009682 198.950165,75.086517 
z"/>
<path fill="#83291F" opacity="1.000000" stroke="none" 
	d="
M159.100922,146.398712 
	C159.827393,148.611359 160.505203,151.220001 160.986450,154.165039 
	C160.210663,151.932510 159.631454,149.363632 159.100922,146.398712 
z"/>
<path fill="#83291F" opacity="1.000000" stroke="none" 
	d="
M161.787201,160.364670 
	C162.064453,160.609131 162.383881,161.191025 162.486435,161.879700 
	C162.122833,161.558365 161.976105,161.130234 161.787201,160.364670 
z"/>
<path fill="#83291F" opacity="1.000000" stroke="none" 
	d="
M160.861465,156.191284 
	C161.119415,156.478867 161.382675,157.138626 161.422852,157.901871 
	C161.088776,157.524704 160.977768,157.044083 160.861465,156.191284 
z"/>
<path fill="#83291F" opacity="1.000000" stroke="none" 
	d="
M158.818695,140.135895 
	C159.057037,140.960236 159.227829,142.222885 159.214722,143.764557 
	C158.937622,142.887131 158.844391,141.730667 158.818695,140.135895 
z"/>
<path fill="#83873A" opacity="1.000000" stroke="none" 
	d="
M179.550598,214.114868 
	C179.937729,213.979340 180.287460,214.041885 180.637177,214.104446 
	C180.577148,214.370331 180.517105,214.636200 180.457062,214.902084 
	C180.142456,214.705704 179.827835,214.509338 179.550598,214.114868 
z"/>
<path fill="#B67233" opacity="1.000000" stroke="none" 
	d="
M199.053192,74.760063 
	C198.455872,75.009682 197.961563,74.932854 197.116547,74.715462 
	C199.955078,71.405884 203.144318,68.236877 206.672073,64.990631 
	C204.392471,68.086800 201.774353,71.260208 199.053192,74.760063 
z"/>
<path fill="#B67233" opacity="1.000000" stroke="none" 
	d="
M210.726944,62.161919 
	C210.153412,62.982800 209.290588,63.920708 208.046570,64.839378 
	C208.589462,63.973076 209.513550,63.126007 210.726944,62.161919 
z"/>
</svg>