<svg version="1.1" id="Layer_1" xmlns="http://www.w3.org/2000/svg" xmlns:xlink="http://www.w3.org/1999/xlink" x="0px" y="0px"
	 width="100%" viewBox="0 0 450 450" enable-background="new 0 0 450 450" xml:space="preserve">
<path fill="#BFA07F" opacity="1.000000" stroke="none" 
	d="
M249.000000,451.000000 
	C166.022903,451.000000 83.545799,451.000000 1.034350,451.000000 
	C1.034350,301.064545 1.034350,151.129074 1.034350,1.096806 
	C150.893768,1.096806 300.787628,1.096806 450.840759,1.096806 
	C450.840759,150.999863 450.840759,300.999908 450.840759,451.000000 
	C383.795715,451.000000 316.647858,451.000000 249.000000,451.000000 
M245.449036,63.417439 
	C244.488235,63.857456 243.527420,64.297478 241.865402,64.848900 
	C237.861160,67.655098 233.827423,70.420464 229.863449,73.282440 
	C227.383087,75.073235 225.007736,77.009476 222.029785,78.750610 
	C221.669678,78.856964 221.309570,78.963318 220.622437,78.814201 
	C220.159378,79.020775 219.696335,79.227348 218.397324,79.419724 
	C217.893738,79.644760 217.390167,79.869797 216.460281,79.881798 
	C216.058990,80.077042 215.657684,80.272285 214.453873,80.364105 
	C212.936279,80.900978 211.418686,81.437851 209.163040,81.822380 
	C205.636490,83.160484 203.396057,82.388397 203.025024,78.233261 
	C202.956299,77.463356 202.359802,76.740578 202.059006,75.243973 
	C201.902405,74.510147 201.745789,73.776314 201.743546,72.200592 
	C201.039139,68.511559 200.334732,64.822517 199.684265,60.347515 
	C199.516846,59.587040 199.349426,58.826565 199.434998,57.312927 
	C199.022095,54.853817 198.609192,52.394703 198.304337,49.113503 
	C198.087006,47.759956 197.869675,46.406414 197.748306,44.437363 
	C197.151611,43.684513 196.554901,42.931660 195.619843,41.807346 
	C195.304779,41.714359 194.989716,41.621368 194.302246,41.033958 
	C193.203674,41.025429 192.105103,41.016899 190.415085,41.031746 
	C189.944763,41.360863 189.474442,41.689983 188.327377,42.166241 
	C187.894989,44.439377 187.462601,46.712513 186.956131,49.847202 
	C187.211212,51.540672 187.466293,53.234146 187.473953,55.441921 
	C187.642563,55.961361 187.811157,56.480804 187.896835,57.858536 
	C188.159286,59.547115 188.421738,61.235695 188.449738,63.448364 
	C188.637146,63.963417 188.824554,64.478470 188.946716,65.833656 
	C189.213303,67.197449 189.479889,68.561234 189.505936,70.442009 
	C189.695770,70.952431 189.885605,71.462852 190.034027,72.736626 
	C190.236115,73.466133 190.438202,74.195648 190.435287,75.459244 
	C190.625443,75.970680 190.815613,76.482117 190.994431,77.780853 
	C191.706909,80.840302 192.419388,83.899742 192.844543,87.453201 
	C192.752548,87.820740 192.660568,88.188271 191.882217,88.745789 
	C169.327438,99.056374 150.975906,114.731827 134.885529,133.317657 
	C131.358154,137.392090 127.654778,141.314178 123.648598,144.714966 
	C114.066673,133.725800 104.460762,122.757401 94.919884,111.732712 
	C92.564438,109.010941 89.754875,107.659798 86.655594,109.784714 
	C83.398026,112.018181 82.966782,115.748367 85.397720,118.556290 
	C96.218269,131.054871 107.343201,143.289902 118.124992,156.357132 
	C117.703331,157.259232 117.354500,158.204468 116.849434,159.057190 
	C101.332298,185.255066 92.252853,213.493240 89.088211,243.733017 
	C83.441048,242.334457 77.584427,241.485001 72.188805,239.426971 
	C59.604824,234.627136 47.242081,229.247192 34.790775,224.099686 
	C31.473352,222.728226 28.211374,222.217224 25.919661,225.735687 
	C23.997559,228.686691 25.297342,232.665924 29.041269,234.495972 
	C48.223869,243.872650 67.719498,252.419128 89.337456,256.537048 
	C89.500511,257.851532 89.773132,259.162964 89.810326,260.480988 
	C90.459908,283.498932 95.796730,305.254456 107.235107,325.370575 
	C118.009567,344.319153 133.093948,358.796783 152.997787,367.692932 
	C186.824539,382.812042 219.899979,378.421417 252.158127,362.490082 
	C260.023193,358.605774 267.466675,353.867950 275.482727,350.111969 
	C286.314209,358.092712 296.947601,366.363861 308.054199,373.941376 
	C314.350098,378.236786 321.361816,381.511810 328.170502,385.014343 
	C331.437775,386.695099 334.583496,385.880432 336.211792,382.468079 
	C337.679871,379.391479 336.698547,376.597046 333.688507,374.746826 
	C332.555603,374.050415 331.362915,373.449371 330.185699,372.827209 
	C313.802948,364.169159 298.104614,354.485565 284.534515,341.479431 
	C287.374908,338.718597 290.247528,335.990021 293.050537,333.191742 
	C312.305908,313.968903 327.134033,291.813599 337.911316,266.703613 
	C338.948669,266.746307 339.986053,266.789001 341.664856,267.100586 
	C346.152588,267.630035 350.640289,268.159485 355.627502,269.070435 
	C357.079407,269.058655 358.531281,269.046844 360.800507,269.251160 
	C363.893036,269.439941 366.985535,269.628723 370.725830,270.158783 
	C373.154755,270.134766 375.583679,270.110748 378.912903,270.258331 
	C382.263123,270.216614 385.613312,270.174896 389.386292,270.347565 
	C389.973663,269.924957 390.561035,269.502350 391.577728,268.908386 
	C391.846741,268.725433 392.015961,268.475037 392.627258,267.964508 
	C392.832703,267.297119 393.038147,266.629730 393.521790,265.315735 
	C393.224365,264.219635 392.926941,263.123535 392.560028,261.357910 
	C391.094604,260.485046 389.672424,258.963318 388.155579,258.862274 
	C383.791199,258.571442 379.388641,258.854645 374.133820,258.608612 
	C371.041656,258.516083 367.949463,258.423523 364.352753,257.952240 
	C362.907745,257.955444 361.462769,257.958679 359.280334,257.722107 
	C357.477753,257.582306 355.675171,257.442474 353.274780,256.909119 
	C351.837830,256.814484 350.400848,256.719879 348.304504,256.338867 
	C347.828552,256.323456 347.352570,256.308044 346.343384,255.859512 
	C344.757172,255.365860 343.170959,254.872208 341.880676,253.611069 
	C344.847321,238.451935 348.719879,223.398865 350.510712,208.102066 
	C352.111420,194.428848 351.324890,180.493896 347.928070,166.480148 
	C348.113556,166.082764 348.299072,165.685364 349.170074,165.121414 
	C360.827179,159.143326 372.521484,153.235992 384.117035,147.140839 
	C387.285858,145.475143 388.627625,142.518127 386.903900,139.139084 
	C385.255829,135.908371 382.556824,134.673065 378.535553,136.599869 
	C378.042938,137.072037 377.550323,137.544205 376.377899,138.167679 
	C375.610016,138.672272 374.842102,139.176865 373.529602,139.590103 
	C373.010834,140.054367 372.492065,140.518631 371.474091,141.104614 
	C371.335724,141.205505 371.197327,141.306412 370.367554,141.425186 
	C367.882690,142.935501 365.397827,144.445801 362.216400,146.086731 
	C357.835846,148.340622 353.455261,150.594513 348.344086,152.745163 
	C346.114410,153.504242 344.687897,153.096252 343.832153,150.549042 
	C342.900879,147.776962 341.413025,145.191849 340.170197,141.848648 
	C339.915344,141.229599 339.660522,140.610535 339.468597,139.425125 
	C339.034363,138.811890 338.600128,138.198654 338.087341,137.005203 
	C337.877533,136.680618 337.667755,136.356033 337.486786,135.422501 
	C337.538147,133.361877 337.215210,131.207108 337.705658,129.256927 
	C339.829041,120.813980 339.446198,112.564888 334.404175,105.407684 
	C331.043060,100.636612 326.390198,96.775536 322.357697,91.985825 
	C322.252472,91.656502 322.147217,91.327171 322.262665,90.590149 
	C321.930603,89.918892 321.598511,89.247627 321.203461,87.913338 
	C320.948730,87.301895 320.694000,86.690460 320.522003,85.385963 
	C318.029541,81.565399 315.537079,77.744835 312.769623,73.390335 
	C311.906738,72.563286 311.043823,71.736244 309.976440,70.286507 
	C308.623840,69.341972 307.271240,68.397438 305.556458,67.120110 
	C305.556458,67.120110 305.100800,66.934914 304.825134,66.325935 
	C294.702759,59.968609 284.056763,58.461277 272.018280,62.883980 
	C271.065369,63.173481 270.112488,63.462982 268.370087,63.649548 
	C265.947296,63.602131 263.524475,63.557373 261.101746,63.506714 
	C256.735809,63.415413 252.369934,63.320583 247.343903,63.239319 
	C246.923630,63.363396 246.503357,63.487473 245.449036,63.417439 
z"/>
<path fill="#991B16" opacity="1.000000" stroke="none" 
	d="
M347.511963,166.998627 
	C351.324890,180.493896 352.111420,194.428848 350.510712,208.102066 
	C348.719879,223.398865 344.847321,238.451935 341.546143,254.225067 
	C339.863159,258.722260 338.514771,262.605469 337.166351,266.488678 
	C327.134033,291.813599 312.305908,313.968903 293.050537,333.191742 
	C290.247528,335.990021 287.374908,338.718597 284.061157,341.826965 
	C280.759857,344.623871 277.931915,347.073212 275.104004,349.522552 
	C267.466675,353.867950 260.023193,358.605774 252.158127,362.490082 
	C219.899979,378.421417 186.824539,382.812042 152.997787,367.692932 
	C133.093948,358.796783 118.009567,344.319153 107.235107,325.370575 
	C95.796730,305.254456 90.459908,283.498932 89.810326,260.480988 
	C89.773132,259.162964 89.500511,257.851532 89.361572,255.776855 
	C89.565498,251.303192 89.745316,247.589737 89.925140,243.876266 
	C92.252853,213.493240 101.332298,185.255066 116.849434,159.057190 
	C117.354500,158.204468 117.703331,157.259232 118.433067,155.770432 
	C120.504913,151.891296 122.268684,148.598862 124.032455,145.306427 
	C127.654778,141.314178 131.358154,137.392090 134.885529,133.317657 
	C150.975906,114.731827 169.327438,99.056374 192.427887,88.986603 
	C197.515182,95.335915 201.640808,101.816780 206.696533,107.465134 
	C214.164993,115.809059 221.918625,123.984116 230.276184,131.415298 
	C235.780594,136.309570 242.233704,140.422028 248.840027,143.730194 
	C261.107697,149.873367 273.433197,156.274811 286.397552,160.565826 
	C306.120483,167.093872 326.812256,167.911728 347.511963,166.998627 
M270.547577,231.532990 
	C264.990753,230.022171 259.180756,229.104828 253.934235,226.866592 
	C245.259155,223.165695 242.850693,223.413681 237.069412,230.917557 
	C236.056915,232.231750 234.828247,233.387863 233.886475,234.746628 
	C229.180939,241.535660 225.500565,248.741364 229.812927,256.973816 
	C234.142487,265.239075 240.789780,271.505585 248.860626,276.187836 
	C252.238266,278.147369 255.996567,278.909119 259.186554,276.293274 
	C265.033081,271.498993 271.112183,266.794495 276.057800,261.145142 
	C282.078003,254.268311 278.800293,237.256256 270.547577,231.532990 
M207.026077,209.649399 
	C207.672546,205.196381 205.593613,202.776154 201.667557,200.693710 
	C197.334290,198.395294 193.292130,195.321274 189.653320,192.003647 
	C185.958054,188.634567 182.121475,187.139038 177.398895,188.764679 
	C173.651260,190.054718 169.762207,191.250534 166.390579,193.253479 
	C158.163162,198.141129 157.054581,206.451630 156.960358,215.000351 
	C156.772308,232.057617 158.429459,234.458054 175.091415,236.548080 
	C182.123993,237.430222 189.764084,238.999664 196.359344,234.150970 
	C204.326706,228.293549 206.771301,219.908264 207.026077,209.649399 
M116.124008,300.473663 
	C118.683937,307.484100 120.841263,314.678070 123.928177,321.448242 
	C126.507401,327.104980 130.459625,328.405792 136.254700,326.960114 
	C143.338211,325.192993 146.945847,321.364594 147.016632,315.283813 
	C147.090317,308.953735 147.245056,302.607361 146.863419,296.298431 
	C146.727631,294.053864 145.586304,291.496704 144.099625,289.778015 
	C139.796326,284.803101 133.769531,285.130615 128.343521,286.659607 
	C122.036697,288.436859 117.012856,292.352570 116.124008,300.473663 
M293.867676,303.921783 
	C292.147339,301.690674 290.737366,299.080872 288.614532,297.340759 
	C286.702545,295.773468 284.005035,294.264618 281.661102,294.275421 
	C269.717407,294.330383 260.631775,304.352112 260.960114,316.296906 
	C261.067322,320.196838 263.058685,322.364014 266.540405,322.730652 
	C272.789886,323.388763 279.104156,323.979797 285.368713,323.801910 
	C292.476746,323.600037 296.753693,317.956970 295.819489,310.861694 
	C295.540375,308.741821 294.763519,306.687531 293.867676,303.921783 
M115.696686,213.955612 
	C103.347618,214.469574 97.637558,224.198532 104.253944,234.061844 
	C107.275459,238.566162 111.017036,242.812378 115.218605,246.200134 
	C117.159676,247.765213 121.508339,248.137650 123.861397,247.065948 
	C131.251999,243.699921 134.424789,233.411804 131.917374,223.624161 
	C129.933121,215.878754 127.012817,214.033310 115.696686,213.955612 
M174.849838,137.836227 
	C178.014145,138.815613 181.117981,140.138168 184.354355,140.708633 
	C193.286362,142.283051 201.397797,133.627686 199.412872,124.881767 
	C197.974777,118.545219 189.379700,112.006081 182.436951,111.966461 
	C175.620132,111.927559 171.220169,114.404213 169.482956,119.258026 
	C167.421783,125.016983 169.562424,133.271744 174.849838,137.836227 
M197.095230,333.632172 
	C195.668915,334.482819 194.226562,335.307831 192.819321,336.188965 
	C188.523849,338.878357 186.569229,343.372223 187.524811,347.731018 
	C188.480469,352.090118 190.613892,357.508453 194.015472,359.729156 
	C200.352844,363.866486 220.096344,358.277008 225.008179,352.398682 
	C229.272903,347.294830 228.467896,341.547485 227.110336,335.823486 
	C224.763077,325.926483 214.192368,321.737579 205.671982,327.289764 
	C202.899551,329.096344 200.351517,331.247284 197.095230,333.632172 
M308.065948,247.884659 
	C308.304138,252.400223 307.515289,257.341553 309.147675,261.279114 
	C310.205963,263.831848 314.833588,266.272491 317.797943,266.198578 
	C319.860657,266.147156 323.255524,261.874207 323.498108,259.250641 
	C323.919189,254.697433 323.196564,249.614899 321.442413,245.380310 
	C318.591034,238.496918 313.892914,238.431107 309.722046,244.528793 
	C309.163849,245.344833 308.741058,246.253418 308.065948,247.884659 
M144.114120,156.787537 
	C140.571701,158.255295 136.558380,159.106766 133.613632,161.356766 
	C130.394669,163.816238 128.452148,168.336548 130.667740,171.968063 
	C132.020660,174.185577 136.108963,175.575012 139.078903,175.786133 
	C144.852463,176.196564 149.853088,171.799835 152.161453,165.576157 
	C154.538239,159.167984 151.750275,155.702286 144.114120,156.787537 
M308.978485,185.735138 
	C308.307404,188.687561 307.157898,191.623993 307.058533,194.595520 
	C306.801544,202.281860 310.841797,207.612686 318.590881,210.648865 
	C324.719757,213.050247 330.222748,211.500702 335.554962,205.872101 
	C340.743652,200.395004 339.226532,188.625565 332.816467,184.627380 
	C326.346436,180.591797 315.665802,180.894424 308.978485,185.735138 
z"/>
<path fill="#532A25" opacity="1.000000" stroke="none" 
	d="
M347.720032,166.739380 
	C326.812256,167.911728 306.120483,167.093872 286.397552,160.565826 
	C273.433197,156.274811 261.107697,149.873367 248.840027,143.730194 
	C242.233704,140.422028 235.780594,136.309570 230.276184,131.415298 
	C221.918625,123.984116 214.164993,115.809059 206.696533,107.465134 
	C201.640808,101.816780 197.515182,95.335915 192.771072,88.891602 
	C192.660568,88.188271 192.752548,87.820740 193.377411,87.206207 
	C196.633194,85.978745 199.356125,84.998268 202.464417,84.010101 
	C205.200226,83.326515 207.550659,82.650620 209.901108,81.974731 
	C211.418686,81.437851 212.936279,80.900978 214.997528,80.495300 
	C215.989655,80.449265 216.438110,80.272041 216.886581,80.094833 
	C217.390167,79.869797 217.893738,79.644760 218.990356,79.523804 
	C220.038742,79.441818 220.494110,79.255745 220.949463,79.069672 
	C221.309570,78.963318 221.669678,78.856964 222.681152,78.846024 
	C223.965271,79.635391 225.265289,80.512169 225.132599,80.996399 
	C222.282928,91.396645 229.873566,101.431587 240.164078,103.069389 
	C251.185318,104.823502 260.235840,102.295654 267.292999,92.915924 
	C269.820862,89.696793 271.908539,86.529884 274.367462,83.683754 
	C275.326599,82.573578 277.582611,81.204903 278.464111,81.619698 
	C287.368225,85.809586 296.109741,90.345100 304.636017,94.651794 
	C302.894623,97.891426 301.075897,100.468407 300.056000,103.330086 
	C297.452484,110.635231 297.953430,117.952148 300.765625,125.370171 
	C301.952667,126.042343 303.272858,126.454201 304.763123,126.989449 
	C304.933228,127.112846 304.960876,127.532204 304.624237,127.767792 
	C304.406464,129.886993 303.861084,132.202057 304.756775,133.581116 
	C309.123535,140.304169 316.115662,142.740295 323.557617,142.372620 
	C326.702972,142.217194 329.617645,138.755325 332.786682,137.079041 
	C334.147675,136.359131 335.889282,136.358749 337.457947,136.031464 
	C337.667755,136.356033 337.877533,136.680618 338.115356,137.598709 
	C338.564148,138.791962 338.984924,139.391724 339.405701,139.991486 
	C339.660522,140.610535 339.915344,141.229599 340.170898,142.596939 
	C341.802460,147.250595 343.433350,151.155975 345.105804,155.411133 
	C346.432770,158.876007 343.393219,163.506058 348.484558,165.287979 
	C348.299072,165.685364 348.113556,166.082764 347.720032,166.739380 
z"/>
<path fill="#3A1D17" opacity="1.000000" stroke="none" 
	d="
M300.898743,125.109863 
	C297.953430,117.952148 297.452484,110.635231 300.056000,103.330086 
	C301.075897,100.468407 302.894623,97.891426 304.636017,94.651794 
	C296.109741,90.345100 287.368225,85.809586 278.464111,81.619698 
	C277.582611,81.204903 275.326599,82.573578 274.367462,83.683754 
	C271.908539,86.529884 269.820862,89.696793 267.288818,92.498955 
	C266.960297,91.435036 266.927704,90.607605 266.950836,89.471390 
	C267.488739,88.482178 267.970917,87.801758 268.741150,87.012939 
	C269.340759,85.267944 269.652344,83.631340 269.931152,81.621521 
	C269.925354,80.500145 269.952271,79.751999 270.173340,78.865463 
	C270.101532,78.104347 269.835602,77.481621 269.403748,76.535736 
	C266.525543,73.370911 263.813232,70.529251 261.063782,67.417740 
	C260.618286,66.800392 260.209991,66.452881 260.053589,65.845474 
	C263.256836,64.974548 266.208221,64.363518 269.159576,63.752483 
	C270.112488,63.462982 271.065369,63.173481 272.842590,62.932137 
	C276.622192,62.657619 279.688446,61.669811 282.511414,62.140598 
	C290.096771,63.405609 297.578125,65.294029 305.100800,66.934914 
	C305.100800,66.934914 305.556458,67.120110 305.826050,67.602501 
	C307.457397,69.026329 308.819183,69.967766 310.180939,70.909203 
	C311.043823,71.736244 311.906738,72.563286 312.937073,74.010933 
	C315.549438,78.447365 317.994354,82.263199 320.439270,86.079025 
	C320.694000,86.690460 320.948730,87.301895 321.186188,88.582901 
	C321.459930,89.834259 321.750946,90.416054 322.041992,90.997849 
	C322.147217,91.327171 322.252472,91.656502 322.257782,92.590591 
	C323.231903,96.236702 320.823669,96.456505 318.549866,97.182220 
	C316.427216,97.187592 314.726685,97.138039 312.865234,96.886810 
	C312.125702,97.053802 311.547150,97.422470 310.720520,98.026428 
	C307.885864,101.160896 305.299255,104.060074 302.457275,107.008667 
	C302.154175,107.710815 302.106445,108.363525 302.096252,109.392601 
	C301.944611,110.495049 301.755371,111.221138 301.335358,111.999603 
	C301.226349,112.721512 301.348114,113.391037 301.579315,114.484131 
	C302.093933,117.674675 302.499115,120.441643 302.583771,123.539360 
	C301.808441,124.283356 301.353607,124.696609 300.898743,125.109863 
z"/>
<path fill="#412218" opacity="1.000000" stroke="none" 
	d="
M89.506668,243.804642 
	C89.745316,247.589737 89.565498,251.303192 89.221756,255.369720 
	C67.719498,252.419128 48.223869,243.872650 29.041269,234.495972 
	C25.297342,232.665924 23.997559,228.686691 25.919661,225.735687 
	C28.211374,222.217224 31.473352,222.728226 34.790775,224.099686 
	C47.242081,229.247192 59.604824,234.627136 72.188805,239.426971 
	C77.584427,241.485001 83.441048,242.334457 89.506668,243.804642 
z"/>
<path fill="#412218" opacity="1.000000" stroke="none" 
	d="
M275.293365,349.817261 
	C277.931915,347.073212 280.759857,344.623871 283.882812,342.159821 
	C298.104614,354.485565 313.802948,364.169159 330.185699,372.827209 
	C331.362915,373.449371 332.555603,374.050415 333.688507,374.746826 
	C336.698547,376.597046 337.679871,379.391479 336.211792,382.468079 
	C334.583496,385.880432 331.437775,386.695099 328.170502,385.014343 
	C321.361816,381.511810 314.350098,378.236786 308.054199,373.941376 
	C296.947601,366.363861 286.314209,358.092712 275.293365,349.817261 
z"/>
<path fill="#412118" opacity="1.000000" stroke="none" 
	d="
M123.840530,145.010696 
	C122.268684,148.598862 120.504913,151.891296 118.549622,155.401978 
	C107.343201,143.289902 96.218269,131.054871 85.397720,118.556290 
	C82.966782,115.748367 83.398026,112.018181 86.655594,109.784714 
	C89.754875,107.659798 92.564438,109.010941 94.919884,111.732712 
	C104.460762,122.757401 114.066673,133.725800 123.840530,145.010696 
z"/>
<path fill="#3F2218" opacity="1.000000" stroke="none" 
	d="
M348.827332,165.204697 
	C343.393219,163.506058 346.432770,158.876007 345.378113,155.278992 
	C346.764130,154.147507 347.919403,153.497955 349.074707,152.848404 
	C353.455261,150.594513 357.835846,148.340622 362.928192,146.005447 
	C366.112976,144.418549 368.585938,142.912949 371.058899,141.407349 
	C371.197327,141.306412 371.335724,141.205505 371.991577,141.033691 
	C373.030762,140.535660 373.552490,140.108551 374.074219,139.681442 
	C374.842102,139.176865 375.610016,138.672272 376.975647,138.074005 
	C378.070526,137.561447 378.567627,137.142563 379.064728,136.723694 
	C382.556824,134.673065 385.255829,135.908371 386.903900,139.139084 
	C388.627625,142.518127 387.285858,145.475143 384.117035,147.140839 
	C372.521484,153.235992 360.827179,159.143326 348.827332,165.204697 
z"/>
<path fill="#3D2017" opacity="1.000000" stroke="none" 
	d="
M364.857300,258.330994 
	C367.949463,258.423523 371.041656,258.516083 374.811707,259.006836 
	C377.256134,259.599335 379.034210,259.721649 380.786865,260.002411 
	C384.741058,260.635773 388.682739,261.347534 392.629517,262.027435 
	C392.926941,263.123535 393.224365,264.219635 393.157684,265.776489 
	C392.557526,266.877228 392.321472,267.517212 392.085388,268.157196 
	C392.015961,268.475037 391.846741,268.725433 391.044373,269.010162 
	C389.995148,269.452362 389.479340,269.792755 388.963531,270.133179 
	C385.613312,270.174896 382.263123,270.216614 378.175201,269.919769 
	C374.984344,269.659973 372.531219,269.738739 370.078064,269.817505 
	C366.985535,269.628723 363.893036,269.439941 360.153931,268.912811 
	C358.047546,268.612640 356.587799,268.650818 355.128021,268.688965 
	C350.640289,268.159485 346.152588,267.630035 341.273987,266.618378 
	C339.762268,261.118195 341.439789,258.363129 346.876617,256.292633 
	C347.352570,256.308044 347.828552,256.323456 348.789734,256.738770 
	C350.807526,257.193359 352.340057,257.248016 353.872589,257.302643 
	C355.675171,257.442474 357.477753,257.582306 359.884491,258.073944 
	C361.944855,258.394196 363.401093,258.362610 364.857300,258.330994 
z"/>
<path fill="#381B12" opacity="1.000000" stroke="none" 
	d="
M202.079041,84.017792 
	C199.356125,84.998268 196.633194,85.978745 193.521072,86.959206 
	C192.419388,83.899742 191.706909,80.840302 191.180328,77.240105 
	C191.124237,76.107956 190.882263,75.516556 190.640289,74.925156 
	C190.438202,74.195648 190.236115,73.466133 190.224792,72.209717 
	C190.192520,71.096886 189.969498,70.510956 189.746475,69.925026 
	C189.479889,68.561234 189.213303,67.197449 189.160614,65.268501 
	C189.144409,64.110321 188.914291,63.517300 188.684174,62.924271 
	C188.421738,61.235695 188.159286,59.547115 188.121307,57.288460 
	C188.137634,56.121460 187.929504,55.524540 187.721375,54.927620 
	C187.466293,53.234146 187.211212,51.540672 187.228607,49.143883 
	C188.002106,46.300076 188.503113,44.159588 189.004120,42.019104 
	C189.474442,41.689983 189.944763,41.360863 191.015381,41.259212 
	C192.635345,41.500576 193.654999,41.514477 194.674652,41.528378 
	C194.989716,41.621368 195.304779,41.714359 195.795349,42.300583 
	C196.531342,43.546833 197.091827,44.299854 197.652328,45.052872 
	C197.869675,46.406414 198.087006,47.759956 198.019531,49.735214 
	C198.217148,52.926647 198.699585,55.496365 199.182022,58.066086 
	C199.349426,58.826565 199.516846,59.587040 199.492294,60.994022 
	C200.063278,65.441185 200.826233,69.241837 201.589188,73.042488 
	C201.745789,73.776314 201.902405,74.510147 201.815399,75.848869 
	C201.740875,78.975113 201.909958,81.496452 202.079041,84.017792 
z"/>
<path fill="#4E362F" opacity="1.000000" stroke="none" 
	d="
M318.972015,97.127296 
	C320.823669,96.456505 323.231903,96.236702 322.236664,92.851280 
	C326.390198,96.775536 331.043060,100.636612 334.404175,105.407684 
	C339.446198,112.564888 339.829041,120.813980 337.705658,129.256927 
	C337.215210,131.207108 337.538147,133.361877 337.472351,135.726990 
	C335.889282,136.358749 334.147675,136.359131 332.786682,137.079041 
	C329.617645,138.755325 326.702972,142.217194 323.557617,142.372620 
	C316.115662,142.740295 309.123535,140.304169 304.756775,133.581116 
	C303.861084,132.202057 304.406464,129.886993 304.881897,127.939857 
	C308.893219,130.884567 311.895355,134.698364 315.820526,136.719971 
	C322.383972,140.100357 331.353058,136.453201 332.794159,129.648514 
	C334.011505,123.900124 333.239929,117.730522 333.347961,111.384384 
	C331.559906,108.355148 329.772552,105.688881 327.772400,102.762932 
	C324.697052,100.711266 321.834534,98.919281 318.972015,97.127296 
z"/>
<path fill="#432B26" opacity="1.000000" stroke="none" 
	d="
M266.895111,89.780182 
	C266.927704,90.607605 266.960297,91.435036 266.997070,92.679428 
	C260.235840,102.295654 251.185318,104.823502 240.164078,103.069389 
	C229.873566,101.431587 222.282928,91.396645 225.132599,80.996399 
	C225.265289,80.512169 223.965271,79.635391 222.958893,78.910950 
	C225.007736,77.009476 227.383087,75.073235 229.863449,73.282440 
	C233.827423,70.420464 237.861160,67.655098 242.557098,64.862869 
	C244.193542,64.455070 245.138321,64.033310 246.083084,63.611549 
	C246.503357,63.487473 246.923630,63.363396 247.660583,63.448566 
	C247.977280,63.657814 247.995010,64.089081 248.001266,64.421494 
	C248.018997,65.198540 248.030472,65.643181 248.191223,66.164085 
	C248.340530,66.240356 248.208603,66.548599 247.882385,66.444824 
	C245.981613,66.962143 244.407059,67.583229 242.449539,68.284622 
	C240.208374,69.303734 238.265381,70.107033 236.507812,71.206665 
	C231.119156,74.578064 226.585159,83.992981 228.544785,88.118652 
	C231.772949,94.914909 237.015991,99.029785 244.809265,99.386253 
	C253.753433,99.795364 260.923584,96.178711 266.895111,89.780182 
z"/>
<path fill="#4E362F" opacity="1.000000" stroke="none" 
	d="
M304.962952,66.630424 
	C297.578125,65.294029 290.096771,63.405609 282.511414,62.140598 
	C279.688446,61.669811 276.622192,62.657619 273.219696,62.922760 
	C284.056763,58.461277 294.702759,59.968609 304.962952,66.630424 
z"/>
<path fill="#5B281B" opacity="1.000000" stroke="none" 
	d="
M346.609985,256.076080 
	C341.439789,258.363129 339.762268,261.118195 340.953247,266.483948 
	C339.986053,266.789001 338.948669,266.746307 337.538818,266.596130 
	C338.514771,262.605469 339.863159,258.722260 341.398163,254.608795 
	C343.170959,254.872208 344.757172,255.365860 346.609985,256.076080 
z"/>
<path fill="#5E4331" opacity="1.000000" stroke="none" 
	d="
M247.995010,64.089081 
	C247.995010,64.089081 247.977280,63.657814 247.990662,63.442520 
	C252.369934,63.320583 256.735809,63.415413 261.101746,63.506714 
	C263.524475,63.557373 265.947296,63.602131 268.764832,63.701012 
	C266.208221,64.363518 263.256836,64.974548 259.642822,65.967453 
	C258.716675,66.462578 258.453186,66.575844 258.167480,66.639397 
	C258.145264,66.589691 258.237885,66.532387 258.106598,66.114990 
	C254.648544,65.161423 251.321777,64.625252 247.995010,64.089081 
z"/>
<path fill="#5B281B" opacity="1.000000" stroke="none" 
	d="
M392.594757,261.692688 
	C388.682739,261.347534 384.741058,260.635773 380.786865,260.002411 
	C379.034210,259.721649 377.256134,259.599335 375.245331,259.158691 
	C379.388641,258.854645 383.791199,258.571442 388.155579,258.862274 
	C389.672424,258.963318 391.094604,260.485046 392.594757,261.692688 
z"/>
<path fill="#4E362F" opacity="1.000000" stroke="none" 
	d="
M348.709412,152.796783 
	C347.919403,153.497955 346.764130,154.147507 345.336548,154.929199 
	C343.433350,151.155975 341.802460,147.250595 340.169678,142.935226 
	C341.413025,145.191849 342.900879,147.776962 343.832153,150.549042 
	C344.687897,153.096252 346.114410,153.504242 348.709412,152.796783 
z"/>
<path fill="#432B26" opacity="1.000000" stroke="none" 
	d="
M202.464417,84.010101 
	C201.909958,81.496452 201.740875,78.975113 201.789337,76.224907 
	C202.359802,76.740578 202.956299,77.463356 203.025024,78.233261 
	C203.396057,82.388397 205.636490,83.160484 209.532074,81.898560 
	C207.550659,82.650620 205.200226,83.326515 202.464417,84.010101 
z"/>
<path fill="#4E362F" opacity="1.000000" stroke="none" 
	d="
M320.480652,85.732498 
	C317.994354,82.263199 315.549438,78.447365 313.074585,74.277908 
	C315.537079,77.744835 318.029541,81.565399 320.480652,85.732498 
z"/>
<path fill="#432B26" opacity="1.000000" stroke="none" 
	d="
M201.666367,72.621536 
	C200.826233,69.241837 200.063278,65.441185 199.465332,61.387009 
	C200.334732,64.822517 201.039139,68.511559 201.666367,72.621536 
z"/>
<path fill="#432B26" opacity="1.000000" stroke="none" 
	d="
M199.308502,57.689507 
	C198.699585,55.496365 198.217148,52.926647 197.965500,50.146259 
	C198.609192,52.394703 199.022095,54.853817 199.308502,57.689507 
z"/>
<path fill="#4E362F" opacity="1.000000" stroke="none" 
	d="
M370.713226,141.416260 
	C368.585938,142.912949 366.112976,144.418549 363.276489,145.940140 
	C365.397827,144.445801 367.882690,142.935501 370.713226,141.416260 
z"/>
<path fill="#5B281B" opacity="1.000000" stroke="none" 
	d="
M370.401947,269.988159 
	C372.531219,269.738739 374.984344,269.659973 377.725037,269.833984 
	C375.583679,270.110748 373.154755,270.134766 370.401947,269.988159 
z"/>
<path fill="#532A25" opacity="1.000000" stroke="none" 
	d="
M188.665741,42.092674 
	C188.503113,44.159588 188.002106,46.300076 187.265656,48.713104 
	C187.462601,46.712513 187.894989,44.439377 188.665741,42.092674 
z"/>
<path fill="#4E362F" opacity="1.000000" stroke="none" 
	d="
M310.078674,70.597855 
	C308.819183,69.967766 307.457397,69.026329 306.007141,67.768898 
	C307.271240,68.397438 308.623840,69.341972 310.078674,70.597855 
z"/>
<path fill="#5B281B" opacity="1.000000" stroke="none" 
	d="
M364.605042,258.141632 
	C363.401093,258.362610 361.944855,258.394196 360.253204,258.193848 
	C361.462769,257.958679 362.907745,257.955444 364.605042,258.141632 
z"/>
<path fill="#5B281B" opacity="1.000000" stroke="none" 
	d="
M353.573669,257.105896 
	C352.340057,257.248016 350.807526,257.193359 349.119446,256.881958 
	C350.400848,256.719879 351.837830,256.814484 353.573669,257.105896 
z"/>
<path fill="#5B281B" opacity="1.000000" stroke="none" 
	d="
M355.377747,268.879700 
	C356.587799,268.650818 358.047546,268.612640 359.745239,268.804749 
	C358.531281,269.046844 357.079407,269.058655 355.377747,268.879700 
z"/>
<path fill="#532A25" opacity="1.000000" stroke="none" 
	d="
M194.488449,41.281166 
	C193.654999,41.514477 192.635345,41.500576 191.311111,41.247524 
	C192.105103,41.016899 193.203674,41.025429 194.488449,41.281166 
z"/>
<path fill="#5E4331" opacity="1.000000" stroke="none" 
	d="
M245.766052,63.514492 
	C245.138321,64.033310 244.193542,64.455070 242.907700,64.807167 
	C243.527420,64.297478 244.488235,63.857456 245.766052,63.514492 
z"/>
<path fill="#532A25" opacity="1.000000" stroke="none" 
	d="
M197.700317,44.745117 
	C197.091827,44.299854 196.531342,43.546833 195.964539,42.486313 
	C196.554901,42.931660 197.151611,43.684513 197.700317,44.745117 
z"/>
<path fill="#5B281B" opacity="1.000000" stroke="none" 
	d="
M392.356323,268.060852 
	C392.321472,267.517212 392.557526,266.877228 393.018585,266.099792 
	C393.038147,266.629730 392.832703,267.297119 392.356323,268.060852 
z"/>
<path fill="#532A25" opacity="1.000000" stroke="none" 
	d="
M189.626205,70.183517 
	C189.969498,70.510956 190.192520,71.096886 190.245499,71.828041 
	C189.885605,71.462852 189.695770,70.952431 189.626205,70.183517 
z"/>
<path fill="#532A25" opacity="1.000000" stroke="none" 
	d="
M190.537781,75.192200 
	C190.882263,75.516556 191.124237,76.107956 191.186005,76.846451 
	C190.815613,76.482117 190.625443,75.970680 190.537781,75.192200 
z"/>
<path fill="#432B26" opacity="1.000000" stroke="none" 
	d="
M220.785950,78.941940 
	C220.494110,79.255745 220.038742,79.441818 219.408325,79.530899 
	C219.696335,79.227348 220.159378,79.020775 220.785950,78.941940 
z"/>
<path fill="#432B26" opacity="1.000000" stroke="none" 
	d="
M216.673431,79.988312 
	C216.438110,80.272041 215.989655,80.449265 215.398788,80.547012 
	C215.657684,80.272285 216.058990,80.077042 216.673431,79.988312 
z"/>
<path fill="#5B281B" opacity="1.000000" stroke="none" 
	d="
M389.174927,270.240356 
	C389.479340,269.792755 389.995148,269.452362 390.829712,269.095825 
	C390.561035,269.502350 389.973663,269.924957 389.174927,270.240356 
z"/>
<path fill="#4E362F" opacity="1.000000" stroke="none" 
	d="
M322.152344,90.793991 
	C321.750946,90.416054 321.459930,89.834259 321.217651,88.914413 
	C321.598511,89.247627 321.930603,89.918892 322.152344,90.793991 
z"/>
<path fill="#532A25" opacity="1.000000" stroke="none" 
	d="
M188.566956,63.186317 
	C188.914291,63.517300 189.144409,64.110321 189.193253,64.848434 
	C188.824554,64.478470 188.637146,63.963417 188.566956,63.186317 
z"/>
<path fill="#4E362F" opacity="1.000000" stroke="none" 
	d="
M378.800140,136.661774 
	C378.567627,137.142563 378.070526,137.561447 377.315552,137.998352 
	C377.550323,137.544205 378.042938,137.072037 378.800140,136.661774 
z"/>
<path fill="#4E362F" opacity="1.000000" stroke="none" 
	d="
M339.437134,139.708313 
	C338.984924,139.391724 338.564148,138.791962 338.154602,137.888824 
	C338.600128,138.198654 339.034363,138.811890 339.437134,139.708313 
z"/>
<path fill="#532A25" opacity="1.000000" stroke="none" 
	d="
M187.597656,55.184769 
	C187.929504,55.524540 188.137634,56.121460 188.162781,56.859314 
	C187.811157,56.480804 187.642563,55.961361 187.597656,55.184769 
z"/>
<path fill="#4E362F" opacity="1.000000" stroke="none" 
	d="
M373.801910,139.635773 
	C373.552490,140.108551 373.030762,140.535660 372.241150,140.972839 
	C372.492065,140.518631 373.010834,140.054367 373.801910,139.635773 
z"/>
<path fill="#3E1914" opacity="1.000000" stroke="none" 
	d="
M270.888428,231.732376 
	C278.800293,237.256256 282.078003,254.268311 276.057800,261.145142 
	C271.112183,266.794495 265.033081,271.498993 259.186554,276.293274 
	C255.996567,278.909119 252.238266,278.147369 248.860626,276.187836 
	C240.789780,271.505585 234.142487,265.239075 229.812927,256.973816 
	C225.500565,248.741364 229.180939,241.535660 233.886475,234.746628 
	C234.828247,233.387863 236.056915,232.231750 237.069412,230.917557 
	C242.850693,223.413681 245.259155,223.165695 253.934235,226.866592 
	C259.180756,229.104828 264.990753,230.022171 270.888428,231.732376 
z"/>
<path fill="#3D1914" opacity="1.000000" stroke="none" 
	d="
M207.025101,210.098816 
	C206.771301,219.908264 204.326706,228.293549 196.359344,234.150970 
	C189.764084,238.999664 182.123993,237.430222 175.091415,236.548080 
	C158.429459,234.458054 156.772308,232.057617 156.960358,215.000351 
	C157.054581,206.451630 158.163162,198.141129 166.390579,193.253479 
	C169.762207,191.250534 173.651260,190.054718 177.398895,188.764679 
	C182.121475,187.139038 185.958054,188.634567 189.653320,192.003647 
	C193.292130,195.321274 197.334290,198.395294 201.667557,200.693710 
	C205.593613,202.776154 207.672546,205.196381 207.025101,210.098816 
z"/>
<path fill="#3E1913" opacity="1.000000" stroke="none" 
	d="
M116.120049,300.071228 
	C117.012856,292.352570 122.036697,288.436859 128.343521,286.659607 
	C133.769531,285.130615 139.796326,284.803101 144.099625,289.778015 
	C145.586304,291.496704 146.727631,294.053864 146.863419,296.298431 
	C147.245056,302.607361 147.090317,308.953735 147.016632,315.283813 
	C146.945847,321.364594 143.338211,325.192993 136.254700,326.960114 
	C130.459625,328.405792 126.507401,327.104980 123.928177,321.448242 
	C120.841263,314.678070 118.683937,307.484100 116.120049,300.071228 
z"/>
<path fill="#401914" opacity="1.000000" stroke="none" 
	d="
M294.041199,304.262482 
	C294.763519,306.687531 295.540375,308.741821 295.819489,310.861694 
	C296.753693,317.956970 292.476746,323.600037 285.368713,323.801910 
	C279.104156,323.979797 272.789886,323.388763 266.540405,322.730652 
	C263.058685,322.364014 261.067322,320.196838 260.960114,316.296906 
	C260.631775,304.352112 269.717407,294.330383 281.661102,294.275421 
	C284.005035,294.264618 286.702545,295.773468 288.614532,297.340759 
	C290.737366,299.080872 292.147339,301.690674 294.041199,304.262482 
z"/>
<path fill="#411812" opacity="1.000000" stroke="none" 
	d="
M116.154892,213.954239 
	C127.012817,214.033310 129.933121,215.878754 131.917374,223.624161 
	C134.424789,233.411804 131.251999,243.699921 123.861397,247.065948 
	C121.508339,248.137650 117.159676,247.765213 115.218605,246.200134 
	C111.017036,242.812378 107.275459,238.566162 104.253944,234.061844 
	C97.637558,224.198532 103.347618,214.469574 116.154892,213.954239 
z"/>
<path fill="#401813" opacity="1.000000" stroke="none" 
	d="
M174.524658,137.641113 
	C169.562424,133.271744 167.421783,125.016983 169.482956,119.258026 
	C171.220169,114.404213 175.620132,111.927559 182.436951,111.966461 
	C189.379700,112.006081 197.974777,118.545219 199.412872,124.881767 
	C201.397797,133.627686 193.286362,142.283051 184.354355,140.708633 
	C181.117981,140.138168 178.014145,138.815613 174.524658,137.641113 
z"/>
<path fill="#541510" opacity="1.000000" stroke="none" 
	d="
M197.398041,333.436462 
	C200.351517,331.247284 202.899551,329.096344 205.671982,327.289764 
	C214.192368,321.737579 224.763077,325.926483 227.110336,335.823486 
	C228.467896,341.547485 229.272903,347.294830 225.008179,352.398682 
	C220.096344,358.277008 200.352844,363.866486 194.015472,359.729156 
	C190.613892,357.508453 188.480469,352.090118 187.524811,347.731018 
	C186.569229,343.372223 188.523849,338.878357 192.819321,336.188965 
	C194.226562,335.307831 195.668915,334.482819 197.398041,333.436462 
M205.281250,357.014923 
	C208.020340,356.453186 210.850418,356.163544 213.482941,355.283142 
	C225.576889,351.238525 228.435699,341.944550 220.840134,331.735687 
	C218.508682,328.602112 215.295029,327.162323 211.713547,328.721283 
	C208.292648,330.210297 205.232712,332.536804 202.038589,334.534332 
	C200.827118,335.291962 199.792496,336.473480 198.491211,336.922058 
	C192.646973,338.936707 190.208176,342.665222 191.138931,348.571594 
	C192.242859,355.576782 193.975967,357.007080 201.377136,357.019257 
	C202.372528,357.020905 203.367920,357.018311 205.281250,357.014923 
z"/>
<path fill="#431812" opacity="1.000000" stroke="none" 
	d="
M308.160767,247.501907 
	C308.741058,246.253418 309.163849,245.344833 309.722046,244.528793 
	C313.892914,238.431107 318.591034,238.496918 321.442413,245.380310 
	C323.196564,249.614899 323.919189,254.697433 323.498108,259.250641 
	C323.255524,261.874207 319.860657,266.147156 317.797943,266.198578 
	C314.833588,266.272491 310.205963,263.831848 309.147675,261.279114 
	C307.515289,257.341553 308.304138,252.400223 308.160767,247.501907 
z"/>
<path fill="#441711" opacity="1.000000" stroke="none" 
	d="
M144.516785,156.680603 
	C151.750275,155.702286 154.538239,159.167984 152.161453,165.576157 
	C149.853088,171.799835 144.852463,176.196564 139.078903,175.786133 
	C136.108963,175.575012 132.020660,174.185577 130.667740,171.968063 
	C128.452148,168.336548 130.394669,163.816238 133.613632,161.356766 
	C136.558380,159.106766 140.571701,158.255295 144.516785,156.680603 
z"/>
<path fill="#56150F" opacity="1.000000" stroke="none" 
	d="
M309.292542,185.510071 
	C315.665802,180.894424 326.346436,180.591797 332.816467,184.627380 
	C339.226532,188.625565 340.743652,200.395004 335.554962,205.872101 
	C330.222748,211.500702 324.719757,213.050247 318.590881,210.648865 
	C310.841797,207.612686 306.801544,202.281860 307.058533,194.595520 
	C307.157898,191.623993 308.307404,188.687561 309.292542,185.510071 
M319.505066,184.987732 
	C313.047913,185.108749 308.429108,189.439987 309.053009,194.789017 
	C310.007812,202.974762 318.500183,209.295074 326.613708,207.858292 
	C332.625031,206.793762 335.323608,203.091202 335.002625,196.348343 
	C334.686096,189.698624 331.815002,186.507919 325.772247,185.936569 
	C323.961212,185.765350 322.175232,185.329346 319.505066,184.987732 
z"/>
<path fill="#F0EAE7" opacity="1.000000" stroke="none" 
	d="
M333.348633,111.747353 
	C333.239929,117.730522 334.011505,123.900124 332.794159,129.648514 
	C331.353058,136.453201 322.383972,140.100357 315.820526,136.719971 
	C311.895355,134.698364 308.893219,130.884567 305.218536,127.704269 
	C304.960876,127.532204 304.933228,127.112846 304.740906,126.644150 
	C304.000488,125.186508 303.452393,124.197556 302.904297,123.208611 
	C302.499115,120.441643 302.093933,117.674675 301.740112,114.148636 
	C301.716370,112.908791 301.641266,112.428009 301.566132,111.947227 
	C301.755371,111.221138 301.944611,110.495049 302.331299,109.215042 
	C302.590057,108.093834 302.651337,107.526543 302.712646,106.959251 
	C305.299255,104.060074 307.885864,101.160896 311.006836,98.084457 
	C312.036163,97.634300 312.531189,97.361397 313.026184,97.088486 
	C314.726685,97.138039 316.427216,97.187592 318.549866,97.182220 
	C321.834534,98.919281 324.697052,100.711266 327.701050,103.144493 
	C327.376953,104.370331 326.911438,104.954926 326.090332,105.406342 
	C321.986572,103.238335 318.412720,103.066788 315.319916,106.456001 
	C312.150970,109.928658 312.004089,116.548546 315.090088,121.426247 
	C317.452942,125.160973 320.640228,127.801231 325.412201,126.667923 
	C326.900452,126.314468 328.324463,125.137245 329.476929,124.025238 
	C333.150421,120.480682 331.703003,116.168091 331.405060,111.979431 
	C332.313721,111.888382 332.831177,111.817871 333.348633,111.747353 
z"/>
<path fill="#4E362F" opacity="1.000000" stroke="none" 
	d="
M302.583801,123.539360 
	C303.452393,124.197556 304.000488,125.186508 304.570801,126.520752 
	C303.272858,126.454201 301.952667,126.042343 300.765625,125.370178 
	C301.353607,124.696609 301.808441,124.283356 302.583801,123.539360 
z"/>
<path fill="#F0EAE8" opacity="1.000000" stroke="none" 
	d="
M258.237885,66.532387 
	C258.237885,66.532387 258.145264,66.589691 258.413330,66.843628 
	C259.487915,67.294235 260.294434,67.490913 261.100922,67.687592 
	C263.813232,70.529251 266.525543,73.370911 269.280945,76.809860 
	C269.542419,77.939384 269.760803,78.471611 269.979187,79.003845 
	C269.952271,79.751999 269.925354,80.500145 269.712128,81.880676 
	C269.168243,84.049141 268.810669,85.585243 268.453094,87.121338 
	C267.970917,87.801758 267.488739,88.482178 266.950836,89.471390 
	C260.923584,96.178711 253.753433,99.795364 244.809265,99.386253 
	C237.015991,99.029785 231.772949,94.914909 228.544785,88.118652 
	C226.585159,83.992981 231.119156,74.578064 236.507812,71.206665 
	C238.265381,70.107033 240.208374,69.303734 242.602356,68.810013 
	C243.192062,69.615860 243.245987,69.976631 243.070297,70.595490 
	C237.696426,74.613739 235.958588,79.172173 238.120422,83.235039 
	C240.258194,87.252632 245.743210,88.914658 251.304932,87.230118 
	C257.361115,85.395813 260.977905,80.696762 260.172791,75.708687 
	C259.411865,70.994484 255.681305,68.947090 248.014908,68.717255 
	C248.087738,67.786247 248.148178,67.167427 248.208603,66.548599 
	C248.208603,66.548599 248.340530,66.240356 248.644287,66.223618 
	C252.044647,66.315384 255.141266,66.423882 258.237885,66.532387 
z"/>
<path fill="#62524A" opacity="1.000000" stroke="none" 
	d="
M268.741150,87.012939 
	C268.810669,85.585243 269.168243,84.049141 269.744873,82.253891 
	C269.652344,83.631340 269.340759,85.267944 268.741150,87.012939 
z"/>
<path fill="#62524A" opacity="1.000000" stroke="none" 
	d="
M270.173340,78.865463 
	C269.760803,78.471611 269.542419,77.939384 269.446838,77.133026 
	C269.835602,77.481621 270.101532,78.104347 270.173340,78.865463 
z"/>
<path fill="#62524A" opacity="1.000000" stroke="none" 
	d="
M261.063782,67.417747 
	C260.294434,67.490913 259.487915,67.294235 258.435577,66.893326 
	C258.453186,66.575844 258.716675,66.462578 259.390900,66.227341 
	C260.209991,66.452881 260.618286,66.800392 261.063782,67.417747 
z"/>
<path fill="#4E362F" opacity="1.000000" stroke="none" 
	d="
M312.865234,96.886810 
	C312.531189,97.361397 312.036163,97.634300 311.254883,97.849167 
	C311.547150,97.422470 312.125702,97.053802 312.865234,96.886810 
z"/>
<path fill="#4E362F" opacity="1.000000" stroke="none" 
	d="
M302.457275,107.008682 
	C302.651337,107.526543 302.590057,108.093834 302.293762,108.838684 
	C302.106445,108.363525 302.154175,107.710815 302.457275,107.008682 
z"/>
<path fill="#4E362F" opacity="1.000000" stroke="none" 
	d="
M301.335358,111.999603 
	C301.641266,112.428009 301.716370,112.908791 301.630676,113.725067 
	C301.348114,113.391037 301.226349,112.721512 301.335358,111.999603 
z"/>
<path fill="#C6B6B1" opacity="1.000000" stroke="none" 
	d="
M333.347931,111.384384 
	C332.831177,111.817871 332.313721,111.888382 331.154663,111.763016 
	C329.157318,109.557915 327.801605,107.548706 326.445923,105.539505 
	C326.911438,104.954926 327.376953,104.370331 327.913879,103.404175 
	C329.772552,105.688881 331.559906,108.355148 333.347931,111.384384 
z"/>
<path fill="#3A1D17" opacity="1.000000" stroke="none" 
	d="
M258.106598,66.114990 
	C255.141266,66.423882 252.044647,66.315384 248.494980,66.147354 
	C248.030472,65.643181 248.018997,65.198540 248.001266,64.421494 
	C251.321777,64.625252 254.648544,65.161423 258.106598,66.114990 
z"/>
<path fill="#BBACA7" opacity="1.000000" stroke="none" 
	d="
M247.882385,66.444824 
	C248.148178,67.167427 248.087738,67.786247 247.758057,68.965836 
	C246.092499,69.796867 244.696198,70.067131 243.299927,70.337395 
	C243.245987,69.976631 243.192062,69.615860 242.985321,68.729706 
	C244.407059,67.583229 245.981613,66.962143 247.882385,66.444824 
z"/>
<path fill="#391A16" opacity="1.000000" stroke="none" 
	d="
M204.822281,357.016296 
	C203.367920,357.018311 202.372528,357.020905 201.377136,357.019257 
	C193.975967,357.007080 192.242859,355.576782 191.138931,348.571594 
	C190.208176,342.665222 192.646973,338.936707 198.491211,336.922058 
	C199.792496,336.473480 200.827118,335.291962 202.038589,334.534332 
	C205.232712,332.536804 208.292648,330.210297 211.713547,328.721283 
	C215.295029,327.162323 218.508682,328.602112 220.840134,331.735687 
	C228.435699,341.944550 225.576889,351.238525 213.482941,355.283142 
	C210.850418,356.163544 208.020340,356.453186 204.822281,357.016296 
z"/>
<path fill="#381A13" opacity="1.000000" stroke="none" 
	d="
M319.941406,185.001190 
	C322.175232,185.329346 323.961212,185.765350 325.772247,185.936569 
	C331.815002,186.507919 334.686096,189.698624 335.002625,196.348343 
	C335.323608,203.091202 332.625031,206.793762 326.613708,207.858292 
	C318.500183,209.295074 310.007812,202.974762 309.053009,194.789017 
	C308.429108,189.439987 313.047913,185.108749 319.941406,185.001190 
z"/>
<path fill="#3D2622" opacity="1.000000" stroke="none" 
	d="
M326.090302,105.406334 
	C327.801605,107.548706 329.157318,109.557915 330.763428,111.783539 
	C331.703003,116.168091 333.150421,120.480682 329.476929,124.025238 
	C328.324463,125.137245 326.900452,126.314468 325.412201,126.667923 
	C320.640228,127.801231 317.452942,125.160973 315.090088,121.426247 
	C312.004089,116.548546 312.150970,109.928658 315.319916,106.456001 
	C318.412720,103.066788 321.986572,103.238335 326.090302,105.406334 
z"/>
<path fill="#402823" opacity="1.000000" stroke="none" 
	d="
M243.070282,70.595490 
	C244.696198,70.067131 246.092499,69.796867 247.745636,69.278015 
	C255.681305,68.947090 259.411865,70.994484 260.172791,75.708687 
	C260.977905,80.696762 257.361115,85.395813 251.304932,87.230118 
	C245.743210,88.914658 240.258194,87.252632 238.120422,83.235039 
	C235.958588,79.172173 237.696426,74.613739 243.070282,70.595490 
z"/>
</svg>