<svg version="1.1" id="Layer_1" xmlns="http://www.w3.org/2000/svg" xmlns:xlink="http://www.w3.org/1999/xlink" x="0px" y="0px"
	 width="100%" viewBox="0 0 450 450" enable-background="new 0 0 450 450" xml:space="preserve">
<path fill="#93B52A" opacity="1.000000" stroke="none" 
	d="
M265.000000,451.000000 
	C176.691040,451.000000 88.882095,451.000000 1.036571,451.000000 
	C1.036571,301.066040 1.036571,151.132034 1.036571,1.099026 
	C150.892288,1.099026 300.784668,1.099026 450.838501,1.099026 
	C450.838501,150.999863 450.838501,300.999908 450.838501,451.000000 
	C389.131989,451.000000 327.316010,451.000000 265.000000,451.000000 
M85.277359,347.618286 
	C86.256180,348.054230 87.235001,348.490173 88.597923,349.356537 
	C88.790558,349.893555 88.983192,350.430573 88.651184,351.098816 
	C88.757042,351.745728 88.862900,352.392670 89.088036,353.660553 
	C89.408562,354.439911 89.729080,355.219269 90.079910,356.721619 
	C99.914619,375.808533 119.043098,393.753601 143.707764,394.303162 
	C145.099686,394.826019 146.465668,395.707336 147.887985,395.810303 
	C154.335037,396.276947 160.798523,396.723389 167.254807,396.705627 
	C168.814224,396.701355 170.368683,394.900574 172.797058,393.922729 
	C176.241547,393.699585 179.686035,393.476410 183.570892,393.569885 
	C184.103500,393.709656 184.636124,393.849426 185.587036,394.360596 
	C186.136978,394.444733 186.686905,394.528870 187.959106,394.975250 
	C190.080231,395.236328 192.201096,395.722687 194.322510,395.725098 
	C235.741699,395.771881 277.161072,395.805084 318.579895,395.675476 
	C321.593353,395.666077 324.602844,394.391266 328.355072,393.744263 
	C328.602356,393.745453 328.849670,393.746613 329.731079,394.263550 
	C334.464752,394.508728 339.198425,394.753906 344.284119,395.676056 
	C347.518311,395.789490 350.752472,395.902924 354.910156,396.019379 
	C358.612183,396.026764 362.314209,396.034149 366.445526,396.361328 
	C367.291351,396.187378 368.137177,396.013458 369.496582,395.535309 
	C370.340179,394.694946 371.183777,393.854584 372.718811,393.309998 
	C374.464691,393.510620 376.210541,393.711273 378.898560,393.945312 
	C386.278961,393.936768 393.659393,393.928192 401.679932,393.940887 
	C402.106689,393.933807 402.533447,393.926727 403.902069,393.950195 
	C410.951965,393.962585 418.005829,394.105072 425.048950,393.892670 
	C426.738312,393.841766 428.392151,392.611267 430.721344,391.910004 
	C431.567383,391.315277 432.413391,390.720551 433.259399,390.125824 
	C432.591431,389.803223 431.923462,389.480652 430.689392,388.795380 
	C430.105347,388.463318 429.521332,388.131256 428.827637,387.285339 
	C428.498199,386.884521 428.168732,386.483704 427.805084,386.260376 
	C427.805084,386.260376 427.628571,386.299164 427.708740,385.571838 
	C426.975128,384.589661 426.442078,383.298492 425.477386,382.672241 
	C413.456421,374.868622 401.501099,366.947540 389.213989,359.581940 
	C386.185730,357.766663 385.916107,356.171722 386.364105,353.265533 
	C388.004639,342.624054 390.198120,331.996155 390.811676,321.284576 
	C391.763489,304.667267 390.007355,288.223785 385.338623,272.079895 
	C380.913483,256.778259 375.885925,241.734314 366.749725,228.602417 
	C360.446167,219.542007 353.352325,210.965744 345.999268,202.719177 
	C338.288605,194.071564 328.968933,187.165482 319.206818,180.910797 
	C316.907562,179.437653 314.869843,177.368881 312.389099,176.403061 
	C305.993439,173.913086 299.550018,171.280579 292.881531,169.819565 
	C283.213104,167.701324 273.289062,165.133835 263.549866,165.412048 
	C253.921295,165.687103 243.858078,160.814484 234.515259,166.814972 
	C234.262787,166.977112 233.865372,166.922531 233.534012,166.951614 
	C215.235413,168.558670 199.971664,177.699463 185.383835,187.593597 
	C176.849167,193.382233 169.137024,200.798080 162.318817,208.588181 
	C155.286423,216.622986 149.783493,225.997070 143.620834,234.791794 
	C142.657822,236.166092 141.744888,237.575470 139.905640,240.312775 
	C138.593506,236.582092 137.522232,234.391190 137.069366,232.079147 
	C135.961914,226.425476 135.341476,220.673737 134.162399,215.037308 
	C131.581512,202.699753 128.368561,190.481552 126.166229,178.080978 
	C123.507561,163.110931 116.021225,150.720596 106.540443,139.431778 
	C103.812584,136.183716 99.541779,133.695175 95.482819,132.259338 
	C91.777496,130.948608 91.283630,129.709564 92.307915,126.254524 
	C96.108948,113.433113 97.177711,100.370659 92.900795,87.535568 
	C91.631134,83.725304 87.974495,80.710434 85.179977,77.171021 
	C85.179977,77.171021 84.980690,76.972107 84.991577,76.182739 
	C83.398811,72.442940 81.450478,68.810547 80.282135,64.942558 
	C77.184380,54.686920 70.405266,50.240715 60.058468,52.118992 
	C54.367012,53.152172 50.532070,58.910568 52.124657,64.704704 
	C52.074493,65.141243 52.024330,65.577789 51.351768,66.258987 
	C51.112740,66.481888 50.690571,66.683037 50.661156,66.930824 
	C49.609734,75.787209 58.102615,84.143356 66.770348,82.427742 
	C70.340607,81.721069 72.574364,82.611504 74.147522,85.679565 
	C75.130524,87.596695 76.189392,89.490929 76.979187,91.488373 
	C80.555092,100.532104 79.013649,109.796295 77.570190,119.692299 
	C77.462730,121.968285 77.355270,124.244270 77.321220,127.020370 
	C77.248421,127.347656 77.175621,127.674942 76.366318,128.126450 
	C73.441963,129.194916 70.847786,128.957886 70.206268,125.420837 
	C68.622734,116.689903 63.914627,109.897552 57.537472,104.074547 
	C54.756130,101.534904 52.600662,98.924255 52.798855,94.703354 
	C52.876629,93.047012 51.352097,91.192513 50.270107,89.626701 
	C46.367332,83.978745 40.767059,84.142128 34.749722,84.928139 
	C30.202908,85.522064 27.516228,87.151436 27.893015,92.528465 
	C27.740383,92.772720 27.547565,92.979492 26.539658,93.251137 
	C26.090740,93.458099 25.410564,93.543114 25.227509,93.890266 
	C22.387413,99.276375 24.381821,104.401199 26.936895,108.979134 
	C28.833139,112.376633 32.037804,114.949623 36.731106,114.147743 
	C40.994766,113.419281 45.209503,113.807541 48.006878,117.613258 
	C50.336613,120.782776 52.507122,124.144318 54.207916,127.680641 
	C56.009136,131.425766 55.078167,134.287720 51.108875,136.778671 
	C44.892277,140.679932 39.153698,145.357361 33.304958,149.826843 
	C25.028606,156.151443 25.468193,168.824020 29.154440,175.375687 
	C33.930706,183.864685 39.652073,191.821930 45.265503,200.392059 
	C45.480633,200.637177 45.721233,200.854034 46.274250,201.661331 
	C46.522015,202.760178 46.769779,203.859039 47.148129,205.639252 
	C48.104961,207.434006 49.061798,209.228745 50.019478,211.760193 
	C50.019108,212.496872 50.018734,213.233566 50.124786,214.597412 
	C50.755333,215.403122 51.385880,216.208832 52.024796,217.486969 
	C52.024796,217.486969 52.024288,217.959427 52.162853,218.746017 
	C53.120827,221.840363 54.078800,224.934708 55.135509,228.577225 
	C55.413116,229.051559 55.690723,229.525909 55.878483,230.626068 
	C56.249660,231.763779 56.620838,232.901489 56.999241,234.680435 
	C57.001453,235.107941 57.003666,235.535461 57.028168,236.628265 
	C57.347633,237.428345 57.667099,238.228424 57.995079,239.849838 
	C58.008335,241.218719 58.021587,242.587601 58.049755,244.624985 
	C58.375156,245.426422 58.700562,246.227875 59.182190,247.812912 
	C59.466782,250.528809 59.751377,253.244690 60.130692,256.540955 
	C60.428444,257.036865 60.726200,257.532745 61.026104,258.672485 
	C61.024269,259.101715 61.022430,259.530945 61.055405,260.634613 
	C61.689976,261.437439 62.324543,262.240295 62.970497,263.829285 
	C62.980560,264.877655 62.990623,265.925995 62.688381,267.336975 
	C62.798046,267.898132 62.907707,268.459259 63.034073,269.837128 
	C63.363533,272.546295 63.692993,275.255432 64.051910,278.702148 
	C64.709404,280.474030 65.366898,282.245911 66.025093,284.805237 
	C65.922798,287.477203 66.268845,289.840088 69.833008,290.707184 
	C69.879555,291.125702 69.926102,291.544220 69.339790,292.229767 
	C68.903198,293.476105 68.466614,294.722412 68.063911,296.641815 
	C68.703964,297.436493 69.344009,298.231171 70.002373,299.804291 
	C71.007042,304.524597 72.011703,309.244873 73.169197,314.549561 
	C73.756729,315.035797 74.344254,315.522003 74.963669,316.661926 
	C74.972382,317.097778 74.981102,317.533630 74.656410,318.504974 
	C75.433151,320.342316 76.209892,322.179626 76.996384,324.668213 
	C77.000809,325.102570 77.005234,325.536896 76.675522,326.455750 
	C77.450462,327.641235 78.225403,328.826752 79.537018,330.040863 
	C79.892647,330.063751 80.248268,330.086609 80.848366,330.761688 
	C80.978653,331.675934 81.108940,332.590179 81.107620,334.242950 
	C81.071823,334.488983 81.036026,334.734985 80.592583,335.556946 
	C79.875839,339.723236 81.267937,342.907745 85.007637,345.663086 
	C85.025101,346.100311 85.042564,346.537537 85.277359,347.618286 
z"/>
<path fill="#F8B230" opacity="1.000000" stroke="none" 
	d="
M183.130524,393.253235 
	C179.686035,393.476410 176.241547,393.699585 172.328735,393.672546 
	C171.822830,393.256714 171.785263,393.091003 171.786072,392.556610 
	C168.282562,381.888336 164.607315,371.632324 161.227509,361.279846 
	C154.865845,341.793945 155.905167,321.823853 158.922150,302.080109 
	C160.756836,290.073669 164.519608,278.456940 169.899017,267.194916 
	C175.113327,256.278534 180.935944,246.148361 189.044113,237.240829 
	C190.047241,236.138809 190.253479,234.311401 191.026459,232.552673 
	C201.257629,221.681763 213.231628,214.028976 227.184570,209.024902 
	C228.970230,209.219528 230.484375,209.554321 231.841949,209.231247 
	C236.503235,208.121948 241.041428,206.182892 245.750275,205.646530 
	C258.193359,204.229172 270.720642,203.870132 282.534119,209.027573 
	C289.761993,212.183060 296.734894,215.938736 303.743073,219.577545 
	C314.874268,225.357132 323.252167,234.236328 330.583374,244.155289 
	C336.987122,252.819321 342.078461,262.102448 346.362946,272.143463 
	C350.846558,282.651154 354.286346,293.311401 355.780304,304.395996 
	C357.187195,314.834869 356.808228,325.526855 357.018707,336.111420 
	C357.286713,349.590698 353.154327,362.288788 349.500366,375.012390 
	C347.832672,380.819489 345.173187,386.341766 342.547638,391.999756 
	C337.453644,392.494965 334.189850,390.814636 333.028168,385.660858 
	C333.743439,383.211395 334.385803,381.123566 335.349304,378.916138 
	C337.945496,376.638123 339.961304,374.402557 338.008881,370.620178 
	C338.056824,369.535065 338.092651,368.811768 338.362396,368.002991 
	C338.712769,367.274567 338.829224,366.631653 338.973175,365.650757 
	C339.342987,363.215912 339.685333,361.119080 340.310730,358.926575 
	C340.676636,357.883301 340.759430,356.935730 340.865051,355.521912 
	C340.983917,349.734741 341.079926,344.413788 341.474060,338.923218 
	C341.559967,336.808411 341.347748,334.863159 341.117981,332.496826 
	C341.053986,330.389160 341.007507,328.702545 341.166656,326.763062 
	C340.954773,325.315155 340.537292,324.120117 340.096527,322.606323 
	C340.046570,321.862183 340.019897,321.436829 340.200928,320.734924 
	C339.964569,318.952271 339.520569,317.446198 339.031525,315.557281 
	C337.039551,308.328705 335.535431,301.317596 333.053986,294.671417 
	C327.800751,280.601318 318.874420,269.059235 308.136200,258.558960 
	C299.244537,249.864319 288.710449,245.075241 277.003723,241.673157 
	C276.277771,241.283630 275.632660,241.132141 274.676666,240.957169 
	C273.951691,240.897171 273.537598,240.860657 272.999207,240.562851 
	C271.912506,240.197083 270.950134,240.092621 269.665161,239.978500 
	C268.912506,239.957214 268.482391,239.945587 267.868591,239.594147 
	C262.035828,238.858383 256.390076,238.378891 250.734222,238.153030 
	C249.846222,238.117599 248.912308,239.232697 247.602875,239.850815 
	C246.145248,239.934982 245.084351,239.984131 243.797440,239.845093 
	C242.678192,240.057236 241.784988,240.457581 240.510345,240.904037 
	C226.196625,245.022034 213.065292,250.452805 203.391403,262.002808 
	C200.765518,265.137939 197.817551,268.003357 194.766968,271.050354 
	C194.324966,271.746033 194.133438,272.383942 193.942566,273.395660 
	C194.013580,274.263458 194.083923,274.757385 194.024246,275.469971 
	C193.583832,276.091309 193.273438,276.494049 192.649750,276.931458 
	C191.578384,277.321533 190.820312,277.676971 189.731430,278.119263 
	C188.315765,280.178558 187.230927,282.151001 186.108826,284.532837 
	C186.094223,286.040985 186.116882,287.139771 186.096375,288.401459 
	C186.053207,288.564331 185.924911,288.875946 185.572357,288.923859 
	C184.144653,290.331421 182.683746,291.534027 182.056107,293.075867 
	C177.511505,304.240021 173.482071,315.554138 173.496170,328.091492 
	C172.934509,334.800568 172.653961,341.301025 172.538742,347.804443 
	C172.530792,348.252716 173.756363,348.722839 174.491577,349.474945 
	C174.608597,350.170288 174.642319,350.573547 174.483078,351.300537 
	C174.209946,353.406403 174.129776,355.188507 173.861084,357.195465 
	C174.044907,358.321014 174.417267,359.221710 174.813538,360.508728 
	C174.883316,361.926086 174.929199,362.957153 174.832886,364.184601 
	C175.064850,364.967987 175.439011,365.554993 175.841156,366.522858 
	C175.941223,367.919342 176.013321,368.934967 176.067276,370.340820 
	C176.977417,372.867523 177.905731,375.003998 178.875580,377.494324 
	C179.283279,379.221405 179.649460,380.594604 180.008469,382.326935 
	C180.618820,383.823761 181.236343,384.961456 182.053223,386.282043 
	C182.577469,386.613892 182.902344,386.762848 183.306580,387.069641 
	C183.385941,387.227448 183.456604,387.573608 183.326019,388.035217 
	C183.173798,390.082306 183.152161,391.667786 183.130524,393.253235 
z"/>
<path fill="#5E9C6A" opacity="1.000000" stroke="none" 
	d="
M185.924911,288.875946 
	C185.924911,288.875946 186.053207,288.564331 186.409393,288.263611 
	C188.831406,284.274231 190.897232,280.585510 192.963043,276.896790 
	C193.273438,276.494049 193.583832,276.091309 194.337067,275.341614 
	C202.859741,267.445435 210.538391,259.396912 219.134476,252.490234 
	C227.403122,245.846649 237.834793,243.505127 248.480743,241.051819 
	C254.300140,241.017868 259.653320,241.001221 265.319916,241.204071 
	C288.407837,244.762085 306.296509,256.550232 318.999451,275.126160 
	C341.547333,308.098694 344.805420,343.926239 331.847656,381.454163 
	C330.437561,385.538055 329.025391,389.621246 327.614197,393.704773 
	C324.602844,394.391266 321.593353,395.666077 318.579895,395.675476 
	C277.161072,395.805084 235.741699,395.771881 194.322510,395.725098 
	C192.201096,395.722687 190.080231,395.236328 187.546402,394.545258 
	C187.042969,393.782654 186.952240,393.450073 186.825195,392.776855 
	C185.678116,390.815399 184.567368,389.194489 183.456604,387.573608 
	C183.456604,387.573608 183.385941,387.227448 183.311584,386.741333 
	C183.125320,385.832764 183.013428,385.410309 182.877472,384.709045 
	C182.602524,383.940735 182.351669,383.451233 182.106567,382.564026 
	C180.044617,374.447754 177.976929,366.729279 175.903839,358.687439 
	C175.798676,357.945648 175.698914,357.527222 175.680527,356.706604 
	C175.399948,354.528564 175.038010,352.752655 174.676056,350.976776 
	C174.642319,350.573547 174.608597,350.170288 174.647369,349.010254 
	C174.782501,342.167175 174.845139,336.080963 175.045044,329.615784 
	C176.626968,322.151672 177.762222,314.984650 179.606705,308.005127 
	C181.319244,301.524719 183.788712,295.244385 185.924911,288.875946 
M302.926178,261.525574 
	C295.799683,255.431290 287.893890,250.561646 278.892303,247.951416 
	C272.565582,246.116837 266.022797,244.677750 259.480164,244.020172 
	C249.905090,243.057816 241.028381,245.890579 232.041138,249.435074 
	C217.576218,255.139893 206.380493,264.359131 197.525131,276.808014 
	C190.261322,287.019501 185.589279,298.359344 181.775879,310.299011 
	C177.086838,324.980316 177.006180,339.876190 178.585129,354.728271 
	C179.692963,365.148682 181.905579,375.491638 187.281860,385.106812 
	C189.734924,389.493958 191.629852,391.170868 196.419739,391.153839 
	C236.054413,391.012787 275.689789,391.077759 315.324982,391.071716 
	C325.243469,391.070221 325.459625,391.135620 328.980499,381.594269 
	C332.488159,372.088806 334.539154,362.312195 335.577240,352.093811 
	C337.875000,329.476440 334.256042,307.940582 323.903290,288.083984 
	C318.879089,278.447479 310.407135,270.608551 302.926178,261.525574 
z"/>
<path fill="#9C9E3C" opacity="1.000000" stroke="none" 
	d="
M85.411613,77.331100 
	C87.974495,80.710434 91.631134,83.725304 92.900795,87.535568 
	C97.177711,100.370659 96.108948,113.433113 92.307915,126.254524 
	C91.283630,129.709564 91.777496,130.948608 95.482819,132.259338 
	C99.541779,133.695175 103.812584,136.183716 106.540443,139.431778 
	C116.021225,150.720596 123.507561,163.110931 126.166229,178.080978 
	C128.368561,190.481552 131.581512,202.699753 134.162399,215.037308 
	C135.341476,220.673737 135.961914,226.425476 137.069366,232.079147 
	C137.522232,234.391190 138.593506,236.582092 139.905640,240.312775 
	C141.744888,237.575470 142.657822,236.166092 143.620834,234.791794 
	C149.783493,225.997070 155.286423,216.622986 162.318817,208.588181 
	C169.137024,200.798080 176.849167,193.382233 185.383835,187.593597 
	C199.971664,177.699463 215.235413,168.558670 233.534012,166.951614 
	C233.865372,166.922531 234.262787,166.977112 234.515259,166.814972 
	C243.858078,160.814484 253.921295,165.687103 263.549866,165.412048 
	C273.289062,165.133835 283.213104,167.701324 292.881531,169.819565 
	C299.550018,171.280579 305.993439,173.913086 312.389099,176.403061 
	C314.869843,177.368881 316.907562,179.437653 319.206818,180.910797 
	C328.968933,187.165482 338.288605,194.071564 345.999268,202.719177 
	C353.352325,210.965744 360.446167,219.542007 366.749725,228.602417 
	C375.885925,241.734314 380.913483,256.778259 385.338623,272.079895 
	C390.007355,288.223785 391.763489,304.667267 390.811676,321.284576 
	C390.198120,331.996155 388.004639,342.624054 386.364105,353.265533 
	C385.916107,356.171722 386.185730,357.766663 389.213989,359.581940 
	C401.501099,366.947540 413.456421,374.868622 425.477386,382.672241 
	C426.442078,383.298492 426.975128,384.589661 427.328278,385.877869 
	C425.471558,385.467834 423.929260,384.861450 422.529297,384.018646 
	C409.383270,376.104187 396.261566,368.149323 383.109558,359.853882 
	C383.151947,358.339905 382.998749,357.114288 383.316132,356.025909 
	C388.237122,339.150787 389.272430,321.773956 387.718048,304.524872 
	C386.473969,290.719025 384.118378,276.689331 379.784241,263.575989 
	C375.342560,250.137436 368.493347,237.355652 361.510315,224.955154 
	C358.066223,218.839127 351.945526,214.230362 346.917633,208.656708 
	C346.109009,207.647720 345.418732,206.921570 344.742523,205.843735 
	C342.437805,203.431152 340.119019,201.370255 337.615448,199.218079 
	C337.430664,199.126801 337.062256,198.941925 337.010498,198.603012 
	C335.885101,197.029556 334.975433,195.586777 333.712769,194.592163 
	C318.117096,182.307846 300.950928,173.435638 281.273285,169.489639 
	C247.114120,162.639664 216.004547,169.747711 187.476730,189.201508 
	C169.250397,201.630463 155.816147,218.303940 145.187256,237.457565 
	C143.234192,240.977066 140.458008,244.039810 137.909088,246.934067 
	C135.151672,233.352219 132.871475,220.075027 129.855057,206.967239 
	C126.542809,192.573944 123.384323,178.052658 118.624146,164.111145 
	C113.831367,150.074142 105.271408,138.468185 90.320152,133.107758 
	C89.423805,132.786392 88.539993,130.107773 88.911530,128.920776 
	C94.446838,111.236450 95.136101,93.951157 85.411613,77.331100 
z"/>
<path fill="#5F4F13" opacity="1.000000" stroke="none" 
	d="
M85.295792,77.251060 
	C95.136101,93.951157 94.446838,111.236450 88.911530,128.920776 
	C88.539993,130.107773 89.423805,132.786392 90.320152,133.107758 
	C105.271408,138.468185 113.831367,150.074142 118.624146,164.111145 
	C123.384323,178.052658 126.542809,192.573944 129.855057,206.967239 
	C132.871475,220.075027 135.151672,233.352219 137.881424,247.220398 
	C137.959808,248.273941 137.913162,248.661850 137.489853,249.019882 
	C134.332550,248.892700 133.976440,247.246246 134.232742,244.886627 
	C134.421265,243.151047 134.367371,241.316467 134.020447,239.607422 
	C132.081802,230.057053 130.002289,220.535370 128.008026,210.996140 
	C126.452942,203.557617 125.538956,195.924591 123.286018,188.707001 
	C120.097359,178.491699 115.913727,168.588348 112.201180,158.534760 
	C108.708786,149.077301 102.609161,142.147949 93.205376,138.145386 
	C90.067833,136.809952 87.196190,134.849777 84.088005,133.110855 
	C88.369980,122.524048 91.085930,112.068291 89.903755,101.099487 
	C89.055420,93.228210 87.944519,85.501152 82.032814,79.047150 
	C78.378731,75.057861 75.871941,69.740433 73.831505,64.627579 
	C71.750519,59.413113 68.321396,56.325443 63.591297,57.344994 
	C58.395962,58.464832 54.959660,63.102867 56.159668,68.592346 
	C57.550190,74.953362 59.322174,76.614265 66.007660,76.444229 
	C69.296860,76.360573 73.292854,77.671921 75.825912,79.747231 
	C81.103165,84.070808 84.908585,89.574539 84.201324,97.147575 
	C84.046860,98.801537 85.363205,100.561836 85.843048,102.316673 
	C86.178017,103.541656 86.652832,104.946022 86.360085,106.089790 
	C84.420052,113.669388 82.372932,121.224518 80.186684,128.736969 
	C79.038399,132.682770 76.157227,134.865143 72.047325,134.899399 
	C67.824486,134.934631 66.350273,132.012314 64.964058,128.429642 
	C63.215103,123.909485 60.637814,119.702301 58.326073,115.409523 
	C56.013664,111.115509 53.588089,106.882454 51.529640,102.752991 
	C60.288658,109.432915 65.569191,118.032188 68.591827,128.202606 
	C69.062210,129.785339 70.491508,132.070297 71.720932,132.237274 
	C74.381859,132.598679 77.124260,131.705063 77.102829,128.002228 
	C77.175621,127.674942 77.248421,127.347656 77.573792,126.555405 
	C78.245544,124.761528 78.664719,123.432617 79.044937,122.055855 
	C79.005981,122.008003 79.103157,122.081985 79.293335,121.861282 
	C79.633308,121.085358 79.783112,120.530128 80.103348,119.622810 
	C80.674759,117.492310 81.216743,115.732445 81.453629,113.932442 
	C82.895180,102.978676 82.480362,92.374031 75.444542,83.049889 
	C73.331123,80.249100 71.043266,78.628502 67.090591,78.969734 
	C57.606022,79.788536 53.159943,75.730835 51.974167,66.014328 
	C52.024330,65.577789 52.074493,65.141243 52.321472,64.102234 
	C53.320564,62.059814 53.932041,60.463284 54.961075,59.209446 
	C57.985561,55.524239 61.829060,53.501217 66.729897,54.483253 
	C71.844963,55.508213 76.257515,58.361542 76.693130,63.556858 
	C77.218788,69.826134 81.306030,73.086685 84.980690,76.972107 
	C84.980690,76.972107 85.179977,77.171021 85.295792,77.251060 
z"/>
<path fill="#5E4B12" opacity="1.000000" stroke="none" 
	d="
M69.972649,291.962738 
	C69.926102,291.544220 69.879555,291.125702 69.802193,290.021149 
	C69.001793,287.085419 68.232201,284.835754 67.454674,282.206787 
	C67.277863,280.556335 67.108994,279.285126 66.977310,277.589905 
	C66.004036,272.111450 64.993568,267.056976 63.988804,261.671967 
	C63.917278,260.908966 63.840038,260.476532 63.778854,259.638245 
	C62.842945,254.829697 61.890976,250.426971 60.924866,245.689545 
	C60.797997,244.923569 60.685265,244.492294 60.631905,243.669586 
	C59.631565,239.319992 58.571857,235.361816 57.547611,231.191742 
	C57.592072,230.681885 57.582512,230.384521 57.652893,229.778854 
	C57.203655,227.632401 56.655922,225.794861 56.111145,223.558197 
	C55.923412,222.112885 55.732723,221.066696 55.563202,219.650574 
	C54.171692,215.418304 52.759018,211.555969 51.283691,207.342850 
	C49.443687,203.808228 47.743896,200.577988 45.873871,197.449539 
	C41.017784,189.325577 35.464535,181.548492 31.348370,173.070343 
	C26.548960,163.184906 28.470894,156.696808 37.287785,149.915451 
	C42.654953,145.787399 48.470528,142.155975 54.406055,138.884567 
	C58.163929,136.813385 59.966553,134.314178 57.967182,130.550201 
	C54.819027,124.623558 51.327312,118.845512 47.500942,113.338120 
	C46.603794,112.046837 43.721970,111.448708 41.862728,111.633484 
	C34.819393,112.333496 31.199492,110.562248 28.130096,104.020966 
	C28.635689,103.995117 28.837502,103.983902 29.367661,104.084290 
	C33.964657,106.407883 37.613663,110.057625 43.312614,108.567474 
	C44.902992,108.151634 47.247829,109.987366 49.044571,111.112709 
	C54.554539,114.563721 56.928032,120.237877 59.652679,125.826469 
	C63.632904,133.990402 62.111679,137.749908 54.151360,142.294937 
	C47.217930,146.253647 41.028194,151.530212 34.611649,156.359711 
	C33.799248,156.971176 33.554737,158.383713 33.131706,159.458435 
	C30.161308,167.004761 33.938026,173.029434 37.684696,178.984192 
	C42.454155,186.564529 48.548958,193.560211 51.945778,201.695862 
	C56.900330,213.562393 60.488274,226.085739 63.661625,238.582321 
	C66.180779,248.502670 66.838821,258.880585 68.974045,268.916870 
	C72.521576,285.591522 76.226234,302.251282 80.569016,318.731720 
	C83.476601,329.765747 86.922783,340.706909 94.162735,350.055786 
	C96.386887,352.927795 96.293816,357.591248 98.512024,360.471527 
	C108.154404,372.991791 118.916832,384.169891 135.545364,387.247101 
	C137.518478,387.612305 139.196884,389.570068 140.597702,390.845764 
	C125.049500,389.517395 112.934456,382.359680 103.148880,371.096558 
	C99.264359,366.625549 95.966789,361.644592 92.316254,356.545166 
	C91.259094,354.624390 90.287651,353.054230 89.302742,351.349060 
	C89.289276,351.214081 89.175827,350.967590 89.175827,350.967590 
	C88.983192,350.430573 88.790558,349.893555 88.346962,348.861694 
	C87.818726,347.874451 87.541451,347.382111 87.204926,346.549377 
	C86.512329,345.286469 85.878967,344.363983 85.268417,343.107849 
	C84.646629,341.158478 84.002029,339.542694 83.201103,337.634277 
	C82.716103,337.052094 82.387421,336.762543 82.155045,336.235138 
	C82.218117,335.659241 82.184875,335.321228 82.061554,334.702118 
	C81.727402,334.115509 81.483322,333.809967 81.239235,333.504425 
	C81.108940,332.590179 80.978653,331.675934 80.743149,330.074524 
	C79.791069,327.249207 78.944206,325.111053 78.079163,322.605438 
	C77.607269,320.846191 77.153557,319.454407 76.714676,317.773254 
	C76.456871,316.990814 76.184242,316.497681 75.918228,315.674255 
	C75.834679,314.914703 75.744537,314.485474 75.655609,313.678284 
	C73.762100,306.187805 71.867371,299.075256 69.972649,291.962738 
z"/>
<path fill="#BCB459" opacity="1.000000" stroke="none" 
	d="
M327.984619,393.724518 
	C329.025391,389.621246 330.437561,385.538055 331.847656,381.454163 
	C344.805420,343.926239 341.547333,308.098694 318.999451,275.126160 
	C306.296509,256.550232 288.407837,244.762085 265.574280,240.997894 
	C266.360901,240.359467 267.206604,240.146713 268.052307,239.933960 
	C268.482391,239.945587 268.912506,239.957214 269.926422,240.189148 
	C271.381348,240.547684 272.252411,240.685913 273.123505,240.824158 
	C273.537598,240.860657 273.951691,240.897171 274.891266,241.161255 
	C275.972687,241.562958 276.528595,241.737076 277.084534,241.911209 
	C288.710449,245.075241 299.244537,249.864319 308.136200,258.558960 
	C318.874420,269.059235 327.800751,280.601318 333.053986,294.671417 
	C335.535431,301.317596 337.039551,308.328705 339.001892,315.942444 
	C339.342590,318.144135 339.667908,319.577820 339.993225,321.011505 
	C340.019897,321.436829 340.046570,321.862183 340.063049,322.969177 
	C340.355560,324.772522 340.658295,325.894257 340.960999,327.015961 
	C341.007507,328.702545 341.053986,330.389160 341.074646,332.937500 
	C341.091187,335.563782 341.133545,337.328278 341.175903,339.092804 
	C341.079926,344.413788 340.983917,349.734741 340.681335,355.784058 
	C340.325775,357.348999 340.176727,358.185608 340.027679,359.022247 
	C339.685333,361.119080 339.342987,363.215912 338.782715,365.870026 
	C338.419342,366.981049 338.273926,367.534790 338.128479,368.088501 
	C338.092651,368.811768 338.056824,369.535065 337.780579,370.888153 
	C336.702850,374.023895 335.865509,376.529816 335.028168,379.035736 
	C334.385803,381.123566 333.743439,383.211395 332.797913,385.909546 
	C331.362152,388.929169 330.229553,391.338501 329.096985,393.747803 
	C328.849670,393.746613 328.602356,393.745453 327.984619,393.724518 
z"/>
<path fill="#919E36" opacity="1.000000" stroke="none" 
	d="
M27.826317,104.035599 
	C31.199492,110.562248 34.819393,112.333496 41.862728,111.633484 
	C43.721970,111.448708 46.603794,112.046837 47.500942,113.338120 
	C51.327312,118.845512 54.819027,124.623558 57.967182,130.550201 
	C59.966553,134.314178 58.163929,136.813385 54.406055,138.884567 
	C48.470528,142.155975 42.654953,145.787399 37.287785,149.915451 
	C28.470894,156.696808 26.548960,163.184906 31.348370,173.070343 
	C35.464535,181.548492 41.017784,189.325577 45.873871,197.449539 
	C47.743896,200.577988 49.443687,203.808228 51.187569,207.425766 
	C51.154095,207.859451 50.961964,208.025406 50.701897,207.840302 
	C49.300400,206.756088 48.158970,205.856995 47.017544,204.957886 
	C46.769779,203.859039 46.522015,202.760178 45.992874,201.149323 
	C45.500683,200.383179 45.252373,200.173447 44.966568,200.008102 
	C39.652073,191.821930 33.930706,183.864685 29.154440,175.375687 
	C25.468193,168.824020 25.028606,156.151443 33.304958,149.826843 
	C39.153698,145.357361 44.892277,140.679932 51.108875,136.778671 
	C55.078167,134.287720 56.009136,131.425766 54.207916,127.680641 
	C52.507122,124.144318 50.336613,120.782776 48.006878,117.613258 
	C45.209503,113.807541 40.994766,113.419281 36.731106,114.147743 
	C32.037804,114.949623 28.833139,112.376633 26.936895,108.979134 
	C24.381821,104.401199 22.387413,99.276375 25.227509,93.890266 
	C25.410564,93.543114 26.090740,93.458099 26.879906,93.581917 
	C27.153965,94.941132 27.087774,95.969559 26.837883,97.281906 
	C27.044897,99.722404 27.435608,101.879005 27.826317,104.035599 
z"/>
<path fill="#605114" opacity="1.000000" stroke="none" 
	d="
M383.132874,360.206085 
	C396.261566,368.149323 409.383270,376.104187 422.529297,384.018646 
	C423.929260,384.861450 425.471558,385.467834 427.288208,386.241516 
	C427.628571,386.299164 427.805084,386.260376 427.834656,386.448792 
	C428.221924,387.024536 428.579620,387.411835 428.937286,387.799164 
	C429.521332,388.131256 430.105347,388.463318 430.871826,389.272217 
	C430.726776,390.282013 430.399292,390.814972 429.604370,391.270844 
	C420.424591,391.201172 411.712280,391.208618 402.668152,391.158936 
	C401.891022,391.140350 401.445648,391.178802 400.535522,391.153687 
	C392.715363,391.139679 385.359985,391.189240 377.591553,391.163422 
	C375.794678,390.932556 374.410828,390.777008 373.206329,390.329956 
	C374.286835,389.692078 375.177277,389.076782 376.090698,389.040588 
	C386.040466,388.646271 395.992523,388.292999 405.946747,388.035675 
	C410.751068,387.911469 415.561249,388.014252 421.030090,388.014252 
	C420.217346,386.649994 419.988953,385.731049 419.415192,385.385468 
	C413.027374,381.537872 406.403931,378.051849 400.211487,373.917877 
	C394.229095,369.924103 388.676086,365.287109 382.967041,360.746338 
	C382.999542,360.560028 383.132874,360.206085 383.132874,360.206085 
z"/>
<path fill="#919E36" opacity="1.000000" stroke="none" 
	d="
M76.734573,128.064331 
	C77.124260,131.705063 74.381859,132.598679 71.720932,132.237274 
	C70.491508,132.070297 69.062210,129.785339 68.591827,128.202606 
	C65.569191,118.032188 60.288658,109.432915 51.511139,102.432068 
	C51.098637,101.331261 51.022148,100.681694 50.998108,99.623154 
	C49.806622,96.416229 48.562691,93.618279 47.164173,90.549713 
	C46.179344,89.748421 45.349106,89.217743 44.223701,88.426193 
	C40.665096,86.831078 37.421898,85.799400 34.115807,88.804504 
	C31.879944,89.920334 29.976683,91.031166 28.073421,92.142006 
	C27.516228,87.151436 30.202908,85.522064 34.749722,84.928139 
	C40.767059,84.142128 46.367332,83.978745 50.270107,89.626701 
	C51.352097,91.192513 52.876629,93.047012 52.798855,94.703354 
	C52.600662,98.924255 54.756130,101.534904 57.537472,104.074547 
	C63.914627,109.897552 68.622734,116.689903 70.206268,125.420837 
	C70.847786,128.957886 73.441963,129.194916 76.734573,128.064331 
z"/>
<path fill="#9C9E3C" opacity="1.000000" stroke="none" 
	d="
M51.662964,66.136658 
	C53.159943,75.730835 57.606022,79.788536 67.090591,78.969734 
	C71.043266,78.628502 73.331123,80.249100 75.444542,83.049889 
	C82.480362,92.374031 82.895180,102.978676 81.453629,113.932442 
	C81.216743,115.732445 80.674759,117.492310 79.865433,119.504700 
	C78.980751,119.502129 78.504410,119.265564 78.028076,119.029007 
	C79.013649,109.796295 80.555092,100.532104 76.979187,91.488373 
	C76.189392,89.490929 75.130524,87.596695 74.147522,85.679565 
	C72.574364,82.611504 70.340607,81.721069 66.770348,82.427742 
	C58.102615,84.143356 49.609734,75.787209 50.661156,66.930824 
	C50.690571,66.683037 51.112740,66.481888 51.662964,66.136658 
z"/>
<path fill="#94A436" opacity="1.000000" stroke="none" 
	d="
M92.401978,356.895813 
	C95.966789,361.644592 99.264359,366.625549 103.148880,371.096558 
	C112.934456,382.359680 125.049500,389.517395 140.914429,390.945374 
	C142.068481,391.113403 142.491623,391.237915 142.820923,391.569366 
	C142.826508,392.500641 142.925919,393.225006 143.025345,393.949341 
	C119.043098,393.753601 99.914619,375.808533 90.347191,356.493469 
	C91.210304,356.475494 91.806145,356.685669 92.401978,356.895813 
z"/>
<path fill="#9C9E3C" opacity="1.000000" stroke="none" 
	d="
M84.986130,76.577423 
	C81.306030,73.086685 77.218788,69.826134 76.693130,63.556858 
	C76.257515,58.361542 71.844963,55.508213 66.729897,54.483253 
	C61.829060,53.501217 57.985561,55.524239 54.961075,59.209446 
	C53.932041,60.463284 53.320564,62.059814 52.317200,63.772339 
	C50.532070,58.910568 54.367012,53.152172 60.058468,52.118992 
	C70.405266,50.240715 77.184380,54.686920 80.282135,64.942558 
	C81.450478,68.810547 83.398811,72.442940 84.986130,76.577423 
z"/>
<path fill="#AE8E4C" opacity="1.000000" stroke="none" 
	d="
M143.366547,394.126251 
	C142.925919,393.225006 142.826508,392.500641 143.043213,391.449829 
	C143.517792,391.069977 143.676285,391.016632 144.154114,391.011322 
	C152.314194,393.674347 160.226578,393.990540 168.487122,391.978088 
	C169.753983,392.412903 170.750839,392.669098 171.747681,392.925293 
	C171.785263,393.091003 171.822830,393.256714 171.892914,393.674133 
	C170.368683,394.900574 168.814224,396.701355 167.254807,396.705627 
	C160.798523,396.723389 154.335037,396.276947 147.887985,395.810303 
	C146.465668,395.707336 145.099686,394.826019 143.366547,394.126251 
z"/>
<path fill="#95A736" opacity="1.000000" stroke="none" 
	d="
M402.999939,391.216034 
	C411.712280,391.208618 420.424591,391.201172 429.597229,391.413879 
	C430.057495,391.634003 430.062347,391.923309 430.062347,391.923279 
	C428.392151,392.611267 426.738312,393.841766 425.048950,393.892670 
	C418.005829,394.105072 410.951965,393.962585 403.439880,393.597382 
	C402.985107,392.568390 402.992523,391.892212 402.999939,391.216034 
z"/>
<path fill="#95A736" opacity="1.000000" stroke="none" 
	d="
M378.004578,391.238770 
	C385.359985,391.189240 392.715363,391.139679 400.537659,391.490173 
	C401.016296,392.566681 401.028046,393.243134 401.039795,393.919617 
	C393.659393,393.928192 386.278961,393.936768 378.437317,393.594971 
	C377.985596,392.576019 377.995087,391.907379 378.004578,391.238770 
z"/>
<path fill="#D5B537" opacity="1.000000" stroke="none" 
	d="
M329.414032,394.005676 
	C330.229553,391.338501 331.362152,388.929169 332.724976,386.271179 
	C334.189850,390.814636 337.453644,392.494965 342.871887,392.039612 
	C344.041870,392.136383 344.471802,392.199921 344.916321,392.594421 
	C344.922760,393.598450 344.914581,394.271515 344.662292,394.948975 
	C344.418213,394.953369 343.932098,394.999084 343.932098,394.999084 
	C339.198425,394.753906 334.464752,394.508728 329.414032,394.005676 
z"/>
<path fill="#919E36" opacity="1.000000" stroke="none" 
	d="
M69.656219,292.096252 
	C71.867371,299.075256 73.762100,306.187805 75.328644,313.666138 
	C74.339104,314.009705 73.677742,313.987457 73.016373,313.965210 
	C72.011703,309.244873 71.007042,304.524597 69.974670,299.078613 
	C69.307991,297.558197 68.669014,296.763458 68.030029,295.968750 
	C68.466614,294.722412 68.903198,293.476105 69.656219,292.096252 
z"/>
<path fill="#919E36" opacity="1.000000" stroke="none" 
	d="
M63.983093,262.002502 
	C64.993568,267.056976 66.004036,272.111450 66.612991,277.585876 
	C65.481796,277.992065 64.752129,277.978333 64.022453,277.964600 
	C63.692993,275.255432 63.363533,272.546295 63.179955,269.247314 
	C63.217457,268.096466 63.109070,267.535400 63.000687,266.974365 
	C62.990623,265.925995 62.980560,264.877655 63.112946,263.240295 
	C63.464931,262.397980 63.707497,262.181702 63.983093,262.002502 
z"/>
<path fill="#AD9548" opacity="1.000000" stroke="none" 
	d="
M366.016235,396.041534 
	C362.314209,396.034149 358.612183,396.026764 354.437927,395.730225 
	C353.948181,395.057922 353.930695,394.674774 354.376099,394.211243 
	C360.046356,393.669342 365.656250,395.145996 370.337646,390.989288 
	C370.584808,391.015747 371.060699,391.159576 371.181030,391.391357 
	C371.543335,392.086823 371.785339,392.550507 372.027344,393.014191 
	C371.183777,393.854584 370.340179,394.694946 369.011780,395.530518 
	C367.690094,395.697693 366.853149,395.869629 366.016235,396.041534 
z"/>
<path fill="#919E36" opacity="1.000000" stroke="none" 
	d="
M60.939011,246.024246 
	C61.890976,250.426971 62.842945,254.829697 63.438141,259.628357 
	C62.394444,260.002899 61.707520,259.981537 61.020592,259.960175 
	C61.022430,259.530945 61.024269,259.101715 61.165825,258.145691 
	C60.882355,257.066132 60.459160,256.513367 60.035965,255.960587 
	C59.751377,253.244690 59.466782,250.528809 59.343330,247.295166 
	C59.982651,246.526367 60.460831,246.275299 60.939011,246.024246 
z"/>
<path fill="#5E4B12" opacity="1.000000" stroke="none" 
	d="
M27.983219,92.335236 
	C29.976683,91.031166 31.879944,89.920334 34.548027,88.849197 
	C35.887459,88.935562 36.462074,88.982231 36.894791,89.349091 
	C34.165733,92.123962 31.578569,94.578644 28.663147,97.023926 
	C27.897120,97.009018 27.459351,97.003510 27.021582,96.998001 
	C27.087774,95.969559 27.153965,94.941132 27.267359,93.530746 
	C27.547565,92.979492 27.740383,92.772720 27.983219,92.335236 
z"/>
<path fill="#919E36" opacity="1.000000" stroke="none" 
	d="
M51.250217,207.776535 
	C52.759018,211.555969 54.171692,215.418304 55.304821,219.530304 
	C54.024944,219.173111 53.024616,218.566269 52.024284,217.959427 
	C52.024288,217.959427 52.024796,217.486969 51.995903,216.914398 
	C51.317459,215.551285 50.667915,214.760757 50.018364,213.970245 
	C50.018734,213.233566 50.019108,212.496872 50.218735,211.137390 
	C50.599316,209.684860 50.780640,208.855133 50.961964,208.025406 
	C50.961964,208.025406 51.154095,207.859451 51.250217,207.776535 
z"/>
<path fill="#94A436" opacity="1.000000" stroke="none" 
	d="
M82.151627,334.983185 
	C82.184875,335.321228 82.218117,335.659241 82.316940,336.524353 
	C82.707489,337.343262 83.032455,337.635101 83.357422,337.926910 
	C84.002029,339.542694 84.646629,341.158478 85.200974,343.499512 
	C85.071121,344.485382 85.031525,344.746002 84.991936,345.006622 
	C81.267937,342.907745 79.875839,339.723236 81.084244,335.271423 
	C81.767815,334.984985 81.959724,334.984070 82.151627,334.983185 
z"/>
<path fill="#9C9E3C" opacity="1.000000" stroke="none" 
	d="
M353.913208,394.291595 
	C353.930695,394.674774 353.948181,395.057922 353.976166,395.728699 
	C350.752472,395.902924 347.518311,395.789490 344.108093,395.337585 
	C343.932098,394.999084 344.418213,394.953369 344.954437,394.915710 
	C345.990570,394.600739 346.490509,394.323395 347.425354,394.041534 
	C349.877899,394.121887 351.895538,394.206726 353.913208,394.291595 
z"/>
<path fill="#919E36" opacity="1.000000" stroke="none" 
	d="
M57.512150,231.403656 
	C58.571857,235.361816 59.631565,239.319992 60.318466,243.655899 
	C59.308720,244.007919 58.671783,243.982208 58.034843,243.956482 
	C58.021587,242.587601 58.008335,241.218719 57.980587,239.106567 
	C57.646023,237.563202 57.325954,236.763077 57.005882,235.962967 
	C57.003666,235.535461 57.001453,235.107941 57.048561,233.916565 
	C57.235973,232.569687 57.374062,231.986664 57.512150,231.403656 
z"/>
<path fill="#99B139" opacity="1.000000" stroke="none" 
	d="
M52.093567,218.352722 
	C53.024616,218.566269 54.024944,219.173111 55.283657,219.900238 
	C55.732723,221.066696 55.923412,222.112885 55.924217,223.765656 
	C55.501816,225.591171 55.269291,226.810104 55.036774,228.029053 
	C54.078800,224.934708 53.120827,221.840363 52.093567,218.352722 
z"/>
<path fill="#919E36" opacity="1.000000" stroke="none" 
	d="
M67.462616,282.586060 
	C68.232201,284.835754 69.001793,287.085419 69.721725,289.715271 
	C66.268845,289.840088 65.922798,287.477203 66.278366,284.190308 
	C66.841972,283.245575 67.152290,282.915833 67.462616,282.586060 
z"/>
<path fill="#9C9E3C" opacity="1.000000" stroke="none" 
	d="
M372.373077,393.162109 
	C371.785339,392.550507 371.543335,392.086823 371.504578,391.290771 
	C372.147552,390.846100 372.587250,390.733795 373.026947,390.621521 
	C374.410828,390.777008 375.794678,390.932556 377.591553,391.163422 
	C377.995087,391.907379 377.985596,392.576019 377.966248,393.578247 
	C376.210541,393.711273 374.464691,393.510620 372.373077,393.162109 
z"/>
<path fill="#99B039" opacity="1.000000" stroke="none" 
	d="
M76.699844,318.062622 
	C77.153557,319.454407 77.607269,320.846191 77.867706,322.750183 
	C77.445175,323.513916 77.215912,323.765442 76.986649,324.016968 
	C76.209892,322.179626 75.433151,320.342316 75.109024,318.253723 
	C75.941040,318.022522 76.320442,318.042572 76.699844,318.062622 
z"/>
<path fill="#BCB459" opacity="1.000000" stroke="none" 
	d="
M183.326019,388.035217 
	C184.567368,389.194489 185.678116,390.815399 186.582428,392.813416 
	C185.973572,393.456757 185.571167,393.722961 185.168747,393.989166 
	C184.636124,393.849426 184.103500,393.709656 183.350708,393.411560 
	C183.152161,391.667786 183.173798,390.082306 183.326019,388.035217 
z"/>
<path fill="#99AF37" opacity="1.000000" stroke="none" 
	d="
M67.454666,282.206787 
	C67.152290,282.915833 66.841972,283.245575 66.278023,283.796570 
	C65.366898,282.245911 64.709404,280.474030 64.037186,278.333374 
	C64.752129,277.978333 65.481796,277.992065 66.575790,278.009857 
	C67.108994,279.285126 67.277863,280.556335 67.454666,282.206787 
z"/>
<path fill="#919E36" opacity="1.000000" stroke="none" 
	d="
M77.799133,119.360657 
	C78.504410,119.265564 78.980751,119.502129 79.695007,119.856796 
	C79.783112,120.530128 79.633308,121.085358 79.246468,121.798363 
	C79.009430,121.956139 78.848907,121.940468 78.848907,121.940468 
	C78.848907,121.940468 79.083893,122.103706 79.083893,122.103706 
	C78.664719,123.432617 78.245544,124.761528 77.537094,126.305351 
	C77.355270,124.244270 77.462730,121.968285 77.799133,119.360657 
z"/>
<path fill="#919E36" opacity="1.000000" stroke="none" 
	d="
M76.991516,324.342590 
	C77.215912,323.765442 77.445175,323.513916 77.885880,323.117645 
	C78.944206,325.111053 79.791069,327.249207 80.620911,329.748413 
	C80.248268,330.086609 79.892647,330.063751 79.250603,329.684082 
	C78.312675,328.208588 77.661163,327.089935 77.009659,325.971252 
	C77.005234,325.536896 77.000809,325.102570 76.991516,324.342590 
z"/>
<path fill="#919E36" opacity="1.000000" stroke="none" 
	d="
M55.086140,228.303131 
	C55.269291,226.810104 55.501816,225.591171 55.921265,224.164764 
	C56.655922,225.794861 57.203655,227.632401 57.255383,229.758575 
	C56.495693,230.031555 56.232006,230.015900 55.968323,230.000259 
	C55.690723,229.525909 55.413116,229.051559 55.086140,228.303131 
z"/>
<path fill="#99B139" opacity="1.000000" stroke="none" 
	d="
M50.701897,207.840302 
	C50.780640,208.855133 50.599316,209.684860 50.218315,210.769043 
	C49.061798,209.228745 48.104961,207.434006 47.082836,205.298569 
	C48.158970,205.856995 49.300400,206.756088 50.701897,207.840302 
z"/>
<path fill="#919E36" opacity="1.000000" stroke="none" 
	d="
M92.316254,356.545197 
	C91.806145,356.685669 91.210304,356.475494 90.332039,356.131989 
	C89.729080,355.219269 89.408562,354.439911 89.108337,352.959412 
	C89.191154,352.000183 89.253677,351.742126 89.316208,351.484070 
	C90.287651,353.054230 91.259094,354.624390 92.316254,356.545197 
z"/>
<path fill="#9C9E3C" opacity="1.000000" stroke="none" 
	d="
M430.391846,391.916656 
	C430.062347,391.923309 430.057495,391.634003 430.064636,391.490967 
	C430.399292,390.814972 430.726776,390.282013 431.154846,389.453552 
	C431.923462,389.480652 432.591431,389.803223 433.259399,390.125854 
	C432.413391,390.720551 431.567383,391.315277 430.391846,391.916656 
z"/>
<path fill="#99B039" opacity="1.000000" stroke="none" 
	d="
M76.842590,326.213501 
	C77.661163,327.089935 78.312675,328.208588 78.982269,329.669739 
	C78.225403,328.826752 77.450462,327.641235 76.842590,326.213501 
z"/>
<path fill="#99B038" opacity="1.000000" stroke="none" 
	d="
M58.042297,244.290741 
	C58.671783,243.982208 59.308720,244.007919 60.259098,244.047333 
	C60.685265,244.492294 60.797997,244.923569 60.924866,245.689545 
	C60.460831,246.275299 59.982651,246.526367 59.265221,246.903366 
	C58.700562,246.227875 58.375156,245.426422 58.042297,244.290741 
z"/>
<path fill="#98AF38" opacity="1.000000" stroke="none" 
	d="
M61.037998,260.297394 
	C61.707520,259.981537 62.394444,260.002899 63.422085,260.034180 
	C63.840038,260.476532 63.917278,260.908966 63.988804,261.671967 
	C63.707497,262.181702 63.464931,262.397980 63.107254,262.847198 
	C62.324543,262.240295 61.689976,261.437439 61.037998,260.297394 
z"/>
<path fill="#99B038" opacity="1.000000" stroke="none" 
	d="
M55.923401,230.313171 
	C56.232006,230.015900 56.495693,230.031555 57.156891,230.067474 
	C57.582512,230.384521 57.592072,230.681885 57.547611,231.191742 
	C57.374062,231.986664 57.235973,232.569687 57.044952,233.595947 
	C56.620838,232.901489 56.249660,231.763779 55.923401,230.313171 
z"/>
<path fill="#9C9E3C" opacity="1.000000" stroke="none" 
	d="
M401.359863,393.930237 
	C401.028046,393.243134 401.016296,392.566681 401.002441,391.553711 
	C401.445648,391.178802 401.891022,391.140350 402.668152,391.158936 
	C402.992523,391.892212 402.985107,392.568390 402.968933,393.582092 
	C402.533447,393.926727 402.106689,393.933807 401.359863,393.930237 
z"/>
<path fill="#99B039" opacity="1.000000" stroke="none" 
	d="
M73.092789,314.257385 
	C73.677742,313.987457 74.339104,314.009705 75.327438,314.044128 
	C75.744537,314.485474 75.834679,314.914703 75.673431,315.669678 
	C75.422035,315.995483 74.931778,316.008240 74.931778,316.008240 
	C74.344254,315.522003 73.756729,315.035797 73.092789,314.257385 
z"/>
<path fill="#94A436" opacity="1.000000" stroke="none" 
	d="
M87.264168,346.889740 
	C87.541451,347.382111 87.818726,347.874451 88.154907,348.646484 
	C87.235001,348.490173 86.256180,348.054230 85.534821,347.291870 
	C86.282913,346.940216 86.773544,346.914978 87.264168,346.889740 
z"/>
<path fill="#919E36" opacity="1.000000" stroke="none" 
	d="
M87.204926,346.549377 
	C86.773544,346.914978 86.282913,346.940216 85.426163,346.970123 
	C85.042564,346.537537 85.025101,346.100311 84.999786,345.334839 
	C85.031525,344.746002 85.071121,344.485382 85.178162,343.833130 
	C85.878967,344.363983 86.512329,345.286469 87.204926,346.549377 
z"/>
<path fill="#99AF37" opacity="1.000000" stroke="none" 
	d="
M68.046967,296.305298 
	C68.669014,296.763458 69.307991,297.558197 69.965515,298.689392 
	C69.344009,298.231171 68.703964,297.436493 68.046967,296.305298 
z"/>
<path fill="#9C9E3C" opacity="1.000000" stroke="none" 
	d="
M366.230896,396.201416 
	C366.853149,395.869629 367.690094,395.697693 368.755005,395.682648 
	C368.137177,396.013458 367.291351,396.187378 366.230896,396.201416 
z"/>
<path fill="#99B139" opacity="1.000000" stroke="none" 
	d="
M50.071579,214.283829 
	C50.667915,214.760757 51.317459,215.551285 51.991714,216.678192 
	C51.385880,216.208832 50.755333,215.403122 50.071579,214.283829 
z"/>
<path fill="#919E36" opacity="1.000000" stroke="none" 
	d="
M74.947723,316.335083 
	C74.931778,316.008240 75.422035,315.995483 75.666824,316.000031 
	C76.184242,316.497681 76.456871,316.990814 76.714676,317.773254 
	C76.320442,318.042572 75.941040,318.022522 75.275726,317.985962 
	C74.981102,317.533630 74.972382,317.097778 74.947723,316.335083 
z"/>
<path fill="#AE8E4C" opacity="1.000000" stroke="none" 
	d="
M185.377899,394.174866 
	C185.571167,393.722961 185.973572,393.456757 186.618744,393.153992 
	C186.952240,393.450073 187.042969,393.782654 187.185272,394.364136 
	C186.686905,394.528870 186.136978,394.444733 185.377899,394.174866 
z"/>
<path fill="#98AF38" opacity="1.000000" stroke="none" 
	d="
M60.083328,256.250763 
	C60.459160,256.513367 60.882355,257.066132 61.164749,257.823792 
	C60.726200,257.532745 60.428444,257.036865 60.083328,256.250763 
z"/>
<path fill="#98AF38" opacity="1.000000" stroke="none" 
	d="
M62.844536,267.155670 
	C63.109070,267.535400 63.217457,268.096466 63.171608,268.838959 
	C62.907707,268.459259 62.798046,267.898132 62.844536,267.155670 
z"/>
<path fill="#94A436" opacity="1.000000" stroke="none" 
	d="
M89.302742,351.349060 
	C89.253677,351.742126 89.191154,352.000183 89.048691,352.648926 
	C88.862900,352.392670 88.757042,351.745728 88.913506,351.033203 
	C89.175827,350.967590 89.289276,351.214081 89.302742,351.349060 
z"/>
<path fill="#99B038" opacity="1.000000" stroke="none" 
	d="
M57.017025,236.295624 
	C57.325954,236.763077 57.646023,237.563202 57.976326,238.695908 
	C57.667099,238.228424 57.347633,237.428345 57.017025,236.295624 
z"/>
<path fill="#9C9E3C" opacity="1.000000" stroke="none" 
	d="
M428.882446,387.542236 
	C428.579620,387.411835 428.221924,387.024536 427.851746,386.360046 
	C428.168732,386.483704 428.498199,386.884521 428.882446,387.542236 
z"/>
<path fill="#919E36" opacity="1.000000" stroke="none" 
	d="
M82.061554,334.702118 
	C81.959724,334.984070 81.767815,334.984985 81.288071,334.983398 
	C81.036026,334.734985 81.071823,334.488983 81.173431,333.873688 
	C81.483322,333.809967 81.727402,334.115509 82.061554,334.702118 
z"/>
<path fill="#99B139" opacity="1.000000" stroke="none" 
	d="
M45.116035,200.200073 
	C45.252373,200.173447 45.500683,200.383179 45.849400,200.839966 
	C45.721233,200.854034 45.480633,200.637177 45.116035,200.200073 
z"/>
<path fill="#DA4C64" opacity="1.000000" stroke="none" 
	d="
M226.841263,208.863495 
	C213.231628,214.028976 201.257629,221.681763 190.685211,232.627304 
	C189.149612,233.533478 187.813278,233.854736 187.209091,234.699585 
	C181.806671,242.253632 175.906494,249.544022 171.340073,257.586182 
	C157.914413,281.230652 152.929916,306.951355 153.935623,333.987701 
	C154.014511,336.108826 153.017548,338.269928 152.388153,339.920959 
	C152.161194,334.989014 151.983643,330.548370 151.990921,326.108032 
	C152.002991,318.744141 152.133926,311.380463 152.500534,303.888153 
	C153.181046,302.821655 153.575806,301.883698 153.971680,300.575012 
	C153.999680,299.463409 154.026596,298.722534 154.238037,297.770142 
	C154.607162,297.033447 154.791748,296.508179 154.979553,295.563629 
	C155.721451,291.103058 156.460144,287.061829 157.489990,282.892334 
	C158.231384,280.860291 158.681610,278.956512 159.222504,276.716644 
	C161.123749,271.602295 162.263336,266.413055 164.885452,262.131836 
	C170.244492,253.381943 175.984680,244.793106 182.323837,236.732452 
	C192.397369,223.923340 204.701019,213.793976 220.026245,207.503220 
	C244.322876,197.529892 268.583557,196.386078 292.985748,206.877518 
	C305.134247,212.100632 316.237732,218.927399 325.202728,228.804428 
	C329.289368,233.306854 333.453796,237.811844 336.949524,242.762909 
	C345.397980,254.728546 352.974426,267.275177 356.325195,281.729065 
	C358.715546,292.039795 360.800079,302.477112 362.105316,312.971832 
	C364.601105,333.039520 361.980164,352.689697 356.069366,372.001984 
	C354.168793,378.211670 353.208832,384.709290 351.474304,391.146973 
	C349.719971,391.508820 348.309875,391.798828 346.753540,391.912292 
	C346.398895,391.506653 346.153687,391.328094 345.969269,390.835999 
	C359.819855,361.617157 363.692108,331.301605 357.805939,300.074615 
	C350.928986,263.591156 333.985474,233.246140 300.908661,213.882217 
	C278.534912,200.784088 254.839081,198.752960 230.205292,206.245041 
	C228.935913,206.631088 227.955963,207.968842 226.841263,208.863495 
z"/>
<path fill="#FB9753" opacity="1.000000" stroke="none" 
	d="
M227.184570,209.024902 
	C227.955963,207.968842 228.935913,206.631088 230.205292,206.245041 
	C254.839081,198.752960 278.534912,200.784088 300.908661,213.882217 
	C333.985474,233.246140 350.928986,263.591156 357.805939,300.074615 
	C363.692108,331.301605 359.819855,361.617157 345.789093,390.989197 
	C345.282471,391.738220 345.079285,391.990540 344.901703,392.263458 
	C344.471802,392.199921 344.041870,392.136383 343.287720,392.033051 
	C345.173187,386.341766 347.832672,380.819489 349.500366,375.012390 
	C353.154327,362.288788 357.286713,349.590698 357.018707,336.111420 
	C356.808228,325.526855 357.187195,314.834869 355.780304,304.395996 
	C354.286346,293.311401 350.846558,282.651154 346.362946,272.143463 
	C342.078461,262.102448 336.987122,252.819321 330.583374,244.155289 
	C323.252167,234.236328 314.874268,225.357132 303.743073,219.577545 
	C296.734894,215.938736 289.761993,212.183060 282.534119,209.027573 
	C270.720642,203.870132 258.193359,204.229172 245.750275,205.646530 
	C241.041428,206.182892 236.503235,208.121948 231.841949,209.231247 
	C230.484375,209.554321 228.970230,209.219528 227.184570,209.024902 
z"/>
<path fill="#FA9654" opacity="1.000000" stroke="none" 
	d="
M152.520599,340.412445 
	C153.017548,338.269928 154.014511,336.108826 153.935623,333.987701 
	C152.929916,306.951355 157.914413,281.230652 171.340073,257.586182 
	C175.906494,249.544022 181.806671,242.253632 187.209091,234.699585 
	C187.813278,233.854736 189.149612,233.533478 190.487701,232.894775 
	C190.253479,234.311401 190.047241,236.138809 189.044113,237.240829 
	C180.935944,246.148361 175.113327,256.278534 169.899017,267.194916 
	C164.519608,278.456940 160.756836,290.073669 158.922150,302.080109 
	C155.905167,321.823853 154.865845,341.793945 161.227509,361.279846 
	C164.607315,371.632324 168.282562,381.888336 171.786072,392.556580 
	C170.750839,392.669098 169.753983,392.412903 168.371277,391.667542 
	C167.574631,390.134918 167.163834,389.091370 166.729019,387.691589 
	C164.205261,381.752045 161.705505,376.168793 159.202576,370.237671 
	C159.067978,368.972321 158.936584,368.054840 158.815643,366.773804 
	C158.493195,365.256866 158.160294,364.103394 157.823700,362.633301 
	C157.729477,361.905182 157.638931,361.493774 157.565582,360.699219 
	C156.740356,356.866486 155.897934,353.416870 155.055099,349.601074 
	C154.973251,348.507538 154.891830,347.780151 154.851532,346.663330 
	C154.113251,344.661652 153.333832,343.049347 152.600494,341.265778 
	C152.658890,340.857117 152.616898,340.629761 152.520599,340.412445 
z"/>
<path fill="#BCB459" opacity="1.000000" stroke="none" 
	d="
M248.014542,241.069092 
	C237.834793,243.505127 227.403122,245.846649 219.134476,252.490234 
	C210.538391,259.396912 202.859741,267.445435 194.467087,275.122986 
	C194.083923,274.757385 194.013580,274.263458 194.156982,273.191681 
	C194.586288,272.073425 194.801849,271.533020 195.017410,270.992584 
	C197.817551,268.003357 200.765518,265.137939 203.391403,262.002808 
	C213.065292,250.452805 226.196625,245.022034 240.848450,240.932816 
	C242.386459,240.621399 243.204956,240.327332 244.023468,240.033264 
	C245.084351,239.984131 246.145248,239.934982 247.609711,240.164856 
	C248.013702,240.652298 248.014130,240.860703 248.014542,241.069092 
z"/>
<path fill="#BCB459" opacity="1.000000" stroke="none" 
	d="
M185.572357,288.923859 
	C183.788712,295.244385 181.319244,301.524719 179.606705,308.005127 
	C177.762222,314.984650 176.626968,322.151672 174.850891,329.389587 
	C174.285263,328.989410 174.051025,328.436493 173.816803,327.883606 
	C173.482071,315.554138 177.511505,304.240021 182.056107,293.075867 
	C182.683746,291.534027 184.144653,290.331421 185.572357,288.923859 
z"/>
<path fill="#DDB84A" opacity="1.000000" stroke="none" 
	d="
M173.496155,328.091492 
	C174.051025,328.436493 174.285263,328.989410 174.713654,329.768494 
	C174.845139,336.080963 174.782501,342.167175 174.564087,348.718140 
	C173.756363,348.722839 172.530792,348.252716 172.538742,347.804443 
	C172.653961,341.301025 172.934509,334.800568 173.496155,328.091492 
z"/>
<path fill="#E0B749" opacity="1.000000" stroke="none" 
	d="
M248.480743,241.051819 
	C248.014130,240.860703 248.013702,240.652298 248.006454,240.129852 
	C248.912308,239.232697 249.846222,238.117599 250.734222,238.153030 
	C256.390076,238.378891 262.035828,238.858383 267.868591,239.594147 
	C267.206604,240.146713 266.360901,240.359467 265.260864,240.778397 
	C259.653320,241.001221 254.300140,241.017868 248.480743,241.051819 
z"/>
<path fill="#BCB459" opacity="1.000000" stroke="none" 
	d="
M175.909241,359.010773 
	C177.976929,366.729279 180.044617,374.447754 181.835999,382.460510 
	C181.044998,382.492432 180.530319,382.230103 180.015640,381.967773 
	C179.649460,380.594604 179.283279,379.221405 178.863831,377.125153 
	C177.902191,374.251587 176.993805,372.101074 176.085434,369.950592 
	C176.013321,368.934967 175.941223,367.919342 175.839767,366.220520 
	C175.531967,365.020966 175.253510,364.504578 174.975067,363.988190 
	C174.929199,362.957153 174.883316,361.926086 174.985626,360.305817 
	C175.392273,359.481323 175.650757,359.246063 175.909241,359.010773 
z"/>
<path fill="#BCB459" opacity="1.000000" stroke="none" 
	d="
M192.649750,276.931458 
	C190.897232,280.585510 188.831406,284.274231 186.452545,288.100769 
	C186.116882,287.139771 186.094223,286.040985 186.412399,284.401123 
	C187.856247,281.917511 188.959244,279.974945 190.062256,278.032410 
	C190.820312,277.676971 191.578384,277.321533 192.649750,276.931458 
z"/>
<path fill="#E2B647" opacity="1.000000" stroke="none" 
	d="
M335.349304,378.916138 
	C335.865509,376.529816 336.702850,374.023895 337.768494,371.250000 
	C339.961304,374.402557 337.945496,376.638123 335.349304,378.916138 
z"/>
<path fill="#BCB459" opacity="1.000000" stroke="none" 
	d="
M174.483078,351.300537 
	C175.038010,352.752655 175.399948,354.528564 175.424011,356.685913 
	C174.740601,357.035126 174.395111,357.002869 174.049606,356.970612 
	C174.129776,355.188507 174.209946,353.406403 174.483078,351.300537 
z"/>
<path fill="#E2B646" opacity="1.000000" stroke="none" 
	d="
M341.474060,338.923218 
	C341.133545,337.328278 341.091187,335.563782 341.092163,333.358582 
	C341.347748,334.863159 341.559967,336.808411 341.474060,338.923218 
z"/>
<path fill="#E1B94B" opacity="1.000000" stroke="none" 
	d="
M189.731430,278.119263 
	C188.959244,279.974945 187.856247,281.917511 186.449646,283.991760 
	C187.230927,282.151001 188.315765,280.178558 189.731430,278.119263 
z"/>
<path fill="#DFB94B" opacity="1.000000" stroke="none" 
	d="
M176.067276,370.340820 
	C176.993805,372.101074 177.902191,374.251587 178.822296,376.771240 
	C177.905731,375.003998 176.977417,372.867523 176.067276,370.340820 
z"/>
<path fill="#E2B646" opacity="1.000000" stroke="none" 
	d="
M340.200928,320.734924 
	C339.667908,319.577820 339.342590,318.144135 339.046906,316.325287 
	C339.520569,317.446198 339.964569,318.952271 340.200928,320.734924 
z"/>
<path fill="#DFB94B" opacity="1.000000" stroke="none" 
	d="
M180.008469,382.326935 
	C180.530319,382.230103 181.044998,382.492432 181.830231,382.858276 
	C182.351669,383.451233 182.602524,383.940735 182.682739,384.872437 
	C182.292679,385.576141 182.073273,385.837646 181.853882,386.099121 
	C181.236343,384.961456 180.618820,383.823761 180.008469,382.326935 
z"/>
<path fill="#E2B646" opacity="1.000000" stroke="none" 
	d="
M341.166626,326.763062 
	C340.658295,325.894257 340.355560,324.772522 340.086304,323.287964 
	C340.537292,324.120117 340.954773,325.315155 341.166626,326.763062 
z"/>
<path fill="#DDB84A" opacity="1.000000" stroke="none" 
	d="
M173.861084,357.195465 
	C174.395111,357.002869 174.740601,357.035126 175.342621,357.088074 
	C175.698914,357.527222 175.798676,357.945648 175.903839,358.687439 
	C175.650757,359.246063 175.392273,359.481323 174.961700,359.919495 
	C174.417267,359.221710 174.044907,358.321014 173.861084,357.195465 
z"/>
<path fill="#E0B749" opacity="1.000000" stroke="none" 
	d="
M272.999207,240.562851 
	C272.252411,240.685913 271.381348,240.547684 270.248993,240.198792 
	C270.950134,240.092621 271.912506,240.197083 272.999207,240.562851 
z"/>
<path fill="#E0B749" opacity="1.000000" stroke="none" 
	d="
M243.797424,239.845062 
	C243.204956,240.327332 242.386459,240.621399 241.229874,240.886688 
	C241.784988,240.457581 242.678192,240.057236 243.797424,239.845062 
z"/>
<path fill="#E2B646" opacity="1.000000" stroke="none" 
	d="
M340.310730,358.926575 
	C340.176727,358.185608 340.325775,357.348999 340.658508,356.250244 
	C340.759430,356.935730 340.676636,357.883301 340.310730,358.926575 
z"/>
<path fill="#E0B749" opacity="1.000000" stroke="none" 
	d="
M277.003723,241.673157 
	C276.528595,241.737076 275.972687,241.562958 275.202148,241.184738 
	C275.632660,241.132141 276.277771,241.283630 277.003723,241.673157 
z"/>
<path fill="#E2B647" opacity="1.000000" stroke="none" 
	d="
M338.362427,368.002991 
	C338.273926,367.534790 338.419342,366.981049 338.755219,366.208038 
	C338.829224,366.631653 338.712769,367.274567 338.362427,368.002991 
z"/>
<path fill="#DDB84A" opacity="1.000000" stroke="none" 
	d="
M174.832886,364.184601 
	C175.253510,364.504578 175.531967,365.020966 175.811798,365.839661 
	C175.439011,365.554993 175.064850,364.967987 174.832886,364.184601 
z"/>
<path fill="#E1B94B" opacity="1.000000" stroke="none" 
	d="
M194.766968,271.050354 
	C194.801849,271.533020 194.586288,272.073425 194.156311,272.817841 
	C194.133438,272.383942 194.324966,271.746033 194.766968,271.050354 
z"/>
<path fill="#BCB459" opacity="1.000000" stroke="none" 
	d="
M182.053238,386.282043 
	C182.073273,385.837646 182.292679,385.576141 182.706802,385.151245 
	C183.013428,385.410309 183.125320,385.832764 183.232208,386.583496 
	C182.902344,386.762848 182.577469,386.613892 182.053238,386.282043 
z"/>
<path fill="#339C95" opacity="1.000000" stroke="none" 
	d="
M303.211121,261.740723 
	C310.407135,270.608551 318.879089,278.447479 323.903290,288.083984 
	C334.256042,307.940582 337.875000,329.476440 335.577240,352.093811 
	C334.539154,362.312195 332.488159,372.088806 328.980499,381.594269 
	C325.459625,391.135620 325.243469,391.070221 315.324982,391.071716 
	C275.689789,391.077759 236.054413,391.012787 196.419739,391.153839 
	C191.629852,391.170868 189.734924,389.493958 187.281860,385.106812 
	C181.905579,375.491638 179.692963,365.148682 178.585129,354.728271 
	C177.006180,339.876190 177.086838,324.980316 181.775879,310.299011 
	C185.589279,298.359344 190.261322,287.019501 197.525131,276.808014 
	C206.380493,264.359131 217.576218,255.139893 232.041138,249.435074 
	C241.028381,245.890579 249.905090,243.057816 259.480164,244.020172 
	C266.022797,244.677750 272.565582,246.116837 278.892303,247.951416 
	C287.893890,250.561646 295.799683,255.431290 303.211121,261.740723 
z"/>
<path fill="#E03289" opacity="1.000000" stroke="none" 
	d="
M152.388153,339.920959 
	C152.616898,340.629761 152.658890,340.857117 152.463440,341.722839 
	C152.244690,343.884033 152.209045,345.416931 152.160187,347.282196 
	C152.749344,348.408630 153.351700,349.202667 153.958832,350.426331 
	C154.335190,354.230347 154.706787,357.604797 155.109955,361.262329 
	C155.406464,362.038940 155.671387,362.532379 155.951004,363.393555 
	C156.912201,364.886597 157.858688,366.011963 158.805176,367.137329 
	C158.936584,368.054840 159.067978,368.972321 159.141754,370.683350 
	C159.613525,373.666412 160.108536,375.865051 160.680588,378.043396 
	C161.465652,381.032867 162.309097,384.007019 163.067017,387.364746 
	C158.561691,392.749359 147.669128,391.509674 145.432144,385.680573 
	C142.238251,377.358063 139.051880,369.030151 136.043533,360.639587 
	C131.358490,347.572357 129.940201,333.897797 128.984924,320.175781 
	C127.972816,305.637177 130.174957,291.349426 133.297134,277.245453 
	C134.895721,270.024017 137.600311,263.042999 139.892715,255.981796 
	C140.775833,253.261597 141.902145,250.620361 143.089355,247.633057 
	C144.832535,244.084122 146.130997,240.674179 148.031479,237.641479 
	C152.196075,230.995819 156.665787,224.541382 161.349640,217.939438 
	C166.804581,214.138916 171.945389,210.429550 174.250626,203.754761 
	C176.086014,202.652924 177.984024,202.083374 179.161560,200.834488 
	C186.794876,192.738617 195.509964,186.133652 205.676956,181.630585 
	C210.169754,179.640656 215.026627,178.490829 219.629944,176.729019 
	C234.989532,170.850510 251.009201,168.812515 267.187073,170.316513 
	C290.495850,172.483429 311.512115,181.112244 330.103119,195.512787 
	C332.106323,197.064438 334.727661,197.818085 337.062256,198.941925 
	C337.062256,198.941925 337.430664,199.126801 337.694824,199.533890 
	C340.215485,202.025787 342.471954,204.110596 344.728455,206.195404 
	C345.418732,206.921570 346.109009,207.647720 346.869629,208.996201 
	C346.943909,210.074478 346.947876,210.530411 346.797485,211.236298 
	C348.087524,212.672012 349.531921,213.857758 351.208801,215.280594 
	C356.242859,223.213379 361.453033,230.690506 365.722443,238.670944 
	C369.427063,245.595703 371.826721,253.205109 375.226990,260.309021 
	C382.048340,274.560364 383.966339,289.972382 384.849426,305.294403 
	C386.315491,330.731323 382.302887,355.552979 372.779602,379.361176 
	C369.013885,388.775482 365.803284,391.166748 355.808563,391.133667 
	C354.478516,391.129272 353.148560,391.095398 351.818542,391.075165 
	C353.208832,384.709290 354.168793,378.211670 356.069366,372.001984 
	C361.980164,352.689697 364.601105,333.039520 362.105316,312.971832 
	C360.800079,302.477112 358.715546,292.039795 356.325195,281.729065 
	C352.974426,267.275177 345.397980,254.728546 336.949524,242.762909 
	C333.453796,237.811844 329.289368,233.306854 325.202728,228.804428 
	C316.237732,218.927399 305.134247,212.100632 292.985748,206.877518 
	C268.583557,196.386078 244.322876,197.529892 220.026245,207.503220 
	C204.701019,213.793976 192.397369,223.923340 182.323837,236.732452 
	C175.984680,244.793106 170.244492,253.381943 164.885452,262.131836 
	C162.263336,266.413055 161.123749,271.602295 158.988251,276.975494 
	C158.175140,279.387146 157.686981,281.203857 157.198822,283.020569 
	C156.460144,287.061829 155.721451,291.103058 154.739929,295.634247 
	C154.349228,296.743317 154.201355,297.362488 154.053497,297.981628 
	C154.026596,298.722534 153.999680,299.463409 153.671661,300.703064 
	C152.985306,302.140106 152.600052,303.078400 152.214783,304.016693 
	C152.133926,311.380463 152.002991,318.744141 151.990921,326.108032 
	C151.983643,330.548370 152.161194,334.989014 152.388153,339.920959 
z"/>
<path fill="#BC5D5F" opacity="1.000000" stroke="none" 
	d="
M337.010498,198.603012 
	C334.727661,197.818085 332.106323,197.064438 330.103119,195.512787 
	C311.512115,181.112244 290.495850,172.483429 267.187073,170.316513 
	C251.009201,168.812515 234.989532,170.850510 219.629944,176.729019 
	C215.026627,178.490829 210.169754,179.640656 205.676956,181.630585 
	C195.509964,186.133652 186.794876,192.738617 179.161560,200.834488 
	C177.984024,202.083374 176.086014,202.652924 173.961533,203.920868 
	C169.271561,208.873016 165.141220,213.440933 161.010895,218.008850 
	C156.665787,224.541382 152.196075,230.995819 148.031479,237.641479 
	C146.130997,240.674179 144.832535,244.084122 142.832748,247.818359 
	C141.118576,249.230103 139.832687,250.146439 138.418396,250.732239 
	C138.148804,249.951065 138.007660,249.500412 137.866501,249.049759 
	C137.913162,248.661850 137.959808,248.273941 138.034119,247.599701 
	C140.458008,244.039810 143.234192,240.977066 145.187256,237.457565 
	C155.816147,218.303940 169.250397,201.630463 187.476730,189.201508 
	C216.004547,169.747711 247.114120,162.639664 281.273285,169.489639 
	C300.950928,173.435638 318.117096,182.307846 333.712769,194.592163 
	C334.975433,195.586777 335.885101,197.029556 337.010498,198.603012 
z"/>
<path fill="#BC5D5F" opacity="1.000000" stroke="none" 
	d="
M351.474304,391.146973 
	C353.148560,391.095398 354.478516,391.129272 355.808563,391.133667 
	C365.803284,391.166748 369.013885,388.775482 372.779602,379.361176 
	C382.302887,355.552979 386.315491,330.731323 384.849426,305.294403 
	C383.966339,289.972382 382.048340,274.560364 375.226990,260.309021 
	C371.826721,253.205109 369.427063,245.595703 365.722443,238.670944 
	C361.453033,230.690506 356.242859,223.213379 351.059570,214.995392 
	C349.435883,213.310852 348.193878,212.148605 346.951843,210.986359 
	C346.947876,210.530411 346.943909,210.074478 346.987976,209.279053 
	C351.945526,214.230362 358.066223,218.839127 361.510315,224.955154 
	C368.493347,237.355652 375.342560,250.137436 379.784241,263.575989 
	C384.118378,276.689331 386.473969,290.719025 387.718048,304.524872 
	C389.272430,321.773956 388.237122,339.150787 383.316132,356.025909 
	C382.998749,357.114288 383.151947,358.339905 383.109558,359.853882 
	C383.132874,360.206085 382.999542,360.560028 382.629791,360.849060 
	C379.601196,367.738312 376.956726,374.344391 374.277588,380.936401 
	C372.913971,384.291595 371.488159,387.621490 370.090485,390.962830 
	C365.656250,395.145996 360.046356,393.669342 354.376129,394.211243 
	C351.895538,394.206726 349.877899,394.121887 347.411407,393.714294 
	C346.941650,392.957336 346.920715,392.523071 346.899780,392.088837 
	C348.309875,391.798828 349.719971,391.508820 351.474304,391.146973 
z"/>
<path fill="#BC5D5F" opacity="1.000000" stroke="none" 
	d="
M344.742523,205.843719 
	C342.471954,204.110596 340.215485,202.025787 337.879608,199.625168 
	C340.119019,201.370255 342.437805,203.431152 344.742523,205.843719 
z"/>
<path fill="#613B21" opacity="1.000000" stroke="none" 
	d="
M137.489853,249.019882 
	C138.007660,249.500412 138.148804,249.951065 138.265930,251.079147 
	C131.984756,266.585754 128.358246,282.047546 126.521210,298.028931 
	C123.930183,320.569672 126.579071,342.562836 133.267715,364.056488 
	C136.123337,373.232910 140.273102,382.006561 143.834793,390.963257 
	C143.676285,391.016632 143.517792,391.069977 143.137039,391.242889 
	C142.491623,391.237915 142.068481,391.113403 141.328629,390.889252 
	C139.196884,389.570068 137.518478,387.612305 135.545364,387.247101 
	C118.916832,384.169891 108.154404,372.991791 98.512024,360.471527 
	C96.293816,357.591248 96.386887,352.927795 94.162735,350.055786 
	C86.922783,340.706909 83.476601,329.765747 80.569016,318.731720 
	C76.226234,302.251282 72.521576,285.591522 68.974045,268.916870 
	C66.838821,258.880585 66.180779,248.502670 63.661625,238.582321 
	C60.488274,226.085739 56.900330,213.562393 51.945778,201.695862 
	C48.548958,193.560211 42.454155,186.564529 37.684696,178.984192 
	C33.938026,173.029434 30.161308,167.004761 33.131706,159.458435 
	C33.554737,158.383713 33.799248,156.971176 34.611649,156.359711 
	C41.028194,151.530212 47.217930,146.253647 54.151360,142.294937 
	C62.111679,137.749908 63.632904,133.990402 59.652679,125.826469 
	C56.928032,120.237877 54.554539,114.563721 49.044571,111.112709 
	C47.247829,109.987366 44.902992,108.151634 43.312614,108.567474 
	C37.613663,110.057625 33.964657,106.407883 29.357601,103.651093 
	C29.009930,101.081955 29.000666,99.057640 28.991404,97.033318 
	C31.578569,94.578644 34.165733,92.123962 37.255234,89.366608 
	C39.170193,89.374107 40.582813,89.684296 42.186081,90.269470 
	C43.565380,91.049850 44.754028,91.555267 46.089851,92.249123 
	C46.449558,92.677536 46.687851,92.888390 46.970245,93.421822 
	C47.647213,94.859016 48.305851,95.944511 48.993546,97.360428 
	C49.663620,98.471275 50.304642,99.251701 50.945660,100.032135 
	C51.022148,100.681694 51.098637,101.331261 51.193619,102.301743 
	C53.588089,106.882454 56.013664,111.115509 58.326073,115.409523 
	C60.637814,119.702301 63.215103,123.909485 64.964058,128.429642 
	C66.350273,132.012314 67.824486,134.934631 72.047325,134.899399 
	C76.157227,134.865143 79.038399,132.682770 80.186684,128.736969 
	C82.372932,121.224518 84.420052,113.669388 86.360085,106.089790 
	C86.652832,104.946022 86.178017,103.541656 85.843048,102.316673 
	C85.363205,100.561836 84.046860,98.801537 84.201324,97.147575 
	C84.908585,89.574539 81.103165,84.070808 75.825912,79.747231 
	C73.292854,77.671921 69.296860,76.360573 66.007660,76.444229 
	C59.322174,76.614265 57.550190,74.953362 56.159668,68.592346 
	C54.959660,63.102867 58.395962,58.464832 63.591297,57.344994 
	C68.321396,56.325443 71.750519,59.413113 73.831505,64.627579 
	C75.871941,69.740433 78.378731,75.057861 82.032814,79.047150 
	C87.944519,85.501152 89.055420,93.228210 89.903755,101.099487 
	C91.085930,112.068291 88.369980,122.524048 84.088005,133.110855 
	C87.196190,134.849777 90.067833,136.809952 93.205376,138.145386 
	C102.609161,142.147949 108.708786,149.077301 112.201180,158.534760 
	C115.913727,168.588348 120.097359,178.491699 123.286018,188.707001 
	C125.538956,195.924591 126.452942,203.557617 128.008026,210.996140 
	C130.002289,220.535370 132.081802,230.057053 134.020447,239.607422 
	C134.367371,241.316467 134.421265,243.151047 134.232742,244.886627 
	C133.976440,247.246246 134.332550,248.892700 137.489853,249.019882 
M51.188522,150.034668 
	C47.127602,156.700455 48.819908,163.276245 55.505627,166.809662 
	C62.336254,170.419647 71.417343,167.672714 74.380013,161.100372 
	C77.177933,154.893509 74.031334,147.801987 67.109604,145.490250 
	C62.155075,143.835510 57.274979,144.025681 52.911442,148.530685 
	C52.538528,148.934265 52.165615,149.337830 51.188522,150.034668 
z"/>
<path fill="#5F4F13" opacity="1.000000" stroke="none" 
	d="
M28.663147,97.023926 
	C29.000666,99.057640 29.009930,101.081955 29.029253,103.539474 
	C28.837502,103.983902 28.635689,103.995117 28.130098,104.020966 
	C27.435608,101.879005 27.044897,99.722404 26.837883,97.281906 
	C27.459351,97.003510 27.897120,97.009018 28.663147,97.023926 
z"/>
<path fill="#919E36" opacity="1.000000" stroke="none" 
	d="
M83.201103,337.634277 
	C83.032455,337.635101 82.707489,337.343262 82.220627,336.762207 
	C82.387421,336.762543 82.716103,337.052094 83.201103,337.634277 
z"/>
<path fill="#623A22" opacity="1.000000" stroke="none" 
	d="
M370.337646,390.989288 
	C371.488159,387.621490 372.913971,384.291595 374.277588,380.936401 
	C376.956726,374.344391 379.601196,367.738312 382.597290,361.035339 
	C388.676086,365.287109 394.229095,369.924103 400.211487,373.917877 
	C406.403931,378.051849 413.027374,381.537872 419.415192,385.385468 
	C419.988953,385.731049 420.217346,386.649994 421.030090,388.014252 
	C415.561249,388.014252 410.751068,387.911469 405.946747,388.035675 
	C395.992523,388.292999 386.040466,388.646271 376.090698,389.040588 
	C375.177277,389.076782 374.286835,389.692078 373.206329,390.329987 
	C372.587250,390.733795 372.147552,390.846100 371.384277,391.058990 
	C371.060699,391.159576 370.584808,391.015747 370.337646,390.989288 
z"/>
<path fill="#5F4F13" opacity="1.000000" stroke="none" 
	d="
M46.951912,93.070122 
	C46.687851,92.888390 46.449558,92.677536 46.293907,92.015396 
	C46.673439,91.335594 46.996098,91.077965 47.318760,90.820328 
	C48.562691,93.618279 49.806622,96.416229 50.998108,99.623154 
	C50.304642,99.251701 49.663620,98.471275 48.988052,97.016541 
	C48.286308,95.251534 47.619110,94.160828 46.951912,93.070122 
z"/>
<path fill="#5F4F13" opacity="1.000000" stroke="none" 
	d="
M41.995434,89.994492 
	C40.582813,89.684296 39.170193,89.374107 37.397129,89.046410 
	C36.462074,88.982231 35.887459,88.935562 34.880627,88.844208 
	C37.421898,85.799400 40.665096,86.831078 43.876453,88.542740 
	C43.214725,89.278259 42.605080,89.636375 41.995434,89.994492 
z"/>
<path fill="#5E4B12" opacity="1.000000" stroke="none" 
	d="
M42.186081,90.269463 
	C42.605080,89.636375 43.214725,89.278259 44.171619,88.803604 
	C45.349106,89.217743 46.179344,89.748421 47.164173,90.549713 
	C46.996098,91.077965 46.673439,91.335594 46.146725,91.826958 
	C44.754028,91.555267 43.565380,91.049850 42.186081,90.269463 
z"/>
<path fill="#CA406B" opacity="1.000000" stroke="none" 
	d="
M144.154114,391.011322 
	C140.273102,382.006561 136.123337,373.232910 133.267715,364.056488 
	C126.579071,342.562836 123.930183,320.569672 126.521210,298.028931 
	C128.358246,282.047546 131.984756,266.585754 138.394348,251.409668 
	C139.832687,250.146439 141.118576,249.230103 142.661072,248.128448 
	C141.902145,250.620361 140.775833,253.261597 139.892715,255.981796 
	C137.600311,263.042999 134.895721,270.024017 133.297134,277.245453 
	C130.174957,291.349426 127.972816,305.637177 128.984924,320.175781 
	C129.940201,333.897797 131.358490,347.572357 136.043533,360.639587 
	C139.051880,369.030151 142.238251,377.358063 145.432144,385.680573 
	C147.669128,391.509674 158.561691,392.749359 163.374771,387.426941 
	C164.746368,387.424011 165.749695,387.735931 166.753021,388.047852 
	C167.163834,389.091370 167.574631,390.134918 168.101288,391.488953 
	C160.226578,393.990540 152.314194,393.674347 144.154114,391.011322 
z"/>
<path fill="#AD9548" opacity="1.000000" stroke="none" 
	d="
M346.753540,391.912292 
	C346.920715,392.523071 346.941650,392.957336 346.976501,393.718811 
	C346.490509,394.323395 345.990570,394.600739 345.198547,394.911346 
	C344.914581,394.271515 344.922760,393.598450 344.916321,392.594421 
	C345.079285,391.990540 345.282471,391.738220 345.691467,391.353363 
	C346.153687,391.328094 346.398895,391.506653 346.753540,391.912292 
z"/>
<path fill="#9C9E3C" opacity="1.000000" stroke="none" 
	d="
M79.044937,122.055855 
	C79.083893,122.103706 78.848907,121.940468 78.848907,121.940468 
	C78.848907,121.940468 79.009430,121.956139 79.056290,122.019058 
	C79.103157,122.081985 79.005981,122.008003 79.044937,122.055855 
z"/>
<path fill="#CA406B" opacity="1.000000" stroke="none" 
	d="
M157.489990,282.892334 
	C157.686981,281.203857 158.175140,279.387146 158.897583,277.311584 
	C158.681610,278.956512 158.231384,280.860291 157.489990,282.892334 
z"/>
<path fill="#CA406B" opacity="1.000000" stroke="none" 
	d="
M152.500519,303.888153 
	C152.600052,303.078400 152.985306,302.140106 153.670578,301.073792 
	C153.575806,301.883698 153.181046,302.821655 152.500519,303.888153 
z"/>
<path fill="#CA406B" opacity="1.000000" stroke="none" 
	d="
M154.238037,297.770142 
	C154.201355,297.362488 154.349228,296.743317 154.736710,296.053558 
	C154.791748,296.508179 154.607162,297.033447 154.238037,297.770142 
z"/>
<path fill="#DA4C64" opacity="1.000000" stroke="none" 
	d="
M166.729004,387.691589 
	C165.749695,387.735931 164.746368,387.424011 163.435272,387.049927 
	C162.309097,384.007019 161.465652,381.032867 160.680588,378.043396 
	C160.108536,375.865051 159.613525,373.666412 159.144958,371.031189 
	C161.705505,376.168793 164.205261,381.752045 166.729004,387.691589 
z"/>
<path fill="#DA4C64" opacity="1.000000" stroke="none" 
	d="
M155.078369,360.979218 
	C154.706787,357.604797 154.335190,354.230347 154.234406,350.418182 
	C154.688675,349.976013 154.872101,349.971619 155.055511,349.967224 
	C155.897934,353.416870 156.740356,356.866486 157.261887,360.682159 
	C156.320114,361.025208 155.699249,361.002197 155.078369,360.979218 
z"/>
<path fill="#DA4C64" opacity="1.000000" stroke="none" 
	d="
M152.173416,346.949799 
	C152.209045,345.416931 152.244690,343.884033 152.417358,341.894104 
	C153.333832,343.049347 154.113251,344.661652 154.522400,346.650696 
	C153.492554,347.001587 152.832993,346.975708 152.173416,346.949799 
z"/>
<path fill="#DA4C64" opacity="1.000000" stroke="none" 
	d="
M158.815643,366.773804 
	C157.858688,366.011963 156.912201,364.886597 156.267670,363.381500 
	C156.988876,362.984497 157.408127,362.967224 157.827377,362.949951 
	C158.160294,364.103394 158.493195,365.256866 158.815643,366.773804 
z"/>
<path fill="#CA406B" opacity="1.000000" stroke="none" 
	d="
M152.160187,347.282196 
	C152.832993,346.975708 153.492554,347.001587 154.481262,347.040100 
	C154.891830,347.780151 154.973251,348.507538 155.055099,349.601074 
	C154.872101,349.971619 154.688675,349.976013 154.229645,349.988586 
	C153.351700,349.202667 152.749344,348.408630 152.160187,347.282196 
z"/>
<path fill="#CA406B" opacity="1.000000" stroke="none" 
	d="
M157.823700,362.633301 
	C157.408127,362.967224 156.988876,362.984497 156.252960,363.013794 
	C155.671387,362.532379 155.406464,362.038940 155.109955,361.262329 
	C155.699249,361.002197 156.320114,361.025208 157.244690,361.065247 
	C157.638931,361.493774 157.729477,361.905182 157.823700,362.633301 
z"/>
<path fill="#D03B7A" opacity="1.000000" stroke="none" 
	d="
M161.349625,217.939423 
	C165.141220,213.440933 169.271561,208.873016 173.690979,204.138992 
	C171.945389,210.429550 166.804581,214.138916 161.349625,217.939423 
z"/>
<path fill="#CB416F" opacity="1.000000" stroke="none" 
	d="
M346.797485,211.236298 
	C348.193878,212.148605 349.435883,213.310852 350.827148,214.758301 
	C349.531921,213.857758 348.087524,212.672012 346.797485,211.236298 
z"/>
<path fill="#F6F1E8" opacity="1.000000" stroke="none" 
	d="
M51.792702,149.741394 
	C52.165615,149.337830 52.538528,148.934265 53.468376,148.316513 
	C55.419624,147.565414 56.786617,146.938248 58.212753,146.506393 
	C66.668640,143.945831 74.836830,149.838089 73.899284,157.837921 
	C73.309952,162.866547 69.784370,165.475128 65.408699,166.550415 
	C62.453098,167.276703 58.620113,168.529785 57.409119,163.949265 
	C61.766678,164.105911 64.582397,162.600571 65.379204,158.469803 
	C65.885895,155.842941 65.237518,154.116669 61.788635,154.859589 
	C60.820316,154.401047 60.074867,154.138489 59.309860,153.458893 
	C57.411560,147.798248 55.305717,152.249756 53.100349,152.506561 
	C52.538776,151.321701 52.165737,150.531540 51.792702,149.741394 
z"/>
<path fill="#D0C1B3" opacity="1.000000" stroke="none" 
	d="
M57.007824,163.933990 
	C58.620113,168.529785 62.453098,167.276703 65.408699,166.550415 
	C69.784370,165.475128 73.309952,162.866547 73.899284,157.837921 
	C74.836830,149.838089 66.668640,143.945831 58.212753,146.506393 
	C56.786617,146.938248 55.419624,147.565414 53.645744,148.100098 
	C57.274979,144.025681 62.155075,143.835510 67.109604,145.490250 
	C74.031334,147.801987 77.177933,154.893509 74.380013,161.100372 
	C71.417343,167.672714 62.336254,170.419647 55.505627,166.809662 
	C48.819908,163.276245 47.127602,156.700455 51.490612,149.888031 
	C52.165737,150.531540 52.538776,151.321701 53.076027,152.836517 
	C50.985535,158.293869 53.214085,161.398178 57.007824,163.933990 
z"/>
<path fill="#5E4B12" opacity="1.000000" stroke="none" 
	d="
M46.970245,93.421822 
	C47.619110,94.160828 48.286308,95.251534 48.959000,96.686127 
	C48.305851,95.944511 47.647213,94.859016 46.970245,93.421822 
z"/>
<path fill="#644E39" opacity="1.000000" stroke="none" 
	d="
M57.409119,163.949265 
	C53.214085,161.398178 50.985535,158.293869 53.264565,153.231216 
	C55.305717,152.249756 57.411560,147.798248 59.186214,153.785828 
	C60.058586,154.705078 61.035046,154.880341 62.011509,155.055588 
	C65.237518,154.116669 65.885895,155.842941 65.379204,158.469803 
	C64.582397,162.600571 61.766678,164.105911 57.409119,163.949265 
z"/>
<path fill="#D0C1B3" opacity="1.000000" stroke="none" 
	d="
M61.788635,154.859589 
	C61.035046,154.880341 60.058586,154.705078 59.205772,154.202881 
	C60.074867,154.138489 60.820316,154.401047 61.788635,154.859589 
z"/>
</svg>