<svg version="1.1" id="Layer_1" xmlns="http://www.w3.org/2000/svg" xmlns:xlink="http://www.w3.org/1999/xlink" x="0px" y="0px"
	 width="100%" viewBox="0 0 450 450" enable-background="new 0 0 450 450" xml:space="preserve">
<path fill="#C3D182" opacity="1.000000" stroke="none" 
	d="
M257.000000,451.000000 
	C171.356979,451.000000 86.213951,451.000000 1.035461,451.000000 
	C1.035461,301.065277 1.035461,151.130554 1.035461,1.097916 
	C150.893036,1.097916 300.786133,1.097916 450.839630,1.097916 
	C450.839630,150.999863 450.839630,300.999908 450.839630,451.000000 
	C386.463867,451.000000 321.981934,451.000000 257.000000,451.000000 
M236.934555,418.778412 
	C236.848068,416.585632 236.761566,414.392822 237.001770,411.285950 
	C237.058853,409.957733 237.165527,408.629547 237.165863,407.301331 
	C237.177719,359.557648 237.179642,311.813934 238.004364,264.065765 
	C253.830078,261.731354 268.817474,257.029358 282.363739,248.293884 
	C322.323395,222.525391 342.130829,186.009491 338.852936,138.399765 
	C335.956482,96.329918 314.998444,64.299538 278.184723,44.497200 
	C236.495071,22.072014 194.745575,24.215044 154.873840,50.616291 
	C133.136856,65.009537 118.117805,84.841278 110.098686,109.450516 
	C98.820122,144.062393 101.762733,177.678177 121.141533,208.864502 
	C140.705429,240.348694 168.996017,259.127777 205.968582,264.920227 
	C205.944229,314.891876 205.950500,364.863617 205.831604,414.835052 
	C205.823013,418.446564 206.790771,420.236816 210.595505,419.757965 
	C212.072250,419.572083 213.558258,419.459930 215.893097,419.566498 
	C218.250946,419.478210 220.608810,419.389923 223.854996,419.585205 
	C228.016678,419.428223 232.178345,419.271210 236.934555,418.778412 
z"/>
<path fill="#839C34" opacity="1.000000" stroke="none" 
	d="
M206.079926,263.984863 
	C168.996017,259.127777 140.705429,240.348694 121.141533,208.864502 
	C101.762733,177.678177 98.820122,144.062393 110.098686,109.450516 
	C118.117805,84.841278 133.136856,65.009537 154.873840,50.616291 
	C194.745575,24.215044 236.495071,22.072014 278.184723,44.497200 
	C314.998444,64.299538 335.956482,96.329918 338.852936,138.399765 
	C342.130829,186.009491 322.323395,222.525391 282.363739,248.293884 
	C268.817474,257.029358 253.830078,261.731354 237.109924,264.072021 
	C226.170303,264.047150 216.125122,264.015991 206.079926,263.984863 
M248.784851,124.425255 
	C247.036957,123.834267 244.486404,122.203384 243.676941,122.828194 
	C239.686356,125.908394 238.037720,123.861290 236.385315,120.449280 
	C236.046722,119.750145 234.800110,119.490768 233.413971,118.764381 
	C232.620758,118.582741 231.827560,118.401093 230.621185,117.791634 
	C228.747849,119.550163 226.874496,121.308693 225.001160,123.067223 
	C224.951965,122.713928 224.902771,122.360641 224.853592,122.007355 
	C221.883667,122.824059 218.913742,123.640770 215.514053,124.794281 
	C215.355148,124.883034 215.196243,124.971779 214.344452,125.269318 
	C213.977310,126.421776 213.378601,127.556404 213.288239,128.730179 
	C213.054962,131.760345 213.046295,134.807770 212.399323,138.208328 
	C211.234085,138.805466 210.068848,139.402603 208.267120,140.189011 
	C205.642761,142.922607 208.050430,144.148148 209.884674,145.509918 
	C213.020508,147.837982 214.928329,150.466385 213.524933,154.757507 
	C213.193069,155.772217 214.740356,157.401474 215.757599,158.783997 
	C215.757599,158.783997 216.029678,158.981720 216.274094,159.649063 
	C219.005615,159.864578 221.737152,160.080093 225.331314,160.363663 
	C225.181931,160.139145 225.663422,160.783066 226.062180,161.474686 
	C229.788330,167.937286 232.833618,168.188477 237.047592,162.299820 
	C238.636765,160.079086 240.083771,158.750275 243.249084,160.122391 
	C244.851456,160.817001 247.865524,160.329239 249.120987,159.166412 
	C250.375778,158.004181 251.200546,154.883072 250.515991,153.409317 
	C248.658997,149.411407 249.151672,147.647369 253.586273,146.198715 
	C257.503754,144.918991 257.711578,142.489944 254.997574,140.001038 
	C254.997574,140.001038 255.007156,139.982147 254.891891,139.298538 
	C254.519318,138.773270 254.257156,137.960526 253.756683,137.768326 
	C249.830872,136.260742 248.051514,134.309509 250.883621,130.042328 
	C251.444077,129.197891 249.621460,126.771797 248.983246,125.019714 
	C248.983246,125.019714 248.921829,125.100906 248.784851,124.425255 
M147.302856,98.038177 
	C146.905594,97.898224 146.508347,97.758278 145.757782,97.030266 
	C144.213730,96.948456 142.038483,96.224640 141.294250,96.956345 
	C140.467056,97.769608 140.893326,99.909363 140.885330,101.472176 
	C140.883026,101.926125 141.185730,102.440697 141.479691,102.827980 
	C144.617310,106.961746 143.117493,109.020798 138.452469,109.733879 
	C137.972137,109.807297 137.418884,109.982719 137.080963,110.302582 
	C135.954407,111.368927 133.991165,112.596718 134.073944,113.623520 
	C134.171448,114.832809 135.895615,116.209023 137.227585,116.949829 
	C139.156509,118.022629 141.366394,118.590240 143.671722,119.454018 
	C143.169083,120.799026 142.811111,121.533653 142.619904,122.309380 
	C141.975113,124.925018 141.389587,127.555267 140.781403,130.179947 
	C143.397186,129.835968 146.151642,129.889893 148.591003,129.039703 
	C151.199661,128.130524 152.697052,128.201202 153.389496,131.132111 
	C153.654648,132.254471 154.012024,133.445602 154.667511,134.362122 
	C155.475601,135.492004 156.638565,136.368042 157.648178,137.353790 
	C158.591049,136.348297 159.533920,135.342804 160.777405,133.878494 
	C160.950409,133.360077 161.123428,132.841675 161.848755,131.840805 
	C163.599121,130.666901 165.349472,129.492996 167.571152,128.743668 
	C167.961456,128.902435 168.351776,129.061203 169.125458,129.833893 
	C170.963684,129.980621 172.801926,130.127335 174.640152,130.274063 
	C174.498260,128.258041 174.973236,125.903519 174.090179,124.294189 
	C172.048462,120.573387 172.444946,118.720352 176.777863,117.461739 
	C178.637741,116.921471 180.016510,114.724846 181.613876,113.280777 
	C180.007126,112.028625 178.570953,110.143867 176.758362,109.655167 
	C172.906372,108.616592 171.863678,107.211258 173.797623,103.373764 
	C174.766602,101.451042 174.288513,98.799049 174.464890,96.476891 
	C172.290833,96.811646 169.890594,96.674324 167.991974,97.583954 
	C164.530960,99.242157 162.969543,98.508781 161.788742,94.869286 
	C161.157852,92.924751 159.195358,91.412239 157.833847,89.704742 
	C156.460861,91.386192 154.382324,92.877716 153.867538,94.790169 
	C152.911636,98.341255 151.105408,99.276802 147.302856,98.038177 
M175.834183,190.752365 
	C175.112061,190.338165 174.429718,189.685715 173.659912,189.557220 
	C171.814621,189.249252 169.928253,189.187546 168.058456,189.026428 
	C168.258209,190.902908 168.209595,192.851440 168.727280,194.635681 
	C169.249725,196.436386 170.333954,198.074097 171.376877,200.200912 
	C169.160095,200.853256 167.431915,201.038544 166.070694,201.844025 
	C164.360550,202.855988 162.950867,204.375763 161.411530,205.676376 
	C162.886353,206.844360 164.245636,208.221069 165.869476,209.119858 
	C167.401718,209.967957 169.212326,210.313156 171.357361,211.032867 
	C170.216843,213.268982 169.069794,214.933899 168.517181,216.777039 
	C168.031525,218.396805 168.211563,220.216171 168.097580,221.947372 
	C169.810257,221.872528 171.602356,222.088623 173.215286,221.648361 
	C175.179626,221.112152 176.993210,220.023682 179.303101,218.979172 
	C180.031250,221.360504 180.314133,223.210846 181.151962,224.761307 
	C181.963928,226.263931 183.346283,227.458359 184.478134,228.788132 
	C185.674103,227.563736 187.154312,226.505753 187.993454,225.072449 
	C189.022522,223.314728 189.515488,221.243118 190.338303,219.045258 
	C193.017151,220.252808 195.065338,221.364700 197.243637,222.080673 
	C198.382294,222.454941 200.471237,222.606247 200.854568,222.021484 
	C201.528061,220.994125 201.615417,219.205673 201.238602,217.948730 
	C200.553299,215.662781 199.348251,213.532639 198.204926,210.992798 
	C200.321274,210.249634 201.993439,209.932922 203.364212,209.112610 
	C205.076782,208.087769 206.541336,206.648514 208.112976,205.388184 
	C206.475403,204.169266 204.932129,202.784622 203.171143,201.782623 
	C201.698563,200.944748 199.971344,200.554428 197.965347,199.823166 
	C199.000000,197.871826 199.947693,196.639938 200.317383,195.253876 
	C200.839996,193.294342 200.935669,191.220917 201.213821,189.196182 
	C199.054199,189.406998 196.839325,189.392731 194.753601,189.904633 
	C193.264740,190.270020 191.949310,191.342056 190.293839,192.241440 
	C189.710266,190.750671 189.462372,189.774536 188.974976,188.937958 
	C187.626801,186.623932 186.178680,184.368134 184.770050,182.089325 
	C183.303970,184.292130 181.806335,186.475052 180.394516,188.712097 
	C180.052216,189.254501 180.152588,190.386612 179.772186,190.534500 
	C178.764587,190.926193 177.605316,190.927734 175.834183,190.752365 
M269.869141,185.609222 
	C264.927765,189.863297 271.778717,193.229782 270.641937,197.665070 
	C269.175842,198.151611 267.341095,198.478195 265.815460,199.347382 
	C264.333527,200.191681 263.168732,201.592590 261.864655,202.749069 
	C263.051453,203.971024 264.169434,205.273056 265.455688,206.379349 
	C266.050110,206.890549 266.951324,207.106628 267.750977,207.306625 
	C270.796448,208.068375 271.358124,209.805679 269.995422,212.496094 
	C269.323364,213.822952 268.637695,215.206589 268.336090,216.643829 
	C267.755737,219.408722 268.881104,220.854279 271.861145,220.263992 
	C272.667542,220.104263 273.519684,219.865585 274.199463,219.427994 
	C278.160492,216.878235 280.947205,217.061600 281.761963,222.429596 
	C281.857544,223.059464 282.250305,223.665909 282.588531,224.233627 
	C284.520752,227.476883 286.645111,227.529617 288.450317,224.283981 
	C289.169067,222.991776 289.599854,221.522766 290.042206,220.097153 
	C290.815002,217.606720 292.224152,216.953690 294.536713,218.275070 
	C295.543365,218.850296 296.596039,219.566696 297.693481,219.707626 
	C299.209991,219.902374 301.134613,220.110291 302.217194,219.355515 
	C302.922424,218.863892 303.023926,216.307404 302.395142,215.301620 
	C299.054962,209.958832 300.780182,207.319611 306.511108,205.988449 
	C307.595490,205.736588 309.072205,203.888077 309.006073,202.864212 
	C308.935547,201.771912 307.421906,200.468231 306.231476,199.821518 
	C304.259186,198.750000 302.041229,198.130707 299.645691,197.213272 
	C300.774841,194.665573 301.919464,192.635773 302.546478,190.457001 
	C302.911774,189.187775 302.960052,187.170853 302.214722,186.421158 
	C301.453461,185.655472 299.444061,185.644821 298.164856,185.988266 
	C295.976593,186.575790 293.931671,187.697220 291.570099,188.703720 
	C290.940399,187.394638 290.429749,186.402390 289.981781,185.382599 
	C289.514465,184.318787 289.308380,183.072861 288.623505,182.189041 
	C287.767883,181.084854 286.538818,179.534119 285.473267,179.535919 
	C284.412903,179.537689 282.999146,181.028915 282.356659,182.203979 
	C279.135162,188.095764 279.209167,188.126068 272.560394,185.826859 
	C271.943024,185.613358 271.256958,185.598404 269.869141,185.609222 
M281.310516,70.066147 
	C281.474365,67.876030 281.638184,65.685913 281.802032,63.495792 
	C279.631958,63.805695 277.217102,63.617016 275.345947,64.535728 
	C272.076324,66.141083 270.374420,66.095673 269.169556,62.139542 
	C268.547394,60.096630 266.355225,58.531864 264.872467,56.751041 
	C263.561523,58.526165 261.736755,60.125542 261.055908,62.116173 
	C259.936157,65.390144 258.591034,66.651596 255.347458,64.626343 
	C254.236679,63.932804 252.951553,63.406197 251.674942,63.112045 
	C248.125015,62.294086 247.051682,64.026474 247.812805,67.259178 
	C248.038055,68.215775 248.442108,69.188713 248.991287,70.000595 
	C251.539963,73.768471 250.211060,75.727371 246.107437,76.534195 
	C245.462219,76.661057 244.703445,76.815712 244.258652,77.234924 
	C243.228729,78.205627 241.623932,79.349915 241.629257,80.416939 
	C241.634674,81.502243 243.096115,82.926483 244.267197,83.581917 
	C246.221313,84.675606 248.451996,85.275131 250.949127,86.228951 
	C249.934433,88.481003 248.842957,90.198036 248.415375,92.066963 
	C248.047974,93.672951 247.882660,95.833595 248.694489,97.017944 
	C249.215088,97.777443 252.034927,97.823219 253.194809,97.132370 
	C258.115601,94.201508 260.689880,95.334236 261.869659,100.938904 
	C262.134735,102.198051 264.052917,103.992317 265.152039,103.952164 
	C266.324127,103.909340 267.747192,102.162277 268.484863,100.838387 
	C269.556549,98.915054 270.112122,96.704155 271.021362,94.256279 
	C273.100708,95.317131 274.493011,96.355827 276.046082,96.733948 
	C277.853546,97.174004 279.801819,97.035690 281.688965,97.148376 
	C281.643646,95.285324 281.861237,93.365952 281.477570,91.575394 
	C281.109558,89.857834 280.117981,88.273880 279.183533,86.134644 
	C281.752106,85.205055 283.999176,84.645485 285.973969,83.580864 
	C287.137360,82.953682 288.578217,81.536568 288.595306,80.454224 
	C288.612396,79.370132 287.157166,78.081100 286.078033,77.218933 
	C285.215118,76.529503 283.979523,76.169464 282.854889,75.969704 
	C279.136627,75.309265 279.042969,73.428215 281.310516,70.066147 
z"/>
<path fill="#603B20" opacity="1.000000" stroke="none" 
	d="
M222.966660,419.301636 
	C220.608810,419.389923 218.250946,419.478210 215.411087,419.139160 
	C213.813965,417.309113 211.957474,416.017639 211.726990,414.482117 
	C211.110825,410.377014 211.027451,406.167297 211.022720,401.998840 
	C210.978928,363.368439 211.011002,324.737946 210.974335,286.107513 
	C210.970581,282.141479 211.456512,277.924103 210.299393,274.271912 
	C208.763351,269.423676 211.171265,269.065674 214.544388,269.022919 
	C220.632812,268.945709 226.722900,269.001068 233.489716,269.001068 
	C233.652084,271.065155 233.979401,273.298981 233.981079,275.533081 
	C234.012344,317.135864 234.032288,358.738708 233.961121,400.341400 
	C233.954330,404.306976 233.305130,408.269806 232.994858,412.237091 
	C232.739944,415.496643 230.891663,416.717621 227.765793,417.085815 
	C226.102173,417.281738 224.562347,418.528931 222.966660,419.301636 
z"/>
<path fill="#60471D" opacity="1.000000" stroke="none" 
	d="
M223.410828,419.443420 
	C224.562347,418.528931 226.102173,417.281738 227.765793,417.085815 
	C230.891663,416.717621 232.739944,415.496643 232.994858,412.237091 
	C233.305130,408.269806 233.954330,404.306976 233.961121,400.341400 
	C234.032288,358.738708 234.012344,317.135864 233.981079,275.533081 
	C233.979401,273.298981 233.652084,271.065155 233.489716,269.001068 
	C226.722900,269.001068 220.632812,268.945709 214.544388,269.022919 
	C211.171265,269.065674 208.763351,269.423676 210.299393,274.271912 
	C211.456512,277.924103 210.970581,282.141479 210.974335,286.107513 
	C211.011002,324.737946 210.978928,363.368439 211.022720,401.998840 
	C211.027451,406.167297 211.110825,410.377014 211.726990,414.482117 
	C211.957474,416.017639 213.813965,417.309113 214.984558,419.013062 
	C213.558258,419.459930 212.072250,419.572083 210.595505,419.757965 
	C206.790771,420.236816 205.823013,418.446564 205.831604,414.835052 
	C205.950500,364.863617 205.944229,314.891876 206.024261,264.452545 
	C216.125122,264.015991 226.170303,264.047150 236.699219,264.074280 
	C237.179642,311.813934 237.177719,359.557648 237.165863,407.301331 
	C237.165527,408.629547 237.058853,409.957733 236.625397,412.033875 
	C236.279358,414.892578 236.309692,417.003387 236.340027,419.114197 
	C232.178345,419.271210 228.016678,419.428223 223.410828,419.443420 
z"/>
<path fill="#839C34" opacity="1.000000" stroke="none" 
	d="
M236.637299,418.946289 
	C236.309692,417.003387 236.279358,414.892578 236.462051,412.490906 
	C236.761566,414.392822 236.848068,416.585632 236.637299,418.946289 
z"/>
<path fill="#F3F5DE" opacity="1.000000" stroke="none" 
	d="
M176.170288,190.918442 
	C177.605316,190.927734 178.764587,190.926193 179.772186,190.534500 
	C180.152588,190.386612 180.052216,189.254501 180.394516,188.712097 
	C181.806335,186.475052 183.303970,184.292130 184.770050,182.089325 
	C186.178680,184.368134 187.626801,186.623932 188.974976,188.937958 
	C189.462372,189.774536 189.710266,190.750671 190.293839,192.241440 
	C191.949310,191.342056 193.264740,190.270020 194.753601,189.904633 
	C196.839325,189.392731 199.054199,189.406998 201.213821,189.196182 
	C200.935669,191.220917 200.839996,193.294342 200.317383,195.253876 
	C199.947693,196.639938 199.000000,197.871826 197.965347,199.823166 
	C199.971344,200.554428 201.698563,200.944748 203.171143,201.782623 
	C204.932129,202.784622 206.475403,204.169266 208.112976,205.388184 
	C206.541336,206.648514 205.076782,208.087769 203.364212,209.112610 
	C201.993439,209.932922 200.321274,210.249634 198.204926,210.992798 
	C199.348251,213.532639 200.553299,215.662781 201.238602,217.948730 
	C201.615417,219.205673 201.528061,220.994125 200.854568,222.021484 
	C200.471237,222.606247 198.382294,222.454941 197.243637,222.080673 
	C195.065338,221.364700 193.017151,220.252808 190.338303,219.045258 
	C189.515488,221.243118 189.022522,223.314728 187.993454,225.072449 
	C187.154312,226.505753 185.674103,227.563736 184.478134,228.788132 
	C183.346283,227.458359 181.963928,226.263931 181.151962,224.761307 
	C180.314133,223.210846 180.031250,221.360504 179.303101,218.979172 
	C176.993210,220.023682 175.179626,221.112152 173.215286,221.648361 
	C171.602356,222.088623 169.810257,221.872528 168.097595,221.947372 
	C168.211563,220.216171 168.031525,218.396805 168.517181,216.777039 
	C169.069794,214.933899 170.216843,213.268982 171.357361,211.032867 
	C169.212326,210.313156 167.401718,209.967957 165.869476,209.119858 
	C164.245636,208.221069 162.886353,206.844360 161.411530,205.676376 
	C162.950867,204.375763 164.360550,202.855988 166.070694,201.844025 
	C167.431915,201.038544 169.160095,200.853256 171.376877,200.200912 
	C170.333954,198.074097 169.249725,196.436386 168.727280,194.635681 
	C168.209595,192.851440 168.258209,190.902908 168.058456,189.026428 
	C169.928253,189.187546 171.814621,189.249252 173.659912,189.557220 
	C174.429718,189.685715 175.112061,190.338165 176.170288,190.918442 
M178.998169,210.001831 
	C178.998169,210.001831 178.997223,210.011322 179.350418,210.645081 
	C183.215195,213.738281 187.278580,213.705612 190.346786,210.556717 
	C193.270721,207.555893 193.487305,202.321396 190.329529,199.299744 
	C187.500504,196.592651 184.121353,195.514786 180.236496,198.965973 
	C179.809845,199.292114 179.383194,199.618256 178.343460,200.388687 
	C176.439774,203.735535 175.694962,207.004578 178.998169,210.001831 
z"/>
<path fill="#F3F6DE" opacity="1.000000" stroke="none" 
	d="
M216.029678,158.981720 
	C216.029678,158.981720 215.757599,158.783997 215.549545,158.381668 
	C216.308624,154.280853 217.275757,150.582382 218.255875,146.834198 
	C215.346619,144.399445 208.993973,146.478058 208.903595,139.999725 
	C210.068848,139.402603 211.234085,138.805466 213.060608,138.081024 
	C215.479813,137.411102 217.237747,136.868469 218.432617,136.499649 
	C217.156219,132.199280 216.096786,128.629898 215.037354,125.060524 
	C215.196243,124.971779 215.355148,124.883034 216.101715,124.762787 
	C219.876770,125.938354 223.064178,127.145401 226.348724,128.389236 
	C227.925659,124.966614 229.480011,121.593033 231.034348,118.219452 
	C231.827560,118.401093 232.620758,118.582741 233.742310,119.268158 
	C235.095901,122.656059 236.121155,125.540192 237.004547,128.025284 
	C241.244339,126.984886 245.083084,126.042892 248.921829,125.100906 
	C248.921829,125.100906 248.983246,125.019714 248.897095,125.427017 
	C247.674225,129.316376 246.537491,132.798401 245.318329,136.532928 
	C248.590958,137.697983 251.799057,138.840073 255.007156,139.982147 
	C255.007156,139.982147 254.997574,140.001038 254.982117,140.377686 
	C251.829041,143.170197 248.691406,145.586075 245.264923,148.224350 
	C246.162170,150.013748 247.405273,152.168503 248.312378,154.456436 
	C248.692398,155.414963 248.787582,157.249359 248.254379,157.633484 
	C247.390869,158.255539 245.755356,158.421509 244.706955,158.047653 
	C242.264374,157.176682 239.977356,155.869492 237.218246,154.542267 
	C236.228302,157.372818 235.491699,159.883194 234.449509,162.259552 
	C234.033508,163.208145 232.828430,164.586441 232.185074,164.484985 
	C231.113632,164.316010 229.785995,163.310349 229.311523,162.305191 
	C228.152817,159.850479 227.420685,157.194412 226.569794,154.770248 
	C222.736298,156.301987 219.382996,157.641861 216.029678,158.981720 
M235.874390,147.631363 
	C236.468674,147.054474 237.102356,146.512543 237.650681,145.894867 
	C240.522552,142.659851 240.245285,138.426971 236.988708,135.424591 
	C233.796600,132.481644 230.008820,132.577255 226.813889,135.476456 
	C223.793655,138.217102 223.146027,141.424744 225.071854,144.859375 
	C227.365616,148.950226 230.964767,149.856857 235.874390,147.631363 
z"/>
<path fill="#FBFBEC" opacity="1.000000" stroke="none" 
	d="
M168.742081,129.219971 
	C168.351776,129.061203 167.961456,128.902435 167.152039,128.270294 
	C162.316742,125.218269 161.639435,125.782181 161.296448,132.323257 
	C161.123428,132.841675 160.950409,133.360077 160.208252,134.032959 
	C158.051483,132.622162 155.865952,131.325974 155.012726,129.430206 
	C153.643311,126.387405 152.793213,124.348900 149.015137,126.826401 
	C147.681107,127.701202 145.404984,127.139343 143.558975,127.233414 
	C143.948792,125.581764 144.041443,123.778198 144.791595,122.310730 
	C146.259888,119.438316 146.003632,117.584709 142.584778,116.810135 
	C141.616165,116.590683 140.569504,116.457047 139.733948,115.978180 
	C138.810226,115.448776 138.087723,114.568260 137.277588,113.840652 
	C138.107895,112.947456 138.847580,111.936455 139.800903,111.203186 
	C140.418518,110.728127 141.333801,110.590622 142.140625,110.419304 
	C146.087311,109.581284 146.666031,107.342636 144.407410,104.368340 
	C142.024658,101.230583 143.249619,99.287193 146.111084,97.618332 
	C146.508347,97.758278 146.905594,97.898224 147.674942,98.517090 
	C149.543839,100.015778 151.040649,101.035545 152.627930,102.116943 
	C154.433655,98.167206 155.857956,95.051804 157.282242,91.936401 
	C157.818146,92.030052 158.354065,92.123703 158.889969,92.217354 
	C159.572723,93.995010 160.612274,95.723045 160.867783,97.560127 
	C161.500458,102.109230 163.483246,102.313004 166.925186,100.089279 
	C168.467590,99.092781 170.387268,98.680244 173.417480,97.506042 
	C172.641830,100.474083 172.581772,102.346039 171.716934,103.706322 
	C169.084274,107.847206 169.931915,110.025711 174.824570,110.941803 
	C175.970352,111.156334 176.871964,112.674980 177.885895,113.593651 
	C176.848206,114.520348 175.922150,116.053566 174.753479,116.268669 
	C169.709274,117.197121 169.302567,119.532753 171.808151,123.518059 
	C173.942657,126.913147 173.347855,129.247391 168.742081,129.219971 
M155.192413,120.782822 
	C159.261032,121.501556 163.265503,121.131950 164.746597,116.773544 
	C165.595627,114.275085 165.526398,110.856064 164.476974,108.462463 
	C162.870544,104.798355 158.795715,103.987465 155.493744,105.439354 
	C153.184372,106.454765 150.989426,109.130699 150.060028,111.567223 
	C148.536530,115.561165 151.113770,118.428810 155.192413,120.782822 
z"/>
<path fill="#DBE4BA" opacity="1.000000" stroke="none" 
	d="
M270.235962,185.550232 
	C271.256958,185.598404 271.943024,185.613358 272.560394,185.826859 
	C279.209167,188.126068 279.135162,188.095764 282.356659,182.203979 
	C282.999146,181.028915 284.412903,179.537689 285.473267,179.535919 
	C286.538818,179.534119 287.767883,181.084854 288.623505,182.189041 
	C289.308380,183.072861 289.514465,184.318787 289.981781,185.382599 
	C290.429749,186.402390 290.940399,187.394638 291.570099,188.703720 
	C293.931671,187.697220 295.976593,186.575790 298.164856,185.988266 
	C299.444061,185.644821 301.453461,185.655472 302.214722,186.421158 
	C302.960052,187.170853 302.911774,189.187775 302.546478,190.457001 
	C301.919464,192.635773 300.774841,194.665573 299.645691,197.213272 
	C302.041229,198.130707 304.259186,198.750000 306.231476,199.821518 
	C307.421906,200.468231 308.935547,201.771912 309.006073,202.864212 
	C309.072205,203.888077 307.595490,205.736588 306.511108,205.988449 
	C300.780182,207.319611 299.054962,209.958832 302.395142,215.301620 
	C303.023926,216.307404 302.922424,218.863892 302.217194,219.355515 
	C301.134613,220.110291 299.209991,219.902374 297.693481,219.707626 
	C296.596039,219.566696 295.543365,218.850296 294.536713,218.275070 
	C292.224152,216.953690 290.815002,217.606720 290.042206,220.097153 
	C289.599854,221.522766 289.169067,222.991776 288.450317,224.283981 
	C286.645111,227.529617 284.520752,227.476883 282.588531,224.233627 
	C282.250305,223.665909 281.857544,223.059464 281.761963,222.429596 
	C280.947205,217.061600 278.160492,216.878235 274.199463,219.427994 
	C273.519684,219.865585 272.667542,220.104263 271.861145,220.263992 
	C268.881104,220.854279 267.755737,219.408722 268.336090,216.643829 
	C268.637695,215.206589 269.323364,213.822952 269.995422,212.496094 
	C271.358124,209.805679 270.796448,208.068375 267.750977,207.306625 
	C266.951324,207.106628 266.050110,206.890549 265.455688,206.379349 
	C264.169434,205.273056 263.051453,203.971024 261.864655,202.749069 
	C263.168732,201.592590 264.333527,200.191681 265.815460,199.347382 
	C267.341095,198.478195 269.175842,198.151611 270.641937,197.665070 
	C271.778717,193.229782 264.927765,189.863297 270.235962,185.550232 
M272.985626,207.354263 
	C272.634644,209.355789 272.218323,211.348785 271.955566,213.361832 
	C271.780121,214.705933 271.823273,216.078583 271.768616,217.438446 
	C273.010040,217.218246 274.498291,217.361221 275.449921,216.714554 
	C279.427368,214.011658 281.765472,214.737045 283.046753,219.500961 
	C283.366760,220.690765 284.908661,221.551941 285.888977,222.564178 
	C286.756317,221.482773 288.129303,220.515060 288.402466,219.300064 
	C289.524048,214.311386 292.229248,214.858185 295.776672,216.624069 
	C297.077850,217.271805 298.773041,217.127899 300.288513,217.345108 
	C299.884155,215.862671 299.844849,214.119995 299.007874,212.945984 
	C296.366455,209.240845 296.806213,207.004166 301.425446,205.719498 
	C302.631714,205.384018 303.525208,203.923889 304.562347,202.980286 
	C303.343414,202.013351 302.235596,200.435181 300.885498,200.189789 
	C296.127045,199.324799 296.686066,197.056931 298.574951,193.842712 
	C299.658844,191.998352 300.239990,189.858551 301.047455,187.851746 
	C300.549438,187.562134 300.051453,187.272537 299.553436,186.982925 
	C297.912598,187.983932 296.248627,188.949188 294.635956,189.993652 
	C291.614349,191.950623 289.544708,192.043106 288.678528,187.752518 
	C288.276764,185.762299 286.903442,183.968185 285.970551,182.085175 
	C285.482941,182.189285 284.995300,182.293396 284.507690,182.397507 
	C283.687378,184.343414 283.215240,186.575455 281.930054,188.139374 
	C281.000671,189.270325 279.040802,189.801315 277.450439,190.073288 
	C275.833344,190.349854 274.105927,189.981277 272.426819,189.895203 
	C272.601685,191.632599 272.393127,193.529465 273.034943,195.072632 
	C274.201447,197.877228 273.136902,198.928314 270.636261,199.863251 
	C268.779419,200.557465 267.166290,201.903564 265.444611,202.959305 
	C267.303955,204.085220 269.156494,205.222595 271.027740,206.328384 
	C271.453186,206.579788 271.943298,206.721802 272.985626,207.354263 
z"/>
<path fill="#DBE4B9" opacity="1.000000" stroke="none" 
	d="
M281.120972,70.412552 
	C279.042969,73.428215 279.136627,75.309265 282.854889,75.969704 
	C283.979523,76.169464 285.215118,76.529503 286.078033,77.218933 
	C287.157166,78.081100 288.612396,79.370132 288.595306,80.454224 
	C288.578217,81.536568 287.137360,82.953682 285.973969,83.580864 
	C283.999176,84.645485 281.752106,85.205055 279.183533,86.134644 
	C280.117981,88.273880 281.109558,89.857834 281.477570,91.575394 
	C281.861237,93.365952 281.643646,95.285324 281.688965,97.148376 
	C279.801819,97.035690 277.853546,97.174004 276.046082,96.733948 
	C274.493011,96.355827 273.100708,95.317131 271.021362,94.256279 
	C270.112122,96.704155 269.556549,98.915054 268.484863,100.838387 
	C267.747192,102.162277 266.324127,103.909340 265.152039,103.952164 
	C264.052917,103.992317 262.134735,102.198051 261.869659,100.938904 
	C260.689880,95.334236 258.115601,94.201508 253.194809,97.132370 
	C252.034927,97.823219 249.215088,97.777443 248.694489,97.017944 
	C247.882660,95.833595 248.047974,93.672951 248.415375,92.066963 
	C248.842957,90.198036 249.934433,88.481003 250.949127,86.228951 
	C248.451996,85.275131 246.221313,84.675606 244.267197,83.581917 
	C243.096115,82.926483 241.634674,81.502243 241.629257,80.416939 
	C241.623932,79.349915 243.228729,78.205627 244.258652,77.234924 
	C244.703445,76.815712 245.462219,76.661057 246.107437,76.534195 
	C250.211060,75.727371 251.539963,73.768471 248.991287,70.000595 
	C248.442108,69.188713 248.038055,68.215775 247.812805,67.259178 
	C247.051682,64.026474 248.125015,62.294086 251.674942,63.112045 
	C252.951553,63.406197 254.236679,63.932804 255.347458,64.626343 
	C258.591034,66.651596 259.936157,65.390144 261.055908,62.116173 
	C261.736755,60.125542 263.561523,58.526165 264.872467,56.751049 
	C266.355225,58.531864 268.547394,60.096630 269.169556,62.139542 
	C270.374420,66.095673 272.076324,66.141083 275.345947,64.535728 
	C277.217102,63.617016 279.631958,63.805695 281.802032,63.495792 
	C281.638184,65.685913 281.474365,67.876030 281.120972,70.412552 
M279.679718,91.786728 
	C275.828186,85.587318 275.992310,85.125648 281.579712,83.286217 
	C283.065308,82.797142 284.266327,81.443794 285.598022,80.487259 
	C284.235260,79.437737 283.009094,77.815453 281.482819,77.451340 
	C277.654907,76.538155 276.267151,75.066322 278.393707,71.227966 
	C279.183807,69.801842 279.071014,67.875481 279.369965,66.177246 
	C277.571472,66.434250 275.664734,66.399055 273.999573,67.015968 
	C271.430298,67.967842 269.345825,68.884125 268.144623,65.195229 
	C267.561493,63.404377 266.117279,61.893902 265.062897,60.256493 
	C264.005585,61.986851 262.573944,63.597397 261.973389,65.473938 
	C260.909515,68.798103 259.294189,69.267830 256.446228,67.543045 
	C254.740799,66.510185 252.830658,65.815331 251.012527,64.968552 
	C250.627548,65.308083 250.242569,65.647614 249.857590,65.987144 
	C250.496780,67.890694 250.918869,69.905319 251.823334,71.673141 
	C253.385574,74.726570 253.166412,76.553688 249.382629,77.410675 
	C247.518494,77.832878 245.858200,79.155029 242.876709,80.711525 
	C245.582733,82.021416 246.806549,82.763138 248.127838,83.227608 
	C253.886230,85.251892 253.839249,85.195038 251.236176,90.602783 
	C250.718338,91.678566 250.824982,93.054947 250.643661,94.292717 
	C252.180817,94.261566 254.070618,94.795776 255.191177,94.096779 
	C259.068848,91.677933 261.547546,91.332123 262.283661,96.895477 
	C262.457611,98.209831 264.083923,99.332008 265.042114,100.542587 
	C265.988068,99.311584 267.571411,98.173912 267.767731,96.833145 
	C268.545441,91.521629 270.915314,91.309990 274.874756,93.922150 
	C276.791443,95.186646 278.998779,95.909958 279.679718,91.786728 
z"/>
<path fill="#D3DDAD" opacity="1.000000" stroke="none" 
	d="
M168.933777,129.526932 
	C173.347855,129.247391 173.942657,126.913147 171.808151,123.518059 
	C169.302567,119.532753 169.709274,117.197121 174.753479,116.268669 
	C175.922150,116.053566 176.848206,114.520348 177.885895,113.593651 
	C176.871964,112.674980 175.970352,111.156334 174.824570,110.941803 
	C169.931915,110.025711 169.084274,107.847206 171.716934,103.706322 
	C172.581772,102.346039 172.641830,100.474083 173.417480,97.506042 
	C170.387268,98.680244 168.467590,99.092781 166.925186,100.089279 
	C163.483246,102.313004 161.500458,102.109230 160.867783,97.560127 
	C160.612274,95.723045 159.572723,93.995010 158.889969,92.217354 
	C158.354065,92.123703 157.818146,92.030052 157.282242,91.936401 
	C155.857956,95.051804 154.433655,98.167206 152.627930,102.116943 
	C151.040649,101.035545 149.543839,100.015778 147.945831,98.681030 
	C151.105408,99.276802 152.911636,98.341255 153.867538,94.790169 
	C154.382324,92.877716 156.460861,91.386192 157.833847,89.704742 
	C159.195358,91.412239 161.157852,92.924751 161.788742,94.869286 
	C162.969543,98.508781 164.530960,99.242157 167.991974,97.583954 
	C169.890594,96.674324 172.290833,96.811646 174.464890,96.476883 
	C174.288513,98.799049 174.766602,101.451042 173.797623,103.373764 
	C171.863678,107.211258 172.906372,108.616592 176.758362,109.655167 
	C178.570953,110.143867 180.007126,112.028625 181.613876,113.280777 
	C180.016510,114.724846 178.637741,116.921471 176.777863,117.461739 
	C172.444946,118.720352 172.048462,120.573387 174.090179,124.294189 
	C174.973236,125.903519 174.498260,128.258041 174.640152,130.274063 
	C172.801926,130.127335 170.963684,129.980621 168.933777,129.526932 
z"/>
<path fill="#D9E4B5" opacity="1.000000" stroke="none" 
	d="
M145.934433,97.324295 
	C143.249619,99.287193 142.024658,101.230583 144.407410,104.368340 
	C146.666031,107.342636 146.087311,109.581284 142.140625,110.419304 
	C141.333801,110.590622 140.418518,110.728127 139.800903,111.203186 
	C138.847580,111.936455 138.107895,112.947456 137.277588,113.840652 
	C138.087723,114.568260 138.810226,115.448776 139.733948,115.978180 
	C140.569504,116.457047 141.616165,116.590683 142.584778,116.810135 
	C146.003632,117.584709 146.259888,119.438316 144.791595,122.310730 
	C144.041443,123.778198 143.948792,125.581764 143.558975,127.233414 
	C145.404984,127.139343 147.681107,127.701202 149.015137,126.826401 
	C152.793213,124.348900 153.643311,126.387405 155.012726,129.430206 
	C155.865952,131.325974 158.051483,132.622162 160.057953,134.262360 
	C159.533920,135.342804 158.591049,136.348297 157.648178,137.353790 
	C156.638565,136.368042 155.475601,135.492004 154.667511,134.362122 
	C154.012024,133.445602 153.654648,132.254471 153.389496,131.132111 
	C152.697052,128.201202 151.199661,128.130524 148.591003,129.039703 
	C146.151642,129.889893 143.397186,129.835968 140.781403,130.179932 
	C141.389587,127.555267 141.975113,124.925018 142.619904,122.309380 
	C142.811111,121.533653 143.169083,120.799026 143.671722,119.454018 
	C141.366394,118.590240 139.156509,118.022629 137.227585,116.949829 
	C135.895615,116.209023 134.171448,114.832809 134.073944,113.623520 
	C133.991165,112.596718 135.954407,111.368927 137.080963,110.302582 
	C137.418884,109.982719 137.972137,109.807297 138.452469,109.733879 
	C143.117493,109.020798 144.617310,106.961746 141.479691,102.827980 
	C141.185730,102.440697 140.883026,101.926125 140.885330,101.472176 
	C140.893326,99.909363 140.467056,97.769608 141.294250,96.956345 
	C142.038483,96.224640 144.213730,96.948456 145.934433,97.324295 
z"/>
<path fill="#95A65C" opacity="1.000000" stroke="none" 
	d="
M216.151886,159.315399 
	C219.382996,157.641861 222.736298,156.301987 226.569794,154.770248 
	C227.420685,157.194412 228.152817,159.850479 229.311523,162.305191 
	C229.785995,163.310349 231.113632,164.316010 232.185074,164.484985 
	C232.828430,164.586441 234.033508,163.208145 234.449509,162.259552 
	C235.491699,159.883194 236.228302,157.372818 237.218246,154.542267 
	C239.977356,155.869492 242.264374,157.176682 244.706955,158.047653 
	C245.755356,158.421509 247.390869,158.255539 248.254379,157.633484 
	C248.787582,157.249359 248.692398,155.414963 248.312378,154.456436 
	C247.405273,152.168503 246.162170,150.013748 245.264923,148.224350 
	C248.691406,145.586075 251.829041,143.170197 254.991882,140.374069 
	C257.711578,142.489944 257.503754,144.918991 253.586273,146.198715 
	C249.151672,147.647369 248.658997,149.411407 250.515991,153.409317 
	C251.200546,154.883072 250.375778,158.004181 249.120987,159.166412 
	C247.865524,160.329239 244.851456,160.817001 243.249084,160.122391 
	C240.083771,158.750275 238.636765,160.079086 237.047592,162.299820 
	C232.833618,168.188477 229.788330,167.937286 226.062180,161.474686 
	C225.663422,160.783066 225.181931,160.139145 225.331314,160.363663 
	C221.737152,160.080093 219.005615,159.864578 216.151886,159.315399 
z"/>
<path fill="#95A65C" opacity="1.000000" stroke="none" 
	d="
M208.585358,140.094360 
	C208.993973,146.478058 215.346619,144.399445 218.255875,146.834198 
	C217.275757,150.582382 216.308624,154.280853 215.382355,158.363678 
	C214.740356,157.401474 213.193069,155.772217 213.524933,154.757507 
	C214.928329,150.466385 213.020508,147.837982 209.884674,145.509918 
	C208.050430,144.148148 205.642761,142.922607 208.585358,140.094360 
z"/>
<path fill="#95A65C" opacity="1.000000" stroke="none" 
	d="
M230.827759,118.005539 
	C229.480011,121.593033 227.925659,124.966614 226.348724,128.389236 
	C223.064178,127.145401 219.876770,125.938354 216.316589,124.594391 
	C218.913742,123.640770 221.883667,122.824059 224.853592,122.007355 
	C224.902771,122.360641 224.951965,122.713928 225.001160,123.067223 
	C226.874496,121.308693 228.747849,119.550163 230.827759,118.005539 
z"/>
<path fill="#95A65C" opacity="1.000000" stroke="none" 
	d="
M254.949524,139.640350 
	C251.799057,138.840073 248.590958,137.697983 245.318329,136.532928 
	C246.537491,132.798401 247.674225,129.316376 248.854401,125.454712 
	C249.621460,126.771797 251.444077,129.197891 250.883621,130.042328 
	C248.051514,134.309509 249.830872,136.260742 253.756683,137.768326 
	C254.257156,137.960526 254.519318,138.773270 254.949524,139.640350 
z"/>
<path fill="#95A65C" opacity="1.000000" stroke="none" 
	d="
M248.853333,124.763077 
	C245.083084,126.042892 241.244339,126.984886 237.004547,128.025284 
	C236.121155,125.540192 235.095901,122.656059 234.021362,119.400299 
	C234.800110,119.490768 236.046722,119.750145 236.385315,120.449280 
	C238.037720,123.861290 239.686356,125.908394 243.676941,122.828194 
	C244.486404,122.203384 247.036957,123.834267 248.853333,124.763077 
z"/>
<path fill="#95A65C" opacity="1.000000" stroke="none" 
	d="
M214.690903,125.164917 
	C216.096786,128.629898 217.156219,132.199280 218.432617,136.499649 
	C217.237747,136.868469 215.479813,137.411102 213.334900,137.901031 
	C213.046295,134.807770 213.054962,131.760345 213.288239,128.730179 
	C213.378601,127.556404 213.977310,126.421776 214.690903,125.164917 
z"/>
<path fill="#D3DDAD" opacity="1.000000" stroke="none" 
	d="
M161.572601,132.082031 
	C161.639435,125.782181 162.316742,125.218269 166.916382,128.057999 
	C165.349472,129.492996 163.599121,130.666901 161.572601,132.082031 
z"/>
<path fill="#E2D287" opacity="1.000000" stroke="none" 
	d="
M178.956543,199.944397 
	C179.383194,199.618256 179.809845,199.292114 180.948151,198.936142 
	C182.317673,198.929169 182.980225,199.014191 183.632614,198.964890 
	C188.120575,198.625687 190.004089,201.007690 189.937210,205.176392 
	C189.868240,209.476440 186.887924,210.105087 183.440582,210.019913 
	C181.960297,209.983337 180.478394,210.012192 178.997223,210.011322 
	C178.997223,210.011322 178.998169,210.001831 178.997665,209.547119 
	C178.983627,206.043060 178.970078,202.993744 178.956543,199.944397 
z"/>
<path fill="#E1D8A4" opacity="1.000000" stroke="none" 
	d="
M179.173828,210.328201 
	C180.478394,210.012192 181.960297,209.983337 183.440582,210.019913 
	C186.887924,210.105087 189.868240,209.476440 189.937210,205.176392 
	C190.004089,201.007690 188.120575,198.625687 183.632614,198.964890 
	C182.980225,199.014191 182.317673,198.929169 181.209366,198.858582 
	C184.121353,195.514786 187.500504,196.592651 190.329529,199.299744 
	C193.487305,202.321396 193.270721,207.555893 190.346786,210.556717 
	C187.278580,213.705612 183.215195,213.738281 179.173828,210.328201 
z"/>
<path fill="#E1D8A4" opacity="1.000000" stroke="none" 
	d="
M178.649994,200.166550 
	C178.970078,202.993744 178.983627,206.043060 178.993011,209.547455 
	C175.694962,207.004578 176.439774,203.735535 178.649994,200.166550 
z"/>
<path fill="#E1D595" opacity="1.000000" stroke="none" 
	d="
M235.570114,147.862762 
	C230.964767,149.856857 227.365616,148.950226 225.071854,144.859375 
	C223.146027,141.424744 223.793655,138.217102 226.813889,135.476456 
	C230.008820,132.577255 233.796600,132.481644 236.988708,135.424591 
	C240.245285,138.426971 240.522552,142.659851 237.650681,145.894867 
	C237.102356,146.512543 236.468674,147.054474 235.570114,147.862762 
z"/>
<path fill="#E1D696" opacity="1.000000" stroke="none" 
	d="
M154.822632,120.646439 
	C151.113770,118.428810 148.536530,115.561165 150.060028,111.567223 
	C150.989426,109.130699 153.184372,106.454765 155.493744,105.439354 
	C158.795715,103.987465 162.870544,104.798355 164.476974,108.462463 
	C165.526398,110.856064 165.595627,114.275085 164.746597,116.773544 
	C163.265503,121.131950 159.261032,121.501556 154.822632,120.646439 
z"/>
<path fill="#FCFDEE" opacity="1.000000" stroke="none" 
	d="
M272.694641,207.134216 
	C271.943298,206.721802 271.453186,206.579788 271.027740,206.328384 
	C269.156494,205.222595 267.303955,204.085220 265.444611,202.959305 
	C267.166290,201.903564 268.779419,200.557465 270.636261,199.863251 
	C273.136902,198.928314 274.201447,197.877228 273.034943,195.072632 
	C272.393127,193.529465 272.601685,191.632599 272.426819,189.895203 
	C274.105927,189.981277 275.833344,190.349854 277.450439,190.073288 
	C279.040802,189.801315 281.000671,189.270325 281.930054,188.139374 
	C283.215240,186.575455 283.687378,184.343414 284.507690,182.397507 
	C284.995300,182.293396 285.482941,182.189285 285.970551,182.085175 
	C286.903442,183.968185 288.276764,185.762299 288.678528,187.752518 
	C289.544708,192.043106 291.614349,191.950623 294.635956,189.993652 
	C296.248627,188.949188 297.912598,187.983932 299.553436,186.982925 
	C300.051453,187.272537 300.549438,187.562134 301.047455,187.851746 
	C300.239990,189.858551 299.658844,191.998352 298.574951,193.842712 
	C296.686066,197.056931 296.127045,199.324799 300.885498,200.189789 
	C302.235596,200.435181 303.343414,202.013351 304.562347,202.980286 
	C303.525208,203.923889 302.631714,205.384018 301.425446,205.719498 
	C296.806213,207.004166 296.366455,209.240845 299.007874,212.945984 
	C299.844849,214.119995 299.884155,215.862671 300.288513,217.345123 
	C298.773041,217.127899 297.077850,217.271805 295.776672,216.624069 
	C292.229248,214.858185 289.524048,214.311386 288.402466,219.300064 
	C288.129303,220.515060 286.756317,221.482773 285.888977,222.564178 
	C284.908661,221.551941 283.366760,220.690765 283.046753,219.500961 
	C281.765472,214.737045 279.427368,214.011658 275.449921,216.714554 
	C274.498291,217.361221 273.010040,217.218246 271.768616,217.438446 
	C271.823273,216.078583 271.780121,214.705933 271.955566,213.361832 
	C272.218323,211.348785 272.634644,209.355789 272.694641,207.134216 
M287.778961,194.182983 
	C283.942261,192.342575 280.872375,192.791061 278.944275,197.480728 
	C278.944275,197.480728 278.798859,197.870071 278.253906,198.124527 
	C277.919495,198.809158 277.585083,199.493790 277.322449,200.901047 
	C277.537994,202.601562 277.753540,204.302078 277.687408,206.409531 
	C278.171997,206.885651 278.656586,207.361771 279.652618,208.048828 
	C280.080872,208.391937 280.509125,208.735046 281.061859,209.570145 
	C281.703522,209.774246 282.345184,209.978348 283.823761,210.157959 
	C285.219208,210.148010 286.614624,210.138077 288.420471,210.388565 
	C288.967834,209.951630 289.515198,209.514679 290.216064,208.553604 
	C290.271179,208.194672 290.326294,207.835724 291.107819,207.213455 
	C295.077698,202.528580 293.839203,197.349884 287.778961,194.182983 
z"/>
<path fill="#FBFCEC" opacity="1.000000" stroke="none" 
	d="
M279.737579,92.151085 
	C278.998779,95.909958 276.791443,95.186646 274.874756,93.922150 
	C270.915314,91.309990 268.545441,91.521629 267.767731,96.833145 
	C267.571411,98.173912 265.988068,99.311584 265.042114,100.542587 
	C264.083923,99.332008 262.457611,98.209831 262.283661,96.895477 
	C261.547546,91.332123 259.068848,91.677933 255.191177,94.096779 
	C254.070618,94.795776 252.180817,94.261566 250.643661,94.292717 
	C250.824982,93.054947 250.718338,91.678566 251.236176,90.602783 
	C253.839249,85.195038 253.886230,85.251892 248.127838,83.227608 
	C246.806549,82.763138 245.582733,82.021416 242.876709,80.711525 
	C245.858200,79.155029 247.518494,77.832878 249.382629,77.410675 
	C253.166412,76.553688 253.385574,74.726570 251.823334,71.673141 
	C250.918869,69.905319 250.496780,67.890694 249.857590,65.987144 
	C250.242569,65.647614 250.627548,65.308083 251.012527,64.968552 
	C252.830658,65.815331 254.740799,66.510185 256.446228,67.543045 
	C259.294189,69.267830 260.909515,68.798103 261.973389,65.473938 
	C262.573944,63.597397 264.005585,61.986851 265.062897,60.256493 
	C266.117279,61.893902 267.561493,63.404377 268.144623,65.195229 
	C269.345825,68.884125 271.430298,67.967842 273.999573,67.015968 
	C275.664734,66.399055 277.571472,66.434250 279.369934,66.177246 
	C279.071014,67.875481 279.183807,69.801842 278.393707,71.227966 
	C276.267151,75.066322 277.654907,76.538155 281.482819,77.451340 
	C283.009094,77.815453 284.235260,79.437737 285.598022,80.487259 
	C284.266327,81.443794 283.065308,82.797142 281.579712,83.286217 
	C275.992310,85.125648 275.828186,85.587318 279.737579,92.151085 
M257.063843,80.330307 
	C258.506256,86.399628 261.180969,88.627106 266.112732,87.866165 
	C270.526459,87.185173 273.206726,84.015327 273.065582,79.643372 
	C272.924500,75.272728 269.940521,72.216255 265.561951,71.957474 
	C260.656921,71.667572 258.022675,74.010048 257.063843,80.330307 
z"/>
<path fill="#DFD39F" opacity="1.000000" stroke="none" 
	d="
M290.381409,207.476791 
	C290.326294,207.835724 290.271179,208.194672 289.841156,208.850525 
	C288.980865,209.474350 288.495453,209.801254 288.010071,210.128143 
	C286.614624,210.138077 285.219208,210.148010 283.212006,209.935272 
	C282.045959,209.501099 281.491638,209.289627 280.937347,209.078156 
	C280.509125,208.735046 280.080872,208.391937 279.317627,207.677368 
	C278.644775,206.871475 278.306915,206.437042 277.969086,206.002594 
	C277.753540,204.302078 277.537994,202.601562 277.547546,200.400635 
	C278.114716,199.223511 278.456787,198.546799 278.798859,197.870071 
	C278.798859,197.870071 278.944275,197.480728 279.330597,197.265579 
	C280.133148,197.016785 280.549377,196.983139 280.991150,196.979248 
	C281.016693,197.009003 281.068146,197.068237 281.049561,197.507721 
	C281.020813,199.434326 280.946899,200.924240 281.012146,202.408035 
	C281.233978,207.452698 282.465759,208.361710 287.543823,207.348907 
	C288.351379,207.187866 289.175171,207.108154 290.089020,207.112274 
	C290.186584,207.233704 290.381409,207.476791 290.381409,207.476791 
z"/>
<path fill="#DFD39F" opacity="1.000000" stroke="none" 
	d="
M288.133209,194.775177 
	C293.839203,197.349884 295.077698,202.528580 290.744629,207.345123 
	C290.381409,207.476791 290.186584,207.233704 290.166077,206.734406 
	C291.965973,198.677734 290.164734,196.858749 281.068146,197.068237 
	C281.068146,197.068237 281.016693,197.009003 281.216064,196.680481 
	C283.654694,195.826355 285.893951,195.300781 288.133209,194.775177 
z"/>
<path fill="#F0EAC7" opacity="1.000000" stroke="none" 
	d="
M287.956085,194.479095 
	C285.893951,195.300781 283.654694,195.826355 281.190521,196.650726 
	C280.549377,196.983139 280.133148,197.016785 279.405182,197.071625 
	C280.872375,192.791061 283.942261,192.342575 287.956085,194.479095 
z"/>
<path fill="#F0EAC7" opacity="1.000000" stroke="none" 
	d="
M278.526367,197.997299 
	C278.456787,198.546799 278.114716,199.223511 277.511658,200.039337 
	C277.585083,199.493790 277.919495,198.809158 278.526367,197.997299 
z"/>
<path fill="#F0EAC7" opacity="1.000000" stroke="none" 
	d="
M277.828247,206.206055 
	C278.306915,206.437042 278.644775,206.871475 279.061890,207.571899 
	C278.656586,207.361771 278.171997,206.885651 277.828247,206.206055 
z"/>
<path fill="#F0EAC7" opacity="1.000000" stroke="none" 
	d="
M280.999603,209.324158 
	C281.491638,209.289627 282.045959,209.501099 282.793549,209.947510 
	C282.345184,209.978348 281.703522,209.774246 280.999603,209.324158 
z"/>
<path fill="#F0EAC7" opacity="1.000000" stroke="none" 
	d="
M288.215271,210.258362 
	C288.495453,209.801254 288.980865,209.474350 289.764404,209.112595 
	C289.515198,209.514679 288.967834,209.951630 288.215271,210.258362 
z"/>
<path fill="#E2D497" opacity="1.000000" stroke="none" 
	d="
M257.052063,79.932816 
	C258.022675,74.010048 260.656921,71.667572 265.561951,71.957474 
	C269.940521,72.216255 272.924500,75.272728 273.065582,79.643372 
	C273.206726,84.015327 270.526459,87.185173 266.112732,87.866165 
	C261.180969,88.627106 258.506256,86.399628 257.052063,79.932816 
z"/>
<path fill="#E3D189" opacity="1.000000" stroke="none" 
	d="
M281.049561,197.507721 
	C290.164734,196.858749 291.965973,198.677734 290.068542,206.612976 
	C289.175171,207.108154 288.351379,207.187866 287.543823,207.348907 
	C282.465759,208.361710 281.233978,207.452698 281.012146,202.408035 
	C280.946899,200.924240 281.020813,199.434326 281.049561,197.507721 
z"/>
</svg>